<?xml version="1.0" encoding="utf-8"?>
<!-- Generator: Adobe Illustrator 19.2.1, SVG Export Plug-In . SVG Version: 6.00 Build 0)  -->
<svg version="1.1" id="Layer_1" xmlns="http://www.w3.org/2000/svg" xmlns:xlink="http://www.w3.org/1999/xlink" x="0px" y="0px"
	 width="329px" height="68px" viewBox="0 0 329 68" style="enable-background:new 0 0 329 68;" xml:space="preserve">
<style type="text/css">
	.st0{fill:#e0a070;}
	.st1{fill:#e0a070;}
	.st2{fill:#e0a070;}
	.st3{fill:#e0a070;}
	.st4{fill:#e0a070;}
</style>
<rect x="145.1" y="25.6" class="st0" width="6.5" height="27.4"/>
<polygon class="st0" points="138.8,14.8 138.8,53 132.4,53 132.4,23.1 120.6,53 115.8,53 103.8,23.1 103.8,53 97.6,53 97.6,14.8 
	107.1,14.8 118.4,43.2 129.8,14.8 "/>
<circle class="st0" cx="148.3" cy="17.7" r="3.8"/>
<path class="st0" d="M177.3,26.4v6.3l0,0c-1.8-1.4-4.1-2.3-6.4-2.3c-4.9,0-8.5,3.6-8.4,9c0.1,5.8,3.4,9,8.4,9c2.3,0,4.6-0.9,6.4-2.3
	l0,5.9c-2.2,1.1-4.6,1.8-6.8,1.8c-7.9,0-14.5-3.9-14.5-14.4c0-8.7,6.5-14.4,14.5-14.4C172.9,24.9,175.3,25.5,177.3,26.4L177.3,26.4z
	"/>
<path class="st0" d="M188.7,38.2c0-5,3.4-7.3,5.7-7.3s3.7,1.1,3.7,1.1v-6.4c0,0-0.4-0.5-3.1-0.5s-5.3,2.4-6.3,5.4c0,0,0-4.9,0-4.9
	h-6.5V53h6.5C188.7,53,188.7,38.2,188.7,38.2z"/>
<path class="st0" d="M219.9,39.3c0,5-1.6,9-7.3,9c-5.1,0-7.3-4-7.3-9s2.3-9,7.3-9C217.9,30.3,219.9,34.3,219.9,39.3z M212.5,24.9
	c-8.1,0-13.9,5.4-13.9,14.4c0,7.9,4.4,14.4,13.9,14.4c9.2,0,14-6.4,14-14.4C226.5,29.8,221,24.9,212.5,24.9z"/>
<path class="st0" d="M229.7,52.1c0,0,3.9,1.5,7.6,1.5c2.7,0,10.5-1.5,10.5-8.4c0-6.6-5.9-7.7-8.3-8.9c-2.5-1.2-3.2-1.7-3.2-3.7
	s2.6-2.6,3.2-2.6s4-0.1,6.8,2v-6c0,0-3.5-1.2-6.1-1.2s-10.5,1.3-10.5,8.2s5.8,7.9,8.3,9.1s3.3,1.9,3.3,3.9c0,2-2.7,2.4-3.3,2.4
	s-4.6,0.2-8.3-2.7V52.1z"/>
<path class="st0" d="M272,39.3c0,5-1.6,9-7.3,9c-5.1,0-7.3-4-7.3-9s2.3-9,7.3-9C270,30.3,272,34.3,272,39.3z M264.7,24.9
	c-8.1,0-13.9,5.4-13.9,14.4c0,7.9,4.4,14.4,13.9,14.4c9.2,0,14-6.4,14-14.4C278.7,29.8,273.1,24.9,264.7,24.9z"/>
<path class="st0" d="M283.8,30.9h-4.5v-5.3l4.5,0v-3.7c0-8.6,7.3-9.9,10.1-9.9s3.6,0.5,3.6,0.5v5.5c0,0-1.7-0.9-2.8-0.9
	s-4.4,0.7-4.4,4.7v3.7l9.8,0v-6.1l6.5-2.1l0,8.2h6.5v5.3h-6.5c0,0,0,14.5,0,14.5c0,1.2,1.2,2.9,3.4,2.9c2.2,0,3.1-1.1,3.1-1.1v5.4
	c0,0-2.3,1.1-4.4,1.1s-8.5,0-8.5-8.3V30.9l-9.8,0c0,0,0,22.1,0,22.1h-6.5C283.8,53,283.8,30.9,283.8,30.9z"/>
<rect x="14.9" y="2" class="st1" width="30.3" height="30.3"/>
<rect x="48.5" y="2" class="st2" width="30.3" height="30.3"/>
<rect x="48.5" y="35.5" class="st3" width="30.3" height="30.3"/>
<rect x="14.9" y="35.5" class="st4" width="30.3" height="30.3"/>
</svg>
