<?xml version="1.0" encoding="utf-8"?>
<!-- Generator: Adobe Illustrator 19.1.0, SVG Export Plug-In . SVG Version: 6.00 Build 0)  -->
<!DOCTYPE svg PUBLIC "-//W3C//DTD SVG 1.1//EN" "http://www.w3.org/Graphics/SVG/1.1/DTD/svg11.dtd">
<svg version="1.1" id="Layer_1" xmlns="http://www.w3.org/2000/svg" xmlns:xlink="http://www.w3.org/1999/xlink" x="0px" y="0px"
	 viewBox="0 0 120 120" enable-background="new 0 0 120 120" xml:space="preserve">
<path fill="#EC008C" d="M60.3,58c1.5-2.9,2.4-5.5,2.5-7.3C61,48.2,60,45.2,60,42.1c0-9,8.5-16.2,18.9-16.2s18.9,7.3,18.9,16.2
	c0,4.2-1.9,8.3-5.3,11.3c-4.7,4.2-11.7,5.8-18.8,4.3c-3,1.6-8.1,2.9-11.1,3.4l-4.3,0.8L60.3,58z M73.9,53.3
	c6.1,1.5,11.9,0.3,15.7-3.1c2.5-2.2,3.9-5.1,3.9-8.1c0-6.6-6.5-11.9-14.6-11.9c-8,0-14.6,5.3-14.6,11.9c0,2.4,0.8,4.7,2.4,6.5
	l0.5,0.6l0,0.7c0.1,1.8-0.5,3.9-1.2,6c2.5-0.7,5-1.5,6.3-2.3l0.8-0.5L73.9,53.3z M73,68.4c4.1,5.8,3,9.9,7.2,15.8
	c-5.3,3.8-10.6,7.5-16.1,11.5c-8.7-6.5-16.2-8.5-18.6-9.4c-2.3-0.8-3.8-2.3-3.3-4.1c0.5-1.9,2.5-2.4,4.1-2.4
	c2.4,0.1,4.4,0.8,4.4,0.8L39.5,64.9c-1-1.4-0.7-3.4,0.7-4.4c1.4-1,3.4-0.7,4.4,0.7l7.6,10.6c0.4,0.5,1.1,0.6,1.6,0.3
	c0.5-0.4,0.6-1.1,0.3-1.6l-1.9-2.6c0.8-0.2,1.9-0.5,3-0.7c0.8-0.2,1.6,0.1,2.1,0.8l1.5,2.2c0.4,0.5,1.1,0.6,1.6,0.3
	c0.5-0.4,0.6-1.1,0.3-1.6l-1.8-2.5c1-0.2,2-0.4,3-0.7c0.8-0.2,1.6,0.1,2,0.8l1.3,1.8c0.4,0.5,1.1,0.6,1.6,0.3
	c0.5-0.4,0.6-1.1,0.3-1.6l-1.5-2c0.3-0.1,0.6-0.1,0.9-0.2C69.5,64.2,71.1,65.8,73,68.4z M38.4,58c1.9-1.4,4.5-1.4,6.3,0
	c-1.1-3.6-5.3-5.1-8.4-2.9c-3.1,2.2-3,6.7,0,8.9C35.6,61.7,36.5,59.4,38.4,58z M28.7,83.4V44.6h22.4v20.2c1.5-0.4,3.4-0.7,4.6-1
	c0-11.4,0-23.6,0-23.6c0-1.7-1.4-3.1-3.1-3.1H27.2c-1.7,0-3.1,1.4-3.1,3.1c0,0,0,41.5,0,43.2c0,6.7,9.9,7.2,15.8,7.2
	c2.1,0,4.6-0.1,7.1-0.4c-3-1-5.1-1.7-6.7-3.5c-0.8-1-1.3-2.1-1.4-3.3 M59.9,0.8c-32.6,0-59,26.4-59,59c0,32.6,26.4,59,59,59
	c32.6,0,59-26.4,59-59C118.9,27.2,92.5,0.8,59.9,0.8z M59.9,113.2c-29.5,0-53.4-23.9-53.4-53.4c0-29.5,23.9-53.4,53.4-53.4
	c29.5,0,53.4,23.9,53.4,53.4C113.3,89.3,89.4,113.2,59.9,113.2z"/>
</svg>
