<?xml version="1.0" encoding="utf-8"?>
<!-- Generator: Adobe Illustrator 19.1.0, SVG Export Plug-In . SVG Version: 6.00 Build 0)  -->
<!DOCTYPE svg PUBLIC "-//W3C//DTD SVG 1.1//EN" "http://www.w3.org/Graphics/SVG/1.1/DTD/svg11.dtd">
<svg version="1.1" id="Layer_1" xmlns="http://www.w3.org/2000/svg" xmlns:xlink="http://www.w3.org/1999/xlink" x="0px" y="0px"
	 viewBox="0 0 120 120" enable-background="new 0 0 120 120" xml:space="preserve">
<path fill="#EC008C" d="M59.8,0.9c-32.6,0-59,26.4-59,59c0,32.6,26.4,59,59,59c32.6,0,59-26.4,59-59C118.8,27.3,92.4,0.9,59.8,0.9z
	 M59.8,113.3c-29.5,0-53.4-23.9-53.4-53.4c0-29.5,23.9-53.4,53.4-53.4c29.5,0,53.4,23.9,53.4,53.4C113.2,89.4,89.3,113.3,59.8,113.3
	z M99.4,57.9L78.3,78.8H66.7l17-16.8H39.6v-8.1h44.1l-17-16.8h11.6L99.4,57.9z M49.6,26.8h-5.1l7.5,7.4H32.4v3.6h19.5l-7.5,7.4h5.1
	l9.3-9.2L49.6,26.8z M51.5,74.4h-6.3l9.2,9.1H30.7v4.4h23.8l-9.2,9.1h6.3l11.4-11.2L51.5,74.4z"/>
</svg>
