<?xml version="1.0" encoding="utf-8"?>
<!-- Generator: Adobe Illustrator 28.3.0, SVG Export Plug-In . SVG Version: 6.00 Build 0)  -->
<svg version="1.1" id="Layer_1" xmlns="http://www.w3.org/2000/svg" xmlns:xlink="http://www.w3.org/1999/xlink" x="0px" y="0px"
	 viewBox="0 0 360 110.5" style="enable-background:new 0 0 360 110.5;" xml:space="preserve">
<style type="text/css">
	.st0{fill:#e0a070;}
</style>
<g>
	<path id="Octagon-Body" class="st0" d="M98.4,23.1l-19,19V69l19,18.9h26.9l19-19V42.1l-19-19H98.4z"/>
	<g>
		<path id="ADT_00000003088383834118017330000003563733675236755091_" class="st0" d="M249.3,85.7V38.4h-17.8v-13h49.1v13h-18.1
			v47.4C262.5,85.7,249.3,85.7,249.3,85.7z M211,85.7l-0.5-1.1l-15-29.3V25.3H216c4.5,0,8.9,0.9,13.1,2.7v12.7h13.8
			c2.4,4.6,3.6,9.6,3.6,14.7c0,4-0.7,8-2.2,11.7c-1.5,3.8-3.8,7.2-6.5,10c-2.8,2.8-6.3,5-10,6.5c-3.6,1.5-7.7,2.2-11.7,2.2
			C216.1,85.7,211,85.7,211,85.7z M208.7,72.5h7.3c2.3,0.1,4.6-0.3,6.7-1.1s4-2,5.7-3.6s2.8-3.5,3.8-5.7c0.8-2.2,1.2-4.5,1.1-6.6
			c0.1-2.3-0.3-4.6-1.1-6.6c-0.8-2.2-2.2-4-3.8-5.7c-1.6-1.6-3.5-2.8-5.7-3.6s-4.5-1.2-6.7-1.1h-7.3V72.5z M190.9,79.5h-26.7
			l-3.2,6.2h-14.3l30.9-60.3l30.8,60.3h-14.2L190.9,79.5z M170.5,67h13.9l-6.9-13.6L170.5,67z"/>
	</g>
</g>
</svg>
