<?xml version="1.0" encoding="utf-8"?>
<!-- Generator: Adobe Illustrator 28.3.0, SVG Export Plug-In . SVG Version: 6.00 Build 0)  -->
<svg version="1.1" id="Layer_1" xmlns="http://www.w3.org/2000/svg" xmlns:xlink="http://www.w3.org/1999/xlink" x="0px" y="0px"
	 viewBox="0 0 76 76" style="enable-background:new 0 0 76 76;" xml:space="preserve">
<style type="text/css">
	.st0{fill:#0F9AFF;stroke:#FFFFFF;stroke-miterlimit:10;}
	.st1{fill:#FFFFFF;}
	.st2{fill:#FFFFFF;stroke:#0F9AFF;stroke-miterlimit:10;}
	.st3{fill:#0F9AFF;}
</style>
<g>
	<circle class="st0" cx="38" cy="38" r="37.5"/>
	<ellipse transform="matrix(0.1602 -0.9871 0.9871 0.1602 -5.7936 69.5904)" class="st1" cx="38" cy="38.2" rx="31.4" ry="31.4"/>
	<g>
		<path class="st2" d="M48.7,58.4H27.3c-0.8,0-1.4-0.6-1.4-1.4V21.2c0-0.8,0.6-1.4,1.4-1.4h21.5c0.8,0,1.4,0.6,1.4,1.4V57
			C50.1,57.8,49.5,58.4,48.7,58.4z"/>
		<circle class="st3" cx="38" cy="53.4" r="1.3"/>
		<path class="st3" d="M47.4,50.1H28.6V24.4h18.8V50.1z"/>
		<path class="st1" d="M44.5,40.6c-0.3,0-0.5-0.1-0.7-0.4c-1.3-1.9-3.5-3-5.8-3s-4.5,1.1-5.8,3c-0.3,0.4-0.8,0.5-1.1,0.2
			c-0.4-0.3-0.5-0.8-0.2-1.1c1.6-2.3,4.3-3.7,7.2-3.7c2.8,0,5.5,1.4,7.2,3.7c0.3,0.4,0.2,0.9-0.2,1.1C44.8,40.5,44.7,40.6,44.5,40.6
			z"/>
		<path class="st1" d="M42.3,42.9c-0.3,0-0.5-0.1-0.7-0.4c-0.8-1.2-2.2-1.9-3.6-1.9s-2.8,0.7-3.6,1.9c-0.3,0.4-0.8,0.5-1.1,0.2
			c-0.4-0.3-0.5-0.8-0.2-1.1c1.1-1.6,3-2.6,5-2.6s3.8,1,5,2.6c0.3,0.4,0.2,0.9-0.2,1.1C42.6,42.8,42.5,42.9,42.3,42.9z"/>
		<circle class="st1" cx="38" cy="45.1" r="1.6"/>
	</g>
</g>
</svg>
