<?xml version="1.0" encoding="utf-8"?>
<!-- Generator: Adobe Illustrator 28.3.0, SVG Export Plug-In . SVG Version: 6.00 Build 0)  -->
<svg version="1.1" id="Layer_1" xmlns="http://www.w3.org/2000/svg" xmlns:xlink="http://www.w3.org/1999/xlink" x="0px" y="0px"
	 viewBox="0 0 46 46" style="enable-background:new 0 0 46 46;" xml:space="preserve">
<style type="text/css">
	.st0{fill:#0F9AFF;}
	.st1{fill:#E6FAFF;}
</style>
<g>
	<circle class="st0" cx="23" cy="23" r="22.5"/>
	<g>
		<path class="st1" d="M21,29.5h4.1c2.3,0,4.3-1.3,5-3.1c0.5,0.2,1.1,0.3,1.6,0.3c2.3,0,4.2-1.6,4.2-3.7s-1.9-3.7-4.2-3.7
			c-0.5,0-0.9,0.1-1.3,0.2v-0.7l0,0c0-0.5-0.5-0.9-1-0.9H16.6c-0.5,0-1,0.4-1,0.9l0,0v6C15.7,27.4,18.1,29.5,21,29.5z M30.6,21.5
			c0.4-0.3,0.8-0.4,1.3-0.4c1.3,0,2.2,0.9,2.2,2s-1,2-2.2,2c-0.5,0-1-0.2-1.3-0.4V21.5z"/>
		<path class="st1" d="M10.8,30.5c0,1.2,1.2,2.2,2.5,2.2h20.6c1.3,0,2.5-1,2.5-2.2H10.8z"/>
		<path class="st1" d="M20,13.5c-0.6,0.5-1,1-1,1.5c0,1,1.1,1.8,1.1,1.8c0.1,0.1,0.2,0.1,0.4,0.1c0.2,0,0.3-0.1,0.4-0.2
			c0.2-0.2,0.2-0.5-0.1-0.6c-0.2-0.2-0.7-0.6-0.7-1.2c0-0.3,0.2-0.5,0.6-0.8c0.6-0.5,1-0.9,1-1.5c0-1.1-1.1-1.9-1.1-1.9
			c-0.2-0.2-0.5-0.2-0.7,0.1c-0.2,0.2-0.2,0.4,0.1,0.6c0,0,0.8,0.6,0.8,1.3C20.6,13,20.4,13.3,20,13.5z"/>
		<path class="st1" d="M23,13.5c-0.6,0.5-1,1-1,1.5c0,1,1.1,1.8,1.1,1.8c0.1,0.1,0.2,0.1,0.4,0.1s0.3-0.1,0.4-0.2
			c0.2-0.2,0.2-0.5-0.1-0.6c-0.2-0.2-0.7-0.6-0.7-1.2c0-0.3,0.2-0.5,0.6-0.8c0.6-0.5,1-0.9,1-1.5c0-1.1-1.1-1.9-1.1-1.9
			c-0.2-0.2-0.5-0.2-0.7,0.1c-0.2,0.2-0.2,0.4,0.1,0.6c0,0,0.8,0.6,0.8,1.3C23.6,13,23.4,13.3,23,13.5z"/>
		<path class="st1" d="M26.1,13.5c-0.6,0.5-1,1-1,1.5c0,1,1.1,1.8,1.1,1.8c0.1,0.1,0.2,0.1,0.4,0.1c0.2,0,0.3-0.1,0.4-0.2
			c0.2-0.2,0.2-0.5-0.1-0.6c-0.2-0.2-0.7-0.6-0.7-1.2c0-0.3,0.2-0.5,0.6-0.8c0.6-0.5,1-0.9,1-1.5c0-1.1-1.1-1.9-1.1-1.9
			c-0.2-0.2-0.5-0.2-0.7,0.1c-0.2,0.2-0.2,0.4,0.1,0.6c0,0,0.8,0.6,0.8,1.3C26.7,13,26.5,13.3,26.1,13.5z"/>
	</g>
</g>
</svg>
