<?xml version="1.0" encoding="utf-8"?>
<!-- Generator: Adobe Illustrator 28.3.0, SVG Export Plug-In . SVG Version: 6.00 Build 0)  -->
<svg version="1.1" id="Layer_1" xmlns="http://www.w3.org/2000/svg" xmlns:xlink="http://www.w3.org/1999/xlink" x="0px" y="0px"
	 viewBox="0 0 46 46" style="enable-background:new 0 0 46 46;" xml:space="preserve">
<style type="text/css">
	.st0{fill:#0F9AFF;}
	.st1{fill:#E6FAFF;}
</style>
<g>
	<circle class="st0" cx="23" cy="23" r="22.5"/>
	<g>
		<path class="st1" d="M37.4,14.5c-0.5-0.5-1.1-0.6-1.8-0.6H10.7c-0.7,0-1.3,0.2-1.8,0.6S8.2,15.4,8.2,16v14.6
			c0,0.6,0.3,1.1,0.7,1.5c0.5,0.5,1.1,0.6,1.8,0.6h8.5c0,0.4-0.1,0.7-0.3,1.1s-0.4,0.6-0.5,0.9c-0.2,0.3-0.3,0.4-0.3,0.6
			c0,0.3,0.1,0.4,0.3,0.6s0.4,0.3,0.7,0.3h8c0.3,0,0.5-0.1,0.7-0.3c0.2-0.2,0.3-0.4,0.3-0.6c0-0.1-0.1-0.3-0.3-0.5
			c-0.2-0.3-0.4-0.6-0.5-1c-0.2-0.4-0.3-0.7-0.3-1.1h8.5c0.7,0,1.3-0.2,1.8-0.6s0.7-0.9,0.7-1.5V16C38.1,15.4,37.8,14.8,37.4,14.5
			L37.4,14.5z M36.1,27c0,0.1-0.1,0.2-0.2,0.3c-0.1,0.1-0.2,0.1-0.4,0.1H10.6c-0.2,0-0.3,0-0.4-0.1C10.1,27.2,10,27.1,10,27V15.8
			c0-0.1,0.1-0.2,0.2-0.3c0.1-0.1,0.2-0.1,0.4-0.1h25c0.2,0,0.3,0,0.4,0.1c0.1,0.1,0.2,0.2,0.2,0.3V27H36.1z"/>
	</g>
</g>
</svg>
