<?xml version="1.0" encoding="utf-8"?>
<!-- Generator: Adobe Illustrator 28.3.0, SVG Export Plug-In . SVG Version: 6.00 Build 0)  -->
<svg version="1.1" id="Layer_1" xmlns="http://www.w3.org/2000/svg" xmlns:xlink="http://www.w3.org/1999/xlink" x="0px" y="0px"
	 viewBox="0 0 151.6 68" style="enable-background:new 0 0 151.6 68;" xml:space="preserve">
<style type="text/css">
	.st0{fill:#58595B;}
	.st1{fill:#0061A9;}
	.st2{fill:#FFFFFF;}
</style>
<g>
	<path class="st0" d="M88.4,42.1V25.4h3.4V32h6.6v-6.6h3.4v16.7h-3.4v-7.3h-6.6v7.3H88.4z"/>
	<path class="st0" d="M104.5,35.9c0-1.1,0.3-2.1,0.8-3.1c0.5-1,1.3-1.8,2.2-2.3c1-0.5,2-0.8,3.2-0.8c1.8,0,3.3,0.6,4.5,1.8
		c1.2,1.2,1.8,2.7,1.8,4.5c0,1.8-0.6,3.3-1.8,4.5c-1.2,1.2-2.7,1.8-4.5,1.8c-1.1,0-2.2-0.3-3.2-0.8s-1.8-1.2-2.3-2.2
		C104.7,38.4,104.5,37.3,104.5,35.9z M107.7,36c0,1.2,0.3,2.1,0.9,2.8c0.6,0.6,1.3,1,2.1,1c0.8,0,1.5-0.3,2.1-1s0.8-1.6,0.8-2.8
		c0-1.2-0.3-2.1-0.8-2.7s-1.3-1-2.1-1c-0.8,0-1.5,0.3-2.1,1C108,33.9,107.7,34.8,107.7,36z"/>
	<path class="st0" d="M119.2,30h2.9v1.6c1.1-1.3,2.3-1.9,3.8-1.9c0.8,0,1.4,0.2,2,0.5s1,0.8,1.4,1.4c0.5-0.6,1.1-1.1,1.7-1.4
		c0.6-0.3,1.3-0.5,2-0.5c0.9,0,1.6,0.2,2.3,0.5c0.6,0.4,1.1,0.9,1.4,1.6c0.2,0.5,0.3,1.3,0.3,2.5v7.7h-3.2v-6.9c0-1.2-0.1-2-0.3-2.3
		c-0.3-0.5-0.8-0.7-1.4-0.7c-0.4,0-0.9,0.1-1.3,0.4c-0.4,0.3-0.7,0.7-0.9,1.2c-0.2,0.5-0.3,1.4-0.3,2.5v5.8h-3.2v-6.6
		c0-1.2-0.1-1.9-0.2-2.3c-0.1-0.3-0.3-0.6-0.5-0.8c-0.2-0.2-0.6-0.3-1-0.3c-0.5,0-0.9,0.1-1.3,0.4c-0.4,0.3-0.7,0.6-0.8,1.1
		c-0.2,0.5-0.3,1.3-0.3,2.5v5.9h-3.2V30z"/>
	<path class="st0" d="M147.1,38.2l3.2,0.5c-0.4,1.2-1.1,2.1-1.9,2.7c-0.9,0.6-2,0.9-3.3,0.9c-2.1,0-3.7-0.7-4.7-2.1
		c-0.8-1.1-1.2-2.5-1.2-4.2c0-2,0.5-3.6,1.6-4.7c1-1.1,2.4-1.7,4-1.7c1.8,0,3.2,0.6,4.3,1.8c1,1.2,1.5,3,1.5,5.5h-8
		c0,0.9,0.3,1.7,0.8,2.2c0.5,0.5,1.1,0.8,1.8,0.8c0.5,0,0.9-0.1,1.3-0.4C146.7,39.3,147,38.8,147.1,38.2z M147.3,35
		c0-0.9-0.3-1.6-0.7-2.1c-0.5-0.5-1-0.7-1.7-0.7c-0.7,0-1.3,0.3-1.7,0.8s-0.7,1.2-0.7,2.1H147.3z"/>
</g>
<polygon class="st1" points="77.2,26.2 77.2,41.7 77.2,44.1 78.5,44.1 78.5,41.9 78.5,25.9 78.5,23.9 77.2,23.9 "/>
<polygon class="st1" points="67.1,20.3 48,1.6 20.8,1.6 2.2,20.3 2.2,47.1 21.1,66.4 48.4,66.4 67.1,46.8 "/>
<polygon class="st1" points="21.4,3.2 3.9,21.2 3.9,46.2 21.8,64.7 47.7,64.7 65.4,46.2 65.4,20.9 47.4,3.2 "/>
<path class="st2" d="M47.8,65.1H21.7L3.6,46.3V21.1L21.2,2.8h26.4l18.2,18v25.5L47.8,65.1z M22,64.3h25.5L65,45.9V21.1L47.2,3.6
	H21.4L4.2,21.3v24.8L22,64.3z"/>
<rect x="13.4" y="17.9" class="st1" width="42.5" height="31.8"/>
<path class="st2" d="M56.3,50.2H13.1V17.7h43.2C56.3,17.7,56.3,50.2,56.3,50.2z M13.8,49.3h41.8v-31H13.8V49.3z"/>
<path class="st2" d="M45.3,33.7c0,8.5-7.9,10-7.9,10h-2.9L30,34.4v-11h5.7c0.9,0,1.6,0.2,2,0.3c1.6,0.4,2.1,0.9,2.1,0.9v4.2h4.3
	C44.1,28.7,45.3,30.2,45.3,33.7"/>
<path class="st1" d="M40.9,33.6c0,2.6-1.4,4.3-2.9,5.1c-1.7,0.9-3.7,0.7-3.7,0.7V27.8c0,0,2,0,3.4,0.6
	C39.3,29.1,40.9,30.7,40.9,33.6"/>
<polygon class="st2" points="23.7,23.6 13.6,43.7 18.4,43.7 19.7,41.1 27.2,41.1 28.5,43.6 33.6,43.6 "/>
<polygon class="st1" points="21.6,37.1 25.2,37.1 23.4,33.3 "/>
<polygon class="st2" points="40.6,23.6 40.6,27.8 46.5,27.8 46.5,43.7 50.9,43.7 50.9,27.8 55.6,27.8 55.6,23.6 "/>
<path class="st2" d="M53.2,30.2c0.2,0,0.4,0,0.4-0.3c0-0.2-0.2-0.3-0.4-0.3h-0.4v0.5L53.2,30.2 M52.9,31.2h-0.3v-1.7h0.7
	c0.4,0,0.6,0.2,0.6,0.5s-0.2,0.4-0.5,0.5l0.5,0.8h-0.3l-0.5-0.8h-0.3L52.9,31.2L52.9,31.2z M53.2,31.7c0.7,0,1.2-0.5,1.2-1.3
	c0-0.7-0.5-1.3-1.2-1.3S52,29.6,52,30.4C51.9,31.2,52.5,31.7,53.2,31.7 M51.6,30.3c0-0.9,0.7-1.5,1.5-1.5s1.5,0.6,1.5,1.5
	s-0.7,1.5-1.5,1.5C52.4,31.9,51.6,31.2,51.6,30.3"/>
</svg>
