<?xml version="1.0" encoding="utf-8"?>
<!-- Generator: Adobe Illustrator 28.3.0, SVG Export Plug-In . SVG Version: 6.00 Build 0)  -->
<svg version="1.1" id="Layer_1" xmlns="http://www.w3.org/2000/svg" xmlns:xlink="http://www.w3.org/1999/xlink" x="0px" y="0px"
	 viewBox="0 0 76 76" style="enable-background:new 0 0 76 76;" xml:space="preserve">
<style type="text/css">
	.st0{fill:#0F9AFF;stroke:#FFFFFF;stroke-miterlimit:10;}
	.st1{fill:#FFFFFF;}
	.st2{fill:#0F9AFF;stroke:#0F9AFF;stroke-miterlimit:10;}
	.st3{fill:#FFFFFF;stroke:#0F9AFF;stroke-width:1.25;stroke-miterlimit:10;}
	.st4{fill:none;stroke:#0F9AFF;stroke-width:1.8518;stroke-linecap:round;stroke-linejoin:round;stroke-miterlimit:10;}
	.st5{fill:#0F9AFF;}
	.st6{fill:none;stroke:#FFFFFF;stroke-width:1.8012;stroke-linecap:round;stroke-linejoin:round;stroke-miterlimit:10;}
</style>
<g>
	<g>
		<circle class="st0" cx="38" cy="38" r="37.5"/>
		<circle class="st1" cx="38" cy="38.5" r="31.4"/>
	</g>
	<g>
		<path class="st2" d="M38.2,54.9c-3.1,0-5.6-2.5-5.6-5.6c0-1.9,0.9-3.6,2.5-4.7l0.8-0.6V33.5c0-1.3,1-2.3,2.3-2.3s2.3,1,2.3,2.3V44
			l0.8,0.6c1.6,1,2.5,2.8,2.5,4.7C43.8,52.4,41.3,54.9,38.2,54.9z"/>
		<path class="st3" d="M42.4,43.1V25.6c0-2.3-1.9-4.2-4.2-4.2l0,0c-2.3,0-4.2,1.9-4.2,4.2v17.5c-2,1.4-3.3,3.6-3.3,6.3
			c0,4.2,3.4,7.5,7.5,7.5c4.2,0,7.5-3.4,7.5-7.5C45.8,46.7,44.4,44.4,42.4,43.1z"/>
		<path class="st4" d="M34.4,49.9c0,1.8,1.4,3.2,3.2,3.2"/>
		<path class="st5" d="M38.2,54.9c-3,0-5.5-2.4-5.5-5.5c0-1.8,0.9-3.5,2.4-4.5l0.8-0.6V34.1c0-1.2,1-2.2,2.2-2.2s2.2,1,2.2,2.2v10.2
			l0.8,0.6c1.5,1,2.4,2.7,2.4,4.5C43.6,52.4,41.2,54.9,38.2,54.9z"/>
		<path class="st6" d="M34.4,49.9c0,1.7,1.4,3.1,3.1,3.1"/>
	</g>
	<g>
		<circle class="st0" cx="38" cy="38" r="37.5"/>
		<circle class="st1" cx="38" cy="38.5" r="31.4"/>
	</g>
	<g>
		<path class="st2" d="M38.2,54.9c-3.1,0-5.6-2.5-5.6-5.6c0-1.9,0.9-3.6,2.5-4.7l0.8-0.6V33.5c0-1.3,1-2.3,2.3-2.3s2.3,1,2.3,2.3V44
			l0.8,0.6c1.6,1,2.5,2.8,2.5,4.7C43.8,52.4,41.3,54.9,38.2,54.9z"/>
		<path class="st3" d="M42.4,43.1V25.6c0-2.3-1.9-4.2-4.2-4.2l0,0c-2.3,0-4.2,1.9-4.2,4.2v17.5c-2,1.4-3.3,3.6-3.3,6.3
			c0,4.2,3.4,7.5,7.5,7.5c4.2,0,7.5-3.4,7.5-7.5C45.8,46.7,44.4,44.4,42.4,43.1z"/>
		<path class="st4" d="M34.4,49.9c0,1.8,1.4,3.2,3.2,3.2"/>
		<path class="st5" d="M38.2,54.9c-3,0-5.5-2.4-5.5-5.5c0-1.8,0.9-3.5,2.4-4.5l0.8-0.6V34.1c0-1.2,1-2.2,2.2-2.2s2.2,1,2.2,2.2v10.2
			l0.8,0.6c1.5,1,2.4,2.7,2.4,4.5C43.6,52.4,41.2,54.9,38.2,54.9z"/>
		<path class="st6" d="M34.4,49.9c0,1.7,1.4,3.1,3.1,3.1"/>
	</g>
</g>
</svg>
