<?xml version="1.0" encoding="utf-8"?>
<!-- Generator: Adobe Illustrator 28.3.0, SVG Export Plug-In . SVG Version: 6.00 Build 0)  -->
<svg version="1.1" id="Layer_1" xmlns="http://www.w3.org/2000/svg" xmlns:xlink="http://www.w3.org/1999/xlink" x="0px" y="0px"
	 viewBox="0 0 76 76" style="enable-background:new 0 0 76 76;" xml:space="preserve">
<style type="text/css">
	.st0{fill:#0F9AFF;stroke:#FFFFFF;stroke-miterlimit:10;}
	.st1{fill:#FFFFFF;stroke:#0F9AFF;stroke-miterlimit:10;}
	.st2{fill:#FFFFFF;}
</style>
<g>
	<circle class="st0" cx="38" cy="38" r="37.5"/>
	<circle class="st1" cx="38" cy="38" r="31.4"/>
	<path class="st0" d="M50.2,42.9V26c0,0,0-3.7-12.2-3.7S25.8,26,25.8,26v16.9c0,0,0,2.9,7.8,3.7v2.6C25.8,50,25.8,53,25.8,53v0.7
		h24.3V53c0,0,0-2.9-7.8-3.7v-2.6C50.2,45.8,50.2,42.9,50.2,42.9z"/>
	<circle class="st2" cx="38" cy="38" r="1.7"/>
	<circle class="st0" cx="38" cy="38" r="4.6"/>
	<circle class="st1" cx="38" cy="38" r="2.5"/>
</g>
</svg>
