<?xml version="1.0" encoding="utf-8"?>
<!-- Generator: Adobe Illustrator 28.3.0, SVG Export Plug-In . SVG Version: 6.00 Build 0)  -->
<svg version="1.1" id="Layer_1" xmlns="http://www.w3.org/2000/svg" xmlns:xlink="http://www.w3.org/1999/xlink" x="0px" y="0px"
	 viewBox="0 0 46 46" style="enable-background:new 0 0 46 46;" xml:space="preserve">
<style type="text/css">
	.st0{fill:#0F9AFF;}
	.st1{fill:#E6FAFF;}
</style>
<g>
	<circle class="st0" cx="23" cy="23" r="22.5"/>
	<g>
		<path class="st1" d="M16.1,16.5c0-1.4,0.9-2.6,2.2-3.1c0.2,0.1,0.4,0.2,0.7,0.1c0.5-0.1,1-0.5,0.9-1s-0.6-0.7-1.2-0.6
			c-0.4,0.1-0.8,0.4-0.9,0.7l0,0c-0.1,0-0.2,0.1-0.3,0.1c-0.1,0.1-0.3,0.2-0.4,0.2c-0.3,0.2-0.5,0.4-0.7,0.5
			c-0.1,0.1-0.2,0.2-0.3,0.3c-0.3,0.4-0.5,0.7-0.7,1.1c-0.3,0.5-0.4,1.1-0.4,1.7v4.9h1v-4.9L16.1,16.5L16.1,16.5z"/>
		<path class="st1" d="M21.9,13.5c0.3,0,0.5,0,0.7-0.1c1.3,0.5,2.2,1.7,2.2,3.1v5h1v-5c0-0.6-0.1-1.2-0.4-1.7
			c-0.2-0.4-0.4-0.7-0.7-1.1c-0.1-0.1-0.2-0.2-0.3-0.3c-0.2-0.2-0.5-0.4-0.7-0.5c-0.1-0.1-0.3-0.2-0.4-0.2c-0.1-0.1-0.2-0.1-0.3-0.1
			c-0.1-0.4-0.5-0.6-0.9-0.7c-0.6-0.1-1.2,0.2-1.2,0.6C20.9,13,21.4,13.5,21.9,13.5z"/>
		<path class="st1" d="M33,25c-1.4,0-2.6,1.1-2.6,2.5c0,1.2,0.8,2.1,1.9,2.4c-0.4,2.6-2.7,4.6-5.6,4.6c-3.1,0-5.6-2.3-5.6-5.3V28
			h-0.7h-0.7v1.2c0,3.6,3.2,6.6,6.9,6.6c3.6,0,6.6-2.6,6.9-5.9c1.2-0.3,2-1.3,2-2.4C35.6,26.1,34.4,25,33,25z M33,29.1
			c-1,0-1.7-0.7-1.7-1.6s0.8-1.6,1.7-1.6c1,0,1.7,0.7,1.7,1.6S33.9,29.1,33,29.1z"/>
		<ellipse class="st1" cx="33" cy="27.5" rx="1.3" ry="1.2"/>
		<path class="st1" d="M21.2,27.1c2.6,0,4.8-2,4.8-4.5v-0.2h-1.3v0.3c0,1.8-1.5,3.2-3.4,3.2h-0.8h-0.8c-1.9,0-3.4-1.4-3.4-3.2v-0.3
			h-1.5v0.3c0,2.5,2.2,4.5,4.8,4.5h0.8L21.2,27.1L21.2,27.1z"/>
	</g>
</g>
</svg>
