<?xml version="1.0" encoding="utf-8"?>
<!-- Generator: Adobe Illustrator 28.3.0, SVG Export Plug-In . SVG Version: 6.00 Build 0)  -->
<svg version="1.1" id="Layer_1" xmlns="http://www.w3.org/2000/svg" xmlns:xlink="http://www.w3.org/1999/xlink" x="0px" y="0px"
	 viewBox="0 0 46 46" style="enable-background:new 0 0 46 46;" xml:space="preserve">
<style type="text/css">
	.st0{fill:#0F9AFF;}
	.st1{fill:#E6FAFF;}
</style>
<g>
	<circle class="st0" cx="23" cy="23" r="22.5"/>
	<g id="hQNmN7_1_">
		<g>
			<path class="st1" d="M8.7,28.1c0.1-0.3,0.1-0.4,0.2-0.7c0.2-0.6,0.6-1.1,1.2-1.4c4.1-2.3,8.3-4.8,12.4-7.1
				c0.2-0.1,0.4-0.3,0.3-0.4v-0.1c0.1-0.5-0.2-1-0.6-1.3c-0.3-0.2-0.5-0.3-0.6-0.5c-1.1-0.9-1.5-2.3-1.2-3.7c0.4-1,0.9-1.9,1.9-2.3
				c0.4-0.2,0.7-0.2,1.1-0.4c0.1,0,0.1,0,0.2,0c0.3,0,0.5,0,0.8,0c0.3,0.1,0.5,0.1,0.8,0.2c1.4,0.5,2.4,1.7,2.5,3.1
				c0,0.6-0.4,1.2-0.9,1.3c-0.4,0.1-0.7-0.1-0.9-0.4c-0.1-0.2-0.2-0.4-0.3-0.7c-0.1-1.1-1.1-1.5-1.9-1.4c-1,0.1-1.6,0.9-1.5,1.8
				c0.1,0.6,0.5,1.1,1,1.4c0.7,0.4,1.3,0.8,1.4,1.5c0.1,0.4,0.1,0.7,0.1,1.1c0,0.2-0.1,0.5,0,0.6c0.1,0.2,0.4,0.3,0.5,0.4
				c4,2.2,7.9,4.6,11.9,6.8c0.8,0.5,1.4,1.1,1.5,2l0,0c0,0.3,0,0.6,0,0.9v0.1c-0.2,1.3-1,2.1-2.2,2.3c-0.2,0-0.4,0.1-0.4,0.1
				c-8.2,0-16.4,0-24.6,0c-0.1,0-0.1,0-0.2,0c-1.2-0.2-2-0.8-2.3-1.9c-0.1-0.2-0.1-0.4-0.1-0.5C8.7,28.6,8.7,28.4,8.7,28.1z
				 M23.6,29.2c4,0,7.8,0,11.8,0c0.1,0,0.2,0,0.3,0c0.4-0.1,0.7-0.4,0.7-0.7c0-0.4-0.2-0.7-0.5-0.9c-4.1-2.3-8-4.6-12.1-6.9
				c-0.2-0.1-0.3-0.1-0.4,0c-3.4,2-6.8,3.9-10.2,5.9c-0.7,0.4-1.3,0.8-2.1,1.2c-0.4,0.2-0.5,0.5-0.4,0.9s0.4,0.6,0.9,0.6
				C15.7,29.2,19.7,29.2,23.6,29.2z"/>
			<path class="st1" d="M8.7,28.8c0,0.2,0.1,0.4,0.1,0.5c0.4,1.1,1.2,1.7,2.3,1.9c0.1,0,0.1,0,0.2,0"/>
		</g>
	</g>
</g>
</svg>
