<?xml version="1.0" encoding="utf-8"?>
<!-- Generator: Adobe Illustrator 28.3.0, SVG Export Plug-In . SVG Version: 6.00 Build 0)  -->
<svg version="1.1" id="Layer_1" xmlns="http://www.w3.org/2000/svg" xmlns:xlink="http://www.w3.org/1999/xlink" x="0px" y="0px"
	 viewBox="0 0 186 68" style="enable-background:new 0 0 186 68;" xml:space="preserve">
<style type="text/css">
	.st0{fill:#0061A9;}
	.st1{fill:#FFFFFF;}
	.st2{fill:#58595B;}
</style>
<g>
	<polygon class="st0" points="77.2,26.2 77.2,41.7 77.2,44.1 78.5,44.1 78.5,41.9 78.5,25.9 78.5,23.9 77.2,23.9 	"/>
	<polygon class="st0" points="67.1,20.3 48,1.6 20.8,1.6 2.2,20.3 2.2,47.1 21.1,66.4 48.4,66.4 67.1,46.8 	"/>
	<polygon class="st0" points="21.4,3.2 3.9,21.2 3.9,46.2 21.8,64.7 47.7,64.7 65.4,46.2 65.4,20.9 47.4,3.2 	"/>
	<path class="st1" d="M47.8,65.1H21.7L3.6,46.3V21.1L21.2,2.8h26.4l18.2,18v25.5L47.8,65.1z M22,64.3h25.5L65,45.9V21.1L47.2,3.6
		H21.4L4.2,21.3v24.8L22,64.3z"/>
	<rect x="13.4" y="17.9" class="st0" width="42.5" height="31.8"/>
	<path class="st1" d="M56.3,50.2H13.1V17.7h43.2V50.2z M13.8,49.3h41.8v-31H13.8V49.3z"/>
	<path class="st1" d="M45.3,33.7c0,8.5-7.9,10-7.9,10h-2.9L30,34.4v-11h5.7c0.9,0,1.6,0.2,2,0.3c1.6,0.4,2.1,0.9,2.1,0.9v4.2h4.3
		C44.1,28.7,45.3,30.2,45.3,33.7"/>
	<path class="st0" d="M40.9,33.6c0,2.6-1.4,4.3-2.9,5.1c-1.7,0.9-3.7,0.7-3.7,0.7V27.8c0,0,2,0,3.4,0.6
		C39.3,29.1,40.9,30.7,40.9,33.6"/>
	<polygon class="st1" points="23.7,23.6 13.6,43.7 18.4,43.7 19.7,41.1 27.2,41.1 28.5,43.6 33.6,43.6 	"/>
	<polygon class="st0" points="21.6,37.1 25.2,37.1 23.4,33.3 	"/>
	<polygon class="st1" points="40.6,23.6 40.6,27.8 46.5,27.8 46.5,43.7 50.9,43.7 50.9,27.8 55.6,27.8 55.6,23.6 	"/>
	<path class="st1" d="M53.2,30.2c0.2,0,0.4,0,0.4-0.3c0-0.2-0.2-0.3-0.4-0.3h-0.4v0.5L53.2,30.2 M52.9,31.2h-0.3v-1.7h0.7
		c0.4,0,0.6,0.2,0.6,0.5s-0.2,0.4-0.5,0.5l0.5,0.8h-0.3l-0.5-0.8h-0.3v0.7H52.9z M53.2,31.7c0.7,0,1.2-0.5,1.2-1.3
		c0-0.7-0.5-1.3-1.2-1.3S52,29.6,52,30.4C51.9,31.2,52.5,31.7,53.2,31.7 M51.6,30.3c0-0.9,0.7-1.5,1.5-1.5s1.5,0.6,1.5,1.5
		s-0.7,1.5-1.5,1.5C52.4,31.9,51.6,31.2,51.6,30.3"/>
	<path class="st2" d="M88.5,25.4h6.2c1,0,2.8,0,4.1,0.8c1.5,1,1.9,2.6,1.9,3.6c0,0.6-0.1,1.7-1,2.5c-0.1,0.1-0.9,0.9-1.9,1.1l0,0
		c2.5,0.5,3.5,2.3,3.5,4.1c0,2-1.2,3.3-2.5,3.9c-1.3,0.7-3.6,0.7-4.2,0.7h-6.2L88.5,25.4L88.5,25.4z M91.9,32.2h2.5
		c1,0,2.9,0,2.9-2.2c0-2.1-1.8-2.1-2.9-2.1H92L91.9,32.2L91.9,32.2z M91.9,39.4h2.4c1.6,0,3.5,0,3.5-2.2c0-2.4-2.2-2.4-3.9-2.4h-2.1
		v4.6H91.9z"/>
	<path class="st2" d="M107.2,30.4v7c0,1,0,2.6,1.8,2.6c2.2,0,2.2-1.6,2.2-3.6v-6h3.5v7.7c0,2.5,0.1,2.8,0.1,3.1c0,0.3,0,0.5,0.1,0.9
		h-3.3l-0.1-1.6c-0.3,0.5-1.2,1.9-3.4,1.9c-1.6,0-2.9-0.7-3.5-1.6c-0.8-0.9-0.8-2.6-0.8-3.1v-7.3H107.2z"/>
	<path class="st2" d="M120.3,38.7c0,0.7,0.5,1.6,1.9,1.6c1.2,0,1.8-0.7,1.8-1.4c0-0.5-0.3-0.9-1.6-1.3l-2.1-0.6
		c-0.9-0.3-3-0.9-3-3.2c0-2.3,2.1-3.7,5.1-3.7c2.4,0,4.4,1.1,4.4,3.4h-3.1c-0.1-1.3-1.1-1.4-1.7-1.4c-0.9,0-1.6,0.4-1.6,1.2
		c0,0.8,0.6,0.9,1.6,1.2l2.1,0.6c2.1,0.6,3.1,1.7,3.1,3.3c0,2-1.7,4-5.4,4c-1.5,0-2.9-0.3-4-1.4c-0.8-0.8-0.8-1.7-0.9-2.3
		L120.3,38.7L120.3,38.7z"/>
	<path class="st2" d="M129.4,25.4h3.7v3h-3.7V25.4z M129.5,30.4h3.4v11.7h-3.4V30.4z"/>
	<path class="st2" d="M136,32.6c0,0,0-1.3-0.1-2.1h3.3l0.1,1.8c0.3-0.5,1.2-2,3.8-2c2.3,0,3.3,1.4,3.6,2.2c0.3,0.7,0.3,1.3,0.3,3.5
		v6.3h-3.5v-7.3c0-0.5,0-0.9-0.2-1.3c-0.3-0.5-0.8-1-1.7-1c-0.7,0-1.4,0.3-1.8,0.9c-0.2,0.3-0.4,0.9-0.4,1.8v6.9H136L136,32.6
		L136,32.6z"/>
	<path class="st2" d="M152.9,37.2c0,0.8,0,3.1,2.4,3.1c0.9,0,1.7-0.3,2-1.6h3.1c0,0.6-0.2,1.6-1.1,2.5c-0.9,0.9-2.4,1.4-4.1,1.4
		c-1,0-2.9-0.2-4.1-1.5c-1.1-1.1-1.5-2.7-1.5-4.6s0.5-4.2,2.4-5.5c0.9-0.6,2-1,3.3-1c1.7,0,3.7,0.6,4.7,2.8c0.8,1.6,0.7,3.3,0.7,4.3
		h-7.8L152.9,37.2L152.9,37.2z M157.2,34.9c0-0.5,0-2.6-2-2.6c-1.5,0-2.1,1.2-2.2,2.6H157.2z"/>
	<path class="st2" d="M165.4,38.7c0,0.7,0.5,1.6,1.9,1.6c1.2,0,1.8-0.7,1.8-1.4c0-0.5-0.3-0.9-1.6-1.3l-2.1-0.6
		c-0.9-0.3-3-0.9-3-3.2c0-2.3,2.1-3.7,5.1-3.7c2.4,0,4.4,1.1,4.4,3.4h-3.1c-0.1-1.3-1.1-1.4-1.7-1.4c-0.9,0-1.6,0.4-1.6,1.2
		c0,0.8,0.6,0.9,1.6,1.2l2.1,0.6c2.1,0.6,3.1,1.7,3.1,3.3c0,2-1.7,4-5.4,4c-1.5,0-2.9-0.3-4-1.4c-0.8-0.8-0.8-1.7-0.9-2.3
		L165.4,38.7L165.4,38.7z"/>
	<path class="st2" d="M176.9,38.7c0,0.7,0.5,1.6,1.9,1.6c1.2,0,1.8-0.7,1.8-1.4c0-0.5-0.3-0.9-1.6-1.3l-2.1-0.6
		c-0.9-0.3-3-0.9-3-3.2c0-2.3,2.1-3.7,5.1-3.7c2.4,0,4.4,1.1,4.4,3.4h-3.1c-0.1-1.3-1.1-1.4-1.7-1.4c-0.9,0-1.6,0.4-1.6,1.2
		c0,0.8,0.6,0.9,1.6,1.2l2.1,0.6c2.1,0.6,3.1,1.7,3.1,3.3c0,2-1.7,4-5.4,4c-1.5,0-2.9-0.3-4-1.4c-0.8-0.8-0.8-1.7-0.9-2.3
		L176.9,38.7L176.9,38.7z"/>
</g>
</svg>
