<?xml version="1.0" encoding="utf-8"?>
<!-- Generator: Adobe Illustrator 19.2.1, SVG Export Plug-In . SVG Version: 6.00 Build 0)  -->
<svg version="1.1" id="Layer_1" xmlns="http://www.w3.org/2000/svg" xmlns:xlink="http://www.w3.org/1999/xlink" x="0px" y="0px"
	 width="113px" height="108px" viewBox="0 0 113 108" style="enable-background:new 0 0 113 108;" xml:space="preserve">
<style type="text/css">
	.st0{fill:#009EDE;}
</style>
<g id="Layer_2">
	<path class="st0" d="M29.7,13.5c0,0-1.4,0.9-1.8,2.4c0,0-0.2,1,0.4,2.3C30.1,22,39,23.7,39,23.7c7.7,1.5,14.6,1.6,20.5,1.3
		c0,0,6.4-0.4,14.1-2.3c0,0,2.7-0.7,7.5-3.3c0.2-0.1,0.7-0.4,1.2-0.9c0.7-0.8,1-1.6,1-1.8c0.1-0.4,0.2-1,0-1.6
		c-0.3-0.9-0.8-1.5-0.8-1.5l0,0c-7.6-5-16.7-7.9-26.5-7.9C46.4,5.7,37.3,8.6,29.7,13.5"/>
	<path class="st0" d="M26.2,16c-0.3,0.3-0.6,0.7-1,1.1c-0.8,1-2.1,2.8-2.1,5.2c-0.1,3,1.8,5.2,2.5,6c1.1,1.3,2.9,2.8,7.1,4
		c3.2,0.9,6.4,1.4,12.3,1.4c4,0,9.1,0,15.9-1.2c6.2-1,10.5-2.4,13.9-3.5c0,0,2.9-1,9.2-4.6c0,0,2.9-1.6,3.8-3.9
		c0.4-0.9,0.3-1.7,0.3-1.7s0-0.5-0.2-1.1c0-0.1-0.1-0.3-0.2-0.4l0,0c2.7,2.4,5.1,5,7.2,7.9l0,0c0,0,0.2,0.5,0.6,1.4
		c0.5,1.2,0.3,2.4,0.1,3.3c-0.3,1.5-0.8,2.5-1,2.8c-1.2,2.1-3,3.4-4.3,4.1c-5,3-9.5,4-9.5,4c-10.6,2.4-19.3,2.4-19.3,2.4
		c-9.6,0.1-16.7-1.3-22.6-2.4c0,0-12.1-2.4-19-7.8c-0.9-0.7-3.1-2.6-3.3-5c-0.1-1-0.1-2.1-0.1-2.1l0,0C19.3,22.3,22.5,18.9,26.2,16"
		/>
	<path class="st0" d="M13.7,50.7c1.2,1.1,2.4,1.7,3.9,2.5c7.4,3.7,13.8,5.2,13.8,5.2c10.2,2.4,19.6,3,24,3.1
		c7.7,0.3,15.4,0,23.6-1.2c7.3-1.1,12.4-2.5,17.1-5.9c5.2-3.7,6-7.1,6.3-8.2c0.6-3,0.3-5.4,0.3-5.4c-0.9-3.4-2.2-6.6-3.9-9.6l0,0
		c0.1,0.5,0.2,0.9,0.2,1.4s0,1.7-0.8,3.3c-2.2,4.9-8.1,7.7-12.4,9.4c-5.4,2.2-10.8,3.8-17.6,5.2C61.6,52,56.8,53.1,50,53.3
		c-2.7,0.1-10.3,0.2-19.5-2c-2.9-0.7-6.4-1.7-10.2-4c-2.4-1.4-4.5-2.8-6.1-5.5c-0.5-0.9-2.4-4.1-1.7-8.3c0.1-0.3,0.1-0.6,0.2-0.8
		l0,0c-1.8,3.6-3.1,7.5-4,11.5C8.8,44.2,10.6,48,13.7,50.7z"/>
	<path class="st0" d="M7.8,54c0.1,0.3,0.2,0.6,0.3,1c0.3,0.9,1.6,4.4,6.8,8.7c3.3,2.8,8.1,5.7,15.4,7.7c8.9,2.4,16.1,1.9,23.8,1.2
		c9.8-0.9,16.4-2.9,25.6-5.7c2.1-0.7,15.3-4.8,21.5-11.7c0.8-0.9,1.9-2.2,2.5-4.2c0.2-0.8,0.4-1.5,0.4-2.3v-0.3
		c0.2,1.8,0.3,3.7,0.3,5.6c0,2.7-0.2,5.4-0.7,8l0,0c0,0-0.5,3.2-2.8,6.5c-1.9,2.8-4.5,4.7-8.6,6.6c-7.7,3.7-14.7,4.8-17,5.2
		c-6.7,1-17.8,2.5-32.2,0.2c0,0-12.5-2-22.2-7.1c-2.5-1.3-4-2.4-4.3-2.7c-5.5-4.2-8.2-8.4-8.2-8.4C8,59.7,7.8,56.9,7.8,54L7.8,54z"
		/>
	<path class="st0" d="M94.3,83.6c-1.2,1.6-2.6,3.5-6.6,6.5c-1.4,1-5.2,3.7-14.3,5.9c-5.1,1.2-15.9,3.8-29.8,1.5
		c-6.7-1.1-11.8-1.9-17.3-5.7c-1.4-0.9-2.6-1.9-3.7-3l0,0c8.7,8.4,20.5,13.5,33.6,13.5C72.2,102.3,85.5,95.6,94.3,83.6"/>
	<path class="st0" d="M11.2,71.9c0.4,0.7,0.8,1.4,1.3,2.1c1.9,2.7,3.9,4.3,5.5,5.5c1.1,0.9,5.1,3.8,12.6,6.3
		c1.8,0.6,7.4,2.3,15.6,2.9c9.2,0.7,16.2-0.4,21.7-1.4c4.4-0.7,12.4-2.2,20.1-5.9c1.3-0.6,4.6-2.3,8.4-5.2c2.2-1.7,3.4-2.7,4.6-4.3
		c0.1-0.1,0.2-0.2,0.2-0.3l0,0c-1.3,3.3-2.9,6.4-4.9,9.3c0,0-2.8,3-6.8,5.9c-5.1,3.7-10,4.8-15.3,6c-1.9,0.4-9.9,2.1-21,1.5
		c-10.8-0.6-18.2-3-20.4-3.8c-6.1-2.1-9.3-4.2-10.7-5.2c-4.3-3-7-5.7-7-5.7C13.6,77.2,12.3,74.6,11.2,71.9L11.2,71.9z"/>
</g>
</svg>
