<?xml version="1.0" encoding="utf-8"?>
<!-- Generator: Adobe Illustrator 19.2.1, SVG Export Plug-In . SVG Version: 6.00 Build 0)  -->
<svg version="1.1" xmlns="http://www.w3.org/2000/svg" xmlns:xlink="http://www.w3.org/1999/xlink" x="0px" y="0px" width="360px"
	 height="190px" viewBox="0 0 360 190" style="enable-background:new 0 0 360 190;" xml:space="preserve">
<style type="text/css">
	.st0{fill:url(#SVGID_1_);}
	.st1{fill:url(#SVGID_2_);}
	.st2{fill:url(#SVGID_3_);}
	.st3{fill:#FFFFFF;}
	.st4{fill:url(#SVGID_4_);}
	.st5{fill:#808282;}
	.st6{fill:#231F20;}
</style>
<g id="Layer_2">
	<linearGradient id="SVGID_1_" gradientUnits="userSpaceOnUse" x1="68.4704" y1="44.5296" x2="68.4704" y2="147.229">
		<stop  offset="0" style="stop-color:#FFF51D"/>
		<stop  offset="1" style="stop-color:#F34430"/>
	</linearGradient>
	<path class="st0" d="M42.9,44.8L42.9,44.8c-14.1,0-25.6,11.5-25.6,25.6v51.1c0,14.1,11.5,25.6,25.6,25.6h0
		c23.5,0,76.8,6.4,76.8-51.1l0,0C119.6,37.9,61.4,44.8,42.9,44.8z"/>
	
		<linearGradient id="SVGID_2_" gradientUnits="userSpaceOnUse" x1="-269.1854" y1="44.7609" x2="-269.1854" y2="146.9977" gradientTransform="matrix(-1 0 0 1 -226.3333 0)">
		<stop  offset="0" style="stop-color:#FFF51D"/>
		<stop  offset="2.024174e-03" style="stop-color:#FFF41D"/>
		<stop  offset="0.13" style="stop-color:#FCC61B"/>
		<stop  offset="0.2604" style="stop-color:#F99E1A"/>
		<stop  offset="0.3953" style="stop-color:#F67E18"/>
		<stop  offset="0.5336" style="stop-color:#F46417"/>
		<stop  offset="0.6768" style="stop-color:#F35217"/>
		<stop  offset="0.8279" style="stop-color:#F24716"/>
		<stop  offset="1" style="stop-color:#F24416"/>
	</linearGradient>
	<path class="st1" d="M42.9,44.8L42.9,44.8c14.1,0,25.6,11.5,25.6,25.6v51.1c0,14.1-11.5,25.6-25.6,25.6h0
		c-14.1,0-25.6-11.5-25.6-25.6V70.3C17.3,56.3,28.8,44.8,42.9,44.8z"/>
	<linearGradient id="SVGID_3_" gradientUnits="userSpaceOnUse" x1="17.2928" y1="121.9118" x2="93.4971" y2="121.9118">
		<stop  offset="0" style="stop-color:#FFF51D"/>
		<stop  offset="0.1035" style="stop-color:#FDD221"/>
		<stop  offset="0.2493" style="stop-color:#FAA725"/>
		<stop  offset="0.3976" style="stop-color:#F78329"/>
		<stop  offset="0.5463" style="stop-color:#F5672C"/>
		<stop  offset="0.6957" style="stop-color:#F4542E"/>
		<stop  offset="0.8463" style="stop-color:#F34830"/>
		<stop  offset="1" style="stop-color:#F34430"/>
	</linearGradient>
	<path class="st2" d="M68.2,96.6H42.6c-13.9,0-25.3,11.4-25.3,25.3v0c0,13.9,11.4,25.3,25.3,25.3h25.6c13.9,0,25.3-11.4,25.3-25.3v0
		C93.5,108,82.1,96.6,68.2,96.6z"/>
	<path class="st3" d="M41.8,97.2"/>
	<linearGradient id="SVGID_4_" gradientUnits="userSpaceOnUse" x1="42.497" y1="147.116" x2="42.497" y2="96.7076">
		<stop  offset="0" style="stop-color:#E6301A"/>
		<stop  offset="0.4139" style="stop-color:#E6331A"/>
		<stop  offset="0.6974" style="stop-color:#E73C18"/>
		<stop  offset="0.9411" style="stop-color:#E94B16"/>
		<stop  offset="1" style="stop-color:#E95015"/>
	</linearGradient>
	<path class="st4" d="M68.4,121.9c0,13.9-11.6,25.2-25.9,25.2s-25.9-11.3-25.9-25.2s11.6-25.2,25.9-25.2h25.9V121.9z"/>
</g>
<g id="Layer_3">
	<path class="st5" d="M144.4,82.1l-1.9,5.4H139l6.9-18.3c0.1-0.1,0.2-0.2,0.3-0.2h3.5c0.2,0,0.3,0.1,0.3,0.2l6.9,18.3h-3.5l-1.9-5.4
		L144.4,82.1z M150.6,79.7l-2.7-7.5l-2.7,7.5L150.6,79.7z"/>
	<line class="st6" x1="164.7" y1="72.1" x2="161.8" y2="72.1"/>
	<path class="st5" d="M161.8,72.1h-4.9c-0.8,0-1.4-0.7-1.4-1.5c0-0.8,0.6-1.5,1.4-1.5h12.9c0.8,0,1.4,0.7,1.4,1.5
		c0,0.8-0.6,1.5-1.4,1.5h-5l0,15.4l-2.9,0L161.8,72.1z"/>
	<path class="st5" d="M193.9,72H189c-0.8,0-1.4-0.7-1.4-1.5s0.6-1.5,1.4-1.5h12.9c0.8,0,1.4,0.7,1.4,1.5s-0.6,1.5-1.4,1.5h-5l0,15.4
		l-2.9,0L193.9,72z"/>
	<path class="st5" d="M185.9,87.4l-2.4-2.3c-1.8,2-4,3-6.4,3l0,0c-2.2-0.1-6.4-1.4-6.4-5.8c0-3.3,2.3-4.9,4.4-5.6
		c-0.8-1.1-1.4-2.3-1.4-3.3c0-2.9,2.4-4.6,4.6-4.6c3,0,4.8,1.7,4.8,4.5c0,2.3-2.2,3.8-3.8,4.6c0.3,0.3,0.7,0.6,1,0.9l0,0l2.8,2.7
		c1.6-2.7,2.1-5.2,2.1-5.2l2.5-0.1c0,0.1-0.6,2.9-2.1,5.8c-0.2,0.4-0.5,0.8-0.7,1.2l3.8,3.1c0.5,0.4-0.8,1.2-0.8,1.2
		C187.3,87.8,186.6,87.7,185.9,87.4z M176.8,78.7c-0.4,0.1-1.1,0.3-1.8,0.6c-1.3,0.7-2,1.6-2,3c0,3.2,3.7,3.4,4.1,3.5
		c1.9,0,3.5-1,4.6-2.3l-3-2.9C178.3,80.2,177.6,79.5,176.8,78.7z M178.3,71.1c-0.9,0-2.3,0.7-2.3,2.3c0,0.5,0.7,1.5,1.6,2.7
		c1.3-0.5,3.1-1.6,3.1-2.8C180.7,72.2,180.5,71.1,178.3,71.1z"/>
	<path class="st5" d="M139.4,128.3V98.2c0-1,0.8-1.8,1.8-1.8s1.8,0,1.8,0l5.7,0c0.6,0,7.9-0.1,12.9,4.7c2.8,2.8,4.3,6.5,4.3,11.1
		c0,4.7-1.4,8.4-4.3,11.2c-4.7,4.6-11.5,4.7-12.6,4.7c-0.1,0-0.1,0-0.1,0L139.4,128.3z M148.9,125.2c0.1,0,6.5,0.1,10.5-3.9
		c2.2-2.1,3.3-5.2,3.3-8.9c0-3.7-1.1-6.7-3.3-8.9c-4-4-10.6-3.9-10.6-3.9l-5.7,0v25.5L148.9,125.2z"/>
	<g>
		<path class="st5" d="M171,128.1v-22.2c0-0.8,0.7-1.5,1.6-1.5s1.6,0.7,1.6,1.5v22.2H171z"/>
		<ellipse class="st5" cx="172.6" cy="97.1" rx="2.3" ry="2.1"/>
	</g>
	<g>
		<path class="st5" d="M208.1,128.1v-22.2c0-0.8,0.7-1.5,1.6-1.5c0.9,0,1.6,0.7,1.6,1.5v22.2H208.1z"/>
		<ellipse class="st5" cx="209.7" cy="97.1" rx="2.3" ry="2.1"/>
	</g>
	<g>
		<path class="st5" d="M299.1,128.1v-22.2c0-0.8,0.7-1.5,1.6-1.5c0.9,0,1.6,0.7,1.6,1.5v22.2H299.1z"/>
		<ellipse class="st5" cx="300.6" cy="97.1" rx="2.3" ry="2.1"/>
	</g>
	<path class="st3" d="M198.6,118.1C198.6,118.1,198.6,118.1,198.6,118.1L198.6,118.1z"/>
	<path class="st5" d="M198.6,124.8c-2.1,2.2-5,3.6-8.1,3.6c-6.3,0-11.5-5.4-11.5-12.1c0-6.7,5.1-12.1,11.5-12.1
		c3.2,0,6.1,1.4,8.1,3.6l0-3.1h3.2v23.7c0,0.5,0.1,3.7-2.3,6.2c-2,2.1-5,3.2-9,3.2c-6.6,0-9.7-3.7-10.1-5.3c-0.2-0.9,0-1.9,0.8-2.2
		c0.8-0.2,1.5,0.3,2,1c1.7,2.2,2.9,3.3,7.3,3.3c3.1,0,5.3-0.7,6.7-2.2c1.6-1.7,1.5-4.1,1.5-4.1L198.6,124.8z M198.6,114.5
		c-0.8-4.1-4.1-7.2-8.1-7.2c-4.6,0-8.3,4-8.3,9c0,4.9,3.7,9,8.3,9c4,0,7.4-3.1,8.1-7.2L198.6,114.5z"/>
	<path class="st5" d="M222,108.1l0,14.9l0,0c0,0,0,1.2,0.8,2c0.6,0.6,1.6,0.9,2.9,0.9c2.2,0,2.7-1.1,2.8-1.2l0.1-0.1
		c0.2-0.3,0.6-0.3,0.9-0.1l0,0c1.4,0.8,1.4,2.8,0,3.7c-0.9,0.6-2.1,1-3.8,1c-2.2,0-4-0.7-5.2-1.9c-1.6-1.7-1.6-3.8-1.6-4.3
		c0,0,0-14.8,0-14.8h-3.4v-3.2l3.4,0v-5.2c0-0.8,0.6-1.6,1.4-1.6c0.9-0.1,1.7,0.6,1.7,1.6c0,0,0,5.2,0,5.2h7.6v3.2
		C229.6,108.1,222,108.1,222,108.1z"/>
	<path class="st5" d="M310.5,128.1h3.2c0,0,0-20.3,0-20.3l5.9,0v-3.2l-5.9,0l0,0l0-3.7l0,0c0,0,0-1.2,0.8-2c0.6-0.6,1.6-0.9,2.9-0.9
		c2.2,0,2.7,1.1,2.8,1.2l0.1,0.1c0.2,0.3,0.6,0.3,0.9,0.1l0,0c1.4-0.8,1.4-2.8,0-3.7c-0.9-0.6-2.1-1-3.8-1c-2.2,0-4,0.7-5.2,1.9
		c-1.6,1.7-1.6,3.8-1.6,4.3l0,3.6l-5,0v3.2l5,0L310.5,128.1z"/>
	<path class="st5" d="M247.3,109.8c-1.2-1.4-2.6-2.4-5.3-2.4c-3.8,0-4.9,1.1-6.4,3.3c-0.5,0.7-1,1.2-1.8,1c-0.7-0.2-0.8-1.3-0.7-2.2
		c0.3-1.6,3-5.3,8.8-5.3c3.5,0,6.2,1.1,7.9,3.2c2.1,2.5,2.1,5.7,2,6.2l0,14.5l-3.3,0v-3.1c-1.8,2.2-5,3.8-8.5,3.8
		c-5.6,0-8.3-2.3-8.3-7.4c0-4.2,4.4-6.6,10-7.1c2.8-0.2,2.8-0.2,6.6-0.3C248.5,114.1,248.8,111.5,247.3,109.8z M248.7,117
		c0,0-3.4-0.4-6.8,0c-3.3,0.5-6.5,2.4-6.5,4.5c0,2.7,1.9,4.2,5.9,4.2c3.5,0,6.7-2.3,7.4-6.4L248.7,117z"/>
	<g>
		<path class="st5" d="M258,128.1v-33c0,0,0.7-0.2,1.6-0.2s1.6,0.7,1.6,1.6v31.6H258z"/>
	</g>
	<path class="st5" d="M292.9,128.1h-18.6V97.3c0-0.9,0.7-1.6,1.6-1.6c0.9,0,1.6,0.7,1.6,1.6V125h15.4c0.9,0,1.6,0.7,1.6,1.6
		C294.5,127.4,293.8,128.1,292.9,128.1z"/>
	<path class="st5" d="M333.1,129c-6.2,0-11.7-5.9-11.7-12.7c0-6.7,5-12.2,11.2-12.2c6.2,0,11.2,5.5,11.2,12.2v1.6h-19.1
		c0.7,4.3,4.4,7.9,8.4,7.9c2.8,0,5.9-1.7,7.3-3.9c0.5-0.7,1.4-1,2.2-0.5c0.7,0.5,1,1.4,0.5,2.2C341.1,126.7,337,129,333.1,129z
		 M324.8,114.7h15.8c-0.7-4.2-4-7.4-7.9-7.4C328.7,107.3,325.4,110.5,324.8,114.7z"/>
</g>
</svg>
