<?xml version="1.0" encoding="utf-8"?>
<!-- Generator: Adobe Illustrator 19.2.1, SVG Export Plug-In . SVG Version: 6.00 Build 0)  -->
<svg version="1.1" id="Layer_1" xmlns="http://www.w3.org/2000/svg" xmlns:xlink="http://www.w3.org/1999/xlink" x="0px" y="0px"
	 width="200px" height="200px" viewBox="0 0 200 200" style="enable-background:new 0 0 200 200;" xml:space="preserve">
<style type="text/css">
	.st0{fill:#009EDE;}
	.st1{opacity:0.75;}
	.st2{fill:#FFFFFF;}
</style>
<path class="st0" d="M158.3,191.5H41.7c-18.3,0-33.2-14.9-33.2-33.2V41.7c0-18.3,14.9-33.2,33.2-33.2h116.5
	c18.3,0,33.2,14.9,33.2,33.2v116.5C191.5,176.5,176.5,191.5,158.3,191.5z"/>
<g class="st1">
	<g>
		<path d="M65.4,112.3L43.5,136c-2.7,3.2-2.7,8.2,0,11c0,0,0.5,0.5,0.9,0.5l32.4-35.6c-0.9-0.5-1.4-0.9-1.4-0.9
			C73.1,108.7,68.1,109.1,65.4,112.3 M110.6,74.5c0,0,0.5,0.5,0.9,1.4l32.4-35.6c-0.5-0.5-0.5-0.9-0.9-0.9c-2.7-3.2-8.2-3.2-11,0
			L110.1,63C107.8,66.7,107.8,71.7,110.6,74.5 M68.6,163l21-7.8c0,0,5.9-1.8,7.8-4.6L148,95c1.8-1.8,3.7-8.2,3.7-8.2l6.8-22.4
			c0.5-3.7-0.9-7.8-3.2-9.6c0,0-4.1-5-7.8-9.6l-32.4,35.6c2.3,3.2,4.1,5.5,4.6,5.5l-32,35.1c0,0-2.7-2.7-5.9-4.6l-32.4,35.6
			c4.1,3.7,9.1,7.8,9.1,7.8C61.3,162.1,65.4,163.5,68.6,163"/>
	</g>
</g>
<g>
	<g>
		<path class="st2" d="M64.4,111.3L42.5,135c-2.7,3.2-2.7,8.2,0,11c0,0,0.5,0.5,0.9,0.5l32.4-35.6c-0.9-0.5-1.4-0.9-1.4-0.9
			C72.1,107.7,67.1,108.1,64.4,111.3 M109.6,73.5c0,0,0.5,0.5,0.9,1.4l32.4-35.6c-0.5-0.5-0.5-0.9-0.9-0.9c-2.7-3.2-8.2-3.2-11,0
			L109.1,62C106.8,65.7,106.8,70.7,109.6,73.5 M67.6,162l21-7.8c0,0,5.9-1.8,7.8-4.6L147,94c1.8-1.8,3.7-8.2,3.7-8.2l6.8-22.4
			c0.5-3.7-0.9-7.8-3.2-9.6c0,0-4.1-5-7.8-9.6l-32.4,35.6c2.3,3.2,4.1,5.5,4.6,5.5l-32,35.1c0,0-2.7-2.7-5.9-4.6l-32.4,35.6
			c4.1,3.7,9.1,7.8,9.1,7.8C60.3,161.1,64.4,162.5,67.6,162"/>
	</g>
</g>
</svg>
