<?xml version="1.0" encoding="utf-8"?>
<!-- Generator: Adobe Illustrator 28.3.0, SVG Export Plug-In . SVG Version: 6.00 Build 0)  -->
<svg version="1.1" id="Layer_1" xmlns="http://www.w3.org/2000/svg" xmlns:xlink="http://www.w3.org/1999/xlink" x="0px" y="0px"
	 viewBox="0 0 46 46" style="enable-background:new 0 0 46 46;" xml:space="preserve">
<style type="text/css">
	.st0{fill:#0F9AFF;}
	.st1{fill:#E6FAFF;}
</style>
<g>
	<circle class="st0" cx="23" cy="23" r="22.5"/>
	<g>
		<path class="st1" d="M22.8,15.2v1.3H24v-1.3c1-0.3,1.8-1.2,1.8-2.3c0-1.4-1.1-2.4-2.3-2.4c-1.3,0-2.3,1.1-2.3,2.4
			C21,14,21.8,14.9,22.8,15.2z M23.4,11.7c0.6,0,1.2,0.5,1.2,1.2c0,0.6-0.5,1.2-1.2,1.2c-0.6,0-1.2-0.5-1.2-1.2S22.7,11.7,23.4,11.7
			z"/>
		<path class="st1" d="M24.8,17.1h-2.6c-6.3,0.4-11.2,3.1-11.6,12.1h26.1C36.3,20,31.2,17.3,24.8,17.1z M34.5,26.1
			c-0.1,0-0.1,0-0.2,0c-0.3,0-0.5-0.2-0.5-0.5c-0.5-1.8-1.3-3.1-2.4-4.1c-1.2-1-2.7-1.6-4.6-1.9c-0.4-0.1-0.5-0.4-0.5-0.7
			c0.1-0.4,0.4-0.5,0.6-0.5c2.2,0.4,3.9,1.1,5.2,2.2c1.4,1.1,2.3,2.7,2.9,4.7C35.1,25.6,34.9,26,34.5,26.1z"/>
		<path class="st1" d="M38,30.3H9.4H9.2c-0.4,0-0.6,0.3-0.6,0.6s0.3,0.6,0.6,0.6H38c0.4,0,0.6-0.3,0.6-0.6S38.3,30.3,38,30.3z"/>
	</g>
</g>
</svg>
