<?xml version="1.0" encoding="utf-8"?>
<!-- Generator: Adobe Illustrator 28.3.0, SVG Export Plug-In . SVG Version: 6.00 Build 0)  -->
<svg version="1.1" id="Layer_1" xmlns="http://www.w3.org/2000/svg" xmlns:xlink="http://www.w3.org/1999/xlink" x="0px" y="0px"
	 viewBox="0 0 46 46" style="enable-background:new 0 0 46 46;" xml:space="preserve">
<style type="text/css">
	.st0{fill:#0F9AFF;}
	.st1{fill:#E6FAFF;}
</style>
<g>
	<circle class="st0" cx="23" cy="23" r="22.5"/>
	<g>
		<path class="st1" d="M20.5,27.7c-0.1-0.5-0.3-0.9-0.5-1.3c-0.5,0.3-1.2,0.3-1.5-0.1c-0.4-0.4-0.4-1-0.1-1.5
			c-0.5-0.3-0.9-0.4-1.4-0.5c-0.2,0.5-0.6,1-1.2,1s-1-0.5-1.2-1c-0.5,0.1-0.9,0.3-1.3,0.5c0.3,0.5,0.3,1.2-0.1,1.5
			c-0.4,0.4-1,0.4-1.5,0.1c-0.3,0.4-0.5,0.8-0.5,1.3c0.6,0.2,1,0.6,1,1.2c0,0.5-0.4,1-1,1.2c0.1,0.5,0.3,0.9,0.5,1.3
			c0.5-0.3,1.2-0.3,1.5,0.1c0.4,0.4,0.4,1,0.1,1.5c0.4,0.3,0.9,0.5,1.3,0.5c0.2-0.5,0.6-1,1.2-1s1,0.4,1.2,1
			c0.5-0.1,0.9-0.3,1.4-0.5c-0.3-0.5-0.3-1.1,0.1-1.5c0.4-0.4,1-0.4,1.5-0.1c0.3-0.4,0.5-0.8,0.5-1.3c-0.6-0.2-1-0.6-1-1.2
			S19.9,27.9,20.5,27.7z M17.6,28.8c0,1-0.8,1.7-1.8,1.7S14,29.7,14,28.8c0-1,0.8-1.7,1.8-1.7S17.6,27.9,17.6,28.8z"/>
		<path class="st1" d="M23.1,12.4c0.4,0,0.7,0,1.1,0.1c-0.1,0.8,0.2,1.4,0.8,1.6c0.1,0,0.2,0,0.3,0c0.5,0,1-0.4,1.3-0.9
			c0.5,0.2,0.8,0.5,1.2,0.7c-0.4,0.6-0.5,1.4-0.2,1.8c0.2,0.2,0.5,0.4,0.8,0.4c0.4,0,0.7-0.1,1-0.3c0.3,0.4,0.5,0.8,0.6,1.2
			c-0.7,0.3-1.2,0.9-1.1,1.4c0.1,0.5,0.7,0.9,1.5,0.9h0.1c0,0.5,0,0.9-0.1,1.4c-0.1,0-0.2,0-0.3,0c-0.6,0-1.2,0.3-1.4,0.7
			c-0.2,0.5,0.2,1.2,0.9,1.5c-0.2,0.4-0.5,0.8-0.7,1.2c-0.4-0.3-0.7-0.4-1.1-0.4c-0.3,0-0.5,0.1-0.7,0.3c-0.5,0.4-0.5,1.1,0,1.8
			c-0.4,0.3-0.8,0.5-1.3,0.6c-0.3-0.6-0.8-1-1.3-1c-0.1,0-0.1,0-0.2,0c-0.5,0.1-1,0.7-0.9,1.5c-0.1,0-0.3,0-0.4,0
			c-0.4,0-0.7,0-1.1-0.1c0.1-0.8-0.2-1.4-0.8-1.6c-0.1,0-0.2,0-0.3,0c-0.5,0-1,0.4-1.3,0.9c-0.4-0.2-0.8-0.4-1.2-0.7
			c0.5-0.6,0.5-1.4,0.2-1.7c-0.2-0.2-0.5-0.4-0.8-0.4c-0.4,0-0.7,0.1-1,0.3c-0.3-0.4-0.4-0.8-0.6-1.2c0.7-0.3,1.2-0.9,1.1-1.4
			s-0.7-0.9-1.5-0.9h-0.1c0-0.5,0-0.9,0.1-1.4c0.1,0,0.2,0,0.3,0c0.6,0,1.2-0.3,1.3-0.7c0.2-0.5-0.2-1.2-0.9-1.5
			c0.2-0.4,0.5-0.8,0.7-1.2c0.4,0.3,0.7,0.4,1.1,0.4c0.3,0,0.5-0.1,0.7-0.3c0.5-0.4,0.5-1.1,0-1.8c0.4-0.3,0.8-0.5,1.3-0.6
			c0.3,0.6,0.8,1,1.3,1c0.1,0,0.1,0,0.2,0c0.5-0.1,1-0.7,0.9-1.5C22.9,12.4,23,12.4,23.1,12.4L23.1,12.4z M23.1,23.3
			c0.3,0,0.5,0,0.8-0.1c1-0.2,1.9-0.8,2.4-1.6c0.5-0.8,0.7-1.8,0.5-2.8c-0.4-1.7-2-3-3.8-3c-0.3,0-0.5,0-0.8,0.1
			c-1,0.2-1.9,0.8-2.4,1.6c-0.5,0.8-0.7,1.8-0.5,2.8C19.7,22.1,21.3,23.3,23.1,23.3L23.1,23.3z"/>
		<path class="st1" d="M38.1,25.7c0-0.4,0-0.7-0.1-1.1c-0.1,0-0.1,0-0.2,0c-0.5,0-1.1-0.3-1.3-0.7c-0.3-0.5-0.3-1.2,0.1-1.6
			c-0.5-0.4-1.2-0.9-1.9-1.1c-0.3,0.5-0.8,0.9-1.4,0.9c-0.6,0-1.2-0.4-1.4-0.9c-0.7,0.2-1.4,0.5-1.9,1.1c0.4,0.5,0.5,1.1,0.1,1.6
			c-0.3,0.5-0.8,0.7-1.3,0.7c-0.1,0-0.1,0-0.2,0c-0.1,0.4-0.1,0.7-0.1,1.1s0,0.7,0.1,1.1c0.1,0,0.1,0,0.2,0c0.5,0,1.1,0.3,1.3,0.7
			c0.3,0.5,0.3,1.2-0.1,1.6c0.5,0.4,1.2,0.9,1.9,1.1c0.3-0.5,0.8-0.9,1.4-0.9c0.6,0,1.2,0.4,1.4,0.9c0.7-0.2,1.3-0.5,1.9-1.1
			c-0.4-0.5-0.5-1.1-0.1-1.6c0.3-0.5,0.8-0.7,1.3-0.7c0.1,0,0.1,0,0.2,0C38,26.4,38.1,26.1,38.1,25.7z M35.3,25.7c0,1.1-0.9,2-2.1,2
			s-2.1-0.9-2.1-2s0.9-2,2.1-2C34.3,23.7,35.3,24.6,35.3,25.7z"/>
	</g>
</g>
</svg>
