<?xml version="1.0" encoding="utf-8"?>
<!-- Generator: Adobe Illustrator 19.2.1, SVG Export Plug-In . SVG Version: 6.00 Build 0)  -->
<svg version="1.1" xmlns="http://www.w3.org/2000/svg" xmlns:xlink="http://www.w3.org/1999/xlink" x="0px" y="0px" width="360px"
	 height="190px" viewBox="0 0 360 190" style="enable-background:new 0 0 360 190;" xml:space="preserve">
<style type="text/css">
	.st0{fill:#009EDE;}
</style>
<g id="Layer_1">
	<g id="Layer_5">
		<path d="M311.2,119.3c0.8,0,1.4,0.7,1.4,1.4v5c0,0.8-0.7,1.4-1.5,1.4c-21.6,0-20.5-17.1-20.5-17.1V84.6c0-0.7-0.6-1.3-1.3-1.3h-7
			c-0.8,0-1.4-0.6-1.4-1.4v-5c0-0.8,0.6-1.4,1.4-1.4c0,0,4.6,0,7,0c0.7,0,1.3-0.6,1.3-1.3v-9.7c0-0.8,0.6-1.4,1.4-1.4l5.9-0.5
			c0.8,0,1.4,0.6,1.4,1.4v10.2c0,0.7,0.6,1.3,1.3,1.3h11.3c0.8,0,1.4,0.6,1.4,1.4v5c0,0.8-0.6,1.4-1.4,1.4c0,0-8.1,0-11.3,0
			c-0.7,0-1.3,0.6-1.3,1.3v24.5C299.5,109.2,299.2,119.3,311.2,119.3z"/>
		<path d="M231.5,119.3c0.8,0,1.4,0.7,1.4,1.4v5c0,0.8-0.7,1.4-1.5,1.4c-21.6,0-20.5-17.1-20.5-17.1V84.6c0-0.7-0.6-1.3-1.3-1.3h-7
			c-0.8,0-1.4-0.6-1.4-1.4v-5c0-0.8,0.6-1.4,1.4-1.4c0,0,4.6,0,7,0c0.7,0,1.3-0.6,1.3-1.3v-9.7c0-0.8,0.6-1.4,1.4-1.4l5.9-0.5
			c0.8,0,1.4,0.6,1.4,1.4v10.2c0,0.7,0.6,1.3,1.3,1.3h11.3c0.8,0,1.4,0.6,1.4,1.4v5c0,0.8-0.6,1.4-1.4,1.4c0,0-8.1,0-11.3,0
			c-0.7,0-1.3,0.6-1.3,1.3v24.5C219.8,109.2,219.5,119.3,231.5,119.3z"/>
		<path d="M197.2,123.6c0.6,1.2,0,2.4-0.9,2.4s-6.1,0-6.1,0s-1.7-0.2-1.7-2.6v-3.2c-3.6,3.6-8.7,6.7-15.8,6.7
			c-16.5,0-16.6-14-16.6-14s-1.2-20.6,30.2-19.8c0.8,0,1.4-0.6,1.4-1.4c-0.2-2.8-1.7-8.5-9.8-8.5c-5.4,0-9.8,2.2-11.6,3.3
			c-0.6,0.3-1.3,0.2-1.7-0.3l-3.4-4.3c-0.5-0.6-0.3-1.6,0.4-2c4.3-2.4,10-4.4,17.2-4.4c18.6,0,17.7,16.6,17.7,16.6v11.3v17
			C196.5,120.3,196.7,122.3,197.2,123.6z M186,100.6c-23,0-21.6,11-21.6,11s0,7.3,9.2,7.3c12.9,0,14.6-14.9,14.6-14.9
			S188.9,100.6,186,100.6z"/>
		<path d="M250.7,86.6c0-3.5,2.3-5.1,5.6-5.1c3.4,0,4.7,1.9,4.7,5c0,3-2.3,4-6.9,6.8C251.7,90,250.7,89,250.7,86.6z M274.9,125.7
			l7.6-0.1c1.6-1.6,0-2.8,0-2.8l-9-9.5c-0.4-0.4-0.5-0.8-0.1-1.3l7.4-11.7c0.6-0.9,0-2.1-1.1-2.1h-5.3c-1.3,0-1.5,0.6-1.5,0.6
			l-4.3,7.8c-0.3,0.5-0.9,0.6-1.3,0.2c-1.8-1.9-6.1-6.4-7.1-7.4c-0.3-0.3-0.2-0.8,0.2-1c2.3-1.2,8.8-5.5,8.8-13.3
			c0-6.2-5.7-11-13.4-11s-13.2,5.9-13.2,12.2c0,5.6,3.1,9.1,4.5,10.4c0.3,0.3,0.3,0.8-0.1,1c-4.5,2.7-9.5,7.3-9.5,14.7
			c0,9.3,8.2,14.5,16.9,14.5s12.9-6.4,12.9-6.4l0.2-0.2c0.5-0.7,1.5-0.8,2.1-0.2L274.9,125.7z M263.1,113.6c0.2,0.2,0.3,0.6,0,0.9
			c-3.3,3.6-6.5,5-9.3,5c-3.1,0-8.1-2.8-8.1-7.5c0-4.8,3.2-6.7,3.2-6.7s1.2-0.9,3.2-2.2c0.3-0.2,0.6-0.1,0.8,0.1L263.1,113.6z"/>
	</g>
</g>
<g id="Layer_2">
	<path class="st0" d="M57.7,56.5c0,0-1.4,0.9-1.8,2.4c0,0-0.2,1,0.4,2.3c1.8,3.8,10.7,5.5,10.7,5.5c7.7,1.5,14.6,1.6,20.5,1.3
		c0,0,6.4-0.4,14.1-2.3c0,0,2.7-0.7,7.5-3.3c0.2-0.1,0.7-0.4,1.2-0.9c0.7-0.8,1-1.6,1-1.8c0.1-0.4,0.2-1,0-1.6
		c-0.3-0.9-0.8-1.5-0.8-1.5l0,0c-7.6-5-16.7-7.9-26.5-7.9C74.4,48.7,65.3,51.6,57.7,56.5"/>
	<path class="st0" d="M54.2,59c-0.3,0.3-0.6,0.7-1,1.1c-0.8,1-2.1,2.8-2.1,5.2c-0.1,3,1.8,5.2,2.5,6c1.1,1.3,2.9,2.8,7.1,4
		c3.2,0.9,6.4,1.4,12.3,1.4c4,0,9.1,0,15.9-1.2c6.2-1,10.5-2.4,13.9-3.5c0,0,2.9-1,9.2-4.6c0,0,2.9-1.6,3.8-3.9
		c0.4-0.9,0.3-1.7,0.3-1.7s0-0.5-0.2-1.1c0-0.1-0.1-0.3-0.2-0.4l0,0c2.7,2.4,5.1,5,7.2,7.9l0,0c0,0,0.2,0.5,0.6,1.4
		c0.5,1.2,0.3,2.4,0.1,3.3c-0.3,1.5-0.8,2.5-1,2.8c-1.2,2.1-3,3.4-4.3,4.1c-5,3-9.5,4-9.5,4c-10.6,2.4-19.3,2.4-19.3,2.4
		c-9.6,0.1-16.7-1.3-22.6-2.4c0,0-12.1-2.4-19-7.8c-0.9-0.7-3.1-2.6-3.3-5c-0.1-1-0.1-2.1-0.1-2.1l0,0C47.3,65.3,50.5,61.9,54.2,59"
		/>
	<path class="st0" d="M41.7,93.7c1.2,1.1,2.4,1.7,3.9,2.5c7.4,3.7,13.8,5.2,13.8,5.2c10.2,2.4,19.6,3,24,3.1
		c7.7,0.3,15.4,0,23.6-1.2c7.3-1.1,12.4-2.5,17.1-5.9c5.2-3.7,6-7.1,6.3-8.2c0.6-3,0.3-5.4,0.3-5.4c-0.9-3.4-2.2-6.6-3.9-9.6l0,0
		c0.1,0.5,0.2,0.9,0.2,1.4c0,0.5,0,1.7-0.8,3.3c-2.2,4.9-8.1,7.7-12.4,9.4c-5.4,2.2-10.8,3.8-17.6,5.2C89.6,95,84.8,96.1,78,96.3
		c-2.7,0.1-10.3,0.2-19.5-2c-2.9-0.7-6.4-1.7-10.2-4c-2.4-1.4-4.5-2.8-6.1-5.5c-0.5-0.9-2.4-4.1-1.7-8.3c0.1-0.3,0.1-0.6,0.2-0.8
		l0,0c-1.8,3.6-3.1,7.5-4,11.5C36.8,87.2,38.6,91,41.7,93.7z"/>
	<path class="st0" d="M35.8,97c0.1,0.3,0.2,0.6,0.3,1c0.3,0.9,1.6,4.4,6.8,8.7c3.3,2.8,8.1,5.7,15.4,7.7c8.9,2.4,16.1,1.9,23.8,1.2
		c9.8-0.9,16.4-2.9,25.6-5.7c2.1-0.7,15.3-4.8,21.5-11.7c0.8-0.9,1.9-2.2,2.5-4.2c0.2-0.8,0.4-1.5,0.4-2.3l0-0.3
		c0.2,1.8,0.3,3.7,0.3,5.6c0,2.7-0.2,5.4-0.7,8l0,0c0,0-0.5,3.2-2.8,6.5c-1.9,2.8-4.5,4.7-8.6,6.6c-7.7,3.7-14.7,4.8-17,5.2
		c-6.7,1-17.8,2.5-32.2,0.2c0,0-12.5-2-22.2-7.1c-2.5-1.3-4-2.4-4.3-2.7c-5.5-4.2-8.2-8.4-8.2-8.4C36,102.7,35.8,99.9,35.8,97
		L35.8,97z"/>
	<path class="st0" d="M122.3,126.6c-1.2,1.6-2.6,3.5-6.6,6.5c-1.4,1-5.2,3.7-14.3,5.9c-5.1,1.2-15.9,3.8-29.8,1.5
		c-6.7-1.1-11.8-1.9-17.3-5.7c-1.4-0.9-2.6-1.9-3.7-3l0,0c8.7,8.4,20.5,13.5,33.6,13.5C100.2,145.3,113.5,138.6,122.3,126.6"/>
	<path class="st0" d="M39.2,114.9c0.4,0.7,0.8,1.4,1.3,2.1c1.9,2.7,3.9,4.3,5.5,5.5c1.1,0.9,5.1,3.8,12.6,6.3
		c1.8,0.6,7.4,2.3,15.6,2.9c9.2,0.7,16.2-0.4,21.7-1.4c4.4-0.7,12.4-2.2,20.1-5.9c1.3-0.6,4.6-2.3,8.4-5.2c2.2-1.7,3.4-2.7,4.6-4.3
		c0.1-0.1,0.2-0.2,0.2-0.3l0,0c-1.3,3.3-2.9,6.4-4.9,9.3c0,0-2.8,3-6.8,5.9c-5.1,3.7-10,4.8-15.3,6c-1.9,0.4-9.9,2.1-21,1.5
		c-10.8-0.6-18.2-3-20.4-3.8c-6.1-2.1-9.3-4.2-10.7-5.2c-4.3-3-7-5.7-7-5.7C41.6,120.2,40.3,117.6,39.2,114.9L39.2,114.9z"/>
</g>
</svg>
