<?xml version="1.0" encoding="utf-8"?>
<!-- Generator: Adobe Illustrator 19.2.1, SVG Export Plug-In . SVG Version: 6.00 Build 0)  -->
<svg version="1.1" id="Layer_1" xmlns="http://www.w3.org/2000/svg" xmlns:xlink="http://www.w3.org/1999/xlink" x="0px" y="0px"
	 width="329px" height="68px" viewBox="0 0 329 68" style="enable-background:new 0 0 329 68;" xml:space="preserve">
<style type="text/css">
	.st0{fill:#e0a070;}
</style>
<g id="Layer_1_1_">
	<polygon class="st0" points="6.7,31.3 24.5,31.3 24.5,13.7 6.7,16.2 	"/>
	<polygon class="st0" points="24.5,51 24.5,33.4 6.7,33.4 6.7,48.5 	"/>
	<polygon class="st0" points="50.4,33.4 26.7,33.4 26.7,51.3 50.4,54.5 	"/>
	<polygon class="st0" points="50.4,31.3 50.4,10.2 26.7,13.4 26.7,31.3 	"/>
</g>
<g id="Layer_2">
	<g>
		<g>
			<path class="st0" d="M87.1,45.1V27.7c0-0.9,0.1-2.3,0.2-4.3h-0.1c-0.2,0.5-0.3,1-0.4,1.4s-0.3,0.7-0.4,1l-8.8,19.4h-1l-8.8-19.3
				c-0.3-0.6-0.5-1.4-0.8-2.5l0,0c0,0.5,0.1,1.2,0.1,1.8s0,1.5,0,2.3v17.6h-2.3V19.9h2.8l8.6,19c0.2,0.4,0.3,0.8,0.5,1.2
				s0.3,0.9,0.5,1.3h0.1c0.2-0.5,0.3-0.9,0.4-1.3c0.1-0.4,0.3-0.8,0.5-1.2l8.6-19h2.6v25.2C89.4,45.1,87.1,45.1,87.1,45.1z"/>
			<path class="st0" d="M90.2,45.9h-3.8V27.7l0,0l-8.3,18.2h-2l-8.3-18.2v18.2H64V19.1h4l8.8,19.4c0.1,0.3,0.2,0.5,0.3,0.8
				c0.1-0.2,0.2-0.5,0.3-0.8l8.8-19.4h3.9L90.2,45.9L90.2,45.9z M87.9,44.4h0.8V20.6h-1.4l-8.4,18.5c-0.2,0.4-0.3,0.8-0.5,1.2
				l-0.6,1.8h-1.2l-0.2-0.5c-0.1-0.4-0.3-0.9-0.4-1.3c-0.2-0.4-0.3-0.8-0.5-1.2l-8.4-18.5h-1.5v23.7h0.8V27.5c0-0.8,0-1.6,0-2.3
				c0-0.7,0-1.3-0.1-1.8l-0.1-0.8h1.4l0.2,0.6c0.3,1,0.5,1.8,0.8,2.4l8.6,18.8l8.6-19c0.1-0.2,0.2-0.5,0.4-0.9
				c0.1-0.4,0.3-0.8,0.4-1.3l0.2-0.5h1.4v0.8c-0.1,2-0.2,3.4-0.2,4.3v16.6H87.9z"/>
		</g>
		<g>
			<path class="st0" d="M97.6,22.5c-0.4,0-0.8-0.2-1.1-0.5c-0.3-0.3-0.5-0.7-0.5-1.2s0.2-0.8,0.5-1.1c0.3-0.3,0.7-0.4,1.1-0.4
				c0.2,0,0.4,0,0.6,0.1s0.4,0.2,0.5,0.3s0.3,0.3,0.4,0.5s0.1,0.4,0.1,0.6s0,0.4-0.1,0.6s-0.2,0.4-0.4,0.5c-0.2,0.1-0.3,0.3-0.5,0.3
				C98.1,22.5,97.9,22.5,97.6,22.5z M96.5,45.1v-18h2.3v18H96.5z"/>
			<path class="st0" d="M99.5,45.9h-3.8V26.4h3.8V45.9z M97.3,44.4H98V27.9h-0.8v16.5H97.3z M97.6,23.3c-0.6,0-1.2-0.2-1.6-0.7
				c-0.5-0.4-0.7-1-0.7-1.7s0.2-1.2,0.7-1.7c0.7-0.6,1.7-0.8,2.5-0.5c0.3,0.1,0.6,0.3,0.8,0.5c0.2,0.2,0.4,0.5,0.5,0.7
				c0.1,0.3,0.2,0.6,0.2,1c0,0.3-0.1,0.6-0.2,0.9s-0.3,0.6-0.5,0.8c-0.2,0.2-0.5,0.4-0.7,0.5C98.3,23.2,98,23.3,97.6,23.3z
				 M97.6,20.1c-0.2,0-0.4,0.1-0.6,0.2c-0.2,0.2-0.2,0.3-0.2,0.6c0,0.3,0.1,0.5,0.2,0.6c0.3,0.3,0.7,0.3,1,0.2
				c0.1,0,0.2-0.1,0.3-0.2c0.1-0.1,0.1-0.2,0.2-0.3c0-0.1,0.1-0.2,0.1-0.3c0-0.1,0-0.2-0.1-0.3c0-0.1-0.1-0.2-0.2-0.3
				c-0.1-0.1-0.2-0.1-0.3-0.2C97.9,20.1,97.7,20.1,97.6,20.1z"/>
		</g>
		<g>
			<path class="st0" d="M117.4,44.3c-1.3,0.8-3,1.2-4.9,1.2c-1.3,0-2.5-0.2-3.5-0.7s-1.9-1.1-2.6-1.9c-0.7-0.8-1.3-1.8-1.7-2.9
				c-0.4-1.1-0.6-2.3-0.6-3.6s0.2-2.6,0.6-3.8s1-2.2,1.8-3.1s1.7-1.6,2.9-2.1c1.1-0.5,2.4-0.8,3.9-0.8s2.9,0.3,4.1,0.9v2.4
				c-1.3-0.9-2.7-1.3-4.3-1.3c-1.1,0-2,0.2-2.9,0.6c-0.8,0.4-1.5,1-2.1,1.7s-1,1.5-1.3,2.4s-0.4,1.9-0.4,3c0,1,0.1,1.9,0.4,2.8
				c0.3,0.9,0.6,1.7,1.2,2.3c0.5,0.7,1.2,1.2,2,1.6c0.8,0.4,1.7,0.6,2.8,0.6c1.7,0,3.2-0.5,4.6-1.5V44.3z"/>
			<path class="st0" d="M112.5,46.3c-1.4,0-2.6-0.2-3.7-0.7s-2.1-1.2-2.9-2.1c-0.8-0.9-1.4-1.9-1.8-3.1c-0.4-1.2-0.6-2.5-0.6-3.9
				s0.2-2.8,0.7-4.1c0.4-1.3,1.1-2.4,1.9-3.4c0.9-1,1.9-1.7,3.1-2.3c1.2-0.6,2.6-0.8,4.2-0.8s3.1,0.3,4.4,0.9l0.4,0.2v4.3l-1.2-0.8
				c-1.2-0.8-2.5-1.2-3.8-1.2c-0.9,0-1.8,0.2-2.5,0.5c-0.7,0.4-1.4,0.8-1.8,1.5c-0.5,0.6-0.9,1.4-1.2,2.2c-0.3,0.9-0.4,1.8-0.4,2.7
				s0.1,1.7,0.3,2.6c0.2,0.8,0.6,1.5,1,2.1c0.5,0.6,1,1.1,1.7,1.4c0.7,0.3,1.5,0.5,2.5,0.5c1.5,0,2.9-0.4,4.1-1.4l1.2-0.9v4.1
				l-0.4,0.2C116.3,45.7,114.5,46.1,112.5,46.3C112.6,46.3,112.5,46.3,112.5,46.3z M113.4,27.4c-1.4,0-2.6,0.2-3.6,0.7
				s-1.9,1.1-2.6,1.9s-1.3,1.8-1.6,2.9c-0.4,1.1-0.6,2.3-0.6,3.6c0,1.2,0.2,2.3,0.5,3.4c0.4,1,0.9,1.9,1.5,2.6
				c0.7,0.7,1.5,1.3,2.4,1.7s2,0.6,3.2,0.6c1.6,0,3-0.3,4.1-0.9v-0.4c-1.2,0.6-2.5,0.9-3.8,0.9c-1.2,0-2.2-0.2-3.2-0.7
				c-0.9-0.4-1.6-1.1-2.2-1.8s-1-1.6-1.3-2.6c-0.3-0.9-0.4-1.9-0.4-3s0.2-2.2,0.5-3.2s0.8-1.9,1.4-2.7s1.4-1.4,2.4-1.9
				c1.9-0.9,4.5-0.9,6.7,0.1V28C115.7,27.6,114.6,27.4,113.4,27.4z"/>
		</g>
		<g>
			<path class="st0" d="M131.6,29.4c-0.5-0.4-1.2-0.6-2-0.6c-0.6,0-1.1,0.1-1.6,0.3c-0.5,0.2-0.9,0.5-1.2,0.9
				c-0.3,0.4-0.6,0.8-0.9,1.3c-0.2,0.5-0.4,1-0.6,1.6c-0.1,0.6-0.3,1.1-0.3,1.7c-0.1,0.6-0.1,1.1-0.1,1.6V45h-2.2V27h2.2v4h0.1
				c0.2-0.7,0.5-1.2,0.8-1.8c0.3-0.5,0.7-1,1.1-1.3s0.9-0.6,1.4-0.8c0.5-0.2,1-0.3,1.6-0.3c0.4,0,0.7,0,1,0.1c0.3,0,0.5,0.1,0.8,0.2
				v2.3C131.7,29.4,131.6,29.4,131.6,29.4z"/>
			<path class="st0" d="M125.7,45.9H122V26.4h3.7v1.7c0.2-0.3,0.5-0.5,0.8-0.8c0.5-0.4,1-0.7,1.6-0.9c0.9-0.4,2.1-0.4,2.9-0.2
				c0.3,0.1,0.7,0.1,0.9,0.3l0.5,0.2V31l-1.2-0.9c-0.4-0.3-0.9-0.4-1.6-0.4c-0.5,0-0.9,0.1-1.2,0.3c-0.4,0.2-0.7,0.4-1,0.8
				c-0.3,0.3-0.6,0.7-0.8,1.2c-0.2,0.5-0.4,1-0.5,1.5s-0.2,1-0.3,1.6c-0.1,0.5-0.1,1-0.1,1.5C125.7,36.6,125.7,45.9,125.7,45.9z
				 M123.4,44.4h0.7v-8.1c0-0.5,0-1.1,0.1-1.7c0.1-0.6,0.2-1.2,0.3-1.8c0.1-0.4,0.2-0.8,0.4-1.1h-0.7l-0.1-0.8v-3.1h-0.7
				C123.4,27.8,123.4,44.4,123.4,44.4z M129.9,27.5c-0.5,0-0.9,0.1-1.3,0.2c-0.4,0.2-0.8,0.4-1.2,0.7c-0.2,0.2-0.4,0.4-0.6,0.6
				c0.3-0.2,0.6-0.4,0.9-0.6c0.9-0.5,2.2-0.5,3.2-0.3v-0.6c0,0-0.1,0-0.2,0C130.5,27.5,130.2,27.5,129.9,27.5z"/>
		</g>
		<g>
			<path class="st0" d="M142.7,45.5c-1.3,0-2.5-0.2-3.6-0.7c-1.1-0.4-2-1.1-2.7-1.9c-0.8-0.8-1.3-1.8-1.7-2.9s-0.6-2.4-0.6-3.8
				c0-1.5,0.2-2.8,0.6-4c0.4-1.2,1-2.2,1.8-3s1.7-1.5,2.8-1.9s2.3-0.7,3.7-0.7c1.3,0,2.5,0.2,3.5,0.6s1.9,1,2.7,1.9
				c0.7,0.8,1.3,1.8,1.7,3c0.4,1.2,0.6,2.5,0.6,4c0,1.4-0.2,2.7-0.6,3.8c-0.4,1.2-1,2.1-1.7,3c-0.8,0.8-1.7,1.5-2.7,1.9
				C145.3,45.3,144,45.5,142.7,45.5z M142.9,28.6c-1,0-1.9,0.2-2.7,0.5s-1.5,0.8-2,1.5c-0.6,0.7-1,1.4-1.3,2.4
				c-0.3,0.9-0.5,2-0.5,3.2c0,1.1,0.2,2.1,0.5,3s0.7,1.7,1.3,2.3s1.2,1.1,2,1.5s1.7,0.5,2.7,0.5s1.9-0.2,2.7-0.5s1.4-0.8,2-1.5
				c0.5-0.6,0.9-1.4,1.2-2.3c0.3-0.9,0.4-2,0.4-3.2c0-2.4-0.5-4.3-1.6-5.6C146.4,29.3,144.9,28.6,142.9,28.6z"/>
			<path class="st0" d="M142.7,46.3c-1.4,0-2.7-0.2-3.9-0.7s-2.2-1.2-3-2.1c-0.8-0.9-1.4-2-1.9-3.2c-0.4-1.2-0.6-2.6-0.6-4
				c0-1.6,0.2-3,0.7-4.3s1.1-2.4,2-3.3s1.9-1.6,3.1-2.1c1.2-0.5,2.5-0.7,4-0.7c1.4,0,2.7,0.2,3.8,0.7s2.1,1.2,2.9,2
				c0.8,0.9,1.4,2,1.8,3.2c0.4,1.2,0.6,2.6,0.6,4.2c0,1.5-0.2,2.9-0.6,4.1c-0.4,1.2-1.1,2.3-1.9,3.2c-0.8,0.9-1.8,1.6-3,2.1
				C145.5,46,144.1,46.3,142.7,46.3z M143,27.4c-1.3,0-2.4,0.2-3.4,0.6s-1.9,1-2.6,1.7c-0.7,0.7-1.3,1.7-1.6,2.8
				c-0.4,1.1-0.6,2.4-0.6,3.8c0,1.3,0.2,2.5,0.6,3.5c0.4,1,0.9,1.9,1.6,2.7c0.7,0.7,1.5,1.3,2.5,1.7s2.1,0.6,3.3,0.6
				c1.3,0,2.4-0.2,3.4-0.6c1-0.4,1.8-1,2.5-1.7c0.7-0.8,1.2-1.7,1.6-2.7c0.4-1.1,0.6-2.3,0.6-3.6c0-1.4-0.2-2.6-0.5-3.7
				c-0.4-1.1-0.9-2-1.5-2.7s-1.5-1.3-2.4-1.7C145.3,27.6,144.2,27.4,143,27.4z M142.8,44.4c-1.1,0-2.1-0.2-3-0.6
				c-0.9-0.4-1.7-1-2.3-1.7s-1.1-1.6-1.4-2.6c-0.3-1-0.5-2.1-0.5-3.3c0-1.3,0.2-2.4,0.5-3.4s0.8-1.9,1.5-2.7
				c0.6-0.7,1.4-1.3,2.3-1.7c0.9-0.4,1.9-0.6,3-0.6c2.2,0,4,0.7,5.2,2.2c1.2,1.4,1.8,3.5,1.8,6.1c0,1.3-0.1,2.4-0.4,3.4
				c-0.3,1-0.8,1.9-1.4,2.6c-0.6,0.7-1.4,1.3-2.2,1.7C144.9,44.2,143.9,44.4,142.8,44.4z M142.9,29.4c-0.9,0-1.7,0.2-2.4,0.5
				s-1.3,0.7-1.8,1.3c-0.5,0.6-0.9,1.3-1.2,2.1c-0.3,0.9-0.4,1.9-0.4,3c0,1,0.1,2,0.4,2.8c0.3,0.8,0.7,1.5,1.2,2.1s1.1,1,1.8,1.3
				c1.4,0.6,3.4,0.6,4.8,0c0.7-0.3,1.2-0.7,1.7-1.3s0.8-1.3,1.1-2.1c0.3-0.9,0.4-1.8,0.4-3c0-2.2-0.5-3.9-1.4-5.1
				C146,29.9,144.7,29.4,142.9,29.4z"/>
		</g>
		<g>
			<path class="st0" d="M155.9,41.9c0.3,0.3,0.7,0.5,1.1,0.7c0.4,0.2,0.8,0.4,1.2,0.5c0.4,0.2,0.8,0.3,1.3,0.3
				c0.4,0.1,0.8,0.1,1.2,0.1c2.7,0,4-1,4-3c0-0.5-0.1-0.9-0.3-1.2s-0.5-0.6-0.8-0.9c-0.4-0.3-0.8-0.5-1.3-0.8s-1.1-0.5-1.7-0.7
				c-0.8-0.3-1.5-0.7-2.1-1s-1.1-0.7-1.5-1.2s-0.7-0.9-0.9-1.4s-0.3-1.1-0.3-1.7c0-0.8,0.2-1.5,0.5-2.1s0.8-1.1,1.4-1.6
				c0.6-0.4,1.3-0.8,2-1c0.8-0.2,1.6-0.3,2.4-0.3c1.6,0,2.9,0.3,4.1,0.9v2.4c-1.3-0.9-2.8-1.3-4.4-1.3c-0.6,0-1.1,0.1-1.5,0.2
				s-0.9,0.3-1.2,0.6c-0.3,0.3-0.6,0.6-0.8,0.9c-0.2,0.4-0.3,0.8-0.3,1.2s0.1,0.8,0.2,1.2s0.4,0.6,0.7,0.9c0.3,0.3,0.7,0.5,1.2,0.8
				c0.5,0.2,1.1,0.5,1.7,0.8c0.9,0.4,1.6,0.7,2.3,1c0.6,0.3,1.2,0.7,1.6,1.1c0.4,0.4,0.7,0.9,0.9,1.4s0.3,1.1,0.3,1.7
				c0,0.8-0.2,1.5-0.5,2.2c-0.3,0.6-0.8,1.2-1.4,1.6c-0.6,0.4-1.3,0.8-2.1,1s-1.7,0.3-2.6,0.3c-1.8,0-3.3-0.4-4.6-1.1v-2.5
				C155.7,41.9,155.9,41.9,155.9,41.9z"/>
			<path class="st0" d="M160.4,46.3c-2,0-3.6-0.4-5-1.3l-0.4-0.2v-4.5l1.2,1c0.3,0.2,0.6,0.5,1,0.6c0.4,0.2,0.7,0.4,1.1,0.5
				c0.4,0.1,0.8,0.2,1.2,0.3s0.7,0.1,1.1,0.1c2.9,0,3.3-1.2,3.3-2.3c0-0.3-0.1-0.6-0.2-0.8c-0.1-0.2-0.3-0.5-0.6-0.7
				s-0.7-0.5-1.1-0.7c-0.5-0.2-1-0.5-1.6-0.7c-0.9-0.3-1.6-0.7-2.2-1.1c-0.7-0.4-1.2-0.8-1.6-1.3c-0.5-0.5-0.8-1-1-1.6
				s-0.3-1.2-0.3-2c0-0.9,0.2-1.8,0.6-2.5c0.4-0.7,0.9-1.3,1.6-1.8c0.7-0.5,1.4-0.9,2.3-1.1c0.8-0.2,1.7-0.4,2.6-0.4
				c1.7,0,3.2,0.3,4.4,1l0.4,0.2v4.2l-1.2-0.7c-1.2-0.8-2.6-1.2-4-1.2c-0.5,0-0.9,0.1-1.3,0.2c-0.4,0.1-0.7,0.3-0.9,0.5
				s-0.4,0.4-0.6,0.7c-0.1,0.3-0.2,0.5-0.2,0.8s0.1,0.6,0.2,0.9c0.1,0.2,0.3,0.4,0.5,0.6c0.2,0.2,0.6,0.4,1,0.7
				c0.5,0.2,1,0.5,1.7,0.8c0.9,0.4,1.7,0.7,2.3,1.1c0.7,0.4,1.3,0.8,1.7,1.2c0.5,0.5,0.8,1,1.1,1.6c0.2,0.6,0.4,1.3,0.4,2
				c0,0.9-0.2,1.8-0.6,2.5c-0.4,0.7-0.9,1.4-1.6,1.9c-0.7,0.5-1.4,0.9-2.3,1.1C162.4,46.2,161.4,46.3,160.4,46.3z M156.6,44
				c1.1,0.6,2.3,0.8,3.8,0.8c0.9,0,1.7-0.1,2.4-0.3s1.3-0.5,1.8-0.9s0.9-0.8,1.2-1.3s0.4-1.1,0.4-1.8c0-0.6-0.1-1-0.2-1.5
				c-0.2-0.4-0.4-0.8-0.7-1.1c-0.4-0.4-0.8-0.7-1.4-1c-0.6-0.3-1.3-0.7-2.2-1c-0.7-0.3-1.3-0.6-1.8-0.8c-0.5-0.3-1-0.6-1.3-0.9
				c-0.4-0.3-0.7-0.7-0.8-1.2c-0.2-0.4-0.3-0.9-0.3-1.5s0.1-1.1,0.4-1.5c0.2-0.5,0.6-0.8,1-1.2c0.4-0.3,0.9-0.6,1.4-0.7
				c0.5-0.2,1.1-0.2,1.8-0.2c1.3,0,2.5,0.3,3.6,0.8V28c-1-0.4-2.1-0.6-3.3-0.6c-0.8,0-1.5,0.1-2.2,0.3c-0.7,0.2-1.3,0.5-1.8,0.9
				s-0.9,0.8-1.2,1.3s-0.4,1.1-0.4,1.8c0,0.5,0.1,1,0.2,1.4c0.2,0.4,0.4,0.8,0.7,1.1c0.3,0.4,0.8,0.7,1.3,1c0.6,0.3,1.3,0.7,2,1
				c0.6,0.3,1.2,0.5,1.7,0.8s1,0.5,1.4,0.9c0.4,0.3,0.8,0.7,1,1.1c0.3,0.4,0.4,1,0.4,1.6c0,1.4-0.6,3.8-4.8,3.8
				c-0.4,0-0.9,0-1.4-0.1s-0.9-0.2-1.4-0.4s-0.9-0.4-1.3-0.6l0,0L156.6,44L156.6,44z"/>
		</g>
		<g>
			<path class="st0" d="M179.8,45.5c-1.3,0-2.5-0.2-3.6-0.7c-1.1-0.4-2-1.1-2.7-1.9c-0.8-0.8-1.3-1.8-1.7-2.9s-0.6-2.4-0.6-3.8
				c0-1.5,0.2-2.8,0.6-4c0.4-1.2,1-2.2,1.8-3s1.7-1.5,2.8-1.9s2.3-0.7,3.7-0.7c1.3,0,2.5,0.2,3.5,0.6s1.9,1,2.7,1.9
				c0.7,0.8,1.3,1.8,1.7,3c0.4,1.2,0.6,2.5,0.6,4c0,1.4-0.2,2.7-0.6,3.8c-0.4,1.2-1,2.1-1.7,3c-0.8,0.8-1.7,1.5-2.7,1.9
				C182.4,45.3,181.1,45.5,179.8,45.5z M180,28.6c-1,0-1.9,0.2-2.7,0.5s-1.5,0.8-2,1.5c-0.6,0.7-1,1.4-1.3,2.4
				c-0.3,0.9-0.5,2-0.5,3.2c0,1.1,0.2,2.1,0.5,3s0.7,1.7,1.3,2.3s1.2,1.1,2,1.5c0.8,0.3,1.7,0.5,2.7,0.5s1.9-0.2,2.7-0.5
				s1.4-0.8,2-1.5c0.5-0.6,0.9-1.4,1.2-2.3c0.3-0.9,0.4-2,0.4-3.2c0-2.4-0.5-4.3-1.6-5.6C183.5,29.3,182,28.6,180,28.6z"/>
			<path class="st0" d="M179.8,46.3c-1.4,0-2.7-0.2-3.9-0.7s-2.2-1.2-3-2.1c-0.8-0.9-1.5-2-1.9-3.2s-0.6-2.6-0.6-4
				c0-1.6,0.2-3,0.7-4.3s1.1-2.4,2-3.3s1.9-1.6,3.1-2.1c1.2-0.5,2.5-0.7,4-0.7c1.4,0,2.7,0.2,3.8,0.7s2.1,1.2,2.9,2
				c0.8,0.9,1.4,2,1.8,3.2c0.4,1.2,0.6,2.6,0.6,4.2c0,1.5-0.2,2.9-0.6,4.1c-0.4,1.2-1.1,2.3-1.9,3.2c-0.8,0.9-1.8,1.6-3,2.1
				C182.6,46,181.2,46.3,179.8,46.3z M180.1,27.4c-1.3,0-2.4,0.2-3.4,0.6s-1.9,1-2.6,1.7c-0.7,0.7-1.3,1.7-1.6,2.8
				c-0.4,1.1-0.6,2.4-0.6,3.8c0,1.3,0.2,2.5,0.6,3.5c0.4,1,0.9,1.9,1.6,2.7c0.7,0.7,1.5,1.3,2.5,1.7s2.1,0.6,3.3,0.6
				c1.3,0,2.4-0.2,3.4-0.6c1-0.4,1.8-1,2.5-1.7c0.7-0.8,1.2-1.7,1.6-2.7c0.4-1.1,0.6-2.3,0.6-3.6c0-1.4-0.2-2.6-0.5-3.7
				c-0.4-1.1-0.9-2-1.5-2.7s-1.5-1.3-2.4-1.7C182.4,27.6,181.3,27.4,180.1,27.4z M179.9,44.4c-1.1,0-2.1-0.2-3-0.6
				c-0.9-0.4-1.7-1-2.3-1.7s-1.1-1.6-1.4-2.6c-0.3-1-0.5-2.1-0.5-3.3c0-1.3,0.2-2.4,0.5-3.4s0.8-1.9,1.5-2.7
				c0.6-0.7,1.4-1.3,2.3-1.7c0.9-0.4,1.9-0.6,3-0.6c2.2,0,4,0.7,5.2,2.2c1.2,1.4,1.8,3.5,1.8,6.1c0,1.3-0.1,2.4-0.4,3.4
				c-0.3,1-0.8,1.9-1.4,2.6c-0.6,0.7-1.4,1.3-2.2,1.7C182,44.2,181,44.4,179.9,44.4z M180,29.4c-0.9,0-1.7,0.2-2.4,0.5
				s-1.3,0.7-1.8,1.3c-0.5,0.6-0.9,1.3-1.2,2.1c-0.3,0.9-0.4,1.9-0.4,3c0,1,0.1,2,0.4,2.8c0.3,0.8,0.7,1.5,1.2,2.1s1.1,1,1.8,1.3
				c1.4,0.6,3.4,0.6,4.8,0c0.7-0.3,1.2-0.7,1.7-1.3s0.8-1.3,1.1-2.1c0.3-0.9,0.4-1.8,0.4-3c0-2.2-0.5-3.9-1.4-5.1
				C183.1,29.9,181.8,29.4,180,29.4z"/>
		</g>
		<g>
			<path class="st0" d="M201.7,20.6c-0.5-0.3-1.2-0.5-2-0.5c-2.1,0-3.2,1.4-3.2,4.1v2.9h4.5v2h-4.5v16h-2.3v-16h-3.1v-2h3.1v-3
				c0-0.9,0.1-1.7,0.3-2.5s0.6-1.4,1-1.9s1-0.9,1.7-1.2c0.7-0.3,1.5-0.4,2.3-0.4s1.5,0.1,2,0.3v2.2
				C201.5,20.6,201.7,20.6,201.7,20.6z"/>
			<path class="st0" d="M197.3,45.9h-3.8v-16h-3.1v-3.5h3.1v-2.3c0-1,0.1-1.9,0.4-2.7c0.3-0.8,0.6-1.5,1.2-2.1
				c0.5-0.6,1.2-1.1,2-1.4s1.6-0.5,2.6-0.5s1.7,0.1,2.3,0.4l0.4,0.2v4l-1.2-0.8c-0.4-0.2-0.9-0.4-1.5-0.4c-1.1,0-2.4,0.4-2.4,3.4
				v2.1h4.5v3.5h-4.5V45.9z M195.1,44.4h0.8v-16h4.5v-0.5h-4.5v-3.6c0-4.2,2.5-4.9,3.9-4.9c0.4,0,0.8,0,1.2,0.1V19
				c-0.3-0.1-0.8-0.1-1.3-0.1c-0.8,0-1.5,0.1-2,0.4c-0.6,0.2-1,0.6-1.4,1s-0.7,1-0.9,1.6c-0.2,0.7-0.3,1.4-0.3,2.2v3.8H192v0.5h3.1
				V44.4z"/>
		</g>
		<g>
			<path class="st0" d="M213.2,44.9c-0.8,0.4-1.6,0.6-2.5,0.6c-2.9,0-4.4-1.7-4.4-5V29.1h-3.2v-2h3.2v-4.5l2.3-0.7v5.3h4.6v2h-4.6
				v11c0,1.2,0.2,2.1,0.6,2.6c0.4,0.5,1.1,0.8,2,0.8c0.7,0,1.4-0.2,2-0.6L213.2,44.9L213.2,44.9z"/>
			<path class="st0" d="M210.7,46.2c-2.3,0-5.1-1-5.1-5.8V29.8h-3.2v-3.5h3.2V22l3.8-1.2v5.6h4.6v3.5h-4.6v10.3
				c0,1.3,0.2,1.9,0.5,2.2c0.1,0.1,0.4,0.5,1.4,0.5c0.6,0,1.1-0.2,1.6-0.5l1.2-0.8v3.8l-0.4,0.2C212.7,46,211.7,46.2,210.7,46.2z
				 M203.9,28.3h3.2v12.1c0,3,1.1,4.3,3.6,4.3c0.6,0,1.2-0.1,1.8-0.3v-0.3c-0.4,0.1-0.8,0.2-1.3,0.2c-1.2,0-2.1-0.4-2.6-1.1
				c-0.5-0.7-0.7-1.7-0.7-3.1V28.3h4.6v-0.5h-4.6v-5l-0.8,0.2v4.7h-3.2V28.3z"/>
		</g>
		<g>
			<path class="st0" d="M245.3,45.1l-2.8-7.5h-10.8l-2.7,7.5h-2.6l9.6-25.2h2.4l9.6,25.2H245.3z M237.6,24.3
				c-0.1-0.2-0.2-0.5-0.3-0.8s-0.2-0.6-0.2-1H237c-0.1,0.4-0.1,0.7-0.2,1c-0.1,0.3-0.2,0.6-0.3,0.8l-4.1,11.2h9.2L237.6,24.3z"/>
			<path class="st0" d="M249,45.9h-4.2l-2.8-7.5h-9.8l-2.7,7.5h-4.2l10.2-26.7h3.4L249,45.9z M245.8,44.4h1l-9-23.7h-1.3l-9,23.7h1
				l2.7-7.5h11.9L245.8,44.4z M242.8,36.3h-11.4l4.4-12.2c0.1-0.2,0.2-0.5,0.2-0.7c0.1-0.3,0.2-0.6,0.2-0.9l0.1-0.6h1.3l0.2,0.6
				c0.1,0.3,0.1,0.6,0.2,0.9c0.1,0.3,0.2,0.5,0.2,0.7l0,0L242.8,36.3z M233.6,34.8h7.1l-3.6-9.7L233.6,34.8z"/>
		</g>
		<g>
			<path class="st0" d="M253.8,43.2h11.1v2h-14.5v-0.8l11.3-15.3h-10.4v-2h13.9v0.6L253.8,43.2z"/>
			<path class="st0" d="M265.6,45.9h-16v-1.8l10.6-14.3h-9.6v-3.5H266V28l-10.6,14.4h10.4v3.5H265.6z M251.3,44.4h12.9v-0.5h-11.8
				l11.8-16H252v0.5h11.1L251.3,44.4z"/>
		</g>
		<g>
			<path class="st0" d="M281.6,45.1V42h-0.1c-1.2,2.3-3.1,3.5-5.7,3.5c-4.3,0-6.4-2.6-6.4-7.8V27.1h2.3v10.2c0,2.2,0.4,3.8,1.2,4.8
				c0.8,1,1.9,1.5,3.5,1.5c0.8,0,1.5-0.2,2.1-0.4c0.6-0.3,1.2-0.7,1.7-1.3c0.5-0.5,0.8-1.2,1.1-2s0.4-1.6,0.4-2.5V27.1h2.3v18H281.6
				z"/>
			<path class="st0" d="M275.9,46.3c-3.3,0-7.2-1.5-7.2-8.6V26.4h3.8v10.9c0,2,0.3,3.4,1,4.3c0.6,0.8,1.6,1.2,2.9,1.2
				c0.7,0,1.3-0.1,1.8-0.4c0.5-0.2,1-0.6,1.4-1.1s0.7-1,0.9-1.7c0.2-0.7,0.3-1.5,0.3-2.3v-11h3.8v19.5h-3.8v-1.6
				C279.6,45.6,277.9,46.3,275.9,46.3z M270.2,27.9v9.8c0,4.8,1.8,7.1,5.7,7.1c1.6,0,2.9-0.5,3.9-1.5c-0.3,0.2-0.6,0.4-1,0.6
				c-0.7,0.3-1.6,0.5-2.4,0.5c-1.8,0-3.2-0.6-4.1-1.9c-0.9-1.2-1.3-2.9-1.3-5.2v-9.4C271,27.9,270.2,27.9,270.2,27.9z M282.4,44.4
				h0.8V27.9h-0.8v9.5c0,1-0.1,1.9-0.4,2.8c-0.1,0.4-0.3,0.8-0.5,1.1h0.8l0.1,0.8V44.4z"/>
		</g>
		<g>
			<path class="st0" d="M299.5,29.4c-0.5-0.4-1.2-0.6-2-0.6c-0.6,0-1.1,0.1-1.6,0.3c-0.5,0.2-0.9,0.5-1.2,0.9
				c-0.3,0.4-0.6,0.8-0.9,1.3s-0.4,1-0.6,1.6c-0.1,0.6-0.3,1.1-0.3,1.7c-0.1,0.6-0.1,1.1-0.1,1.6V45h-2.2V27h2.2v4h0.1
				c0.2-0.7,0.5-1.2,0.8-1.8c0.3-0.5,0.7-1,1.1-1.3s0.9-0.6,1.4-0.8c0.5-0.2,1-0.3,1.6-0.3c0.4,0,0.7,0,1,0.1c0.3,0,0.5,0.1,0.8,0.2
				L299.5,29.4L299.5,29.4z"/>
			<path class="st0" d="M293.6,45.9h-3.7V26.4h3.7v1.7c0.2-0.3,0.5-0.5,0.8-0.8c0.5-0.4,1-0.7,1.6-0.9c0.9-0.4,2.1-0.4,2.9-0.2
				c0.3,0.1,0.7,0.1,0.9,0.3l0.5,0.2V31l-1.2-0.9c-0.4-0.3-0.9-0.4-1.6-0.4c-0.5,0-0.9,0.1-1.2,0.3c-0.4,0.2-0.7,0.4-1,0.8
				c-0.3,0.3-0.6,0.7-0.8,1.2c-0.2,0.5-0.4,1-0.5,1.5s-0.2,1-0.3,1.6c-0.1,0.5-0.1,1-0.1,1.5L293.6,45.9L293.6,45.9z M291.3,44.4
				h0.7v-8.1c0-0.5,0-1.1,0.1-1.7c0.1-0.6,0.2-1.2,0.3-1.8c0.1-0.4,0.2-0.8,0.4-1.1h-0.7l-0.1-0.8v-3.1h-0.7L291.3,44.4L291.3,44.4z
				 M297.8,27.5c-0.5,0-0.9,0.1-1.3,0.2c-0.4,0.2-0.8,0.4-1.2,0.7c-0.2,0.2-0.4,0.4-0.6,0.6c0.3-0.2,0.6-0.4,0.9-0.6
				c0.9-0.5,2.2-0.5,3.2-0.3v-0.6c0,0-0.1,0-0.2,0C298.4,27.5,298.1,27.5,297.8,27.5z"/>
		</g>
		<g>
			<path class="st0" d="M304.3,36.5c0,1.1,0.2,2.1,0.4,3c0.3,0.9,0.7,1.6,1.2,2.2c0.5,0.6,1.2,1.1,1.9,1.4c0.8,0.3,1.6,0.5,2.6,0.5
				c2,0,3.9-0.7,5.8-2.1v2.2c-1.7,1.2-3.8,1.8-6.3,1.8c-1.2,0-2.3-0.2-3.3-0.6c-1-0.4-1.8-1-2.5-1.8s-1.2-1.8-1.6-3s-0.6-2.5-0.6-4
				c0-1.3,0.2-2.6,0.6-3.7c0.4-1.1,1-2.1,1.7-3c0.7-0.8,1.6-1.5,2.6-2s2.1-0.7,3.3-0.7c1.2,0,2.2,0.2,3.1,0.6s1.6,1,2.2,1.7
				c0.6,0.8,1.1,1.7,1.4,2.7c0.3,1.1,0.5,2.3,0.5,3.6v1.1L304.3,36.5L304.3,36.5z M315,34.6c0-1.9-0.5-3.3-1.3-4.4s-2-1.5-3.6-1.5
				c-0.8,0-1.5,0.1-2.1,0.4c-0.7,0.3-1.2,0.7-1.7,1.2s-0.9,1.1-1.2,1.9c-0.3,0.7-0.5,1.6-0.7,2.5L315,34.6L315,34.6z"/>
			<path class="st0" d="M309.9,46.3c-1.3,0-2.5-0.2-3.6-0.7s-2-1.2-2.8-2c-0.8-0.9-1.3-2-1.7-3.2c-0.4-1.2-0.6-2.7-0.6-4.2
				c0-1.4,0.2-2.8,0.7-4c0.4-1.2,1.1-2.3,1.8-3.2c0.8-0.9,1.7-1.6,2.8-2.2c1.1-0.5,2.3-0.8,3.6-0.8c1.3,0,2.4,0.2,3.4,0.7
				s1.8,1.1,2.5,1.9s1.2,1.8,1.5,3c0.3,1.1,0.5,2.4,0.5,3.8v1.9h-13c0.1,0.7,0.2,1.4,0.4,2c0.3,0.8,0.6,1.4,1.1,2
				c0.5,0.5,1,0.9,1.7,1.2s1.4,0.4,2.3,0.4c1.8,0,3.6-0.7,5.3-2l1.2-1V44l-0.3,0.2C314.8,45.6,312.5,46.3,309.9,46.3z M310.1,27.4
				c-1.1,0-2.1,0.2-3,0.6s-1.7,1-2.3,1.8c-0.7,0.8-1.2,1.7-1.6,2.7c-0.4,1.1-0.6,2.2-0.6,3.5c0,1.4,0.2,2.7,0.5,3.8s0.8,2,1.5,2.7
				c0.6,0.7,1.4,1.3,2.2,1.6c0.9,0.4,1.9,0.6,3,0.6c2.1,0,4-0.5,5.5-1.5v-0.4c-1.6,1-3.3,1.4-5,1.4c-1,0-2-0.2-2.9-0.5
				c-0.9-0.4-1.6-0.9-2.2-1.6c-0.6-0.7-1-1.5-1.4-2.5c-0.3-0.9-0.5-2-0.5-3.2v-0.8h13v-0.4c0-1.3-0.1-2.4-0.4-3.4s-0.7-1.8-1.2-2.5
				s-1.2-1.2-2-1.5C312.1,27.6,311.2,27.4,310.1,27.4z M315.8,35.3h-12.3l0.1-0.9c0.1-1,0.4-1.9,0.7-2.7c0.4-0.8,0.8-1.5,1.4-2.1
				s1.2-1,2-1.3c0.7-0.3,1.5-0.5,2.4-0.5c1.8,0,3.1,0.6,4.1,1.8s1.5,2.8,1.5,4.8L315.8,35.3z M305.3,33.8h9
				c-0.1-1.3-0.5-2.4-1.1-3.1c-0.7-0.9-1.7-1.3-3-1.3c-0.7,0-1.3,0.1-1.8,0.3c-0.6,0.2-1,0.6-1.5,1c-0.4,0.4-0.8,1-1.1,1.6
				C305.5,32.8,305.4,33.3,305.3,33.8z"/>
		</g>
	</g>
</g>
</svg>
