<?xml version="1.0" encoding="utf-8"?>
<!-- Generator: Adobe Illustrator 19.1.0, SVG Export Plug-In . SVG Version: 6.00 Build 0)  -->
<!DOCTYPE svg PUBLIC "-//W3C//DTD SVG 1.1//EN" "http://www.w3.org/Graphics/SVG/1.1/DTD/svg11.dtd">
<svg version="1.1" id="Layer_1" xmlns="http://www.w3.org/2000/svg" xmlns:xlink="http://www.w3.org/1999/xlink" x="0px" y="0px"
	 viewBox="0 0 120 120" enable-background="new 0 0 120 120" xml:space="preserve">
<path fill="#E11075" d="M59.9,1.3C27.3,1.3,1,27.7,1,60.2c0,32.5,26.4,58.9,58.9,58.9c32.5,0,58.9-26.4,58.9-58.9
	C118.8,27.7,92.4,1.3,59.9,1.3z M59.9,113.6c-29.5,0-53.4-23.9-53.4-53.4c0-29.5,23.9-53.4,53.4-53.4c29.5,0,53.4,23.9,53.4,53.4
	C113.2,89.7,89.4,113.6,59.9,113.6z M84,39.3c0,1.4-1.2,2.6-2.6,2.6c-1.4,0-2.6-1.2-2.6-2.6v-6.5c0-1.4,1.2-2.6,2.6-2.6
	c1.4,0,2.6,1.2,2.6,2.6V39.3z M41.1,32.8c0-1.4-1.2-2.6-2.6-2.6c-1.4,0-2.6,1.2-2.6,2.6v6.5c0,1.4,1.2,2.6,2.6,2.6
	c1.4,0,2.6-1.2,2.6-2.6V32.8z M87.2,36.6v2.7c0,3.2-2.6,5.7-5.7,5.7c-3.2,0-5.7-2.6-5.7-5.7v-2.7H44.2v2.7c0,3.2-2.6,5.7-5.7,5.7
	c-3.2,0-5.7-2.6-5.7-5.7v-2.7h-6.2v53.7h66.7V36.6H87.2z M87.5,84.6H32.2V50.4h55.3V84.6z M37.3,53.5h2.8l5.2,8.8v-8.8h2.6v12.8
	h-2.7l-5.2-8.8v8.8h-2.6V53.5z M55.8,53.2c3.8,0,6.3,2.6,6.3,6.8c0,4.1-2.4,6.8-6.3,6.8s-6.3-2.6-6.3-6.8
	C49.5,55.8,52,53.2,55.8,53.2z M55.8,64.4c2.3,0,3.6-1.6,3.6-4.5c0-2.9-1.4-4.5-3.6-4.5c-2.2,0-3.6,1.6-3.6,4.5
	C52.2,62.8,53.6,64.4,55.8,64.4z M62.1,53.5h2.7l2.2,9.1l1.9-9.1h2.8l1.9,9.1l2.2-9.1h2.7l-3.7,12.8h-2.5l-2-9.8l-2,9.8h-2.5
	L62.1,53.5z M79.8,57v-3.5h2.7V57l-0.7,5.8h-1.3L79.8,57z M79.8,63.8h2.6v2.6h-2.6V63.8z M89.4,70v-1H31.7v1H39v6.8h-7.3v1H39v9.5h1
	v-9.5h7v9.5h1v-9.5h7v9.5h1v-9.5h7v9.5h1v-9.5h7v9.5h1v-9.5h7v9.5h1v-9.5h7.9v-1h-7.9V70H89.4z M40.1,76.8V70h7v6.8H40.1z
	 M48.1,76.8V70h7v6.8H48.1z M56.2,76.8V70h7v6.8H56.2z M64.3,76.8V70h7v6.8H64.3z M79.4,76.8h-7V70h7V76.8z"/>
</svg>
