<?xml version="1.0" encoding="utf-8"?>
<!-- Generator: Adobe Illustrator 15.0.0, SVG Export Plug-In . SVG Version: 6.00 Build 0)  -->
<!DOCTYPE svg PUBLIC "-//W3C//DTD SVG 1.1//EN" "http://www.w3.org/Graphics/SVG/1.1/DTD/svg11.dtd">
<svg version="1.1" id="Layer_1" xmlns="http://www.w3.org/2000/svg" xmlns:xlink="http://www.w3.org/1999/xlink" x="0px" y="0px"
	 width="360px" height="110.5px" viewBox="0 0 360 110.5" enable-background="new 0 0 360 110.5" xml:space="preserve">
<path fill="#e0a070" d="M180.078,55.8c0,9.226,6.614,14.446,15.751,19.755l6.614,3.916c3.916,2.61,5.222,5.222,5.222,7.919
	c0,3.916-3.916,6.614-9.226,6.614c-9.224,0-13.141-7.92-14.445-15.839V76.86h-3.917v22.365h3.917l0,0
	c1.305-1.306,1.305-1.306,1.305-1.306c1.306,0,10.53,2.61,14.446,2.61c7.92,0,19.755-5.309,19.755-17.144
	c0-7.919-5.309-11.835-10.53-15.839l-13.141-7.919c-3.916-2.61-5.309-5.221-5.309-7.919s2.611-6.614,7.919-6.614
	c3.916,0,9.226,1.305,11.836,14.446v1.305h5.309V41.354h-3.916v1.306c0,0,0,0-1.306,0h-1.306c-2.61-2.611-6.613-3.916-10.529-3.916
	C187.91,38.656,180.078,45.27,180.078,55.8"/>
<path fill="#e0a070" d="M93.228,66.33c0-15.751,7.918-21.06,13.14-21.06c6.614,0,10.53,5.309,10.53,11.835v27.673
	c0,2.611-3.916,5.31-7.919,5.31C101.06,90,93.228,84.778,93.228,66.33 M128.733,11.069c-2.61,1.306-10.53,3.916-18.449,5.309h-1.305
	V21.6h1.305c3.916,0,5.309,0,6.614,0c0,0,1.306,1.305,1.306,3.916c0,0,0,14.446,0,17.144c-3.916-2.611-6.614-3.916-11.835-3.916
	c-6.44,0-13.314,2.958-18.014,7.397c-5.222,4.96-7.659,13.924-8.18,20.886C80.087,68.157,80,69.202,80,70.246
	c0,28.979,21.06,28.979,23.671,28.979c6.613,0,10.529-1.306,14.445-5.222c0,1.306,0,3.916,0,3.916l1.306,1.306l19.754-6.614v-3.916
	h-1.305c-3.916,0-5.309,0-6.614-1.306c0,0-1.306-1.306-1.306-2.611V12.375L128.733,11.069z"/>
<path fill="#e0a070" d="M278.764,94.004c-5.222-1.306-6.614-1.306-6.614-9.226V59.716c0-14.446-5.222-21.06-17.144-21.06
	c-6.614,0-11.835,2.611-17.144,7.919c0-2.611,0-34.201,0-34.201l-1.306-1.306l0,0l0,0c-2.61,1.306-13.141,3.916-17.144,5.309h-1.306
	V21.6h1.306c1.306,0,1.306,0,2.61,0c1.306,0,1.306,0,2.611,1.305c1.305,1.306,1.305,2.611,1.305,3.916l0,0v57.872
	c0,7.919,0,9.224-6.614,9.224h-1.305v5.222H247v-5.222l0,0c-5.222,0-6.614-1.305-6.614-9.224V55.8
	c1.305-1.305,5.309-6.613,11.836-6.613c5.308,0,7.919,3.916,7.919,11.835v23.671c0,7.919-1.306,7.919-6.614,9.224l0,0v5.222H281.2
	L278.764,94.004L278.764,94.004"/>
<path fill="#e0a070" d="M160.323,97.92c9.225,0,14.446-5.222,17.144-11.836c0,0,0-1.306,0,0c-2.611,0-9.225,2.611-17.144,2.611
	c-9.224,0-15.838-2.611-17.144-3.917l0,0C145.791,92.698,149.793,97.92,160.323,97.92"/>
<path fill="#e0a070" d="M145.791,70.246c2.611,5.222,6.614,9.225,13.141,9.225c7.919,0,11.835-3.916,13.14-9.225l0,0
	c-1.305,1.306-6.613,2.611-13.14,2.611C153.709,72.943,148.488,70.246,145.791,70.246C145.791,68.941,145.791,70.246,145.791,70.246
	"/>
<path fill="#e0a070" d="M149.793,55.8c1.306,3.916,5.308,6.614,10.53,6.614c5.221,0,7.919-3.916,10.53-6.614l0,0
	c-1.305,0-5.309,1.306-10.53,1.306C155.015,57.105,151.099,55.8,149.793,55.8L149.793,55.8"/>
<path fill="#e0a070" d="M160.323,46.576c3.916,0,5.309-2.611,6.614-5.309l0,0c0,0-2.611,1.305-6.614,1.305
	c-3.916,0-7.919-1.305-7.919-1.305l0,0C153.709,45.27,156.407,46.576,160.323,46.576"/>
<path fill="#e0a070" d="M148.488,21.6c0-5.222,5.308-10.53,11.835-10.53s10.53,5.309,10.53,10.53c0,6.614-5.221,10.53-10.53,10.53
	C153.709,32.129,148.488,28.126,148.488,21.6"/>
</svg>
