<?xml version="1.0" encoding="utf-8"?>
<!-- Generator: Adobe Illustrator 19.2.1, SVG Export Plug-In . SVG Version: 6.00 Build 0)  -->
<svg version="1.1" xmlns="http://www.w3.org/2000/svg" xmlns:xlink="http://www.w3.org/1999/xlink" x="0px" y="0px" width="482.7px"
	 height="108px" viewBox="0 0 482.7 108" style="enable-background:new 0 0 482.7 108;" xml:space="preserve">
<style type="text/css">
	.st0{display:none;}
	.st1{display:inline;stroke:#FFFFFF;stroke-miterlimit:10;}
	.st2{display:inline;}
	.st3{fill:#009EDE;}
	.st4{fill:#FFFFFF;}
</style>
<g id="Layer_1" class="st0">
	<rect x="193.8" y="1.8" class="st1" width="10.4" height="52.8"/>
	<polygon class="st1" points="407.5,36.1 418.1,1.8 428.8,1.8 411.3,54.6 403.6,54.6 386.1,1.8 396.9,1.8 	"/>
	<polygon class="st1" points="357,11 343.3,11 343.3,1.8 381.2,1.8 381.2,11 367.4,11 367.4,54.6 357,54.6 	"/>
	<polygon class="st1" points="295.9,1.8 295.9,11 271.5,11 271.5,23.4 292.3,23.4 292.3,32.6 271.5,32.6 271.5,45.4 295.9,45.4 
		295.9,54.6 261.1,54.6 261.1,1.8 	"/>
	<path class="st1" d="M156.4,11c0,0,3.3,0,8.1,0c0.7,0,1.4,0.1,2.1,0.2h0.1c1.2,0.2,2.4,0.8,3.4,1.5c1.1,0.8,2,1.8,2.6,3
		c0.7,1.3,0.9,2.8,1,4.3c0.2,1.8,0.3,3.6,0.3,5.5c0,0.9,0,1.8,0,2.7c0,0.9,0,1.8,0,2.7c0,1.8-0.1,3.7-0.3,5.5
		c-0.2,1.5-0.3,2.9-1,4.3c-0.6,1.2-1.5,2.2-2.6,3c-1,0.7-2.1,1.2-3.4,1.5h-0.1c-0.7,0.1-1.4,0.2-2.1,0.2c-4.9,0-8.1,0-8.1,0
		C156.4,45.3,156.4,11,156.4,11z M146,1.8v52.8h19.6c5.9-0.2,11.8-2.3,15.3-7.3c3.9-5.7,3.5-12.5,3.5-19.1s0.5-13.4-3.5-19.1
		c-3.5-5-9.4-7.1-15.3-7.3L146,1.8z"/>
	<path class="st1" d="M224.9,33.5v21.1h-10.4V1.8h20.8c9.4,0,17,6.3,17,15.9c0,7.5-3.8,12.2-9.6,14.2l11.8,22.8h-12l-10.3-21.2
		H224.9z M224.9,24.9h10.2c3.8,0,7-3.1,7-6.9s-3.1-6.9-7-6.9h-10.2C224.9,11,224.9,24.9,224.9,24.9z"/>
	<path class="st1" d="M329.9,38.4c-0.7,4.3-4.3,7.5-8.9,7.5c-4.3,0-9-2.7-9-11.1c0-4.4,0-8.8,0-13.1c0-8.4,4.7-11.1,9-11.1
		c4.6,0,8.2,3.3,8.9,7.5l0,0h10.5c-0.7-4.9-3-8.7-4.8-10.7c-4.7-5.3-12.7-7-19.5-5.5c-3.7,0.9-7.2,2.8-9.8,5.7c-1.8,2-3.1,4.4-3.8,7
		c-0.6,2.2-0.7,4.5-0.8,6.8s-0.2,4.5-0.2,6.8s0.1,4.5,0.2,6.8s0.2,4.6,0.8,6.8c0.7,2.6,2,5,3.8,7c2.6,2.9,6,4.8,9.8,5.7
		c6.8,1.6,14.7-0.1,19.5-5.5c1.8-2,4.1-5.8,4.8-10.7L329.9,38.4L329.9,38.4z"/>
	<rect x="191.5" y="71.3" class="st1" width="3.7" height="34.5"/>
	<path class="st1" d="M14,71.3"/>
	<path class="st1" d="M22,94.8H9.2l6.4-18L22,94.8z M8.1,98h15.1l0,0l2.8,7.8h4L17.2,71.3H14L1.3,105.8h4L8.1,98z"/>
	<path class="st1" d="M384.2,94.8h-12.8l6.4-18L384.2,94.8z M370.3,98h15.1l0,0l2.8,7.8h4l-12.7-34.5h-3.2l-12.7,34.5h4
		C367.5,105.8,370.3,98,370.3,98z"/>
	<path class="st1" d="M46.6,106.1c4.6,0,11.9-2.5,11.9-11.5V71.3h-3.7v23.3l0,0c0,4.5-3,8.2-8.2,8.2h-0.2c-5.2,0-8.2-3.7-8.2-8.2
		l0,0V71.3h-3.7v23.3c0,9,7.3,11.5,11.9,11.5C46.4,106.1,46.6,106.1,46.6,106.1z"/>
	<polyline class="st1" points="75,74.7 65.1,74.7 65.1,71.3 88.8,71.3 88.8,74.7 78.7,74.7 78.7,105.8 75,105.8 75,74.7 	"/>
	<polygon class="st1" points="99.2,90.1 99.2,105.8 95.5,105.8 95.5,71.3 99.2,71.3 99.2,86.7 115.6,86.7 115.6,71.3 119.3,71.3 
		119.3,105.8 115.6,105.8 115.6,90.1 	"/>
	<path class="st1" d="M139.7,74.3c5.2,0,8.2,4.4,8.2,8.9v10.6c0,4.5-3,8.9-8.2,8.9h-0.3c-5.2,0-8.2-4.4-8.2-8.9V83.3
		c0-4.5,3-8.9,8.2-8.9L139.7,74.3L139.7,74.3z M139.5,71c-6.3,0.3-11.9,4.1-11.9,12.4v10.2c0,8.3,5.6,12.2,11.9,12.4h0.3
		c6.3-0.3,11.9-4.1,11.9-12.4V83.4c0-8.3-5.6-12.2-11.9-12.4H139.5z"/>
	<path class="st1" d="M163.6,74.7h9.9c3.6,0,6.1,2.8,6.1,6.3s-2.5,6.3-6.1,6.3h-9.9C163.6,87.2,163.6,74.7,163.6,74.7z M163.6,90.5
		h8.2l7.8,15.4h4.4l-8.3-15.7c4.4-0.7,7.6-4.1,7.6-9.2c0-5.7-4.4-9.6-9.7-9.6h-13.8v34.5h3.7C163.6,105.8,163.6,90.5,163.6,90.5z"/>
	<path class="st1" d="M459.1,74.7h9.9c3.6,0,6.1,2.8,6.1,6.3s-2.5,6.3-6.1,6.3h-9.9C459.1,87.2,459.1,74.7,459.1,74.7z M459.1,90.5
		h8.2l7.8,15.4h4.4l-8.3-15.7c4.4-0.7,7.6-4.1,7.6-9.2c0-5.7-4.4-9.6-9.7-9.6h-13.8v34.5h3.7C459.1,105.8,459.1,90.5,459.1,90.5z"/>
	<polygon class="st1" points="224.1,74.3 206.7,102.5 224,102.5 224,105.8 202.5,105.8 202.5,102.5 219.7,74.7 203.2,74.7 
		203.2,71.3 224.1,71.3 	"/>
	<polygon class="st1" points="252.8,71.3 252.8,74.6 235.1,74.6 235.1,86.8 250.3,86.8 250.3,90.1 235.1,90.1 235.1,102.5 
		252.8,102.5 252.8,105.8 231.4,105.8 231.4,71.3 	"/>
	<polygon class="st1" points="358.5,71.3 358.5,74.6 340.8,74.6 340.8,86.8 355.9,86.8 355.9,90.1 340.8,90.1 340.8,102.5 
		358.5,102.5 358.5,105.8 337.1,105.8 337.1,71.3 	"/>
	<polygon class="st1" points="448,71.3 448,74.6 430.2,74.6 430.2,86.8 445.4,86.8 445.4,90.1 430.2,90.1 430.2,102.5 448,102.5 
		448,105.8 426.5,105.8 426.5,71.3 	"/>
	<polygon class="st1" points="398.5,71.3 398.5,105.8 419.8,105.8 419.8,102.5 402.2,102.5 402.2,71.3 	"/>
	<path class="st1" d="M270.9,74.6c1.4,0,2.8,0.1,4.1,0.6l0,0c0.4,0.1,0.8,0.3,1.3,0.5c2.4,1.1,3.4,3.7,3.9,6.1
		c0.4,2.4,0.4,11.3,0,13.2c-0.4,2.5-1.5,5.2-3.9,6.4c-0.5,0.2-0.9,0.4-1.3,0.5l0,0c-1.3,0.4-2.7,0.6-4.1,0.6h-7V74.6
		C263.9,74.6,270.9,74.6,270.9,74.6z M272.2,105.8c12.4,0,12-11.8,12-13.7V85c0-1.8,0.4-13.7-12-13.7c-0.2,0-12,0-12,0v34.5
		C260.2,105.8,271.9,105.8,272.2,105.8z"/>
	<path class="st1" d="M315.6,74.6c1.4,0,2.8,0.1,4.1,0.6l0,0c0.4,0.1,0.8,0.3,1.3,0.5c2.4,1.1,3.4,3.7,3.9,6.1
		c0.4,2.4,0.4,11.3,0,13.2c-0.4,2.5-1.5,5.2-3.9,6.4c-0.5,0.2-0.9,0.4-1.3,0.5l0,0c-1.3,0.4-2.7,0.6-4.1,0.6h-7V74.6
		C308.6,74.6,315.6,74.6,315.6,74.6z M316.9,105.8c12.4,0,12-11.8,12-13.7V85c0-1.8,0.4-13.7-12-13.7c-0.2,0-12,0-12,0v34.5
		C304.9,105.8,316.6,105.8,316.9,105.8z"/>
	<rect x="2" y="61.8" class="st1" width="477.6" height="1.7"/>
	<g id="Layer_3_1_" class="st2">
		<circle class="st3" cx="108.6" cy="29.2" r="27.4"/>
		<path d="M93.6,6.3c0,0-0.8,0.5-1,1.4c0,0-0.1,0.6,0.2,1.3c1,2.2,6.1,3.1,6.1,3.1c4.4,0.8,8.3,0.9,11.6,0.7c0,0,3.6-0.2,8-1.3
			c0,0,1.5-0.4,4.2-1.9c0.1-0.1,0.4-0.2,0.7-0.5c0.4-0.5,0.6-0.9,0.6-1c0.1-0.2,0.1-0.6,0-0.9c-0.2-0.5-0.5-0.8-0.5-0.8
			s2.6,1.2,3,2.4c0.1,0.3,0.1,0.6,0.1,0.6s0,0.5-0.2,1c-0.5,1.3-2.2,2.2-2.2,2.2c-3.6,2-5.2,2.6-5.2,2.6c-1.9,0.6-4.3,1.4-7.9,2
			c-3.8,0.6-6.7,0.6-9,0.6c-3.3,0-5.2-0.2-7-0.8c-2.4-0.7-3.4-1.5-4-2.3c-0.4-0.5-1.5-1.7-1.4-3.4c0.1-1.4,0.7-2.4,1.2-2.9
			C92.2,6.9,93.6,6.3,93.6,6.3z"/>
		<path d="M86.2,13.4c0,0,0.1,0.6,0.1,1.2c0.1,1.4,1.4,2.4,1.9,2.8c3.9,3.1,10.8,4.4,10.8,4.4c3.3,0.6,7.3,1.4,12.8,1.4
			c0,0,4.9-0.1,10.9-1.4c0,0,2.5-0.6,5.4-2.3c0.7-0.5,1.8-1.1,2.4-2.3c0.1-0.2,0.4-0.8,0.6-1.6c0.1-0.5,0.2-1.2-0.1-1.9
			c-0.2-0.5-0.3-0.8-0.3-0.8s2.2,1.8,2.3,4.1c0,0.3,0,1-0.5,1.9c-1.2,2.8-4.6,4.4-7,5.3c-3.1,1.2-6.1,2.2-10,2.9
			c-3.8,0.8-6.5,1.4-10.4,1.5c-1.5,0.1-5.8,0.1-11-1.1c-1.6-0.4-3.6-1-5.8-2.3c-1.4-0.8-2.5-1.6-3.5-3.1c-0.3-0.5-1.4-2.3-1-4.7
			C84.3,15.2,86.2,13.4,86.2,13.4z"/>
		<path d="M81.7,23.5c0,0,0.7,2,2.9,3.9c0.7,0.6,1.4,1,2.2,1.4c4.2,2.1,7.8,2.9,7.8,2.9c5.8,1.4,11.1,1.7,13.6,1.8
			c4.4,0.2,8.7,0,13.4-0.7c4.1-0.6,7-1.4,9.7-3.3c2.9-2.1,3.4-4,3.6-4.6c0.3-1.7,0.2-3.1,0.2-3.1s1.5,2.9,0.6,5.7
			c-0.3,1.1-1,1.9-1.4,2.4c-3.5,3.9-11,6.2-12.2,6.6c-5.2,1.6-9,2.7-14.5,3.2c-4.4,0.4-8.4,0.7-13.5-0.7c-4.1-1.1-6.9-2.8-8.7-4.4
			c-2.9-2.4-3.7-4.4-3.9-4.9C80.3,26.8,81.7,23.5,81.7,23.5z"/>
		<path d="M81.6,34c0,0,1.5,2.4,4.6,4.8c0.2,0.2,1.1,0.8,2.4,1.5c5.5,2.9,12.6,4,12.6,4c8.2,1.4,14.4,0.5,18.2-0.1
			c1.3-0.2,5.3-0.8,9.6-2.9c2.3-1.1,3.8-2.2,4.9-3.7c1.3-1.9,1.6-3.7,1.6-3.7s0.2,3.1-1.6,5.6c-0.7,0.9-1.4,1.5-2.6,2.4
			c-2.2,1.6-4,2.6-4.8,2.9c-4.3,2.1-8.9,2.9-11.4,3.3c-3.1,0.5-7.1,1.2-12.3,0.8c-4.6-0.3-7.8-1.4-8.8-1.6c-4.3-1.4-6.5-3.1-7.1-3.6
			c-0.9-0.7-2-1.6-3.1-3.1C81.8,37.6,81.6,34,81.6,34z"/>
		<path d="M85.4,43.7c0,0,1.5,1.5,4,3.2c0.8,0.6,2.6,1.8,6.1,2.9c1.2,0.5,5.5,1.8,11.6,2.2c6.3,0.3,10.8-0.6,11.9-0.8
			c3-0.6,5.8-1.3,8.7-3.4c2.3-1.6,3.9-3.3,3.9-3.3s-1.9,3-4.9,5.3c-0.8,0.6-2.9,2.1-8.1,3.3c-2.9,0.7-9,2.2-16.9,0.8
			c-3.8-0.6-6.7-1.1-9.8-3.2C87.6,47.8,85.4,43.7,85.4,43.7z"/>
	</g>
</g>
<g id="Layer_2">
	<g id="Layer_3">
		<circle class="st3" cx="119.2" cy="53" r="51.6"/>
		<path d="M91,9.7c0,0-1.5,1-1.9,2.6c0,0-0.2,1.1,0.4,2.5c1.9,4.1,11.4,5.9,11.4,5.9c8.2,1.6,15.6,1.7,21.9,1.4
			c0,0,6.8-0.4,15.1-2.5c0,0,2.9-0.7,8-3.5c0.2-0.1,0.7-0.4,1.3-1c0.7-0.9,1.1-1.7,1.1-1.9c0.1-0.4,0.2-1.1,0-1.7
			c-0.3-1-0.9-1.6-0.9-1.6s4.9,2.4,5.7,4.6c0.2,0.5,0.2,1.2,0.2,1.2s0,1-0.3,1.8c-1,2.5-4.1,4.2-4.1,4.2c-6.7,3.8-9.8,4.9-9.8,4.9
			c-3.6,1.2-8.1,2.7-14.8,3.7c-7.2,1.2-12.6,1.2-16.9,1.2c-6.3,0-9.7-0.4-13.1-1.5c-4.5-1.4-6.4-2.9-7.6-4.3
			c-0.7-0.9-2.8-3.2-2.7-6.4c0.1-2.7,1.4-4.5,2.2-5.6C88.3,10.9,91,9.7,91,9.7z"/>
		<path d="M76.9,23.3c0,0,0.1,1.2,0.1,2.2c0.1,2.7,2.6,4.6,3.5,5.3c7.3,5.8,20.3,8.3,20.3,8.3c6.3,1.2,13.8,2.7,24.1,2.6
			c0,0,9.3-0.1,20.6-2.6c0,0,4.8-1.1,10.1-4.3c1.4-0.9,3.3-2.1,4.6-4.4c0.2-0.3,0.7-1.5,1.1-3c0.2-1,0.4-2.2-0.1-3.5
			c-0.3-1-0.6-1.5-0.6-1.5s4.2,3.4,4.3,7.8c0,0.5,0,1.8-0.9,3.5c-2.4,5.2-8.7,8.2-13.2,10c-5.8,2.4-11.5,4.1-18.8,5.6
			c-7.2,1.5-12.3,2.6-19.6,2.8c-2.9,0.1-11,0.2-20.8-2.1c-3.1-0.7-6.8-1.8-10.9-4.3c-2.6-1.5-4.8-3-6.5-5.9c-0.5-1-2.6-4.4-1.8-8.9
			C73.4,26.6,76.9,23.3,76.9,23.3z"/>
		<path d="M68.5,42.2c0,0,1.4,3.7,5.4,7.3c1.3,1.2,2.6,1.8,4.2,2.7c7.9,4,14.7,5.6,14.7,5.6c10.9,2.6,20.9,3.2,25.6,3.3
			c8.2,0.3,16.5,0,25.2-1.3c7.8-1.2,13.2-2.7,18.3-6.3c5.6-4,6.4-7.6,6.7-8.8c0.6-3.2,0.3-5.8,0.3-5.8s2.8,5.4,1.1,10.8
			c-0.6,2.1-1.8,3.6-2.7,4.5c-6.6,7.4-20.7,11.8-23,12.5c-9.8,3-16.9,5.1-27.3,6.1c-8.2,0.7-15.8,1.3-25.4-1.3
			c-7.8-2.1-12.9-5.3-16.5-8.2c-5.6-4.6-6.9-8.3-7.3-9.3C65.9,48.4,68.5,42.2,68.5,42.2z"/>
		<path d="M68.4,62c0,0,2.9,4.5,8.8,9c0.4,0.3,2,1.5,4.6,2.9c10.4,5.4,23.7,7.6,23.7,7.6c15.4,2.6,27.2,0.9,34.4-0.2
			c2.5-0.3,9.9-1.5,18.2-5.6c4.4-2,7.2-4.1,9.2-7.1c2.5-3.6,3-6.9,3-6.9s0.4,5.8-3.1,10.6c-1.3,1.7-2.6,2.8-4.9,4.6
			c-4.1,3.1-7.6,4.9-9,5.6c-8.1,4-16.8,5.4-21.5,6.3c-5.9,1-13.4,2.2-23.2,1.5c-8.8-0.6-14.7-2.6-16.7-3.1
			c-8.1-2.7-12.3-5.8-13.5-6.7c-1.7-1.3-3.8-3-5.9-5.9C68.7,68.8,68.4,62,68.4,62z"/>
		<path d="M75.4,80.3c0,0,2.9,2.8,7.5,6.1c1.5,1.1,4.9,3.3,11.4,5.6c2.4,0.9,10.4,3.4,21.8,4.1c11.9,0.6,20.4-1.2,22.4-1.6
			c5.7-1.2,10.9-2.5,16.3-6.4c4.3-3.1,7.3-6.3,7.3-6.3s-3.5,5.7-9.2,9.9c-1.5,1.1-5.6,4-15.3,6.3c-5.4,1.3-17,4.1-31.8,1.6
			c-7.2-1.2-12.6-2-18.5-6.1C79.6,88,75.4,80.3,75.4,80.3z"/>
	</g>
	<path class="st4" d="M195.6,40.5v26.9h6.8c1.5,0,6.6-0.4,6.6-5.1V45.6c0-5-6-5.1-6.6-5.1C202.5,40.5,195.6,40.5,195.6,40.5z
		 M186.5,31.7h15.9c6.2,0,15.4,3.7,15.4,13.9v16.6c0,10.3-9.2,14-15.4,14h-15.9V31.7z"/>
	<rect x="225.1" y="32.9" class="st4" width="8.8" height="42"/>
	<path class="st4" d="M251.2,32.3h7.6c6.2,0,15.4,3.6,15.4,13.5c0,6.1-3.5,9.9-7.7,11.9l8.5,16.9h-9.9l-7.6-15.1h-6.3v15.5h-8.8
		V32.3H251.2 M251.2,50.9h7.6c1.5,0,6.6-0.4,6.6-5s-5.1-4.9-6.6-5h-7.6C251.2,40.8,251.2,50.9,251.2,50.9z"/>
	<polygon class="st4" points="309,32.4 309,41.1 289.3,41.1 289.3,49.4 305.8,49.4 305.8,58.1 289.3,58.1 289.3,66.1 308.5,66.1 
		308.5,74.9 280.6,74.9 280.6,32.4 	"/>
	<path class="st4" d="M329.8,76.9c-9,0-16.2-7.3-16.2-16.2V46.8c0-9,7.3-16.2,16.2-16.2c8.3,0,15.4,6.5,16.1,14.7l-8.8,0.9
		c-0.3-3.7-3.6-6.7-7.4-6.7c-4.1,0-7.4,3.3-7.4,7.4v13.9c0,4.1,3.3,7.4,7.4,7.4c3.8,0,7.2-3,7.4-6.9l8.8,0.5
		C345.4,70.3,338.4,76.9,329.8,76.9z"/>
	<polygon class="st4" points="367.2,40.5 367.2,75.1 358.4,75.1 358.4,40.5 347.9,40.5 347.9,31.7 377.8,31.7 377.8,40.5 	"/>
	<line class="st4" x1="275" y1="74.5" x2="265.1" y2="74.5"/>
	<polygon class="st4" points="399.7,59.5 391.6,31.7 382.3,31.7 395.1,75.2 404.3,75.2 417.1,31.7 407.9,31.7 	"/>
</g>
</svg>
