<?xml version="1.0" encoding="utf-8"?>
<!-- Generator: Adobe Illustrator 15.0.0, SVG Export Plug-In . SVG Version: 6.00 Build 0)  -->
<!DOCTYPE svg PUBLIC "-//W3C//DTD SVG 1.1//EN" "http://www.w3.org/Graphics/SVG/1.1/DTD/svg11.dtd">
<svg version="1.1" id="Layer_1" xmlns="http://www.w3.org/2000/svg" xmlns:xlink="http://www.w3.org/1999/xlink" x="0px" y="0px"
	 width="180px" height="40px" viewBox="0 0 180 40" enable-background="new 0 0 180 40" xml:space="preserve">
<g id="Background">
</g>
<g id="Guides">
</g>
<g id="Foreground">
	<g>
		<path fill="#e0a070" d="M56.973,35.654c0,0.331-0.152,0.561-0.407,0.713c-0.535,0.307-1.58,0.436-2.294,0.436
			c-1.86,0-3.696-0.612-5.276-2.167c-0.714-0.688-2.142-2.753-2.142-5.582c0-2.371,0.816-4.206,1.988-5.124
			c1.529-1.198,3.033-1.326,4.309-1.326c2.6,0,4.23,0.867,4.74,1.632c0.307,0.484,0.408,1.045,0.434,1.325
			c0.025,0.179,0.051,0.307,0.152,0.307c0.154,0,0.18-0.103,0.18-0.435c0-2.013,0.152-2.573,0.152-2.854
			c0-0.076-0.051-0.152-0.229-0.178c-0.51-0.025-1.197-0.104-1.632-0.204c-0.382-0.077-1.81-0.331-3.084-0.331
			c-1.556,0-3.543,0.152-5.378,1.273c-1.785,1.122-3.365,3.416-3.365,6.628c0,2.522,1.172,4.69,2.396,5.761
			c2.242,1.963,5.098,2.168,6.627,2.168c1.173,0,2.982-0.229,4.283-0.918c0.254-0.152,0.254-0.18,0.254-1.097v-2.269
			c0-0.842,0-1.453,0.052-2.092c0.051-0.713,0.204-1.044,0.739-1.146c0.229-0.051,0.356-0.051,0.51-0.051
			c0.076,0,0.152-0.052,0.152-0.127c0-0.129-0.102-0.154-0.33-0.154c-0.612,0-1.887,0.053-1.989,0.053s-1.376-0.053-2.269-0.053
			c-0.229,0-0.332,0.053-0.332,0.154c0,0.075,0.076,0.127,0.152,0.127c0.178,0,0.535,0.025,0.688,0.051
			c0.815,0.229,0.918,0.435,0.918,2.092V35.654z"/>
		<path fill="#e0a070" d="M62.581,35.477c-0.306,0.866-0.663,1.529-1.452,1.631c-0.127,0.025-0.383,0.025-0.511,0.025
			c-0.077,0-0.153,0.025-0.153,0.103c0,0.103,0.104,0.126,0.332,0.126c0.815,0,1.76-0.05,1.963-0.05c0.179,0,0.942,0.05,1.351,0.05
			c0.153,0,0.255-0.023,0.255-0.126c0-0.077-0.051-0.103-0.178-0.103h-0.153c-0.306,0-0.663-0.153-0.663-0.51
			c0-0.307,0.077-0.715,0.229-1.146l1.045-3.061c0.025-0.076,0.078-0.127,0.18-0.127h3.723c0.076,0,0.127,0.024,0.152,0.102
			l1.605,4.258c0.103,0.281,0,0.434-0.102,0.459c-0.076,0.025-0.128,0.051-0.128,0.128c0,0.103,0.179,0.103,0.511,0.126
			c1.197,0.026,2.446,0.026,2.701,0.026c0.18,0,0.357-0.026,0.357-0.128c0-0.076-0.076-0.102-0.178-0.102
			c-0.18,0-0.434-0.025-0.688-0.104c-0.356-0.102-0.867-0.383-1.479-1.911c-1.045-2.626-3.771-9.763-4.027-10.426
			c-0.204-0.535-0.28-0.612-0.383-0.612c-0.102,0-0.178,0.102-0.381,0.663L62.581,35.477z M65.004,31.652
			c-0.052,0-0.078-0.025-0.052-0.128l1.529-4.665c0.077-0.254,0.179-0.254,0.255,0l1.632,4.665c0.024,0.077,0.024,0.128-0.077,0.128
			H65.004z"/>
		<path fill="#e0a070" d="M78.284,25.049l2.167,0.027c1.657,0.023,2.064,0.432,2.116,0.941l0.026,0.178
			c0.024,0.256,0.051,0.307,0.127,0.307s0.127-0.076,0.127-0.229c0-0.179,0.052-1.377,0.052-1.912c0-0.102,0-0.203-0.076-0.203
			c-0.077,0-0.229,0.025-0.485,0.076c-0.279,0.025-0.662,0.077-1.224,0.077h-6.476c-0.203,0-0.866-0.026-1.375-0.077
			c-0.459-0.025-0.637-0.204-0.766-0.204c-0.076,0-0.127,0.229-0.179,0.331c-0.024,0.128-0.382,1.633-0.382,1.811
			c0,0.103,0.025,0.152,0.076,0.152c0.076,0,0.127-0.023,0.18-0.178c0.051-0.128,0.102-0.229,0.306-0.535
			c0.28-0.408,0.688-0.535,1.759-0.563l2.549-0.024v7.315c0,1.656,0,3.033-0.076,3.748c-0.076,0.509-0.153,0.892-0.51,0.942
			c-0.153,0.024-0.357,0.076-0.51,0.076c-0.103,0-0.128,0.052-0.128,0.103c0,0.103,0.076,0.127,0.28,0.127
			c0.51,0,1.605-0.051,1.684-0.051c0.076,0,1.172,0.051,2.115,0.051c0.18,0,0.28-0.051,0.28-0.127c0-0.051-0.024-0.103-0.127-0.103
			c-0.153,0-0.535-0.024-0.79-0.076c-0.51-0.077-0.612-0.459-0.663-0.942c-0.076-0.715-0.076-2.092-0.076-3.748v-7.291H78.284z"/>
		<path fill="#e0a070" d="M86.237,32.367c0,1.656,0,3.032-0.077,3.746c-0.076,0.51-0.152,0.893-0.509,0.942
			c-0.153,0.026-0.356,0.077-0.511,0.077c-0.102,0-0.127,0.051-0.127,0.103c0,0.103,0.078,0.126,0.281,0.126
			c0.254,0,0.662-0.023,0.993-0.023c0.356,0,0.663-0.025,0.688-0.025c0.51,0,1.656,0.102,4.281,0.102c0.664,0,0.816,0,0.943-0.459
			c0.076-0.356,0.229-1.528,0.229-1.683c0-0.127,0-0.254-0.102-0.254c-0.076,0-0.128,0.076-0.152,0.254
			c-0.129,0.714-0.332,1.046-0.791,1.249c-0.459,0.18-1.197,0.18-1.656,0.18c-1.682,0-1.963-0.229-2.014-1.429
			c-0.025-0.356,0-2.37,0-2.957v-1.528c0-0.076,0.024-0.127,0.127-0.127c0.306,0,2.014,0.024,2.473,0.076
			c0.662,0.076,0.841,0.355,0.892,0.611c0.076,0.229,0.076,0.406,0.076,0.561c0,0.076,0.026,0.152,0.128,0.152
			c0.128,0,0.128-0.178,0.128-0.33c0-0.128,0.025-0.766,0.076-1.098c0.051-0.562,0.127-0.866,0.127-0.969s-0.024-0.127-0.076-0.127
			c-0.077,0-0.127,0.076-0.255,0.229c-0.152,0.178-0.406,0.204-0.816,0.229c-0.406,0.025-2.522,0.025-2.752,0.025
			c-0.076,0-0.102-0.051-0.102-0.18v-4.688c0-0.128,0.025-0.18,0.102-0.18c0.18,0,2.065,0.026,2.371,0.052
			c0.943,0.102,1.098,0.307,1.225,0.587c0.076,0.203,0.103,0.509,0.103,0.611c0,0.127,0.025,0.229,0.128,0.229
			c0.075,0,0.103-0.104,0.127-0.18c0.024-0.203,0.076-0.968,0.076-1.146C91.922,24.641,92,24.437,92,24.311
			c0-0.077-0.027-0.153-0.078-0.153c-0.076,0-0.151,0.076-0.229,0.076c-0.127,0.024-0.408,0.077-0.739,0.077
			c-0.407,0.023-3.849,0.023-3.95,0.023c-0.078,0-1.173-0.051-1.963-0.051c-0.179,0-0.281,0.026-0.281,0.129
			c0,0.075,0.078,0.102,0.127,0.102c0.153,0,0.459,0.025,0.586,0.051c0.562,0.128,0.715,0.407,0.74,0.994
			c0.024,0.561,0.024,1.046,0.024,3.723V32.367L86.237,32.367z"/>
		<path fill="#e0a070" d="M97.887,37.617c0.942,0,1.86-0.203,2.601-0.714c1.196-0.842,1.479-2.167,1.479-2.88
			c0-1.377-0.484-2.447-2.524-4.054l-0.483-0.382c-1.633-1.326-2.115-1.912-2.115-2.906c0-1.273,0.941-2.016,2.115-2.016
			c1.579,0,2.064,0.715,2.166,0.918c0.102,0.18,0.204,0.664,0.229,0.867c0.024,0.127,0.024,0.229,0.128,0.229
			c0.076,0,0.127-0.128,0.127-0.408c0-1.173,0.076-1.759,0.076-1.836c0-0.076-0.025-0.126-0.178-0.126
			c-0.129,0-0.281-0.025-0.612-0.077c-0.435-0.103-0.942-0.179-1.605-0.179c-2.192,0-3.569,1.273-3.569,3.109
			c0,1.172,0.408,2.242,2.244,3.748l0.791,0.637c1.478,1.224,1.987,1.912,1.987,3.109c0,1.096-0.815,2.295-2.473,2.295
			c-1.147,0-2.294-0.483-2.55-1.76c-0.051-0.229-0.051-0.482-0.051-0.637c0-0.128-0.025-0.18-0.127-0.18
			c-0.078,0-0.129,0.076-0.129,0.281c-0.025,0.28-0.076,0.969-0.076,1.834c0,0.459,0.025,0.536,0.256,0.663
			C96.281,37.489,97.071,37.617,97.887,37.617z"/>
		<path fill="#e0a070" d="M113.538,29.154c0.204-0.152,0.229-0.357,0.153-0.535h-1.76c0.383-1.199,0.664-2.346,1.326-3.289
			c0.332-0.482,0.688-0.765,1.097-0.765c0.356,0,0.815,0.255,0.866,1.097c0.025,0.103,0.076,0.229,0.203,0.229
			c0.229,0,0.611-0.434,0.611-0.866c0-0.562-0.561-0.942-1.172-0.942c-0.841,0-1.684,0.332-2.37,1.172
			c-0.842,0.994-1.198,2.091-1.581,3.365h-1.224c-0.179,0.127-0.229,0.407-0.103,0.535h1.172c-0.688,2.319-1.146,4.741-1.859,7.111
			c-0.307,0.97-0.639,1.173-0.893,1.173c-0.281,0-0.664-0.203-0.842-0.535c-0.102-0.179-0.205-0.307-0.408-0.127
			c-0.103,0.076-0.279,0.203-0.279,0.509c0,0.229,0.279,0.715,0.918,0.715c0.841,0,1.451-0.562,1.604-0.715
			c0.306-0.279,0.714-1.043,1.122-2.318c0.459-1.555,0.866-3.135,1.325-4.689c0.128-0.435,0.229-0.867,0.331-1.122L113.538,29.154
			L113.538,29.154z"/>
		<path fill="#e0a070" d="M118.586,28.414c-0.586,0-1.225,0.205-1.963,0.918c-0.969,0.918-1.479,2.295-1.556,3.162
			c-0.076,1.225,0.511,1.885,1.428,1.885c0.384,0,1.147-0.075,2.015-0.967c1.045-1.07,1.453-2.447,1.504-3.213
			C120.09,29.179,119.579,28.414,118.586,28.414z M118.483,28.848c0.483,0,0.587,0.484,0.562,0.943
			c-0.025,0.738-0.688,2.625-1.326,3.467c-0.459,0.611-0.814,0.738-1.121,0.738c-0.407,0-0.611-0.406-0.586-0.918
			c0.051-0.738,0.586-2.447,1.428-3.543C117.872,28.976,118.203,28.848,118.483,28.848z"/>
		<path fill="#e0a070" d="M125.061,28.848c0.076-0.229-0.229-0.434-0.434-0.434c-0.662,0-2.091,1.121-2.447,1.683
			c-0.025,0.128,0.103,0.229,0.229,0.204c0.332-0.357,1.07-0.969,1.352-0.969c0.103,0,0.103,0.152,0,0.407l-1.301,3.441
			c-0.229,0.612-0.178,1.196,0.408,1.196c0.766,0,2.523-1.809,3.544-3.107l0.024,0.023l-0.969,2.602
			c-0.076,0.229,0.127,0.482,0.356,0.482c0.739,0,2.116-1.119,2.474-1.809c-0.025-0.18-0.127-0.229-0.256-0.204
			c-0.357,0.435-1.121,1.097-1.377,1.097c-0.152,0-0.127-0.18-0.051-0.356c0.587-1.683,1.504-4.003,1.657-4.385
			c-0.052-0.179-0.407-0.308-0.688-0.255c-0.459,0.865-1.197,2.498-2.498,3.771c-0.738,0.715-1.301,1.174-1.504,1.174
			c-0.152,0-0.229-0.152-0.104-0.484L125.061,28.848z"/>
		<path fill="#e0a070" d="M133.268,29c0.129-0.33-0.024-0.586-0.355-0.586c-0.715,0-1.581,0.586-2.115,1.325
			c-0.025,0.103,0.051,0.203,0.178,0.203c0.459-0.407,0.97-0.713,1.301-0.713c0.104,0,0.104,0.153,0.051,0.331
			c-0.076,0.204-1.58,4.282-1.631,4.462c-0.128,0.331,0.255,0.354,0.406,0.354c0.129,0,0.18-0.049,0.256-0.178
			c0.841-1.555,1.428-2.65,2.168-3.594c0.789-0.97,1.605-1.684,1.962-1.684c0.204,0,0.229,0.179,0.229,0.332
			c0,0.279-0.18,0.791-0.308,1.045c-0.331,0.714-0.841,2.09-1.146,2.777c-0.307,0.715-0.332,0.816-0.332,0.944
			c0,0.179,0.205,0.354,0.332,0.354c0.791,0,1.887-0.688,2.447-1.578c0-0.104-0.025-0.229-0.229-0.204
			c-0.408,0.483-1.097,0.969-1.325,0.969c-0.102,0-0.077-0.128-0.025-0.281c0.051-0.102,1.07-2.422,1.325-3.135
			c0.103-0.331,0.229-0.765,0.229-0.994c0-0.459-0.229-0.765-0.79-0.765c-1.07,0-2.474,1.554-3.468,3.084l-0.051-0.025L133.268,29z"
			/>
		<path fill="#e0a070" d="M143.848,28.873c-0.152-0.306-0.484-0.433-0.715-0.433c-0.688,0-1.58,0.407-2.523,1.249
			c-1.12,0.994-1.885,2.701-1.885,3.695c0,0.563,0.306,1.021,0.841,1.021c1.377,0,2.446-1.376,3.415-2.676l0.052,0.024l-0.483,1.4
			c-0.154,0.409-0.18,0.639-0.18,0.816c0,0.229,0.152,0.459,0.458,0.459c0.74,0,2.015-1.172,2.397-1.938
			c-0.026-0.128-0.076-0.18-0.205-0.18c-0.434,0.563-1.324,1.275-1.555,1.275c-0.127,0-0.152-0.153-0.076-0.332
			c0.127-0.434,0.789-2.702,2.191-6.551c0.434-1.174,0.639-1.709,0.893-2.5l-0.051-0.076c-0.613-0.024-1.401,0.181-1.684,0.281
			c-0.05,0.051-0.076,0.152-0.05,0.205l0.331,0.229c0.203,0.126,0.152,0.382-0.129,1.172L143.848,28.873z M143.108,28.848
			c0.356,0,0.534,0.436,0.356,1.02c-0.203,0.74-0.611,1.606-1.733,2.729c-0.97,0.993-1.707,1.248-1.911,1.248
			c-0.128,0-0.281-0.126-0.281-0.306c0-0.179,0-0.434,0.434-1.352c0.435-0.893,1.453-2.244,2.015-2.753
			C142.395,29.129,142.777,28.848,143.108,28.848z"/>
		<path fill="#e0a070" d="M151.75,29c-0.076-0.152-0.229-0.279-0.281-0.306c-0.076-0.052-0.178-0.075-0.33-0.075
			c-0.356,0-0.713,0.102-1.274,0.406c-0.586,0.332-1.197,0.893-1.86,1.835c-0.943,1.3-1.248,2.423-1.248,2.753
			c0,0.409,0.229,0.791,0.611,0.791c0.661,0,2.114-0.969,3.107-2.218l0.053,0.024l-0.459,1.275
			c-0.102,0.331-0.153,0.459-0.153,0.561c0,0.103,0.077,0.383,0.408,0.383c0.791,0,1.785-0.79,2.37-1.581
			c0-0.103-0.102-0.179-0.203-0.179c-0.814,0.714-1.225,0.942-1.453,0.942c-0.104,0-0.179-0.075-0.104-0.331
			c0.459-1.3,1.684-4.41,1.888-4.945c-0.076-0.178-0.459-0.33-0.688-0.202L151.75,29z M150.68,29.154c0.355,0,0.61,0.229,0.713,0.51
			c-0.229,0.842-0.814,2.065-1.887,3.061c-0.814,0.738-1.224,0.917-1.375,0.917c-0.129,0-0.205-0.103-0.205-0.28
			c0-0.994,0.866-2.854,1.76-3.671C150.119,29.307,150.348,29.154,150.68,29.154z"/>
		<path fill="#e0a070" d="M158.913,29.307c0.179-0.102,0.28-0.383,0.179-0.535h-1.555l0.407-1.376
			c-0.103-0.153-0.407-0.179-0.535-0.077l-0.79,1.402l-1.122,0.203c-0.153,0.052-0.178,0.255-0.153,0.408h1.097l-1.325,3.899
			c-0.152,0.435-0.204,0.61-0.204,0.815c0,0.179,0.181,0.383,0.384,0.383c0.586,0,1.938-0.866,2.728-2.04
			c0.024-0.179-0.052-0.254-0.204-0.254c-0.459,0.534-1.4,1.274-1.605,1.274c-0.103,0-0.179-0.076-0.103-0.357l1.274-3.723h1.529
			L158.913,29.307L158.913,29.307z"/>
		<path fill="#e0a070" d="M160.314,33.896c-0.076,0.153-0.024,0.28,0.052,0.382c0.076,0.077,0.153,0.128,0.229,0.128
			c0.968,0,2.447-1.274,2.649-1.682c0-0.128-0.075-0.229-0.202-0.229c-0.486,0.561-1.225,1.045-1.479,1.045
			c-0.103,0-0.103-0.179-0.05-0.307l1.683-4.027c0.178-0.408,0.178-0.535,0.076-0.61c-0.052-0.052-0.128-0.153-0.229-0.153
			c-0.459,0-1.556,0.535-2.346,1.428c-0.025,0.103,0.052,0.229,0.178,0.229c0.715-0.585,1.071-0.738,1.174-0.738
			s0.103,0.102,0.025,0.279L160.314,33.896z M163.426,25.024c-0.563,0-0.766,0.587-0.766,0.894c0,0.254,0.153,0.535,0.51,0.535
			c0.435,0,0.739-0.459,0.739-0.894C163.934,25.254,163.756,25.024,163.426,25.024z"/>
		<path fill="#e0a070" d="M169.313,28.414c-0.587,0-1.224,0.205-1.964,0.918c-0.969,0.918-1.479,2.295-1.555,3.162
			c-0.076,1.225,0.51,1.885,1.428,1.885c0.383,0,1.146-0.075,2.015-0.967c1.044-1.07,1.453-2.447,1.503-3.213
			C170.817,29.179,170.307,28.414,169.313,28.414z M169.211,28.848c0.485,0,0.588,0.484,0.563,0.943
			c-0.026,0.738-0.688,2.625-1.326,3.467c-0.459,0.611-0.814,0.738-1.121,0.738c-0.408,0-0.611-0.406-0.587-0.918
			c0.052-0.738,0.587-2.447,1.429-3.543C168.574,28.976,168.932,28.848,169.211,28.848z"/>
		<path fill="#e0a070" d="M175.559,29c0.127-0.33-0.025-0.586-0.356-0.586c-0.715,0-1.581,0.586-2.116,1.325
			c-0.025,0.103,0.053,0.203,0.178,0.203c0.459-0.407,0.971-0.713,1.302-0.713c0.103,0,0.103,0.153,0.051,0.331
			c-0.076,0.204-1.58,4.282-1.631,4.462c-0.128,0.331,0.255,0.354,0.407,0.354c0.127,0,0.179-0.049,0.255-0.178
			c0.841-1.555,1.428-2.65,2.168-3.594c0.788-0.97,1.604-1.684,1.962-1.684c0.204,0,0.229,0.179,0.229,0.332
			c0,0.279-0.179,0.791-0.307,1.045c-0.331,0.714-0.841,2.09-1.146,2.777c-0.307,0.715-0.33,0.816-0.33,0.944
			c0,0.179,0.203,0.354,0.33,0.354c0.791,0,1.888-0.688,2.447-1.578c0-0.104-0.025-0.229-0.229-0.204
			c-0.408,0.483-1.096,0.969-1.325,0.969c-0.103,0-0.077-0.128-0.024-0.281c0.049-0.102,1.069-2.422,1.324-3.135
			c0.102-0.331,0.229-0.765,0.229-0.994c0-0.459-0.229-0.765-0.789-0.765c-1.07,0-2.475,1.554-3.469,3.084l-0.049-0.025L175.559,29z
			"/>
		<path fill="#e0a070" d="M3.212,12.33c0,1.938,0,3.518-0.102,4.385c-0.077,0.586-0.178,1.02-0.586,1.121
			c-0.178,0.052-0.433,0.078-0.612,0.078c-0.127,0-0.153,0.051-0.153,0.127c0,0.127,0.102,0.152,0.332,0.152
			c0.612,0,1.886-0.051,1.988-0.051c0.153,0,2.218,0.128,2.676,0.128c3.441,0,5.149-2.244,5.149-4.41
			c0-2.371-1.988-3.798-3.492-4.257c0.943-0.994,1.886-1.988,1.886-3.62c0-1.021-0.714-3.034-4.027-3.034
			C5.353,2.949,4.563,3,4.079,3C3.977,3,2.703,2.949,1.81,2.949C1.581,2.949,1.479,3,1.479,3.103c0,0.076,0.076,0.127,0.153,0.127
			c0.178,0,0.535,0.024,0.688,0.051c0.663,0.153,0.815,0.459,0.866,1.147c0.051,0.637,0.051,1.197,0.051,4.359v3.543H3.212
			L3.212,12.33z M4.818,3.815c0-0.127,0.051-0.179,0.229-0.229C5.378,3.51,5.786,3.484,6.015,3.484c1.988,0,2.728,1.784,2.728,3.467
			c0,0.815-0.306,1.555-0.714,2.039C7.595,9.476,7.315,9.526,6.194,9.526c-0.739,0-1.122-0.051-1.224-0.077
			C4.868,9.398,4.817,9.373,4.817,9.221L4.818,3.815L4.818,3.815z M4.818,10.213c0-0.102,0.051-0.152,0.127-0.152
			c0.306,0,1.3,0,1.581,0.051c0.484,0.051,0.994,0.128,1.682,0.586c1.555,1.071,1.963,2.83,1.963,4.028
			c0,2.269-1.759,2.854-2.855,2.854c-0.357,0-1.224-0.051-1.784-0.306c-0.637-0.28-0.637-0.562-0.688-1.555
			c-0.025-0.306-0.025-2.804-0.025-4.359L4.818,10.213L4.818,10.213z"/>
		<path fill="#e0a070" d="M17.767,10.111c0-2.701,0-3.186,0.025-3.722c0.026-0.612,0.179-0.892,0.638-0.994
			c0.204-0.024,0.306-0.051,0.433-0.051c0.077,0,0.127-0.026,0.127-0.103c0-0.102-0.076-0.127-0.28-0.127
			c-0.51,0-1.606,0.051-1.683,0.051c-0.076,0-1.172-0.051-1.759-0.051c-0.178,0-0.28,0.025-0.28,0.127
			c0,0.076,0.077,0.103,0.127,0.103c0.127,0,0.357,0.024,0.535,0.077c0.382,0.076,0.561,0.382,0.586,0.968
			c0.025,0.562,0.025,1.045,0.025,3.722v3.034c0,1.657,0,3.033-0.077,3.747c-0.076,0.51-0.153,0.893-0.509,0.943
			c-0.153,0.024-0.357,0.076-0.51,0.076c-0.102,0-0.127,0.051-0.127,0.103c0,0.103,0.077,0.127,0.281,0.127
			c0.51,0,1.606-0.052,1.682-0.052c0.077,0,1.173,0.052,2.116,0.052c0.178,0,0.28-0.052,0.28-0.127c0-0.052-0.025-0.103-0.127-0.103
			c-0.153,0-0.536-0.024-0.791-0.076c-0.51-0.078-0.612-0.459-0.663-0.943c-0.077-0.714-0.077-2.09-0.077-3.747v-3.034H17.767z"/>
		<path fill="#e0a070" d="M25.262,10.111c0-2.701,0-3.186,0.025-3.722c0.026-0.612,0.179-0.892,0.663-0.994
			c0.204-0.024,0.458-0.051,0.561-0.051c0.077,0,0.127-0.026,0.127-0.103c0-0.102-0.076-0.127-0.28-0.127
			c-0.51,0-1.785,0.051-1.861,0.051c-0.077,0-1.172-0.051-1.963-0.051c-0.178,0-0.28,0.025-0.28,0.127
			c0,0.076,0.077,0.103,0.127,0.103c0.153,0,0.458,0.024,0.586,0.051c0.561,0.127,0.714,0.408,0.74,0.994
			c0.025,0.562,0.025,1.045,0.025,3.722v3.034c0,1.657,0,3.033-0.077,3.747c-0.077,0.51-0.153,0.893-0.51,0.943
			c-0.153,0.024-0.357,0.076-0.51,0.076c-0.102,0-0.127,0.051-0.127,0.103c0,0.103,0.076,0.127,0.28,0.127
			c0.255,0,0.637-0.024,0.994-0.024s0.637-0.025,0.714-0.025c0.994,0,2.141,0.102,4.64,0.102c0.917,0,0.968-0.076,1.096-0.459
			c0.127-0.51,0.255-1.529,0.255-1.732c0-0.178-0.024-0.256-0.102-0.256c-0.102,0-0.127,0.077-0.153,0.229
			c-0.051,0.332-0.229,0.765-0.458,1.045c-0.408,0.51-1.173,0.51-2.09,0.51c-1.351,0-1.81-0.127-2.065-0.407
			c-0.306-0.307-0.382-1.428-0.382-3.951v-3.06L25.262,10.111L25.262,10.111z"/>
		<path fill="#e0a070" d="M34.975,10.111c0-2.701,0-3.186,0.024-3.722c0.025-0.612,0.179-0.892,0.663-0.994
			c0.204-0.024,0.459-0.051,0.561-0.051c0.078,0,0.129-0.026,0.129-0.103c0-0.102-0.077-0.127-0.281-0.127
			c-0.51,0-1.784,0.051-1.861,0.051c-0.076,0-1.172-0.051-1.963-0.051c-0.178,0-0.279,0.025-0.279,0.127
			c0,0.076,0.076,0.103,0.127,0.103c0.152,0,0.459,0.024,0.586,0.051c0.561,0.127,0.713,0.408,0.738,0.994
			c0.025,0.562,0.025,1.045,0.025,3.722v3.034c0,1.657,0,3.033-0.076,3.747c-0.077,0.51-0.152,0.893-0.51,0.943
			c-0.153,0.024-0.355,0.076-0.51,0.076c-0.103,0-0.127,0.051-0.127,0.103c0,0.103,0.076,0.127,0.281,0.127
			c0.254,0,0.637-0.024,0.993-0.024s0.638-0.025,0.713-0.025c0.994,0,2.142,0.102,4.64,0.102c0.918,0,0.97-0.076,1.097-0.459
			c0.127-0.51,0.255-1.529,0.255-1.732c0-0.178-0.025-0.256-0.102-0.256c-0.103,0-0.127,0.077-0.153,0.229
			c-0.052,0.332-0.229,0.765-0.459,1.045c-0.408,0.51-1.172,0.51-2.091,0.51c-1.35,0-1.809-0.127-2.063-0.407
			c-0.306-0.307-0.382-1.428-0.382-3.951v-3.06L34.975,10.111L34.975,10.111z"/>
		<path fill="#e0a070" d="M46.573,16.562c1.021,0,2.472-0.433,3.492-1.58c1.122-1.274,1.452-2.728,1.479-3.161
			c0.024-0.279,0.051-0.968,0.051-1.249c0.457,0.357,0.942,0.918,1.02,1.046c0.077,0.127,0.18,0.178,0.357,0.075
			c0.254-0.153,0.841-0.332,1.096-0.356c0.152-0.025,0.279-0.051,0.382-0.153c0.127-0.127,0.28-0.356,0.28-0.688
			c0-0.383-0.153-0.815-0.535-0.815c-0.255,0-0.459,0.179-0.459,0.356c0,0.051,0.025,0.127,0.051,0.229
			c0.025,0.075,0.051,0.204,0.051,0.356c0,0.256-0.152,0.459-0.279,0.459c-0.256,0-0.307-0.076-0.637-0.383
			c-0.715-0.637-1.147-1.146-1.938-1.146c-0.204,0-0.867,0.127-1.453,0.586c-0.739,0.586-0.994,1.25-0.994,1.632
			s0.332,0.586,0.638,0.586c0.408,0,0.484-0.306,0.484-0.408c0-0.075-0.051-0.255-0.102-0.407c-0.051-0.153-0.129-0.357-0.129-0.484
			c0-0.484,0.612-0.943,1.071-0.943c0.281,0,0.587,0.102,0.765,0.256c-0.051,1.197-0.229,1.938-0.789,2.957
			c-0.842,1.555-2.346,2.37-3.543,2.37c-1.123,0-2.625-0.637-2.574-2.499v-0.127c1.529-1.045,3.977-2.881,5.174-4.078
			c1.352-1.326,1.835-2.244,1.835-2.982c0-0.562-0.332-0.766-0.663-0.766c-0.281,0-0.586,0.204-0.586,0.586
			c0,0.153,0.051,0.205,0.152,0.332c0.103,0.103,0.179,0.229,0.179,0.434c0,0.382-0.331,0.969-0.535,1.224
			c-0.407,0.535-1.427,1.556-2.065,2.091c-0.127-0.18-0.279-0.562-0.916-0.562c-0.332,0-1.225,0.153-2.168,1.147
			c-1.172,1.197-1.401,2.42-1.401,3.135C43.361,15.16,44.279,16.562,46.573,16.562z M44.355,12.56
			c0.102-0.612,0.33-1.198,0.789-1.784c0.435-0.561,0.918-0.791,1.123-0.791c0.279,0,0.484,0.18,0.484,0.459
			c0,0.026,0,0.229-0.025,0.357C46.268,11.207,45.4,11.846,44.355,12.56z"/>
		<path fill="#e0a070" d="M73.67,3.076c-0.051-0.382-0.102-0.535-0.229-0.535c-0.153,0-0.229,0.152-0.307,0.332l-5.938,12.668
			L61.027,2.848c-0.102-0.229-0.178-0.307-0.307-0.307c-0.127,0-0.178,0.153-0.229,0.357l-1.453,13.154
			c-0.076,0.765-0.152,1.555-0.814,1.682c-0.307,0.051-0.435,0.051-0.612,0.051c-0.103,0-0.204,0.051-0.204,0.104
			c0,0.152,0.152,0.178,0.332,0.178c0.535,0,1.504-0.051,1.682-0.051c0.153,0,1.123,0.051,1.887,0.051
			c0.229,0,0.356-0.051,0.356-0.178c0-0.051-0.075-0.104-0.153-0.104c-0.127,0-0.434-0.024-0.765-0.102
			c-0.306-0.051-0.534-0.332-0.534-0.637c0-0.332,0-0.715,0.024-1.021l0.815-9.354h0.076c0.229,0.535,2.473,5.378,2.651,5.761
			c0.103,0.204,1.835,3.696,2.371,4.69c0.382,0.713,0.483,0.918,0.637,0.918c0.179,0,0.229-0.18,0.663-1.071l4.945-10.502h0.051
			l0.969,10.399c0.051,0.357,0.025,0.715-0.076,0.715c-0.103,0.024-0.154,0.051-0.154,0.152s0.103,0.153,0.562,0.204
			c0.739,0.052,2.933,0.127,3.365,0.127c0.255,0,0.435-0.051,0.435-0.178c0-0.077-0.052-0.103-0.154-0.103
			c-0.203,0-0.713,0-1.299-0.179c-0.867-0.28-1.021-1.401-1.097-2.142L73.67,3.076z"/>
		<path fill="#e0a070" d="M80.45,13.043c0,1.658,0,3.035-0.076,3.748c-0.077,0.51-0.153,0.893-0.51,0.942
			c-0.153,0.024-0.356,0.077-0.51,0.077c-0.103,0-0.128,0.051-0.128,0.102c0,0.103,0.076,0.127,0.281,0.127
			c0.254,0,0.662-0.025,0.994-0.025c0.356,0,0.662-0.025,0.688-0.025c0.51,0,1.656,0.102,4.283,0.102c0.662,0,0.814,0,0.942-0.459
			c0.076-0.355,0.229-1.528,0.229-1.682c0-0.128,0-0.255-0.104-0.255c-0.076,0-0.127,0.076-0.152,0.255
			c-0.127,0.713-0.332,1.045-0.791,1.25c-0.459,0.178-1.197,0.178-1.656,0.178c-1.682,0-1.962-0.229-2.014-1.428
			c-0.025-0.356,0-2.371,0-2.957v-1.529c0-0.077,0.024-0.129,0.127-0.129c0.306,0,2.014,0.025,2.473,0.078
			c0.663,0.076,0.841,0.356,0.893,0.611c0.076,0.229,0.076,0.408,0.076,0.561c0,0.078,0.025,0.153,0.127,0.153
			c0.127,0,0.127-0.178,0.127-0.331c0-0.127,0.025-0.765,0.077-1.096c0.052-0.561,0.127-0.867,0.127-0.969
			c0-0.103-0.026-0.127-0.077-0.127c-0.076,0-0.127,0.076-0.255,0.229c-0.153,0.18-0.407,0.204-0.815,0.256
			c-0.407,0.024-2.523,0.024-2.752,0.024c-0.076,0-0.103-0.052-0.103-0.179V5.83c0-0.127,0.026-0.179,0.103-0.179
			c0.179,0,2.064,0.025,2.371,0.052c0.942,0.102,1.096,0.306,1.224,0.586c0.075,0.203,0.103,0.51,0.103,0.611
			c0,0.127,0.024,0.229,0.127,0.229c0.076,0,0.102-0.102,0.127-0.178c0.025-0.203,0.076-0.969,0.076-1.146
			c0.051-0.485,0.127-0.688,0.127-0.816c0-0.076-0.025-0.152-0.076-0.152c-0.076,0-0.153,0.076-0.229,0.076
			c-0.127,0.024-0.408,0.076-0.739,0.076c-0.408,0.025-3.849,0.025-3.951,0.025c-0.076,0-1.173-0.051-1.963-0.051
			c-0.179,0-0.281,0.024-0.281,0.127c0,0.076,0.078,0.102,0.127,0.102c0.153,0,0.459,0.025,0.586,0.051
			c0.562,0.127,0.715,0.408,0.74,0.994c0.024,0.561,0.024,1.045,0.024,3.723v3.084H80.45z"/>
		<path fill="#e0a070" d="M92.125,9.984c0-2.701,0-3.186,0.026-3.721c0.024-0.612,0.179-0.893,0.662-0.995
			c0.204-0.024,0.459-0.051,0.562-0.051c0.077,0,0.127-0.025,0.127-0.103c0-0.102-0.076-0.127-0.279-0.127
			c-0.51,0-1.784,0.051-1.861,0.051c-0.076,0-1.172-0.051-1.962-0.051c-0.179,0-0.281,0.025-0.281,0.127
			c0,0.077,0.077,0.103,0.128,0.103c0.153,0,0.458,0.024,0.586,0.051c0.561,0.127,0.715,0.408,0.74,0.995
			c0.023,0.561,0.023,1.045,0.023,3.721v3.034c0,1.657,0,3.034-0.076,3.747c-0.075,0.51-0.152,0.893-0.508,0.943
			c-0.153,0.024-0.357,0.076-0.51,0.076c-0.103,0-0.128,0.051-0.128,0.103c0,0.102,0.077,0.127,0.281,0.127
			c0.255,0,0.637-0.025,0.994-0.025c0.356,0,0.637-0.024,0.713-0.024c0.994,0,2.142,0.102,4.64,0.102
			c0.918,0,0.971-0.077,1.098-0.459c0.127-0.51,0.255-1.529,0.255-1.732c0-0.179-0.026-0.256-0.103-0.256
			c-0.103,0-0.128,0.077-0.152,0.229c-0.051,0.331-0.229,0.765-0.459,1.045c-0.408,0.51-1.174,0.51-2.09,0.51
			c-1.353,0-1.812-0.127-2.065-0.407c-0.306-0.307-0.382-1.429-0.382-3.951v-3.06L92.125,9.984L92.125,9.984z"/>
		<path fill="#e0a070" d="M102.271,9.984c0-2.701,0-3.186,0.025-3.721c0.024-0.612,0.178-0.893,0.637-0.995
			c0.203-0.024,0.307-0.051,0.434-0.051c0.076,0,0.128-0.025,0.128-0.103c0-0.102-0.077-0.127-0.28-0.127
			c-0.51,0-1.605,0.051-1.684,0.051c-0.076,0-1.172-0.051-1.732-0.051c-0.179,0-0.279,0.025-0.279,0.127
			c0,0.077,0.076,0.103,0.128,0.103c0.126,0,0.354,0.024,0.534,0.075c0.383,0.078,0.562,0.384,0.586,0.97
			c0.025,0.562,0.025,1.045,0.025,3.721v3.034c0,1.656,0,3.034-0.076,3.747c-0.076,0.51-0.152,0.894-0.51,0.942
			c-0.152,0.025-0.357,0.076-0.511,0.076c-0.103,0-0.127,0.051-0.127,0.104c0,0.102,0.077,0.127,0.28,0.127
			c0.51,0,1.604-0.051,1.682-0.051s1.174,0.051,2.116,0.051c0.179,0,0.28-0.051,0.28-0.127c0-0.051-0.025-0.104-0.127-0.104
			c-0.153,0-0.535-0.025-0.766-0.076c-0.511-0.076-0.611-0.459-0.663-0.942c-0.075-0.713-0.075-2.091-0.075-3.747V9.983
			L102.271,9.984L102.271,9.984z"/>
		<path fill="#e0a070" d="M108.543,7.41c0.561,0.612,2.498,2.805,4.512,4.971c1.836,1.963,4.334,4.513,4.513,4.69
			c0.917,0.917,1.122,1.097,1.274,1.097c0.127,0,0.152-0.076,0.152-1.225l0.025-10.119c0-1.046,0.076-1.429,0.637-1.531
			c0.204-0.051,0.332-0.051,0.408-0.051c0.127,0,0.178-0.051,0.178-0.127c0-0.102-0.127-0.127-0.307-0.127
			c-0.713,0-1.273,0.051-1.478,0.051c-0.18,0-1.021-0.051-1.811-0.051c-0.204,0-0.357,0.025-0.357,0.127
			c0,0.077,0.026,0.127,0.128,0.127c0.129,0,0.535,0.025,0.842,0.076c0.535,0.128,0.664,0.51,0.664,1.633l0.178,8.793
			c-0.562-0.561-2.447-2.676-4.155-4.512c-2.651-2.855-5.251-5.634-5.506-5.939c-0.179-0.178-0.459-0.562-0.611-0.562
			c-0.128,0-0.18,0.179-0.18,0.867l-0.025,9.916c0,1.581-0.075,2.065-0.51,2.192c-0.255,0.076-0.562,0.102-0.713,0.102
			c-0.077,0-0.128,0.025-0.128,0.102c0,0.127,0.104,0.127,0.279,0.127c0.791,0,1.506-0.051,1.658-0.051s0.842,0.051,1.836,0.051
			c0.202,0,0.305-0.025,0.305-0.127c0-0.076-0.051-0.102-0.127-0.102c-0.153,0-0.535-0.025-0.866-0.102
			c-0.459-0.127-0.638-0.586-0.663-2.015L108.543,7.41z"/>
		<path fill="#e0a070" d="M123.938,13.043c0,1.658,0,3.035-0.076,3.748c-0.077,0.51-0.153,0.893-0.511,0.942
			c-0.151,0.024-0.355,0.077-0.51,0.077c-0.102,0-0.127,0.051-0.127,0.102c0,0.103,0.075,0.127,0.28,0.127
			c0.511,0,1.604-0.051,1.683-0.051c0.179,0,2.346,0.204,3.85,0.204c2.932,0,4.486-1.198,5.251-1.987
			c0.97-1.021,1.86-2.703,1.86-4.869c0-2.064-0.814-3.492-1.683-4.385c-2.065-2.115-5.226-1.963-6.934-1.963
			c-1.046,0-2.116,0.051-2.347,0.051c-0.076,0-1.172-0.051-1.963-0.051c-0.178,0-0.279,0.025-0.279,0.127
			c0,0.077,0.076,0.102,0.127,0.102c0.152,0,0.459,0.025,0.587,0.052c0.562,0.127,0.714,0.408,0.739,0.995
			c0.024,0.561,0.024,1.045,0.024,3.721v3.059H123.938L123.938,13.043z M125.391,9.705c0-1.326,0-3.084,0.027-3.67
			c0-0.18,0.049-0.281,0.202-0.357c0.128-0.077,0.791-0.129,1.122-0.129c2.064,0,4.027,0.229,5.659,1.964
			c0.713,0.739,1.657,2.167,1.657,4.358c0,1.582-0.485,3.264-1.377,4.129c-1.021,1.021-2.498,1.606-4.104,1.606
			c-2.039,0-2.728-0.356-2.931-0.688c-0.129-0.178-0.18-0.892-0.18-1.324c-0.024-0.332-0.024-1.912-0.024-3.747V9.705H125.391z"/>
		<path fill="#e0a070" d="M137.653,16.153c-0.306,0.867-0.663,1.53-1.453,1.632c-0.128,0.025-0.382,0.025-0.51,0.025
			c-0.076,0-0.153,0.025-0.153,0.102c0,0.103,0.102,0.127,0.331,0.127c0.815,0,1.759-0.051,1.964-0.051
			c0.178,0,0.942,0.051,1.352,0.051c0.152,0,0.255-0.025,0.255-0.127c0-0.076-0.052-0.102-0.179-0.102h-0.18
			c-0.306,0-0.662-0.152-0.662-0.51c0-0.307,0.077-0.715,0.229-1.147l1.045-3.059c0.026-0.077,0.075-0.128,0.179-0.128h3.721
			c0.078,0,0.129,0.025,0.153,0.103l1.606,4.257c0.103,0.28,0,0.434-0.103,0.459c-0.077,0.025-0.128,0.051-0.128,0.127
			c0,0.103,0.18,0.103,0.51,0.127c1.198,0.025,2.447,0.025,2.702,0.025c0.179,0,0.357-0.025,0.357-0.127
			c0-0.077-0.077-0.102-0.179-0.102c-0.18,0-0.435-0.025-0.688-0.103c-0.356-0.103-0.867-0.382-1.479-1.912
			c-1.02-2.677-3.748-9.813-4.002-10.477c-0.203-0.535-0.281-0.612-0.383-0.612s-0.178,0.102-0.382,0.663L137.653,16.153z
			 M140.074,12.33c-0.05,0-0.076-0.025-0.05-0.127l1.528-4.666c0.076-0.254,0.179-0.254,0.256,0l1.631,4.666
			c0.025,0.076,0.025,0.127-0.076,0.127H140.074z"/>
	</g>
</g>
</svg>
