<?xml version="1.0" encoding="utf-8"?>
<!-- Generator: Adobe Illustrator 19.1.0, SVG Export Plug-In . SVG Version: 6.00 Build 0)  -->
<!DOCTYPE svg PUBLIC "-//W3C//DTD SVG 1.1//EN" "http://www.w3.org/Graphics/SVG/1.1/DTD/svg11.dtd">
<svg version="1.1" id="Layer_1" xmlns="http://www.w3.org/2000/svg" xmlns:xlink="http://www.w3.org/1999/xlink" x="0px" y="0px"
	 viewBox="0 0 120 120" enable-background="new 0 0 120 120" xml:space="preserve">
<g>
	<path fill="#E11075" d="M73.2,26H45.3c-4.5,0-8.3,2.5-8.3,7v54.5c0,4.5,3.8,9.4,8.3,9.4h27.9c4.5,0,7.8-4.9,7.8-9.4V33
		C81,28.5,77.7,26,73.2,26z M51.5,30H67c0.5,0,0.9,1,0.9,1.5c0,0.5-0.4,1.5-0.9,1.5H51.5c-0.5,0-0.9-1-0.9-1.5
		C50.6,31,51,30,51.5,30z M40.2,37h36.7c0.3,0,1.1-0.3,1.1-0.1v9.9l-38,7.4V36.9C40,36.7,39.9,37,40.2,37z M46.9,68.4l-2.1,0.4
		l-2.1-10.5l2.3-0.4l5.7,6.4L49.2,57l2.1-0.4l2.1,10.5l-2.2,0.4l-5.7-6.4L46.9,68.4z M53,56.3l7.6-1.5l0.4,1.8l-5.5,1.1l0.4,2.2l5-1
		l0.4,1.8l-5,1l0.5,2.7l5.8-1.1l0.4,1.9l-7.9,1.6L53,56.3z M61.6,54.6l2.2-0.4l3.3,7.1l0.1-7.7l2.3-0.5l3,7.1l0.3-7.8l2.2-0.4
		l-0.9,11.1L72,63.5l-3.2-7.8l0,8.4l-2.1,0.4L61.6,54.6z M59.3,93.6c-1.8,0-3.3-1.5-3.3-3.3c0-1.8,1.5-3.3,3.3-3.3
		c1.8,0,3.3,1.5,3.3,3.3C62.6,92.1,61.1,93.6,59.3,93.6z M76.9,85H40.2c-0.3,0-0.2,0-0.2-0.2V75l38-7.4v17.2C78,85,77.2,85,76.9,85z
		"/>
	<path fill="#E11075" d="M59.6,1.6C27.2,1.6,0.9,27.9,0.9,60.3c0,32.4,26.3,58.7,58.7,58.7c32.4,0,58.7-26.3,58.7-58.7
		C118.3,27.9,92,1.6,59.6,1.6z M59.6,113.5c-29.4,0-53.2-23.8-53.2-53.2c0-29.4,23.8-53.2,53.2-53.2c29.4,0,53.2,23.8,53.2,53.2
		C112.8,89.7,89,113.5,59.6,113.5z"/>
</g>
</svg>
