<?xml version="1.0" encoding="utf-8"?>
<!-- Generator: Adobe Illustrator 19.1.0, SVG Export Plug-In . SVG Version: 6.00 Build 0)  -->
<!DOCTYPE svg PUBLIC "-//W3C//DTD SVG 1.1//EN" "http://www.w3.org/Graphics/SVG/1.1/DTD/svg11.dtd">
<svg version="1.1" id="icons" xmlns="http://www.w3.org/2000/svg" xmlns:xlink="http://www.w3.org/1999/xlink" x="0px" y="0px"
	 viewBox="0 0 120 120" enable-background="new 0 0 120 120" xml:space="preserve">
<g>
	<path fill="#E11075" d="M59.9,0.7C27.5,0.7,1.2,27,1.2,59.5c0,32.4,26.3,58.7,58.7,58.7c32.4,0,58.7-26.3,58.7-58.7
		C118.6,27,92.3,0.7,59.9,0.7z M59.9,112.7c-29.4,0-53.2-23.8-53.2-53.2S30.5,6.3,59.9,6.3c29.4,0,53.2,23.8,53.2,53.2
		S89.3,112.7,59.9,112.7z"/>
	<path fill="#E11075" d="M60.5,40.2V37h-3v3.2c-6,0.2-10.7,4.5-10.7,10.7c0,4.1,1.8,6.7,5.4,8.6l5.2-5.2c-2.3-0.9-3.6-2.2-3.6-4.1
		c0-2.5,1.8-4.1,3.8-4.4v7.7l3-3.1v-4.5c1,0.1,2.7,0.6,3.4,1.6l4.4-4.6C66.5,41.3,63.5,40.3,60.5,40.2z"/>
	<path fill="#E11075" d="M68.9,58.7l-5.1,5c1.3,0.9,1.6,2.2,1.6,3.9c0,2.8-1.8,4.5-4.8,4.8v-6.3l-3,3.1v3.2c0-0.2-1.2-0.5-1.8-1
		l-4.9,4.7c1.8,1.1,4.8,1.8,6.8,2V85h3v-6.8c7-0.6,12.1-4.8,12.1-11.4C72.7,63.2,71.8,60.7,68.9,58.7z"/>
	<path fill="#E11075" d="M59.9,25c-19,0-34.4,15.4-34.4,34.4s15.4,34.4,34.4,34.4c19,0,34.4-15.4,34.4-34.4S78.9,25,59.9,25z
		 M32.1,59.5c0-15.3,12.5-27.8,27.8-27.8c6.6,0,12.6,2.3,17.3,6.1l-39,39C34.4,72,32.1,66,32.1,59.5z M59.9,87.2
		c-6.4,0-12.2-2.2-16.9-5.8l38.9-38.9c3.6,4.7,5.8,10.6,5.8,16.9C87.7,74.8,75.2,87.2,59.9,87.2z"/>
</g>
</svg>
