<?xml version="1.0" encoding="utf-8"?>
<!-- Generator: Adobe Illustrator 28.3.0, SVG Export Plug-In . SVG Version: 6.00 Build 0)  -->
<svg version="1.1" id="Layer_2_00000087404910332145300300000001378912028993495190_"
	 xmlns="http://www.w3.org/2000/svg" xmlns:xlink="http://www.w3.org/1999/xlink" x="0px" y="0px" viewBox="0 0 329 68"
	 style="enable-background:new 0 0 329 68;" xml:space="preserve">
<style type="text/css">
	.st0{fill:#e0a070;}
</style>
<path class="st0" d="M73.5,58.6c-0.5,0-1-0.1-1.5-0.2l-6.1-1.8c-0.8-0.2-1.3-1.1-1-1.9c0.3-0.8,1.1-1.3,1.9-1l6.1,1.8
	c0.7,0.2,1.4,0.1,2-0.3c0.6-0.4,0.9-1.1,0.9-1.8V23.1c0-1.2-0.8-2.2-1.9-2.5L29.4,7.3c-0.8-0.2-1.7-0.1-2.4,0.4S25.9,9,25.9,9.9
	v20.7c0,0.8-0.7,1.5-1.5,1.5s-1.5-0.7-1.5-1.5V9.9c0-1.8,0.8-3.5,2.3-4.6s3.3-1.4,5.1-0.9l44.3,13.3c2.4,0.7,4,2.9,4,5.4v30.3
	c0,1.7-0.8,3.2-2.1,4.2C75.7,58.3,74.6,58.6,73.5,58.6z"/>
<path class="st0" d="M57.3,64.1L57.3,64.1c-2,0-3.6-1.6-3.6-3.6V28.2c0-2,1.6-3.6,3.6-3.6l0,0c2,0,3.6,1.6,3.6,3.6v32.3
	C60.9,62.4,59.3,64.1,57.3,64.1z"/>
<path class="st0" d="M46.5,60.3L46.5,60.3c-2,0-3.6-1.6-3.6-3.6V32.2c0-2,1.6-3.6,3.6-3.6l0,0c2,0,3.6,1.6,3.6,3.6v24.5
	C50.2,58.7,48.5,60.3,46.5,60.3z"/>
<path class="st0" d="M35.8,55.9L35.8,55.9c-2.1,0-3.8-1.7-3.8-3.8V36.3c0-2.1,1.7-3.8,3.8-3.8l0,0c2.1,0,3.8,1.7,3.8,3.8v15.8
	C39.6,54.2,37.9,55.9,35.8,55.9z"/>
<path class="st0" d="M25.1,52.5L25.1,52.5c-2,0-3.6-1.6-3.6-3.6v-9c0-2,1.6-3.6,3.6-3.6l0,0c2,0,3.6,1.6,3.6,3.6v9
	C28.7,50.9,27.1,52.5,25.1,52.5z"/>
<g>
	<path class="st0" d="M93.7,13.2c2.6-0.5,6.1-0.8,10.3-0.8c5.4,0,9.3,1.3,11.7,3.4c2.3,2,3.7,5.1,3.7,8.7c0,3.8-1.1,6.8-3.2,9
		c-2.9,3.1-7.5,4.6-12.9,4.6c-1.6,0-3.1-0.1-4.4-0.3v16.8h-5.4L93.7,13.2L93.7,13.2z M99.1,33.4c1.1,0.3,2.6,0.5,4.5,0.5
		c6.5,0,10.5-3.2,10.5-9c0-5.5-3.9-8.2-9.9-8.2c-2.4,0-4.1,0.2-5.1,0.5V33.4z"/>
	<path class="st0" d="M152.2,39.3c0,11.1-7.7,16-14.9,16c-8.2,0-14.5-6-14.5-15.5c0-10.1,6.5-16,14.9-16
		C146.4,23.8,152.2,30.1,152.2,39.3z M128.4,39.6c0,6.5,3.8,11.6,9.2,11.6c5.2,0,9.2-4.9,9.2-11.7c0-5.1-2.5-11.6-9-11.6
		C131.1,27.9,128.4,33.9,128.4,39.6z"/>
	<path class="st0" d="M160.9,24.5l4,15.3c0.9,3.3,1.7,6.4,2.2,9.5h0.2c0.7-3.1,1.7-6.3,2.6-9.5l4.9-15.4h4.6l4.7,15
		c1.1,3.6,2,6.8,2.6,9.9h0.2c0.5-3.1,1.3-6.2,2.3-9.8l4.2-15.2h5.4l-9.6,30.1h-4.9L179.7,40c-1-3.3-2-6.3-2.6-9.9H177
		c-0.7,3.6-1.7,6.7-2.8,10l-4.8,14.2h-4.9l-9.3-30h5.7V24.5z"/>
	<path class="st0" d="M206.8,40.6c0.1,7.4,4.8,10.5,10.3,10.5c3.9,0,6.3-0.7,8.4-1.6l0.9,3.9c-2,0.9-5.2,1.8-10,1.8
		c-9.3,0-14.8-6.1-14.8-15.2s5.4-16.2,14.1-16.2c9.9,0,12.4,8.6,12.4,14.1c0,1.1-0.1,2-0.2,2.5h-21.1L206.8,40.6L206.8,40.6z
		 M222.9,36.7c0.1-3.4-1.4-8.8-7.6-8.8c-5.5,0-7.9,5.1-8.4,8.8H222.9z"/>
	<path class="st0" d="M235,33.9c0-3.6-0.1-6.5-0.2-9.4h4.8l0.2,5.9h0.2c1.4-4,4.7-6.5,8.4-6.5c0.6,0,1,0.1,1.6,0.2v5.2
		c-0.6-0.1-1.1-0.2-1.8-0.2c-3.9,0-6.5,2.9-7.4,7c-0.1,0.7-0.2,1.6-0.2,2.5v16.1h-5.4V33.9H235z"/>
	<path class="st0" d="M268.6,13.2c2.4-0.5,6.1-0.9,9.9-0.9c5.4,0,8.8,0.9,11.5,3.1c2.2,1.6,3.4,4.1,3.4,7.4c0,4-2.6,7.6-7.1,9.2v0.1
		c4,1,8.6,4.2,8.6,10.5c0,3.6-1.4,6.3-3.6,8.4c-2.9,2.6-7.7,3.9-14.5,3.9c-3.7,0-6.5-0.2-8.4-0.5V13.2H268.6z M274,30.4h4.9
		c5.7,0,9.1-3,9.1-7c0-4.9-3.7-6.9-9.2-6.9c-2.5,0-3.9,0.2-4.8,0.3V30.4L274,30.4z M274,50.4c1,0.2,2.6,0.2,4.6,0.2
		c5.6,0,10.8-2.1,10.8-8.2c0-5.7-4.9-8-10.8-8h-4.5v16H274z"/>
	<path class="st0" d="M307.8,12.6v41.9h-5.4V12.6H307.8z"/>
</g>
</svg>
