<?xml version="1.0" encoding="utf-8"?>
<!-- Generator: Adobe Illustrator 19.2.1, SVG Export Plug-In . SVG Version: 6.00 Build 0)  -->
<svg version="1.1" id="Layer_1" xmlns="http://www.w3.org/2000/svg" xmlns:xlink="http://www.w3.org/1999/xlink" x="0px" y="0px"
	 width="329px" height="68px" viewBox="0 0 329 68" style="enable-background:new 0 0 329 68;" xml:space="preserve">
<style type="text/css">
	.st0{fill:#e0a070;}
</style>
<polygon class="st0" points="304.3,4.5 320.3,27.3 304.3,63.1 314.4,27.5 "/>
<polygon class="st0" points="321.4,23.8 326.7,7.6 318.7,20.1 "/>
<polygon class="st0" points="321.2,32.2 318.7,37.8 326.3,58.5 "/>
<polygon class="st0" points="311.3,9.9 317.1,17.9 320.3,13 "/>
<g>
	<path class="st0" d="M29.3,43.9V25c0-0.9,0.1-2.6,0.3-4.6h-0.1c-0.1,0.5-0.4,1-0.5,1.5c-0.1,0.5-0.3,0.8-0.4,1l-9.5,21h-1L8.4,23.1
		c-0.3-0.6-0.5-1.5-0.9-2.7H7.3c0,0.6,0.1,1.3,0.1,2.1c0,0.8,0,1.5,0,2.5v19.1H5.1V16.6h3l9.3,20.6c0.1,0.4,0.4,0.9,0.5,1.3
		c0.1,0.5,0.4,0.9,0.5,1.4h0.1c0.1-0.5,0.4-1,0.5-1.4c0.1-0.4,0.4-0.9,0.5-1.4L29,16.5h2.8v27.3h-2.6V43.9z"/>
	<path class="st0" d="M32.5,44.6h-3.7V25c0-0.3,0-0.5,0-0.9l-9.3,20.4h-1.9L8.2,24.1c0,0.3,0,0.4,0,0.6v19.7H4.5V16h4l9.4,21
		c0.1,0.4,0.4,0.8,0.5,1.3c0.1-0.4,0.3-0.8,0.5-1.3l9.7-21h3.9V44.6z M29.9,43.3h1.2V17.2h-1.8l-9.2,20.2c-0.3,0.5-0.4,0.9-0.5,1.3
		l-0.6,1.8H18l-0.3-0.5c-0.1-0.5-0.3-0.9-0.5-1.4c-0.1-0.4-0.4-0.9-0.5-1.3l-9-20.1H5.8v26.1H7V24.9c0-0.9,0-1.7,0-2.5
		c0-0.8,0-1.4-0.1-1.9v-0.6H8l0.3,0.5c0.3,1.2,0.5,1.9,0.8,2.6l9.4,20.5h0.3l9.4-20.6c0.1-0.3,0.3-0.6,0.4-1s0.3-0.9,0.5-1.4
		l0.1-0.5h1.2v0.6c-0.1,2.2-0.3,3.7-0.3,4.6v18.2H29.9z"/>
</g>
<g>
	<path class="st0" d="M39.7,19.4c-0.5,0-0.9-0.1-1.2-0.5c-0.4-0.4-0.5-0.8-0.5-1.3s0.1-0.9,0.5-1.3s0.8-0.5,1.2-0.5
		c0.3,0,0.5,0,0.6,0.1c0.3,0.1,0.4,0.3,0.5,0.4c0.1,0.1,0.3,0.4,0.4,0.5c0.1,0.3,0.1,0.4,0.1,0.6c0,0.3,0,0.5-0.1,0.6
		c-0.1,0.3-0.3,0.4-0.4,0.5c-0.1,0.1-0.4,0.3-0.5,0.4C40.2,19.4,40,19.4,39.7,19.4z M38.5,43.9V24.3H41v19.6H38.5z"/>
	<path class="st0" d="M41.6,44.6h-3.7V23.7h3.7V44.6z M39.2,43.3h1.2V25h-1.2V43.3z M39.7,20.1c-0.6,0-1.2-0.3-1.7-0.6
		c-0.5-0.5-0.8-1-0.8-1.7s0.3-1.3,0.8-1.7c0.6-0.6,1.7-0.8,2.6-0.5c0.3,0.1,0.5,0.3,0.8,0.5c0.3,0.3,0.4,0.5,0.5,0.8
		c0.1,0.3,0.3,0.6,0.3,0.9c0,0.4,0,0.6-0.1,0.9s-0.3,0.5-0.5,0.8c-0.3,0.3-0.5,0.4-0.8,0.5C40.4,20,40.1,20.1,39.7,20.1z M39.7,16.6
		c-0.3,0-0.5,0.1-0.8,0.3c-0.3,0.3-0.3,0.5-0.3,0.8c0,0.4,0.1,0.6,0.3,0.8c0.4,0.4,0.9,0.4,1.2,0.3c0.1,0,0.3-0.1,0.4-0.3
		c0.1-0.1,0.1-0.3,0.3-0.4c0-0.1,0.1-0.3,0.1-0.4c0-0.1,0-0.3-0.1-0.4c0-0.1-0.1-0.3-0.3-0.4c-0.1-0.1-0.3-0.1-0.4-0.3
		C40.1,16.6,39.8,16.6,39.7,16.6z"/>
</g>
<g>
	<path class="st0" d="M60.2,43c-1.4,0.9-3.2,1.3-5.3,1.4c-1.4,0-2.7-0.3-3.7-0.8c-1.2-0.5-2.1-1.2-2.8-2.1c-0.8-0.9-1.4-1.9-1.8-3.1
		c-0.4-1.2-0.6-2.5-0.6-3.9c0-1.4,0.3-2.8,0.6-4.1c0.4-1.3,1-2.5,1.9-3.4c0.9-0.9,1.9-1.7,3.1-2.3c1.3-0.5,2.7-0.9,4.3-0.9
		c1.7,0,3.1,0.3,4.4,0.9v2.6c-1.4-0.9-3-1.4-4.6-1.4c-1.2,0-2.2,0.3-3.1,0.6c-0.9,0.4-1.7,1-2.3,1.8c-0.6,0.8-1,1.7-1.4,2.7
		c-0.4,1-0.5,2.1-0.5,3.2c0,1,0.1,2.1,0.4,3c0.3,0.9,0.6,1.8,1.3,2.6c0.5,0.8,1.3,1.3,2.2,1.8c0.9,0.4,1.9,0.6,3.1,0.6
		c1.8,0,3.5-0.5,4.9-1.7V43H60.2z"/>
	<path class="st0" d="M54.9,45.1c-1.4,0-2.7-0.3-4-0.8c-1.2-0.5-2.2-1.3-3.1-2.2c-0.9-0.9-1.5-2.1-1.9-3.4c-0.4-1.3-0.6-2.7-0.6-4.1
		c0-1.5,0.3-3,0.6-4.4c0.5-1.4,1.2-2.6,2.1-3.6c0.9-1,2.1-1.8,3.4-2.5c1.3-0.6,2.8-0.9,4.5-0.9s3.2,0.4,4.6,1l0.4,0.1v4.3l-1-0.6
		c-1.3-0.9-2.7-1.3-4.3-1.3c-1,0-2.1,0.3-2.8,0.6s-1.5,0.9-2.1,1.7c-0.5,0.6-1,1.5-1.3,2.5c-0.3,0.9-0.5,1.9-0.5,3
		c0,1,0.1,1.9,0.4,2.8c0.3,0.9,0.6,1.7,1.2,2.3c0.5,0.6,1.2,1.2,1.9,1.5s1.7,0.6,2.7,0.6c1.7,0,3.2-0.5,4.6-1.5l1-0.8v4l-0.1,0
		C59.1,44.6,57.1,45,54.9,45.1L54.9,45.1z M56,24.6c-1.5,0-2.8,0.3-4,0.8c-1.2,0.5-2.1,1.3-3,2.1c-0.8,0.9-1.4,1.9-1.8,3.2
		c-0.4,1.2-0.6,2.6-0.6,3.9c0,1.3,0.3,2.6,0.6,3.7c0.4,1.2,0.9,2.1,1.7,3c0.8,0.8,1.7,1.4,2.7,1.9c1,0.5,2.2,0.6,3.5,0.6
		c1.8,0,3.4-0.4,4.6-1v-0.9C58.4,42.7,57,43,55.4,43c-1.3,0-2.5-0.3-3.4-0.8c-0.9-0.5-1.8-1.2-2.3-1.9c-0.6-0.8-1-1.7-1.4-2.7
		c-0.3-1-0.4-2.1-0.4-3.2c0-1.2,0.1-2.3,0.5-3.4c0.4-1,0.9-2.1,1.5-2.8c0.6-0.8,1.5-1.5,2.5-1.9c2.1-1,5-1,7.4,0.3v-1
		C58.5,24.9,57.2,24.6,56,24.6z"/>
</g>
<g>
	<path class="st0" d="M74.7,26.9c-0.5-0.4-1.3-0.6-2.2-0.6c-0.6,0-1.2,0.1-1.7,0.4c-0.5,0.3-0.9,0.6-1.3,1s-0.6,0.9-0.9,1.4
		c-0.3,0.5-0.5,1.2-0.6,1.7c-0.1,0.6-0.3,1.2-0.4,1.8c-0.1,0.6-0.1,1.2-0.1,1.7v9.5H65V24.3h2.5v4.1h0.1c0.3-0.8,0.5-1.3,0.9-1.9
		c0.4-0.5,0.8-1,1.2-1.4c0.5-0.4,0.9-0.6,1.5-0.9c0.5-0.3,1.2-0.3,1.7-0.3c0.4,0,0.8,0,1,0.1c0.3,0,0.6,0.1,0.9,0.3v2.6H74.7z"/>
	<path class="st0" d="M68.1,44.6h-3.7V23.7h3.7v2.2c0.4-0.5,0.6-0.9,1.2-1.2c0.5-0.4,1-0.8,1.7-1c1-0.4,2.2-0.4,3.1-0.3
		c0.4,0,0.6,0.1,1,0.3l0.4,0.1v4.3l-1-0.8c-0.5-0.4-1-0.5-1.8-0.5c-0.5,0-1,0.1-1.4,0.3c-0.4,0.3-0.8,0.5-1.2,0.9
		c-0.4,0.4-0.6,0.8-0.9,1.3c-0.3,0.5-0.4,1-0.6,1.7c-0.1,0.5-0.3,1.2-0.4,1.7C68,33.2,68,33.8,68,34.3v10.3H68.1z M65.6,43.3h1.2
		v-8.9c0-0.5,0-1.2,0.1-1.8c0.1-0.6,0.3-1.3,0.4-1.9c0.1-0.5,0.3-1,0.5-1.4h-0.9l-0.1-0.6V25h-1.2C65.6,25,65.6,43.3,65.6,43.3z
		 M72.7,24.6c-0.5,0-1,0.1-1.4,0.3c-0.5,0.1-0.9,0.4-1.3,0.8c-0.4,0.4-0.8,0.8-1,1.3c-0.1,0.3-0.4,0.5-0.5,0.9
		c0.1-0.3,0.4-0.5,0.5-0.6c0.4-0.5,0.9-0.9,1.5-1.2c1-0.5,2.5-0.5,3.6-0.3v-1c-0.1,0-0.3,0-0.3,0C73.4,24.7,73.1,24.6,72.7,24.6z"/>
</g>
<g>
	<path class="st0" d="M85.8,44.3c-1.4,0-2.7-0.3-3.9-0.8c-1.2-0.5-2.2-1.2-3-2.1c-0.8-0.9-1.4-1.9-1.9-3.2c-0.4-1.3-0.6-2.6-0.6-4.1
		c0-1.7,0.3-3.1,0.6-4.4c0.5-1.3,1.2-2.3,1.9-3.2c0.9-0.9,1.8-1.5,3.1-2.1c1.2-0.5,2.6-0.6,4-0.6c1.4,0,2.7,0.3,3.9,0.6
		s2.1,1.2,2.8,2.1c0.8,0.9,1.4,1.9,1.8,3.2c0.4,1.3,0.6,2.7,0.6,4.3c0,1.5-0.3,3-0.6,4.1c-0.4,1.3-1,2.3-1.9,3.2
		c-0.8,0.9-1.8,1.5-3,2.1C88.5,44.2,87.2,44.3,85.8,44.3z M85.9,26c-1,0-2.1,0.1-3,0.5c-0.9,0.4-1.5,0.9-2.2,1.7
		c-0.6,0.6-1,1.5-1.4,2.6c-0.4,1-0.5,2.2-0.5,3.5c0,1.2,0.1,2.3,0.5,3.4c0.4,1,0.8,1.8,1.4,2.6c0.6,0.6,1.3,1.3,2.2,1.7
		c0.9,0.4,1.8,0.5,3,0.5c1,0,2.1-0.1,3-0.5c0.9-0.4,1.5-0.9,2.2-1.5c0.6-0.6,1-1.5,1.3-2.6s0.4-2.2,0.4-3.5c0-2.6-0.6-4.6-1.8-6.1
		C89.8,26.8,88.1,26,85.9,26z"/>
	<path class="st0" d="M85.8,45c-1.5,0-3-0.3-4.1-0.8c-1.3-0.5-2.3-1.3-3.2-2.2c-0.9-0.9-1.5-2.1-2.1-3.4c-0.5-1.3-0.6-2.7-0.6-4.3
		c0-1.7,0.3-3.2,0.8-4.6s1.2-2.6,2.1-3.5c0.9-0.9,2.1-1.7,3.4-2.2c1.3-0.5,2.7-0.8,4.3-0.8c1.5,0,2.8,0.3,4.1,0.8
		c1.2,0.5,2.3,1.3,3.1,2.2c0.9,0.9,1.5,2.1,1.9,3.5c0.4,1.3,0.6,2.8,0.6,4.5c0,1.5-0.3,3.1-0.6,4.4c-0.5,1.3-1.2,2.5-2.1,3.5
		c-0.9,1-1.9,1.7-3.2,2.3C88.7,44.7,87.3,45,85.8,45z M86,24.6c-1.4,0-2.7,0.3-3.7,0.6c-1.2,0.4-2.1,1-2.8,1.9
		C78.7,28,78,29,77.6,30.3c-0.4,1.2-0.6,2.6-0.6,4.1c0,1.4,0.3,2.7,0.6,3.9c0.4,1.2,1,2.2,1.7,3c0.8,0.8,1.7,1.4,2.7,1.9
		c1,0.4,2.3,0.6,3.6,0.6c1.4,0,2.6-0.3,3.7-0.6c1-0.5,2.1-1.2,2.7-1.9c0.8-0.8,1.3-1.8,1.8-3c0.4-1.2,0.6-2.5,0.6-4
		c0-1.5-0.3-3-0.6-4.1c-0.4-1.2-0.9-2.2-1.7-3c-0.8-0.8-1.5-1.4-2.7-1.8C88.6,24.7,87.4,24.6,86,24.6z M85.9,42.9
		c-1.2,0-2.2-0.3-3.1-0.6c-0.9-0.4-1.8-1-2.5-1.8c-0.6-0.8-1.2-1.7-1.5-2.7s-0.5-2.2-0.5-3.5c0-1.4,0.1-2.6,0.5-3.7
		c0.4-1.2,0.9-2.1,1.5-2.8c0.6-0.8,1.5-1.4,2.5-1.8s2.1-0.6,3.1-0.6c2.3,0,4.3,0.8,5.5,2.3c1.3,1.5,1.9,3.7,1.9,6.4
		c0,1.3-0.1,2.6-0.5,3.6c-0.4,1-0.8,2.1-1.4,2.8c-0.6,0.8-1.4,1.4-2.3,1.8C88.1,42.8,87,42.9,85.9,42.9z M85.9,26.7
		c-1,0-1.8,0.1-2.7,0.5c-0.6,0.4-1.4,0.8-1.9,1.4c-0.5,0.6-1,1.4-1.3,2.3s-0.5,2.1-0.5,3.2c0,1.2,0.1,2.2,0.5,3.1
		c0.3,0.9,0.8,1.7,1.3,2.3s1.2,1.2,1.9,1.4c1.5,0.6,3.7,0.6,5.3,0c0.8-0.3,1.4-0.8,1.9-1.4s0.9-1.4,1.2-2.3c0.3-0.9,0.4-2.1,0.4-3.2
		c0-2.5-0.5-4.4-1.5-5.7C89.4,27.3,87.9,26.7,85.9,26.7z"/>
</g>
<g>
	<path class="st0" d="M99,40.5c0.4,0.3,0.8,0.5,1.2,0.8c0.4,0.3,0.9,0.4,1.3,0.6c0.5,0.1,0.9,0.3,1.4,0.4s0.9,0.1,1.3,0.1
		c3,0,4.4-1,4.4-3.2c0-0.5-0.1-0.9-0.3-1.3c-0.3-0.4-0.5-0.6-0.9-1c-0.4-0.3-0.9-0.5-1.4-0.8c-0.5-0.3-1.2-0.5-1.8-0.8
		c-0.9-0.4-1.7-0.8-2.3-1.2c-0.6-0.4-1.2-0.8-1.5-1.3c-0.4-0.5-0.8-0.9-0.9-1.5c-0.3-0.5-0.3-1.2-0.3-1.8c0-0.9,0.1-1.7,0.5-2.3
		c0.4-0.6,0.9-1.3,1.5-1.7c0.6-0.5,1.4-0.8,2.2-1c0.8-0.3,1.7-0.4,2.6-0.4c1.7,0,3.2,0.3,4.4,0.9v2.6c-1.4-0.9-3.1-1.4-4.8-1.4
		c-0.6,0-1.2,0.1-1.7,0.3c-0.5,0.1-0.9,0.4-1.3,0.6s-0.6,0.6-0.8,1c-0.1,0.4-0.3,0.8-0.3,1.3c0,0.5,0.1,0.9,0.3,1.3
		c0.1,0.4,0.4,0.6,0.8,1c0.4,0.3,0.8,0.5,1.3,0.9c0.5,0.3,1.2,0.5,1.9,0.9c0.9,0.4,1.8,0.8,2.5,1.2c0.6,0.4,1.3,0.8,1.7,1.2
		s0.8,0.9,1,1.4c0.3,0.5,0.4,1.2,0.4,1.9c0,0.9-0.1,1.7-0.5,2.3c-0.4,0.6-0.9,1.3-1.5,1.7c-0.6,0.5-1.4,0.8-2.3,1
		c-0.9,0.3-1.8,0.4-2.8,0.4c-1.9,0-3.6-0.4-5-1.3v-2.8H99z"/>
	<path class="st0" d="M103.9,45c-2.1,0-3.9-0.4-5.3-1.3l-0.3-0.1v-4.4l1,0.8c0.4,0.3,0.8,0.5,1.2,0.8c0.4,0.3,0.8,0.4,1.3,0.5
		c0.4,0.1,0.9,0.3,1.3,0.4s0.8,0.1,1.2,0.1c3.4,0,3.7-1.5,3.7-2.6c0-0.4-0.1-0.6-0.3-1c-0.1-0.3-0.4-0.5-0.8-0.8
		c-0.4-0.3-0.8-0.5-1.3-0.8c-0.5-0.3-1.2-0.5-1.8-0.8c-0.9-0.4-1.7-0.8-2.5-1.2c-0.6-0.4-1.3-0.9-1.8-1.4c-0.5-0.5-0.8-1-1-1.7
		c-0.3-0.6-0.4-1.3-0.4-2.1c0-1,0.3-1.8,0.6-2.6c0.4-0.8,1-1.4,1.7-1.9c0.6-0.5,1.5-0.9,2.5-1.2c0.9-0.3,1.8-0.4,2.8-0.4
		c1.8,0,3.4,0.4,4.8,1l0.4,0.1v4.1l-1-0.6c-1.3-0.9-2.8-1.3-4.4-1.3c-0.5,0-1,0.1-1.4,0.3c-0.4,0.1-0.8,0.3-1,0.5
		c-0.3,0.3-0.5,0.5-0.6,0.8c-0.1,0.3-0.3,0.6-0.3,1c0,0.4,0,0.8,0.1,1c0.1,0.3,0.3,0.5,0.5,0.8c0.3,0.3,0.6,0.5,1.2,0.8
		c0.5,0.3,1.2,0.5,1.8,0.8c0.9,0.4,1.8,0.8,2.5,1.2c0.8,0.4,1.4,0.9,1.8,1.3c0.5,0.5,0.9,1,1.2,1.7c0.3,0.6,0.4,1.3,0.4,2.1
		c0,1-0.3,1.9-0.6,2.7s-1,1.4-1.7,1.9c-0.6,0.5-1.5,0.9-2.5,1.2C106.1,44.8,105.1,45,103.9,45z M99.7,42.8c1.2,0.6,2.7,1,4.4,1
		c0.9,0,1.8-0.1,2.7-0.4c0.8-0.3,1.4-0.5,2.1-1c0.5-0.4,1-0.9,1.3-1.5c0.3-0.6,0.5-1.3,0.5-2.1c0-0.6-0.1-1.2-0.3-1.7
		c-0.1-0.5-0.5-0.9-0.9-1.3c-0.4-0.4-0.9-0.8-1.5-1.2c-0.6-0.4-1.4-0.8-2.3-1.2c-0.8-0.3-1.4-0.6-1.9-0.9s-1-0.6-1.4-0.9
		c-0.4-0.4-0.6-0.8-0.9-1.2c-0.1-0.4-0.3-0.9-0.3-1.5c0-0.5,0.1-1.2,0.4-1.5c0.3-0.5,0.5-0.9,1-1.2c0.4-0.4,0.9-0.6,1.5-0.8
		c0.5-0.1,1.2-0.3,1.8-0.3c1.4,0,2.8,0.3,4.1,0.9v-1c-1-0.5-2.3-0.8-3.7-0.8c-0.9,0-1.7,0.1-2.5,0.4c-0.8,0.3-1.4,0.5-2.1,1
		c-0.5,0.4-1,0.9-1.3,1.5c-0.3,0.5-0.5,1.3-0.5,1.9c0,0.6,0.1,1.2,0.3,1.7c0.1,0.5,0.4,0.9,0.8,1.3c0.4,0.4,0.9,0.8,1.4,1.2
		c0.6,0.4,1.4,0.8,2.2,1c0.6,0.3,1.3,0.5,1.8,0.8c0.5,0.3,1,0.5,1.5,0.9c0.4,0.4,0.8,0.8,1,1.2c0.3,0.5,0.4,1,0.4,1.5
		c0,1.8-0.9,3.9-5,3.9c-0.5,0-0.9,0-1.4-0.1s-1-0.3-1.5-0.4c-0.5-0.1-0.9-0.4-1.4-0.6c-0.1,0-0.1-0.1-0.3-0.1L99.7,42.8L99.7,42.8z"
		/>
</g>
<g>
	<path class="st0" d="M124.1,44.3c-1.4,0-2.7-0.3-3.9-0.8c-1.2-0.5-2.2-1.2-3-2.1c-0.8-0.9-1.4-1.9-1.9-3.2
		c-0.4-1.3-0.6-2.6-0.6-4.1c0-1.7,0.3-3.1,0.6-4.4c0.5-1.3,1.2-2.3,1.9-3.2c0.9-0.9,1.8-1.5,3.1-2.1c1.2-0.5,2.6-0.6,4-0.6
		s2.7,0.3,3.9,0.6c1.2,0.4,2.1,1.2,2.8,2.1c0.8,0.9,1.4,1.9,1.8,3.2c0.4,1.3,0.6,2.7,0.6,4.3c0,1.5-0.3,3-0.6,4.1
		c-0.4,1.3-1,2.3-1.9,3.2c-0.8,0.9-1.8,1.5-3,2.1C126.8,44.2,125.5,44.3,124.1,44.3z M124.2,26c-1,0-2.1,0.1-3,0.5
		c-0.9,0.4-1.5,0.9-2.2,1.7c-0.6,0.6-1,1.5-1.4,2.6c-0.4,1-0.5,2.2-0.5,3.5c0,1.2,0.1,2.3,0.5,3.4c0.4,1,0.8,1.8,1.4,2.6
		c0.6,0.6,1.3,1.3,2.2,1.7c0.9,0.4,1.8,0.5,3,0.5c1,0,2.1-0.1,3-0.5c0.9-0.4,1.5-0.9,2.2-1.5s1-1.5,1.3-2.6c0.3-1,0.4-2.2,0.4-3.5
		c0-2.6-0.6-4.6-1.8-6.1C128.1,26.8,126.4,26,124.2,26z"/>
	<path class="st0" d="M124.1,45c-1.5,0-3-0.3-4.1-0.8c-1.3-0.5-2.3-1.3-3.2-2.2c-0.9-0.9-1.5-2.1-2.1-3.4c-0.5-1.3-0.6-2.7-0.6-4.3
		c0-1.7,0.3-3.2,0.8-4.6c0.5-1.4,1.2-2.6,2.1-3.5c0.9-0.9,2.1-1.7,3.4-2.2c1.3-0.5,2.7-0.8,4.3-0.8c1.5,0,2.8,0.3,4.1,0.8
		c1.2,0.5,2.3,1.3,3.1,2.2c0.9,0.9,1.5,2.1,1.9,3.5c0.4,1.3,0.6,2.8,0.6,4.5c0,1.5-0.3,3.1-0.6,4.4c-0.5,1.3-1.2,2.5-2.1,3.5
		c-0.9,1-1.9,1.7-3.2,2.3C127,44.7,125.6,45,124.1,45z M124.3,24.6c-1.4,0-2.7,0.3-3.7,0.6c-1.2,0.4-2.1,1-2.8,1.9
		c-0.8,0.8-1.4,1.8-1.8,3.1c-0.4,1.2-0.6,2.6-0.6,4.1c0,1.4,0.3,2.7,0.6,3.9c0.4,1.2,1,2.2,1.7,3c0.8,0.8,1.7,1.4,2.7,1.9
		c1,0.4,2.3,0.6,3.6,0.6c1.4,0,2.6-0.3,3.7-0.6c1-0.5,2.1-1.2,2.7-1.9c0.8-0.8,1.3-1.8,1.8-3c0.4-1.2,0.6-2.5,0.6-4
		c0-1.5-0.3-3-0.6-4.1c-0.4-1.2-0.9-2.2-1.7-3c-0.8-0.8-1.5-1.4-2.7-1.8C126.9,24.7,125.7,24.6,124.3,24.6z M124.2,42.9
		c-1.2,0-2.2-0.3-3.1-0.6c-0.9-0.4-1.8-1-2.5-1.8c-0.6-0.8-1.2-1.7-1.5-2.7c-0.4-1-0.5-2.2-0.5-3.5c0-1.4,0.1-2.6,0.5-3.7
		s0.9-2.1,1.5-2.8c0.6-0.8,1.5-1.4,2.5-1.8s2.1-0.6,3.1-0.6c2.3,0,4.3,0.8,5.5,2.3c1.3,1.5,1.9,3.7,1.9,6.4c0,1.3-0.1,2.6-0.5,3.6
		c-0.3,1-0.8,2.1-1.4,2.8c-0.6,0.8-1.4,1.4-2.3,1.8C126.4,42.8,125.3,42.9,124.2,42.9z M124.2,26.7c-1,0-1.8,0.1-2.7,0.5
		c-0.8,0.4-1.4,0.8-1.9,1.4c-0.5,0.6-1,1.4-1.3,2.3c-0.3,0.9-0.5,2.1-0.5,3.2c0,1.2,0.1,2.2,0.5,3.1c0.3,0.9,0.8,1.7,1.3,2.3
		s1.2,1.2,1.9,1.4c1.5,0.6,3.7,0.6,5.3,0c0.8-0.3,1.4-0.8,1.9-1.4s0.9-1.4,1.2-2.3c0.3-0.9,0.4-2.1,0.4-3.2c0-2.5-0.5-4.4-1.5-5.7
		C127.7,27.3,126.3,26.7,124.2,26.7z"/>
</g>
<g>
	<path class="st0" d="M146.9,17.2c-0.5-0.4-1.3-0.5-2.1-0.5c-2.3,0-3.5,1.5-3.5,4.5v3.1h4.9v2.2h-4.9v17.4h-2.5V26.5h-3.5v-2.2h3.5
		v-3.2c0-1,0.1-1.8,0.4-2.7c0.3-0.8,0.6-1.4,1.2-2.1c0.5-0.5,1-1,1.8-1.3c0.8-0.3,1.5-0.5,2.6-0.5c0.9,0,1.7,0.1,2.2,0.4v2.3H146.9z
		"/>
	<path class="st0" d="M141.9,44.6h-3.7V27.2h-3.4v-3.5h3.4v-2.6c0-1,0.1-2.1,0.4-2.8c0.3-0.9,0.6-1.7,1.2-2.3s1.3-1.2,2.1-1.5
		c0.8-0.4,1.8-0.5,2.8-0.5s1.8,0.1,2.5,0.4l0.4,0.1v3.9l-1-0.6c-0.4-0.3-1-0.4-1.8-0.4c-1.2,0-2.8,0.4-2.8,3.9v2.6h4.9v3.5h-4.8
		V44.6z M139.5,43.3h1.2V25.9h4.9V25h-5v-3.7c0-4.3,2.2-5.2,4.1-5.2c0.5,0,1,0,1.4,0.1v-0.9c-0.4-0.1-0.9-0.1-1.5-0.1
		c-0.9,0-1.7,0.1-2.3,0.4c-0.6,0.3-1.2,0.6-1.5,1.2c-0.4,0.5-0.8,1.2-1,1.8c-0.3,0.8-0.4,1.5-0.4,2.5v3.9h-3.4v0.9h3.4v17.5H139.5z"
		/>
</g>
<g>
	<path class="st0" d="M158.4,43.7c-0.9,0.4-1.8,0.6-2.7,0.6c-3.1,0-4.8-1.8-4.8-5.4V26.5h-3.5v-2.2h3.5v-4.9l2.5-0.8v5.7h5v2.2h-5
		v12c0,1.3,0.3,2.3,0.6,2.8c0.4,0.6,1.2,0.9,2.2,0.9c0.8,0,1.5-0.3,2.2-0.6L158.4,43.7L158.4,43.7z"/>
	<path class="st0" d="M155.7,45c-2.5,0-5.4-1-5.4-6.1V27.2h-3.5v-3.5h3.5v-4.8l3.7-1.2v5.9h5v3.5h-5v11.3c0,1.4,0.3,2.2,0.5,2.5
		c0.3,0.4,0.9,0.6,1.7,0.6c0.6,0,1.3-0.1,1.8-0.6l1-0.6v3.7l-0.4,0.3C157.7,44.7,156.7,45,155.7,45z M148,25.9h3.5v13
		c0,3.2,1.3,4.8,4.1,4.8c0.8,0,1.4-0.1,2.1-0.4v-0.6c-0.5,0.1-1,0.3-1.5,0.3c-1.3,0-2.2-0.4-2.7-1.2c-0.5-0.6-0.8-1.8-0.8-3.2V25.9
		h5V25h-5v-5.5l-1.2,0.4V25H148V25.9z"/>
</g>
<path class="st0" d="M172.4,39.9c0.5,0.4,0.9,0.6,1.5,0.9c0.5,0.3,1.2,0.5,1.7,0.6c0.5,0.1,1.2,0.4,1.8,0.4c0.6,0.1,1.2,0.1,1.7,0.1
	c2.1,0,3.6-0.4,4.6-1.2c1-0.8,1.5-1.9,1.5-3.5c0-0.8-0.1-1.4-0.4-1.9c-0.3-0.5-0.6-1-1.2-1.5s-1.2-0.9-1.9-1.4
	c-0.8-0.5-1.7-1-2.7-1.5c-1.2-0.6-2.2-1.3-3-1.8s-1.5-1.2-2.1-1.7c-0.5-0.6-0.9-1.3-1.2-1.9c-0.3-0.6-0.4-1.4-0.4-2.3
	c0-1.2,0.3-2.1,0.6-3c0.5-0.9,1.2-1.7,1.9-2.2c0.8-0.6,1.7-1,2.8-1.4c1-0.4,2.2-0.5,3.5-0.5c2.2,0,4,0.3,5.4,0.9v2.8
	c-1.7-0.9-3.5-1.4-5.7-1.4c-0.8,0-1.5,0.1-2.3,0.3c-0.8,0.3-1.3,0.5-1.9,0.9c-0.5,0.4-1,0.9-1.3,1.4c-0.3,0.5-0.5,1.3-0.5,1.9
	c0,0.8,0.1,1.3,0.3,1.8c0.3,0.5,0.5,1,1,1.4c0.5,0.5,1,0.9,1.8,1.4c0.8,0.5,1.7,1,2.8,1.5c1.2,0.6,2.2,1.2,3,1.8
	c0.9,0.5,1.5,1.2,2.2,1.8c0.5,0.6,1,1.3,1.3,2.1c0.3,0.6,0.4,1.5,0.4,2.3c0,1.2-0.3,2.2-0.6,3.2c-0.4,0.9-1,1.7-1.9,2.3
	c-0.8,0.6-1.8,1-2.8,1.4c-1.2,0.3-2.3,0.5-3.6,0.5c-0.4,0-0.9,0-1.5-0.1c-0.6-0.1-1.2-0.1-1.8-0.3c-0.6-0.1-1.2-0.3-1.8-0.5
	c-0.5-0.1-1-0.4-1.3-0.6V39.9z"/>
<path class="st0" d="M200.3,43.7c-0.9,0.4-1.8,0.6-2.7,0.6c-3.1,0-4.8-1.8-4.8-5.4V26.5h-3.5v-2.2h3.5v-4.9l2.5-0.8v5.7h5v2.2h-5v12
	c0,1.3,0.3,2.3,0.6,2.8c0.4,0.6,1.2,0.9,2.2,0.9c0.8,0,1.5-0.3,2.2-0.6L200.3,43.7L200.3,43.7z"/>
<path class="st0" d="M217.2,43.9v-3.4H217c-1.3,2.6-3.4,3.7-6.2,3.7c-4.6,0-7-2.8-7-8.5V24.3h2.5v11.1c0,2.3,0.4,4.1,1.3,5.2
	c0.8,1.2,2.1,1.7,3.9,1.7c0.9,0,1.5-0.1,2.3-0.5c0.6-0.4,1.3-0.8,1.8-1.4s0.9-1.3,1.2-2.2c0.3-0.8,0.4-1.8,0.4-2.7V24.2h2.5v19.6
	h-2.5V43.9z"/>
<path class="st0" d="M239.6,43.9v-3.5h-0.1c-0.6,1.3-1.5,2.2-2.8,2.8c-1.2,0.6-2.6,1-4.1,1c-1.2,0-2.3-0.3-3.4-0.6
	c-1-0.5-1.8-1.2-2.6-1.9c-0.8-0.9-1.3-1.9-1.7-3.1c-0.4-1.2-0.6-2.6-0.6-4.1c0-1.5,0.3-3,0.6-4.4c0.4-1.3,1-2.5,1.8-3.4
	c0.8-0.9,1.7-1.7,2.8-2.2c1.2-0.5,2.3-0.8,3.7-0.8c2.8,0,4.8,1.2,6.1,3.4h0.1V14.9h2.5v28.9h-2.3V43.9z M239.6,32.1
	c0-0.9-0.1-1.7-0.4-2.5c-0.3-0.8-0.6-1.4-1.2-1.9s-1.2-1-1.9-1.3c-0.8-0.3-1.5-0.5-2.5-0.5c-1,0-1.8,0.1-2.7,0.5
	c-0.8,0.4-1.5,0.9-2.1,1.7c-0.5,0.8-1,1.5-1.4,2.6c-0.4,1-0.5,2.2-0.5,3.5c0,1.3,0.1,2.3,0.4,3.4c0.3,1,0.8,1.8,1.3,2.5
	c0.5,0.6,1.2,1.2,1.9,1.5s1.5,0.5,2.5,0.5c1,0,1.9-0.1,2.7-0.5c0.8-0.4,1.4-0.9,2.1-1.4c0.5-0.6,1-1.4,1.3-2.2
	c0.3-0.9,0.4-1.7,0.4-2.7v-3.1H239.6z"/>
<path class="st0" d="M249.5,34.7c0,1.2,0.1,2.3,0.5,3.2c0.3,0.9,0.8,1.8,1.3,2.5c0.5,0.6,1.3,1.2,2.1,1.5c0.8,0.4,1.8,0.5,2.8,0.5
	c2.2,0,4.3-0.8,6.2-2.3v2.5c-1.9,1.3-4.1,2.1-6.8,2.1c-1.3,0-2.5-0.3-3.6-0.6c-1-0.5-1.9-1.2-2.7-1.9c-0.8-0.9-1.3-1.9-1.7-3.2
	c-0.4-1.3-0.6-2.7-0.6-4.4c0-1.4,0.3-2.8,0.6-4.1s1-2.3,1.8-3.2c0.8-0.9,1.7-1.7,2.8-2.2c1-0.5,2.3-0.8,3.6-0.8
	c1.3,0,2.3,0.3,3.4,0.6c1,0.4,1.8,1,2.5,1.9c0.6,0.8,1.2,1.8,1.5,3c0.4,1.2,0.5,2.5,0.5,3.9v1.2H249.5z M261.2,32.5
	c0-2.1-0.5-3.6-1.4-4.8c-0.9-1.2-2.2-1.7-3.9-1.7c-0.8,0-1.5,0.1-2.3,0.4c-0.6,0.3-1.3,0.8-1.8,1.3c-0.5,0.5-1,1.3-1.3,2.1
	c-0.4,0.8-0.6,1.7-0.8,2.7H261.2z"/>
<path class="st0" d="M281.7,43.9V32.7c0-4.4-1.5-6.6-4.8-6.6c-0.9,0-1.7,0.1-2.3,0.5c-0.8,0.4-1.3,0.8-1.9,1.4
	c-0.5,0.6-0.9,1.3-1.3,2.2C271.1,31,271,32,271,33v11.2h-2.5V24.3h2.5v3.4h0.1c1.4-2.6,3.6-3.9,6.6-3.9c2.2,0,3.7,0.6,4.9,2.1
	c1.2,1.4,1.7,3.4,1.7,6.1v11.9h-2.6V43.9z"/>
<path class="st0" d="M298.3,43.7c-0.9,0.4-1.8,0.6-2.7,0.6c-3.1,0-4.8-1.8-4.8-5.4V26.5h-3.5v-2.2h3.5v-4.9l2.5-0.8v5.7h5v2.2h-5v12
	c0,1.3,0.3,2.3,0.6,2.8c0.4,0.6,1.2,0.9,2.2,0.9c0.8,0,1.5-0.3,2.2-0.6V43.7z"/>
</svg>
