<?xml version="1.0" encoding="utf-8"?>
<!-- Generator: Adobe Illustrator 19.2.1, SVG Export Plug-In . SVG Version: 6.00 Build 0)  -->
<svg version="1.1" id="Layer_1" xmlns="http://www.w3.org/2000/svg" xmlns:xlink="http://www.w3.org/1999/xlink" x="0px" y="0px"
	 width="329px" height="68px" viewBox="0 0 329 68" style="enable-background:new 0 0 329 68;" xml:space="preserve">
<style type="text/css">
	.st0{fill:#e0a070;}
</style>
<g id="Layer_1_1_">
	<polygon class="st0" points="34.7,32.3 52.5,32.3 52.5,14.7 34.7,17.2 	"/>
	<polygon class="st0" points="52.5,52 52.5,34.4 34.7,34.4 34.7,49.5 	"/>
	<polygon class="st0" points="78.4,34.4 54.7,34.4 54.7,52.3 78.4,55.5 	"/>
	<polygon class="st0" points="78.4,32.3 78.4,11.2 54.7,14.4 54.7,32.3 	"/>
</g>
<g>
	<g>
		<path class="st0" d="M99.5,47.3l-6.9-27.2h3.7l3.2,13.8c0.8,3.4,1.5,6.8,2,9.4h0.1c0.4-2.7,1.3-5.9,2.2-9.4l3.6-13.7h3.7l3.3,13.8
			c0.8,3.2,1.5,6.5,1.9,9.3h0.1c0.6-3,1.3-6,2.2-9.4l3.6-13.7h3.6l-7.7,27.2h-3.7L111,33.1c-0.8-3.5-1.4-6.1-1.8-8.9h-0.1
			c-0.5,2.7-1.1,5.4-2.1,8.9l-3.9,14.2H99.5z"/>
		<path class="st0" d="M118.5,47.8H114l-3.5-14.5c-0.6-2.3-1-4.3-1.4-6.3c-0.4,2-0.9,4-1.6,6.4l-4,14.5h-4.4L92,19.6h4.8l3.3,14.1
			c0.6,2.4,1.1,4.9,1.6,7.1c0.5-2.2,1.1-4.7,1.8-7.1l3.7-14.1h4.5l3.4,14.2c0.5,2.3,1.1,4.7,1.5,6.9c0.5-2.1,1-4.2,1.6-6.5l0.1-0.5
			l3.7-14.1h4.6L118.5,47.8z M114.8,46.8h2.9l7.4-26.2h-2.5L119,34.4c-0.8,3.3-1.5,6.1-2.1,8.9l-0.1,0.4H116l-0.1-0.4
			c-0.4-2.9-1.1-6.2-1.9-9.3l-3.2-13.4h-2.9l-3.5,13.4c-0.9,3.3-1.8,6.7-2.2,9.4l-0.1,0.4h-0.8l-0.2-0.4c-0.5-2.6-1.2-6-2-9.4
			l-3.1-13.4h-2.7l6.6,26.2h2.9l3.8-13.8c0.9-3.3,1.6-5.9,2.1-8.8l0.1-0.4h0.9l0.1,0.4c0.4,2.9,1,5.6,1.8,8.8L114.8,46.8z"/>
	</g>
	<g>
		<path class="st0" d="M132.4,22.3c0,1.2-0.8,2.2-2.3,2.2c-1.3,0-2.1-1-2.1-2.2c0-1.3,0.9-2.2,2.2-2.2
			C131.6,20.1,132.4,21,132.4,22.3z M128.5,47.3V27.8h3.6v19.5H128.5z"/>
		<path class="st0" d="M132.5,47.8H128V27.3h4.6V47.8z M129,46.8h2.6V28.3H129V46.8z M130.1,25c-1.5,0-2.6-1.2-2.6-2.7
			c0-1.6,1.2-2.7,2.7-2.7c1.5,0,2.7,1.1,2.7,2.7c0,0.7-0.2,1.4-0.7,1.9C131.7,24.7,131,25,130.1,25z M130.2,20.6
			c-1,0-1.7,0.7-1.7,1.7c0,1,0.7,1.7,1.6,1.7c0.6,0,1-0.2,1.3-0.5c0.3-0.3,0.4-0.7,0.4-1.2l0,0C131.9,21.2,131.2,20.6,130.2,20.6z"
			/>
	</g>
	<g>
		<path class="st0" d="M137.9,33.1c0-2,0-3.7-0.2-5.3h3.1l0.2,3.2h0.1c1-1.9,3.2-3.7,6.5-3.7c2.7,0,6.9,1.6,6.9,8.3v11.7H151V36
			c0-3.1-1.2-5.8-4.5-5.8c-2.3,0-4.2,1.7-4.8,3.6c-0.2,0.4-0.2,1-0.2,1.7v11.7h-3.6V33.1z"/>
		<path class="st0" d="M155,47.8h-4.6V36c0-2.4-0.7-5.3-4-5.3c-2.3,0-3.8,1.6-4.3,3.3c-0.1,0.4-0.2,0.9-0.2,1.5v12.2h-4.6V33.1
			c0-2.2,0-3.8-0.2-5.2l0-0.5h4.2l0.1,2.3c1.2-1.5,3.3-2.8,6.1-2.8c1.2,0,7.4,0.4,7.4,8.8V47.8z M151.5,46.8h2.6V35.6
			c0-7.4-5.3-7.8-6.4-7.8c-3.1,0-5.2,1.8-6,3.4l-0.1,0.3h-0.8l-0.1-0.5l-0.2-2.8h-2.1c0.1,1.4,0.1,2.8,0.1,4.8v13.7h2.6V35.6
			c0-0.7,0.1-1.3,0.3-1.8c0.7-2.4,2.8-4,5.2-4c3.2,0,5,2.3,5,6.3V46.8z"/>
	</g>
	<g>
		<path class="st0" d="M177.2,18.6v23.6c0,1.7,0,3.7,0.2,5h-3.2l-0.2-3.4h-0.1c-1.1,2.2-3.5,3.8-6.7,3.8c-4.7,0-8.4-4-8.4-9.9
			c0-6.5,4-10.5,8.8-10.5c3,0,5,1.4,5.9,3h0.1V18.6H177.2z M173.6,35.7c0-0.4,0-1-0.2-1.5c-0.5-2.3-2.5-4.1-5.1-4.1
			c-3.7,0-5.9,3.2-5.9,7.5c0,4,1.9,7.2,5.8,7.2c2.4,0,4.6-1.6,5.2-4.2c0.1-0.5,0.2-1,0.2-1.5V35.7z"/>
		<path class="st0" d="M167.2,48.2c-5.1,0-8.9-4.4-8.9-10.4c0-3.4,1.1-6.4,3.1-8.4c1.7-1.7,3.8-2.6,6.2-2.6c2.2,0,4.2,0.8,5.5,2.1
			V18.1h4.6v24.1c0,1.2,0,3.5,0.2,5l0,0.5h-4.2l-0.1-2.4C172.1,47.2,169.8,48.2,167.2,48.2z M167.6,27.8c-2.1,0-4,0.8-5.5,2.3
			c-1.8,1.8-2.8,4.6-2.8,7.7c0,5.5,3.3,9.4,7.9,9.4c2.8,0,5.1-1.3,6.2-3.6l0.1-0.3h0.8l0.1,0.5l0.1,2.9h2.2
			c-0.1-1.5-0.1-3.5-0.1-4.5V19.1h-2.6v11.7h-0.8l-0.2-0.3C172.4,29.2,170.5,27.8,167.6,27.8z M168.2,45.4c-3.8,0-6.3-3-6.3-7.7
			c0-4.8,2.6-8,6.4-8c2.7,0,5,1.8,5.6,4.5c0.2,0.6,0.2,1.3,0.2,1.6v3.4c0,0.7-0.1,1.2-0.2,1.7C173.3,43.5,171,45.4,168.2,45.4z
			 M168.3,30.6c-3.2,0-5.4,2.8-5.4,7c0,3.1,1.4,6.7,5.3,6.7c2.3,0,4.2-1.5,4.7-3.9c0.1-0.4,0.1-0.8,0.1-1.4v-3.4
			c0-0.5-0.1-1-0.1-1.4C172.5,32.5,170.9,30.6,168.3,30.6z"/>
	</g>
	<g>
		<path class="st0" d="M200.7,37.4c0,7.2-5,10.4-9.7,10.4c-5.3,0-9.4-3.9-9.4-10c0-6.5,4.3-10.4,9.7-10.4
			C196.9,27.3,200.7,31.4,200.7,37.4z M185.2,37.6c0,4.3,2.5,7.5,5.9,7.5c3.4,0,5.9-3.2,5.9-7.6c0-3.3-1.7-7.5-5.9-7.5
			C187.1,30,185.2,33.9,185.2,37.6z"/>
		<path class="st0" d="M191,48.2c-5.8,0-9.9-4.3-9.9-10.5c0-6.4,4.2-10.9,10.2-10.9c5.8,0,9.9,4.3,9.9,10.5
			C201.2,44.9,196.1,48.2,191,48.2z M191.3,27.8c-5.5,0-9.2,4-9.2,9.9c0,5.6,3.6,9.5,8.9,9.5c4.6,0,9.2-3.1,9.2-9.9
			C200.2,31.7,196.7,27.8,191.3,27.8z M191.2,45.6c-3.7,0-6.4-3.4-6.4-8c0-4,2-8.1,6.5-8.1c4.4,0,6.4,4.2,6.4,8
			C197.6,42.2,194.9,45.6,191.2,45.6z M191.3,30.5c-3.8,0-5.5,3.6-5.5,7.1c0,4.1,2.3,7,5.4,7c3.1,0,5.4-3,5.4-7.1
			C196.6,35.1,195.5,30.5,191.3,30.5z"/>
	</g>
	<g>
		<path class="st0" d="M206.4,27.8l2.6,9.9c0.6,2.2,1.1,4.2,1.5,6.2h0.1c0.4-2,1.1-4.1,1.7-6.2l3.2-10h3l3,9.8
			c0.7,2.3,1.3,4.4,1.7,6.4h0.1c0.3-2,0.8-4,1.5-6.3l2.8-9.8h3.5l-6.3,19.5h-3.2l-3-9.3c-0.7-2.2-1.3-4.1-1.7-6.4h-0.1
			c-0.5,2.3-1.1,4.4-1.8,6.5l-3.1,9.3h-3.2l-5.9-19.5H206.4z"/>
		<path class="st0" d="M225.2,47.8h-4l-3.1-9.7c-0.5-1.6-0.9-3-1.3-4.5c-0.4,1.7-0.9,3.2-1.3,4.6l-3.3,9.6h-4l-6.2-20.5h4.7
			l2.7,10.3c0.4,1.5,0.8,2.9,1.1,4.3c0.4-1.4,0.8-2.9,1.3-4.3l3.3-10.3h3.7l3.1,10.1c0.5,1.6,0.9,3.1,1.3,4.4c0.3-1.5,0.7-3,1.1-4.4
			l2.9-10.2h4.6L225.2,47.8z M221.9,46.8h2.5l6-18.5H228l-2.7,9.4c-0.6,2-1.1,4.2-1.5,6.3l-0.1,0.4h-0.9l-0.1-0.4
			c-0.4-1.9-1-3.9-1.7-6.3l-2.9-9.4h-2.3l-3.1,9.6c-0.6,2-1.3,4.2-1.7,6.1l-0.1,0.4H210l-0.1-0.4c-0.4-2-0.9-4-1.4-6.1l-2.5-9.6
			h-2.6l5.6,18.5h2.5l3-8.9c0.6-1.9,1.3-4,1.8-6.4l0.1-0.4h0.8l0.2,0.4c0.5,2.3,1,4.2,1.7,6.4L221.9,46.8z"/>
	</g>
	<g>
		<path class="st0" d="M233.9,43.7c1,0.7,2.9,1.4,4.7,1.4c2.6,0,3.8-1.3,3.8-2.9c0-1.7-1-2.6-3.6-3.6c-3.5-1.3-5.2-3.2-5.2-5.5
			c0-3.1,2.5-5.7,6.7-5.7c2,0,3.7,0.6,4.8,1.2l-0.9,2.6c-0.8-0.5-2.2-1.1-4-1.1c-2.1,0-3.3,1.2-3.3,2.7c0,1.6,1.2,2.3,3.7,3.3
			c3.4,1.3,5.1,3,5.1,5.9c0,3.4-2.7,5.9-7.3,5.9c-2.1,0-4.1-0.5-5.5-1.3L233.9,43.7z"/>
		<path class="st0" d="M238.5,48.2c-2.1,0-4.2-0.5-5.7-1.4l-0.3-0.2l1.2-3.7l0.5,0.4c1,0.7,2.8,1.3,4.4,1.3c2.1,0,3.3-0.9,3.3-2.4
			c0-1.2-0.5-2.1-3.3-3.1c-4.5-1.6-5.5-4.2-5.5-6c0-3.7,3-6.2,7.2-6.2c1.8,0,3.7,0.5,5.1,1.3l0.4,0.2l-1.2,3.6l-0.5-0.3
			c-0.5-0.3-1.9-1.1-3.7-1.1c-1.7,0-2.8,0.9-2.8,2.2c0,1.2,0.8,1.8,3.4,2.8c3.8,1.4,5.4,3.4,5.4,6.4
			C246.3,45.7,243.3,48.2,238.5,48.2z M233.6,46.1c1.3,0.7,3.1,1.1,4.9,1.1c4.2,0,6.8-2.1,6.8-5.4c0-2.6-1.4-4.1-4.8-5.4
			c-2.3-0.9-4-1.7-4-3.8c0-1.9,1.5-3.2,3.8-3.2c1.6,0,2.9,0.5,3.7,0.9l0.6-1.6c-1.2-0.6-2.7-0.9-4.2-0.9c-3.7,0-6.2,2.2-6.2,5.2
			c0,2.2,1.6,3.9,4.8,5.1c2.5,0.9,4,1.9,4,4.1c0,1.6-1.1,3.4-4.3,3.4c-1.7,0-3.3-0.6-4.4-1.2L233.6,46.1z"/>
	</g>
	<g>
		<path class="st0" d="M265.5,24.4L265.5,24.4l-4.6,2.5l-0.7-2.7l5.7-3.1h3v26.2h-3.4V24.4z"/>
		<path class="st0" d="M269.5,47.8H265V25.2l-4.5,2.4l-0.9-3.7l6.2-3.3h3.7V47.8z M266,46.8h2.4V21.6h-2.4l-5.3,2.8l0.4,1.7l4.1-2.2
			h0.6l0.1,0.5V46.8z"/>
	</g>
	<g>
		<path class="st0" d="M296,33.9c0,8.9-3.3,13.8-9.1,13.8c-5.1,0-8.6-4.8-8.7-13.5c0-8.8,3.8-13.6,9.1-13.6
			C292.8,20.6,296,25.5,296,33.9z M281.7,34.3c0,6.8,2.1,10.7,5.3,10.7c3.6,0,5.4-4.2,5.4-10.9c0-6.5-1.7-10.7-5.3-10.7
			C284,23.4,281.7,27.2,281.7,34.3z"/>
		<path class="st0" d="M286.8,48.2c-5.6,0-9.1-5.4-9.2-14c0-8.7,3.7-14.1,9.6-14.1c5.8,0,9.2,5,9.2,13.8
			C296.5,43,293,48.2,286.8,48.2z M287.3,21.1c-5.3,0-8.6,5-8.6,13.1c0.1,8.1,3.1,13,8.2,13c5.6,0,8.6-4.7,8.6-13.3
			C295.5,25.8,292.5,21.1,287.3,21.1z M287,45.5c-3.6,0-5.8-4.2-5.8-11.2c0-7.1,2.2-11.4,5.9-11.4c3.8,0,5.8,4,5.8,11.2
			C292.9,41.4,290.8,45.5,287,45.5z M287.1,23.9c-3,0-4.9,4-4.9,10.4c0,6.3,1.8,10.2,4.8,10.2c4.2,0,4.9-6.5,4.9-10.4
			C291.9,30.3,291.3,23.9,287.1,23.9z"/>
	</g>
</g>
</svg>
