<?xml version="1.0" encoding="utf-8"?>
<!-- Generator: Adobe Illustrator 19.2.1, SVG Export Plug-In . SVG Version: 6.00 Build 0)  -->
<svg version="1.1" xmlns="http://www.w3.org/2000/svg" xmlns:xlink="http://www.w3.org/1999/xlink" x="0px" y="0px" width="300px"
	 height="300px" viewBox="0 0 300 300" style="enable-background:new 0 0 300 300;" xml:space="preserve">
<style type="text/css">
	.st0{fill:#FCD3D7;}
	.st1{fill:#24ACE9;}
	.st2{fill:#23ACE9;}
	.st3{fill:#23ABE9;}
	.st4{fill:#2F1E18;}
	.st5{fill:#FFFFFF;}
	.st6{fill:#DD1438;}
	.st7{fill:#DD1538;}
	.st8{fill:#9D0C2C;}
</style>
<g id="Layer_7">
	<path d="M26.1,159.4c0-68.9,55.8-124.7,124.7-124.7s124.7,55.8,124.7,124.7s-55.8,124.7-124.7,124.7S26.1,228.3,26.1,159.4z
		 M150.8,274.4c63.5,0,115-51.5,115-115s-51.5-115-115-115s-115,51.5-115,115S87.3,274.4,150.8,274.4z"/>
</g>
<g id="Layer_6">
	<polygon class="st0" points="188.4,222.3 188.4,233.9 186.2,237.1 180.6,232.4 173.7,245.6 166,239.3 152.9,250 142.7,244.7 
		139.6,239.9 133.9,244.2 125.3,233 119.2,237.9 113.6,231.1 113.6,207.5 86.9,171.7 82.4,135.5 165.5,74 184.1,74 221.5,144.2 
		204,199.5 193.5,200.3 187.8,207.5 	"/>
</g>
<g id="Layer_5">
	<path class="st1" d="M182.5,239.4c0,0,3,12.4,9.1,16.3c0,0,5,2.8,6.5-1.7c0,0,0.4-1.8-1.9-5c-2.3-3.3-5.8-10.8-5.9-13.3
		c-0.1-2.5-8.1,2.3-8.1,2.3L182.5,239.4z"/>
	<path class="st1" d="M168.2,246.8c0,0,2.6,10.7,6.5,15.3c1.2,1.4,3.4,3.6,5.5,2.8c1-0.4,2.1-1.1,2.5-2.1c0.5-1.3,0.1-2.7-0.5-3.9
		c-2.2-4.3-4.4-13-4.7-15.4c-0.3-2.3-9.3,1.2-9.3,1.2V246.8z"/>
	<path class="st2" d="M127.8,245.4c0,0-1.7,7.1-4,11.5c-2.3,4.4-0.1,6.4,1.2,7.1c1.3,0.7,4.5,1.3,6.5-2.8c2-4.1,6.1-11.7,5.3-15.8
		s-8.5-2.7-8.5-2.7S128.2,244.4,127.8,245.4z"/>
	<path class="st3" d="M122.3,238.3c0.1,3.1-3.9,10.1-6.6,14.3s-5.8,4.3-7.9,3.5c-2-0.9-2.6-2.3,0-6.4c2.6-4.1,5.5-11.4,5.5-11.4
		s0.9-3.4,0.8-5C114.1,231.7,122.3,238.3,122.3,238.3z"/>
	<path class="st4" d="M205.3,163.7c-1.4,10.3-4.9,22-8.8,28c-2.4,3.7-4.8,7-7.9,10.2c-5.3,5.5-11.6,11.1-17.8,15.4
		c-3.1,2.2-6.4,4.2-10,5.5c-10.2,3.6-20.8,0.1-29.3-5.8c-6.2-4.3-12.5-8.7-17.7-14.2c-3.1-3.2-6.1-6.5-8.4-10.3
		c-5.9-9.5-8.6-18.5-9.9-28.8c-0.1-0.9-0.2-1.7-0.6-2.4c-1.4,29.9,14.7,43.3,14.7,43.3c1.5,1.5,2.5,4.2,2.4,6.3
		c-0.2,3.8-0.3,7.6-0.4,11.4c-0.9-0.9-2.6-2.4-2.6-2.4c-4.2-2.9-3.5,2-3.5,2c2.2,19.3-9.5,24.5-9.5,24.5
		c9.1,2.1,13.6-11.3,13.9-13.7s2.5,0.8,3.5,3c1,2.2,2.9,5,5.9,5c3.1,0,5.1-2.9,5.1-2.9c0.5-0.7,0.8,0.2,0.9,0.6
		c0.2,0.7,0.3,1.3,0.6,2c0.6,1.4,1.5,2.7,2.4,3.9c1.2,1.5,2.8,3,4.8,3c3.6,0,6-3.1,6-3.1c1.8,3.8,7.6,5.9,7.6,5.9
		c-2.7,1.4-5.9,6.3-5.9,9.9c0,3.6,2.3,10.1,11.6,10.1c9.2,0,11.5-5.1,12.3-10.6c0.8-5.5-5.3-9.7-5.3-9.7c1.5,0,2.9-1,3.9-2
		c0.5-0.5,1-1,1.3-1.6c0.3-0.6,0.4-1.3,0.9-1.8c0.8-0.8,1.7-0.1,2.3,0.6c2.4,2.8,6,2.7,6,2.7c4.9-0.7,7.7-10.6,7.7-10.6
		c0.8,1.3,2,2.4,3.4,3c1.7,0.6,3.1-0.4,4.2-1.6c1.1-1.2,2-2.6,2.8-4c0.2-0.5,1-2.8,1.8-1.8c0.5,0.6,0.5,1.7,0.8,2.5
		c1.6,4.6,4.8,9.6,9.6,11.2c3.1,1,0-2.3,0-2.3s-6.7-9-6.3-15.1c0.4-6-1.3-8.7-1.3-8.7c-0.9-1-2.1-1.8-3.3-0.8
		c-1.2,1.1-1.3,2.7-1.7,4.2c-0.5,1.5-1,2.9-1.6,4.4c-2,5.2-3.3,5.3-4.2,5.3c-0.8,0-1.4-1-1.9-1.5c-0.6-0.6-1.4-1.5-2.3-1.7
		c-3.2-0.6-4.7,5-5.5,7.2c-0.6,1.8-2.4,4.1-4.1,4.1c-1.2,0-2.3-1.4-2.9-2.3c-0.8-1-1.4-2.3-2.9-2.5c-1.5-0.1-2.6,1.2-3.3,2.3
		c-3.5,5.7-10.1,8.5-10.1,8.5c-9.2-3.8-10-8-11.3-9.9c-1.3-1.9-2.6-0.6-2.6-0.6s-1.2,0.6-3.5,3.2c-2.3,2.6-5.2-4-5.2-4
		s-1.1-2.9-2.7-5.3c-1.7-2.4-3.9,0-3.9,0s-1.7,1.9-2.7,3.3s-2,0-2,0c-2.4-3-2.3-3.9-2.3-3.9c0.3-4.5,0-18.4,0-18.4
		c7.5,6.4,15.7,12.6,25,16.3c3.2,1.3,6.6,2.2,10.1,2.2c6.9-0.1,13.2-3.5,19-6.9c5.4-3.1,10.2-7.1,15-11l-0.1,0
		c0.7,13.3,2.2,13.6,2.3,13.6c0.3,0.1,0.6-0.2,0.7-0.6c1.6-4.4,1.6-9.3,1.7-14c0-1,0-1.9,0.2-2.9c0.5-2.5,2.1-4.4,3.7-6.4
		c0,0,13.1-11.2,11.7-41.1C205.7,161.1,205.5,162.8,205.3,163.7z"/>
	<path class="st2" d="M146.7,261.5c0.4,1.3,1.2,2.5,2.3,3.1c0.9,0.5,2.1,0.6,3.1,0.7c0.7,0,1.5,0.1,2.2-0.1c2.2-0.4,4-2.3,4.4-4.5
		c0.5-2.2-0.2-4.5-1.6-6.2c-0.4-0.5-0.9-1-1.5-1.3c-0.6-0.3-1.2-0.5-1.9-0.6c-2.5-0.3-4.6,0.4-6,2.4
		C146.5,256.9,146,259.3,146.7,261.5z"/>
	<path class="st4" d="M108.2,126.1c-0.1,0.7,0.1,1.5,0.7,1.9c0.9,0.5,1.9-0.1,2.8-0.5c5.1-2.9,11.4-4.1,17-2.4
		c1.9,0.6,3.9,1.5,5.9,1.1c0.1,0,0.3-0.1,0.3-0.2c0.1-0.1,0.1-0.2,0.1-0.3c0-0.6-0.5-1.2-1.1-1.5s-1.2-0.4-1.8-0.7
		c-1.1-0.5-1.9-1.4-2.9-2.1c-2.9-2.2-6.9-2.5-10.4-1.7c-2.3,0.5-4.5,1.5-6.6,2.6C110.6,123.1,108.6,123.9,108.2,126.1z"/>
	<path class="st4" d="M174.6,120.4c-0.8,0.4-1.6,0.9-2.4,1.4c-1.5,0.9-3,1.9-4.4,2.8c-0.9,0.5-1.8,1.5-1.4,2.4
		c1.7,0.3,3.4-0.7,5-1.3c2.8-1,5.8-1.2,8.7-1.3c1.2,0,2.4-0.1,3.5,0.2c0.8,0.2,1.6,0.6,2.3,0.9c1.9,0.8,4,1.5,6,1.9
		c0.4,0.1,0.8,0.1,1.1-0.1c0.1-0.1,0.2-0.3,0.2-0.4c0.4-1.5-0.6-2.9-1.8-3.9C187.3,119.6,179.5,118.1,174.6,120.4z"/>
	<path class="st5" d="M175.9,148.9c1.8,0.4,3.7,0.4,5.6,0.3c1.4,0,2.8,0,4.1-0.4c0.6-0.2,1.2-0.4,1.6-0.8c0.6-0.6,1-1.4,1.2-2.2
		c0.2-0.7,0.4-1.4,0.4-2.2c-0.1-1.7-1.3-3.1-2.8-3.9s-3.2-0.9-4.8-1c-1.8-0.1-3.7-0.1-5.5,0.4c-0.5,0.1-1,0.3-1.4,0.5
		c-1,0.6-1.7,1.6-2.4,2.6c-0.4,0.6-0.9,1.3-1.1,2C169.9,146.9,173.7,148.4,175.9,148.9z"/>
	<path class="st4" d="M170.9,141c-0.4,1-0.8,2-1.3,3c-0.3,0.6-0.5,1.2-1,1.7c-0.5,0.5-1.2,0.7-1.8,0.5c0.4-0.5,0.1-1.3-0.5-1.5
		c-0.6-0.2-1.2,0-1.6,0.5c-0.8,0.9-0.6,2.5,0.4,3.2c1.1,0.8,2.8,0.4,3.9-0.5c1.1-0.9,1.7-2.2,2.5-3.4c1.3-2.2,3.3-4.3,5.8-4.8
		c0.7-0.1,1.4-0.1,2,0.1c0.6,0.3,1.1,1,0.9,1.6c-0.1,0.7-0.8,1.2-1.5,1.3c-0.7,0.1-1.4-0.1-2.1-0.3c-0.3-0.1-0.6-0.2-0.9-0.1
		c-0.5,0.1-0.9,0.5-1.1,0.9c-0.7,1.1-1,2.3-1,3.5c0.6,0.6,1.5,0.1,2.3-0.2c1.3-0.5,2.9-0.4,4.2,0.1c0.5,0.2,1,0.5,1.6,0.5
		c1.2,0.1,2.2-0.8,2.7-1.8s0.4-2.3,0.3-3.4c1.1,0.5,2.1,1.1,2.5,2.1s0.1,2.5-0.9,3.1c-0.4,0.2-0.8,0.3-1.2,0.5s-0.7,0.7-0.5,1.1
		c2.3,0.6,5.1,0.9,6.9-0.6c1.6-1.3,2-3.7,1.6-5.8c-0.2-0.8-0.4-1.6-0.8-2.3c-2-3.9-6.5-6.1-10.9-5.8C177,134.7,172.6,137,170.9,141z
		"/>
	<path class="st5" d="M123.2,148.8c2.2-0.1,4.4-0.7,6.3-1.8c0.5-0.3,1-0.6,1.4-1.1c0.3-0.4,0.4-1,0.4-1.5c0.1-2.2-1.5-4.3-3.5-5.1
		c-1.1-0.4-2.4-0.4-3.6-0.5c-2.3,0-4.7,0-6.8,0.8c-2.2,0.8-4.2,2.4-4.8,4.7c-0.2,0.9-0.2,1.8-0.2,2.6c0,0.6,0.1,1.2,0.4,1.6
		c0.5,0.6,1.3,0.7,2,0.7c0.7,0,1.6,0.1,2.3,0c0.6-0.1,1.2-0.4,1.8-0.5C120.3,148.7,121.7,148.9,123.2,148.8z"/>
	<path class="st4" d="M114.7,136.3c-1.3,1-2.3,2.4-3.2,3.8c-1.5,2.3-2.8,5-2.5,7.7c0.1,0.4,0.2,0.8,0.4,1.1c0.2,0.2,0.5,0.3,0.8,0.4
		c1.7,0.6,3.5,0.8,5.3,0.7c0.2,0,0.4,0,0.5-0.1c0.4-0.3,0.1-0.9-0.3-1.1c-0.4-0.2-0.9-0.1-1.4-0.3c-0.9-0.3-1.5-1.3-1.4-2.3
		s0.6-1.8,1.2-2.6c0.9-1.1,1.9-2.1,3.1-2.9c0.6-0.4,1.3-0.8,2.1-0.9s1.6,0.2,2,0.9c0.3,0.5,0.3,1.3-0.1,1.8
		c-0.4,0.5-1.1,0.7-1.7,0.5c-0.7-0.2-1.2-0.8-1.9-0.7c-0.6,0.1-0.9,0.8-0.9,1.5c-0.1,1.4,0.3,2.9,1.3,3.9c0.2,0.2,0.4,0.3,0.6,0.3
		c0.2,0,0.4-0.1,0.5-0.2c1.5-1.1,3.5-1.5,5.3-1c0.2,0.1,0.5,0.1,0.7,0.1c0.3,0,0.5-0.2,0.7-0.4c0.6-0.6,1-1.5,1-2.4
		c0-0.7-0.1-1.6,0.5-2c0.4-0.3,1-0.1,1.4,0.2c0.4,0.4,0.6,0.9,0.8,1.3c0.5,1.4,1.1,2.8,2.1,3.9c1,1.1,2.6,1.8,4,1.3
		c1.3-0.5,2.2-1.9,2.2-3.4c0-0.4,0-0.7-0.2-1c-0.2-0.3-0.6-0.5-0.9-0.3c-0.2,0.1-0.4,0.3-0.5,0.5c-0.5,0.4-1.4,0.2-1.8-0.3
		c-0.4-0.5-0.6-1.2-0.7-1.9c-0.3-2.4-0.9-7.5-8.1-8.2C121.6,133.8,118.1,133.7,114.7,136.3z"/>
	<path class="st4" d="M147.5,169.1c2.2,1.5,5.1,2.2,7.5,1.1c1-0.5,1.9-1.3,3-1.6c0.5-0.2,1.1-0.3,1.7-0.2c0.2,0,0.5,0,0.7,0.2
		c0.2,0.1,0.3,0.3,0.5,0.5c0.6,0.8,1.1,1.5,1.7,2.3c-0.8,0.7-1.9,0.7-2.8,1.1c-1.2,0.6-2,1.7-3.1,2.6c-1.2,1-2.8,1.6-4.4,1.8
		c-1.1,0.1-2.2,0.1-3.2-0.4c-1.7-0.8-2.6-2.7-4.2-3.6c-0.2-0.1-0.5-0.3-0.8-0.2c-0.8,0.1-1.1,1-1.9,1.3c-0.5,0.1-1-0.1-1.5-0.4
		c-0.4-0.2-0.7-0.5-0.9-0.9c-0.2-0.4,0-0.9,0.5-1c0.2,0,0.4,0.1,0.6,0c0.2-0.1,0.3-0.2,0.4-0.3c0.4-0.5,0.7-0.9,1.1-1.4
		c0.3-0.5,0.7-0.9,1.1-1.3C144.8,167.6,146.3,168.3,147.5,169.1z"/>
	<path class="st5" d="M139,197.5c2.5,1.3,5.3,1.9,8.1,2.2c4.3,0.5,8.7,0.4,12.8-0.9c4.1-1.3,7.8-4,9.9-7.8c0.3-0.6,0.6-1.2,0.5-1.9
		c-2.3,0.4-4.6,0.7-6.9,0.8c-1.9,0.1-3.8,0.2-5.7,0.1c-4.2-0.1-8.4-0.8-12.5-0.4c-1,0.1-1.9,0.2-2.9,0.3c-3.7,0.3-7.4-0.1-11-0.6
		c0.1,0,0.6,1.2,0.7,1.3c0.3,0.4,0.6,0.7,1,1c0.6,0.6,1,1.5,1.5,2.1C135.6,195.4,137.2,196.6,139,197.5z"/>
	<path class="st4" d="M169.2,190.1c-2.3,3.1-5,6.1-8.6,7.5c-3.8,1.5-8,0.9-12.1,0.8c-1.3,0-2.7,0-4-0.2c-0.9-0.2-1.7-0.5-2.5-0.8
		c-2.7-1.1-5.4-2.4-7.8-4c-0.1,0.5-0.1,1-0.1,1.5c0.1,0.8,0.2,1.7,0.7,2.4c0.5,0.7,1.1,1.3,1.7,1.8c3.3,2.8,7.5,5.2,11.9,5.6
		c4,0.3,8.1,0,12-1c1-0.3,2-0.5,2.8-1.1c0.7-0.4,1.2-0.9,1.8-1.4c1.6-1.5,2.8-3.3,4-5.2c1.5-2.2,3-4.3,5.1-5.9
		c2.4-1.8,5.3-2.8,7.8-4.4c0.4-0.3,0.9-0.7,0.9-1.2c0-0.3-0.1-0.6-0.3-0.8c-0.4-0.5-1.1-0.8-1.8-0.8c-0.7-0.1-1.4,0-2.1,0
		c-0.5,0-1.1-0.1-1.6,0.1c-1.5,0.5-1.8,2.8-3.4,3.1c-7.5,1.4-15.2-1.4-22.8-0.8c-5.5,0.5-10.9,2.7-16.3,1.4c-3-0.7-5.7-2.4-8.8-2.6
		c-0.5,0-1.1,0-1.5,0.3c-0.4,0.3-0.4,1.1,0.1,1.3c0.8,2.4,3.3,3.9,5.7,4.5c2.5,0.6,5,0.4,7.5,0.7c1.3,0.2,2.6,0.4,3.9,0.5
		c3.4,0.2,6.7-0.8,10.1-1c3.7-0.2,7.5,0.7,11.2,0.6C164.8,191,167.1,190.6,169.2,190.1z"/>
	<circle class="st6" cx="107.4" cy="162.5" r="1.6"/>
	<ellipse class="st6" cx="114.9" cy="166.9" rx="1.9" ry="1.6"/>
	<ellipse class="st6" cx="120.7" cy="158.5" rx="1.7" ry="1.5"/>
	<ellipse class="st6" cx="127.6" cy="164.6" rx="1.4" ry="1.6"/>
	<circle class="st6" cx="134.6" cy="157" r="1.3"/>
	<circle class="st6" cx="167.9" cy="157.6" r="1.4"/>
	<ellipse class="st6" cx="177" cy="159.4" rx="1.3" ry="1.5"/>
	<circle class="st6" cx="183" cy="165.2" r="1.7"/>
	<circle class="st6" cx="190.3" cy="158.5" r="1.5"/>
	<ellipse class="st6" cx="192.7" cy="165.8" rx="1.8" ry="1.6"/>
</g>
<g id="Layer_2">
	<path class="st7" d="M142.3,126.3c30.6-0.7,42.7-34.1,42.7-33c0,1.2,7.1,17.2,13.6,25.2c6.4,8,8.8,18.8,8.8,18.8
		c1.2-4.4,9.8-3.4,7.4,11.4c-2.3,14.8-9,12.2-9,12.2c1.3,25.8-11.7,41.1-11.7,41.1s3.6,8.6,12.3,11.6c6.5,2.2,18.2,0.3,23.4,0
		c1.7-0.1,0.7,0,0.7,0c2.4,0.5,6.8,2.6,9.5,5.1c9.1,8.6,22.6,8.5,22.6,8.5c0.9,0,1.9,0,2.8-0.1c4.2-0.3,8.5-1.1,12.4-2.8
		c2.6-1.1,5.1-2.6,7.2-4.6c0.7-0.7,4-3.5,3.3-4.7c-0.3-0.4-1-0.1-1.3,0.1c-2,1.1-4.9,1.8-7.2,1.5c-2.3-0.4-0.1-0.9-0.1-0.9
		c15.3-5,13.9-21.2,12.7-23.9c-1.2-2.7-2.5,0-2.5,0c-5.9,7.8-13.1,6.4-13.1,6.4c5.2-6.5,5.8-12.3,5.8-15c0-0.3,0-0.9-0.4-1
		c-0.4-0.1-0.8,0.3-1,0.5c-0.9,0.8-1.5,1.9-2.3,2.9c-1.6,2.1-3.4,4-5.4,5.7c-1.9,1.5-4,2.8-6.2,3.9c-2.1,1-4.3,1.8-6.5,2.4
		c-2.1,0.6-4.3,1-6.5,1.2c-2,0.2-4.1,0.3-6.1,0.3c-1.8,0-3.6-0.1-5.4-0.3c-1.4-0.1-2.9-0.3-4.3-0.6c-1-0.2-1.9-0.4-2.8-0.6
		c-0.1,0-1-0.1-1-0.3c0,0-3.2-16.7-14.9-19.1c5.3-4.9,9.2-11.1,11.8-17.8c1.3-3.1,2.3-6.4,3-9.7c1-4.5,2-9.1,2.5-13.6
		c0.4-3.6,0.5-7.3,0.3-10.9c-0.4-9.1-2.3-18.2-5.1-26.9c-1.7-5.2-3.6-10.4-6.2-15.3c-3.1-5.8-6.2-14.2-6.2-14.2s-1.4-5.6-8.9-19.5
		c-7.6-13.8-15-17.3-23.1-19.3s-13.4,1.4-13.4,1.4S174.9,22,148,21.9c-26.9-0.1-44.1,14.3-46.7,16.6s-25.1,21.1-31.5,66.5
		c0,0-0.4,4.7-1.9,7.8c-1.6,3.1-6.4,22.8-2.7,35c3.7,12.3,6,16,17.1,31.5c0,0-7.1-1.9-14.1,18.2c0,0.1-0.9,0.2-1,0.3
		c-0.9,0.2-1.9,0.4-2.8,0.6c-1.4,0.2-2.9,0.4-4.3,0.6c-1.8,0.2-3.6,0.3-5.4,0.3c-2,0-4.1-0.1-6.1-0.3c-2.2-0.2-4.4-0.6-6.5-1.2
		c-2.2-0.6-4.4-1.4-6.5-2.4c-2.2-1.1-4.3-2.4-6.2-3.9c-2-1.7-3.9-3.6-5.4-5.7c-0.7-1-1.4-2.1-2.3-2.9c-0.2-0.2-0.6-0.6-1-0.5
		c-0.4,0.1-0.4,0.7-0.4,1c0,2.7,0.6,8.5,5.8,15c0,0-7.1,1.4-13.1-6.4c0,0-1.3-2.7-2.5,0c-1.2,2.7-2.6,18.9,12.7,23.9
		c0,0,2.2,0.6-0.1,0.9c-2.3,0.4-5.2-0.4-7.2-1.5c-0.3-0.2-1-0.6-1.3-0.1c-0.8,1.2,2.5,4,3.3,4.7c2.1,1.9,4.6,3.4,7.2,4.6
		c3.9,1.7,8.1,2.5,12.4,2.8c0.9,0.1,1.9,0.1,2.8,0.1c0,0,13.5,0.1,22.6-8.5c2.7-2.5,5.3-3.5,7.7-3.5c0,0,17.1,0.9,25.8-2.1
		s13.1-8.7,13.1-8.7s-15.1-14.2-14.7-43.3c0,0-4.5,2.1-6.8-4c-0.8-2.1-1.8-4.1-2.3-6.3c-0.6-2.2-0.5-4.3-0.3-6.5
		c0.3-3.4,2-8.2,5.9-9c0.7-0.1,1.6,0.1,1.8,0.8c0.4,0.9,0.2,2.3,0.4,3.2c0.1,0.8,0.3,1.6,0.4,2.4c0,0,1.3-13.8,10.2-16.5
		s27-8.8,40.3-17.3c13.2-8.6,16.4-15.5,16.4-15.5S160.9,108.4,142.3,126.3z"/>
</g>
<g id="Layer_2_copy_3">
	<path class="st8" d="M237.4,126.3c0.2,3.6,0.1,7.3-0.3,10.9c-0.5,4.5-1.5,9.2-2.5,13.6c0,0,3-13.9-2.6-28.4s-15.6-23.8-15.6-23.8
		s-21.9-26.1-19.4-41.9c0,0,10.1,17.2,18.6,25.5S236.5,105.2,237.4,126.3z"/>
	<path class="st8" d="M15.7,217.9c2.1,1.9,3.6,4,9.3,6.6c3.9,1.7,8.1,2.5,12.4,2.8c0.9,0.1,1.9,0.1,2.8,0.1c0,0,13.5,0.1,22.6-8.5
		c2.7-2.5,5.3-3.5,7.7-3.5c0,0,17.1,0.9,25.8-2.1s13.1-8.7,13.1-8.7s-15.1-14.2-14.7-43.3c0,0-4.5,2.1-6.8-4
		c-0.8-2.1-1.8-4.1-2.3-6.3c-0.6-2.2-0.5-4.3-0.3-6.5c0.3-3.4,2-8.2,5.9-9c0.7-0.1,1.6,0.1,1.8,0.8c0.4,0.9,0.2,2.3,0.4,3.2
		c0.1,0.8,0.3,1.6,0.4,2.4c0,0,1.3-13.8,10.2-16.5s27-8.8,40.3-17.3c13.2-8.6,16.4-15.5,16.4-15.5s9.2-11.9,4.9-19.7
		c0,0-7.9,16.3-30.3,30.5c-4.7,2.3-9.5,4.5-14.3,6.5c-3.9,1.7-7.9,3.3-11.9,4.7c-4.6,1.6-9.5,2.6-14,4.5c-5.1,2.1-10,4.8-14.5,7.9
		c-1.9,1.3-7.1,4.4-7,7.2c0,0-6.1-23.1,11.4-44.4c0,0-3.9,0.6-13.3,14.6c0.8-1.2,0.8-4.2,1.1-5.6c1.1-4.8,2.4-9.5,4-14.1
		c4.7-13.2,11.6-25.9,21.8-35.6c6.3-6,13.7-11.3,22.1-13.8c10.2-3.1,21.1-3.5,31.7-3c7.5,0.3,16.8,3.8,19.9,11.4
		c0,0,12.3-8.6,25.1,1.2c13.7,10.5,15.2,21.7,28.6,39.2c-3.1-5.8-6.2-14.2-6.2-14.2s-1.4-5.6-8.9-19.5c-7.6-13.8-15-17.3-23.1-19.3
		s-13.4,1.4-13.4,1.4S174.9,22,148,21.9c-26.9-0.1-44.1,14.3-46.7,16.6s-25.1,21.1-31.5,66.5c0,0-0.4,4.7-1.9,7.8
		c-1.6,3.1-6.4,22.8-2.7,35c3.7,12.3,6,16,17.1,31.5c0,0,10.3,12.6,4.5,17.3c-2.3,1.8-5,2.9-7.8,3.6c-1.2,0.3-2.5,0.6-3.7,0.7
		c-1.3,0.2-2.8,0.1-4.1,0.4c-2.5,0.6-5,2.5-7.1,3.8c-2,1.2-3.9,2.6-5.6,4.1c-1.9,1.7-3.3,3.8-5.4,5.3c-5.6,4-13,6.4-19.9,6.9
		C22.2,222.3,15,217.2,15.7,217.9z"/>
	<path class="st8" d="M92.1,105.9c0,0,6.9-2.3,17.4-9.7c10.5-7.4,33.2-22.9,38.1-22.2c-2.9,2.1-5.6,4.4-8.4,6.7
		c-5.3,4.5-10.1,9.5-15.2,14.2c-4.8,4.4-10.5,7.7-16.5,10c-4.2,1.5-9.9,3.3-14.4,1.6C92.8,106.3,92.5,106.1,92.1,105.9z"/>
	<path class="st8" d="M288.2,215.2c0.8,1.2-2.5,4-3.3,4.7c-2.1,1.9-4.6,3.4-7.2,4.6c-3.9,1.7-8.1,2.5-12.4,2.8
		c-0.9,0.1-1.9,0.1-2.8,0.1c0,0-13.5,0.1-22.6-8.5c-2.7-2.5-7.1-4.6-9.5-5.1c0,0,1.1-0.1-0.7,0c-5.2,0.3-16.9,2.2-23.4,0
		c-8.7-3-12.3-11.6-12.3-11.6s13.1-15.2,11.7-41.1c0,0,6.7,2.5,9-12.2c2.3-14.8-6.3-15.8-7.4-11.4c0,0-2.3-10.8-8.8-18.8
		c-6.4-8-13.6-24.1-13.6-25.2c0-1.2-12.1,32.2-42.7,33c0,0,30.3-12,36.9-54.1c0,0,5.5,0.3,8.3,10.8s11.1,27.4,18.4,32.5
		s19.7,18.7,19.7,33.3s-7.1,27-11.5,32.5c-4.4,5.5-1.9,12-1.9,12s1,4.8,9.5,4.1c8.5-0.7,22,11.4,22,11.4c2.4,2.2,4.8,4.3,7.5,6.2
		c5.6,3.7,12.1,6.1,18.8,6.5c5.1,0.2,10.6-0.5,14.9-3.4C286.1,217.2,287.2,216.3,288.2,215.2z"/>
</g>
<g id="Layer_4">
	<path class="st2" d="M206.5,229.3c1,1.4,2.6,2.5,3.9,3.5c3.4,2.5,7.3,4.3,11.4,5.3c3.2,0.8,7.5,1.8,9.2-2c0.1-0.3,0.2-0.5,0.3-0.8
		c1.6-5.2,3.5-16,3.5-16c0-0.7,0-1.3-0.1-2c-0.1-0.5-0.2-1.1-0.3-1.6c-0.2-0.6-0.6-1-0.9-1.5c-0.1-0.1-0.1-0.2-0.1-0.3
		c0.1-0.5,1.5-0.3,1.9-0.4c1.5-0.4,3-1.4,3.9-2.6c1.7-2.2,4-5.5,3.7-8.4c0,0,0.1-0.7-0.9-1.6c-0.9-0.9,0-1.7,0-1.7
		s11.5-11.4,14.7-15.6c3.2-4.2,1-6.2,1-6.2c-2-1.8-4.3-3.3-6.6-4.7c-1.7-1-3.5-1.9-5.4-2.7c-1.8-0.7-3.9-1.6-5.9-1.7
		c-1.2-0.1-2.3,0.5-3,1.5c-1.6,2.7-6.4,13.9-6.8,18.1c-0.1,1-0.2,2,0,3c0,0.3,0.1,0.5,0.1,0.7c0.1,0.3,0.4,0.5,0.5,0.8
		c0.1,0.2,0.1,0.4-0.1,0.5c-0.1,0.1-0.2,0.1-0.3,0.1c-1.2,0.2-2.3,0.2-3.5,0.7c-2.1,0.8-3.5,2.6-4.7,4.4c-1.6,2.4-2.1,5.2-2.2,8.1
		c0,1,0.3,1.4,1.2,1.9c0.4,0.2,0.8,0.6,0.8,1.1c-0.1,0.6-0.9,1-1.3,1.3c0,0-5.8,3.8-7.6,6c-1.8,2.2-4.7,5.1-6.3,8.8
		C206.5,225.2,205.2,227.4,206.5,229.3z"/>
	<path class="st4" d="M236.2,190c-0.3,0.2-0.5,0.5-0.7,0.8c-0.6,0.8-0.6,1.9-0.1,2.8c0.5,0.9,1.5,1.4,2.4,1.4c0.3,0,0.6-0.1,0.8-0.2
		c0.3-0.2,0.5-0.4,0.6-0.7c1.3-2,2.1-4.2,2.5-6.5c0.1-0.4,0.1-0.9,0-1.3c-0.7-1.5-1.9,0.6-2.4,1.2C238.4,188.2,237.2,189,236.2,190z
		"/>
	<path class="st5" d="M230.5,194.9c-1,0.3-1.9,1.3-1.7,2.4c0,0.1,0,0.2,0.1,0.2c0,0.1,0.1,0.1,0.2,0.1c0.6,0.3,1.4,0.1,2,0.1
		c1.4,0,2.6,0.9,3.7,1.7c0.5,0.4,1,0.8,1.6,1c0.6,0.3,1.2,0.4,1.8,0.3c0.4-0.1,0.7-0.3,0.8-0.6c0-0.2,0-0.3-0.1-0.5
		c-0.2-0.4-0.6-0.8-1-1c-1.3-1-2.8-1.9-4-2.9C233,195,231.6,194.3,230.5,194.9z"/>
	<path class="st4" d="M223.1,210.5c-0.1,0-0.2,0.1-0.3,0.1c-0.4,0.3-0.9,0.7-0.9,1.2c0,0.7,0.6,1.1,1.1,1.6c0.7,0.7,1,1.8,0.8,2.8
		c-0.1,0.4-0.3,0.8-0.4,1.2c-0.3,0.7-0.6,1.3-0.8,2c-0.3,0.8-0.7,1.5-0.8,2.3c0,0.1,0,0.3,0.1,0.4c0.1,0.1,0.2,0.1,0.3,0.1
		c1.7,0.2,3.6-0.7,4.4-2.2c0.5-0.8,0.7-1.8,0.9-2.7c0.1-0.4,0.3-0.9,0.5-1.3c0.6-0.9,1.8-1.3,2.8-1.6c0.2-0.1,0.5-0.1,0.7-0.3
		c0.5-0.3,0.5-1.1,0.1-1.5c-0.4-0.4-1.1-0.3-1.7-0.2c-0.8,0.1-1.7,0.1-2.5,0c-0.8-0.2-1.6-0.5-2.3-1
		C224.6,211.2,223.7,210.4,223.1,210.5z"/>
	<path class="st2" d="M59,203.6c-0.3-1.1-0.3-2.7,0.8-3.9c0.2-0.2,0.4-0.4,0.4-0.6c0.1-0.4-0.2-0.8-0.5-1.1
		c-0.7-0.7-1.7-1.2-2.6-1.7c-4.6-2.6-8.4-6.6-10.8-11.3c-0.6-1.2-1.2-2.5-1.3-3.9c-0.1-1.4,0.4-2.8,1.5-3.7c3.5-2.8,7-5.9,11.2-7.6
		c1.3-0.5,2.6-1,4-1.1c2.3-0.2,4.7,0.7,6.4,2.4c0.4,0.4,0.7,0.8,1,1.3c0.2,0.5,0.4,1,0.5,1.5c1.1,4.4,2.1,8.9,3.2,13.3
		c0.2,0.9,0.5,1.5,0.7,2.4c0.2,1.2,0.3,2.4,0,3.6c-0.1,0.2-0.1,0.4-0.2,0.6c-0.2,0.3-0.4,0.5-0.6,0.8c-0.2,0.3-0.3,0.7-0.1,1
		c0.9,0.2,1.1,0,2.5,0.5c1.1,0.4,3.6,3.2,4.8,5.4c0.6,1.1,1.1,2.2,1.4,3.3c0.3,1.2,0.2,2.5-0.5,3.5c-0.2,0.3-0.4,0.5-0.4,0.9
		c0,0.3,0.2,0.5,0.3,0.7c0.4,0.6,8.8,9,12.4,12.6c1.5,1.5,3,3.2,3.3,5.2c0.2,1.7-0.4,3.5-1.5,4.9s-2.5,2.4-4,3.4
		c-3.4,2.3-7.6,3.7-11.7,3.7c-0.7,0-1.4,0-2-0.3c-0.5-0.3-0.9-0.7-1.3-1.1c-1.1-1.4-2.4-3.4-3-5c-0.4-1.2-2.5-7.9-3.5-10.2
		c-0.9-2.1-1.8-4.1-0.7-6.3c0.5-0.8-0.3-0.6-0.4-0.6c-1,0-2-0.1-2.9-0.5c-1.8-0.8-2.8-2.7-3.7-4.5C61.1,210,59,203.6,59,203.6z"/>
	<path class="st4" d="M63.2,183.7c-0.1-0.2-0.1-0.3-0.3-0.4c-0.4-0.2-0.7,0.3-0.8,0.7c-0.6,2.7-0.9,5.7,0.2,8.3
		c0.6,1.3,1.7,2.6,3.1,2.6c0.6,0,1.3-0.2,1.5-0.8c0.3-0.6-0.1-1.4-0.4-2C65.1,189.5,64.3,186.6,63.2,183.7z"/>
	<path class="st5" d="M63.9,198.1c-0.7,0.5-1.3,1.1-1.6,1.8s-0.3,1.7,0.3,2.3c0.3,0.3,0.8,0.5,1.2,0.3c0.2-0.1,0.4-0.3,0.5-0.5
		c0.8-1.1,1.9-2.1,3.3-2.5c0.7-0.2,1.4-0.3,2.1-0.6c0.7-0.2,1.4-0.6,1.7-1.3c0.1-0.2,0.2-0.5,0.1-0.8s-0.3-0.5-0.6-0.5
		c-0.2,0-0.3,0.1-0.4,0.1C68.3,197.7,66,196.6,63.9,198.1z"/>
	<path class="st4" d="M71,213.2c-0.5,0.2-1.1,0.5-1.2,1c-0.1,0.5,0.3,1.1,0.8,1.2c0.5,0.1,1.1,0,1.6-0.2c0.4-0.2,0.9-0.3,1.3,0
		c0.2,0.1,0.2,0.4,0.3,0.6c0.3,1.3,0.9,2.6,1.7,3.8c0.6,0.8,1.3,1.6,2.3,1.8c1,0.2,2.2-0.4,2.2-1.4c0-0.5-0.3-1-0.6-1.4
		c-0.6-0.8-1.1-1.7-1.7-2.5c-0.4-0.6-0.8-1.3-0.7-2c0.1-0.7,0.7-1.2,1.1-1.8c0.5-0.5,0.9-1.3,0.6-1.9c-0.7-1.7-2.2,0.3-2.9,0.8
		C74.2,211.9,72.6,212.6,71,213.2z"/>
</g>
</svg>
