<?xml version="1.0" encoding="utf-8"?>
<!-- Generator: Adobe Illustrator 19.2.1, SVG Export Plug-In . SVG Version: 6.00 Build 0)  -->
<svg version="1.1" id="Layer_2" xmlns="http://www.w3.org/2000/svg" xmlns:xlink="http://www.w3.org/1999/xlink" x="0px" y="0px"
	 width="300px" height="140px" viewBox="0 0 300 140" style="enable-background:new 0 0 300 140;" xml:space="preserve">
<style type="text/css">
	.st0{fill:#037EBF;}
</style>
<path class="st0" d="M129.8,35.1h-2.7c-0.3,0-0.5-0.2-0.5-0.5v-25c0-0.3,0.2-0.5,0.5-0.5h2.7c0.3,0,0.5,0.2,0.5,0.5v25
	C130.3,34.9,130.1,35.1,129.8,35.1z"/>
<path class="st0" d="M54.2,35.4c0.3,0,0.6,0,0.8-0.5l6.7-16.6h0l2.6,16.3c0,0.3,0.2,0.5,0.5,0.5h2.7c0.3,0,0.5-0.2,0.5-0.5L63.4,9.3
	c0-0.3-0.2-0.5-0.5-0.5h-0.6c-0.3,0-0.5,0.2-0.7,0.5L54,28.2L46.6,9.3c-0.2-0.3-0.4-0.5-0.7-0.5h-0.6c-0.3,0-0.5,0.2-0.5,0.5
	l-4.5,25.3c0,0.3,0.2,0.5,0.5,0.5h2.7c0.3,0,0.5-0.2,0.5-0.5l2.6-16.3h0l6.7,16.6c0.2,0.5,0.5,0.5,0.8,0.5H54.2z"/>
<path class="st0" d="M119.1,9.6c0-0.3,0.2-0.5,0.5-0.5h2.7c0.3,0,0.5,0.2,0.5,0.5l-11.4,25.2c-0.1,0.3-0.2,0.5-0.5,0.5h-0.2
	c-0.3,0-0.3-0.1-0.5-0.5L98.8,9.6c0-0.3,0.2-0.5,0.5-0.5h2.7c0.3,0,0.5,0.2,0.5,0.5l8.3,18.3L119.1,9.6z"/>
<path class="st0" d="M137.6,35.1c-0.3,0-0.5-0.2-0.5-0.5v-25c0-0.3,0.2-0.5,0.5-0.5h15c0.3,0,0.5,0.2,0.5,0.5v2.7
	c0,0.3-0.2,0.5-0.5,0.5h-11.7c0,0,0,7.4,0,7.4h9.9c0.3,0,0.5,0.2,0.5,0.5v2.7c0,0.3-0.2,0.5-0.5,0.5h-9.9c0,0,0,7.4,0,7.4
	c0,0,11.7,0,11.7,0c0.3,0,0.5,0.2,0.5,0.5v2.7c0,0.3-0.2,0.5-0.5,0.5H137.6z"/>
<path class="st0" d="M229.3,12.9v21.7c0,0.3-0.2,0.5-0.5,0.5h-2.7c-0.3,0-0.5-0.2-0.5-0.5c0,0,0-21.7,0-21.7h-6.4
	c-0.2,0-0.3-0.2-0.3-0.5V9.6c0-0.3,0.1-0.5,0.3-0.5h16.5c0.2,0,0.3,0.2,0.3,0.5v2.7c0,0.3-0.1,0.5-0.3,0.5
	C235.7,12.9,229.3,12.9,229.3,12.9z"/>
<path class="st0" d="M258.9,9.5c0-0.3,0.2-0.5,0.5-0.5h2.7c0.3,0,0.5,0.2,0.5,0.5l-11.4,25.2c-0.1,0.3-0.2,0.5-0.5,0.5h-0.2
	c-0.3,0-0.3-0.1-0.5-0.5L238.6,9.5c0-0.3,0.2-0.5,0.5-0.5h2.7c0.3,0,0.5,0.2,0.5,0.5l8.3,18.3L258.9,9.5z"/>
<path class="st0" d="M97.8,22.3c0,7.2-5.8,13-13,13s-13-5.8-13-13s5.8-13,13-13S97.8,15.1,97.8,22.3z M84.7,12.8
	c-5.1,0-9.3,4.2-9.3,9.3s4.2,9.3,9.3,9.3s9.3-4.2,9.3-9.3S89.9,12.8,84.7,12.8z"/>
<g>
	<path class="st0" d="M157.6,31.6c0.1-0.3,0.4-0.4,0.7-0.3c1.6,0.8,3.7,1.4,6,1.4c3.7,0,5.9-1.8,5.9-4.3c0-2.3-1.5-3.7-5.3-5
		c-4.6-1.5-7.4-3.6-7.4-7.1c0-3.9,3.6-6.8,9.1-6.8c2.6,0,4.5,0.5,5.8,1c0.2,0.1,0.4,0.4,0.3,0.6l-0.7,1.7c-0.1,0.3-0.4,0.4-0.7,0.3
		c-1-0.4-2.7-1-4.9-1c-3.8,0-5.3,2.1-5.3,3.8c0,2.3,1.7,3.5,5.6,4.8c4.8,1.6,7.2,3.7,7.2,7.4c0,3.9-3.2,7.2-9.8,7.2
		c-2.5,0-5.2-0.6-6.8-1.4c-0.2-0.1-0.3-0.4-0.3-0.6L157.6,31.6z"/>
</g>
<g>
	<path class="st0" d="M201.6,32.3c-0.2-0.2-0.5-0.2-0.7,0c-1,1-2.1,1.7-3.3,2.2c-1.3,0.6-2.8,0.9-4.3,0.9c-2.8,0-5.1-0.9-6.7-2.6
		c-1.3-1.4-2-3-2-4.8c0-1.6,0.6-3,1.7-4.3c1-1.1,2.4-2.2,4.3-3c0.3-0.1,0.4-0.5,0.2-0.8c-1-1.1-1.7-2-2-2.7
		c-0.4-0.8-0.6-1.6-0.6-2.4c0-1.5,0.7-2.9,2-4c1.3-1.1,2.9-1.7,4.9-1.7c1.9,0,3.4,0.5,4.6,1.6c1.2,1.1,1.8,2.3,1.8,3.8
		c0,2.3-1.6,4.2-4.7,5.9c-0.3,0.2-0.4,0.5-0.2,0.8l4.1,4.7c0.2,0.3,0.7,0.2,0.9-0.1c0.3-0.6,0.5-1.3,0.7-2c0.1-0.5,0.6-0.8,1.1-0.7
		l1.5,0.3c0.6,0.1,1,0.7,0.8,1.3c-0.5,1.6-1.1,2.9-1.9,4c-0.1,0.2-0.1,0.4,0,0.6c1.1,1.3,2.3,2.4,3.6,3.3c0.3,0.2,0.3,0.5,0.1,0.8
		l-1.6,1.7c-0.2,0.2-0.4,0.2-0.6,0.1C204,34.5,202.8,33.5,201.6,32.3z M198.9,29.1l-5.7-6.5c-0.2-0.2-0.4-0.2-0.6-0.1
		c-1.6,0.9-2.8,1.8-3.4,2.6c-0.6,0.9-1,1.7-1,2.6c0,1,0.4,2.1,1.3,3.2c0.9,1.1,2.2,1.7,3.8,1.7c1,0,2.1-0.3,3.2-0.9
		c1-0.5,1.7-1.2,2.4-1.9C199,29.6,199,29.3,198.9,29.1z M194.1,18.3c0.2,0.2,0.4,0.2,0.6,0.1c1.3-0.7,2.1-1.4,2.5-1.9
		c0.4-0.6,0.7-1.3,0.7-2c0-0.9-0.3-1.6-0.9-2.1c-0.6-0.5-1.3-0.8-2.2-0.8c-0.9,0-1.7,0.3-2.3,0.8c-0.6,0.5-0.9,1.2-0.9,2
		c0,0.4,0.1,0.8,0.3,1.2c0.2,0.4,0.6,0.9,1,1.4L194.1,18.3z"/>
</g>
<path class="st0" d="M274.1,26.6v-1.8c0-0.2,0.1-0.3,0.3-0.3h15c0.2,0,0.3,0.2,0.3,0.3v1.8c0,0.2-0.1,0.3-0.3,0.3h-15
	C274.3,27,274.1,26.8,274.1,26.6z"/>
<path class="st0" d="M11.2,26.8V25c0-0.2,0.1-0.3,0.3-0.3h15c0.2,0,0.3,0.2,0.3,0.3v1.8c0,0.2-0.1,0.3-0.3,0.3h-15
	C11.3,27.2,11.2,27,11.2,26.8z"/>
<path class="st0" d="M43.1,104.4l18.4-51.8c0.9-2.6,3.4-4.4,6.2-4.4h10.2c2.3,0,3.9,2.3,3.1,4.4l-27,74.7c-3.2,1.2-7,1.9-10.8,1.9
	c0,0,0,0,0,0c-6.2,0-11.8-3.9-13.9-9.8L5.2,52.6c-0.8-2.2,0.8-4.4,3.1-4.4h10.2c2.8,0,5.3,1.8,6.2,4.4L43.1,104.4z"/>
<path class="st0" d="M262.6,129.1c4.6,0,9.2-1.1,13.4-2.8c3-1.2,5.9-2.9,8.4-5c2.9-2.4,5.3-5.4,7-8.8c2.1-4.2,3.2-8.9,3.5-13.6
	c0.1-1,0.1-2,0.1-3.1c0,0,0-41,0-41c0-3.7-3-6.6-6.6-6.6h-11.6v47.6c0,16-14.2,15.7-14.2,15.7s-14.2,0.3-14.2-15.7V48.1h-11.6
	c-3.7,0-6.6,3-6.6,6.6c0,0,0,41,0,41c0,5.1,0.8,10.2,2.7,14.8c1.5,3.6,3.8,6.9,6.7,9.6c2.5,2.3,5.4,4.2,8.5,5.5
	c4.5,2,9.4,3.3,14.3,3.3C262.5,129.1,262.6,129.1,262.6,129.1z"/>
<path class="st0" d="M118.8,129.1c4.6,0,9.2-1.1,13.4-2.8c3-1.2,5.9-2.9,8.4-5c2.9-2.4,5.3-5.4,7-8.8c2.1-4.2,3.2-8.9,3.5-13.6
	c0.1-1,0.1-2,0.1-3.1c0,0,0-41,0-41c0-3.7-3-6.6-6.6-6.6H133v47.6c0,16-14.2,15.7-14.2,15.7s-14.2,0.3-14.2-15.7V48.2H93
	c-3.7,0-6.6,3-6.6,6.6c0,0,0,41,0,41c0,5.1,0.8,10.2,2.7,14.8c1.5,3.6,3.8,6.9,6.7,9.6c2.5,2.3,5.4,4.2,8.5,5.5
	c4.5,2,9.4,3.3,14.3,3.3C118.7,129.1,118.7,129.1,118.8,129.1z"/>
<path class="st0" d="M163,129.1c-3.7,0-6.6-3-6.6-6.6V54.7c0-3.7,3-6.6,6.6-6.6h22.9c22.3,0,40.8,17.7,41.1,40
	c0.3,22.6-18,41.1-40.5,41.1H163z M185,111.2c12.5,0,22.6-10.1,22.6-22.6S197.4,66,185,66h-10.4c0,0,0,45.1,0,45.1
	C174.5,111.2,185,111.2,185,111.2z"/>
</svg>
