<?xml version="1.0" encoding="utf-8"?>
<!-- Generator: Adobe Illustrator 19.2.1, SVG Export Plug-In . SVG Version: 6.00 Build 0)  -->
<svg version="1.1" id="Layer_1" xmlns="http://www.w3.org/2000/svg" xmlns:xlink="http://www.w3.org/1999/xlink" x="0px" y="0px"
	 width="850px" height="300px" viewBox="0 0 850 300" style="enable-background:new 0 0 850 300;" xml:space="preserve">
<style type="text/css">
	.st0{fill:#FFFFFF;}
	.st1{enable-background:new    ;}
</style>
<g id="Layer_3">
</g>
<path class="st0" d="M85.7,141c0.7,4.7,1.8,8.3,3.2,10.4c3.1,4.7,7.4,7,13.1,7c5.2,0,9.2-1.6,11.9-4.7c2.5-2.7,3.8-6.1,3.8-10.3
	c0-4.5-2-8.5-5.9-11.7c-1.8-1.6-4.3-2.9-7-4.1c-0.9-0.4-3.8-1.4-9-3.2c-9.7-3.4-16.9-6.8-21.2-10.4c-8.8-6.8-13.1-15.8-13.1-27.2
	c0-9.5,3.1-17.5,9.2-23.4c6.7-6.7,16.2-10.1,28.1-10.1c15.1,0,26.3,5.2,33.8,15.5c3.4,4.9,5.8,11.2,6.8,18.9h-25
	c-0.7-4.5-2.2-7.9-4.5-10.1c-2.7-2.5-6.5-3.6-11.3-3.6c-4,0-7.2,0.9-9.4,2.9c-2.7,2.2-4,5.2-4,9.2c0,4.5,2,8.1,5.9,11
	c2.9,2,8.6,4.5,17.5,7.4c10.1,3.2,18,7,23.4,11.5c8.1,6.3,12.2,15.1,12.2,25.9c0,11-3.8,19.8-11.3,26.6c-7.7,7-18.2,10.4-31.1,10.4
	c-15.5,0-27.2-5.8-34.7-17.5c-4-5.9-6.3-12.8-7.2-20.5L85.7,141L85.7,141z"/>
<path class="st0" d="M174.5,78.1h-29.2V56h84.1v22.1h-29.2V176h-25.7V78.1z"/>
<path class="st0" d="M317.6,68.8c10.4,11.7,15.7,27.5,15.7,47.3c0,16.9-4,31.1-11.9,42.7c-4.5,6.5-10.1,11.5-16.7,14.9
	c-6.8,3.4-14.2,5.2-22.3,5.2c-16.9,0-30.2-6.8-39.8-20.7c-7.7-11.2-11.5-25-11.5-41.9c0-19.8,5-35.5,14.9-46.8
	c9.5-10.8,22-16.2,37.1-16.2C296.9,53.3,308.4,58.5,317.6,68.8z M263.8,86.4c-4.7,8.1-7,18-7,29.5c0,11.9,2.3,22,6.8,29.9
	c2.2,3.6,5.2,6.7,9.4,8.8c3.1,1.6,6.1,2.3,9.5,2.3s6.8-0.9,9.9-2.7c3.2-2,5.8-4.5,7.7-7.7c4.9-8.1,7.4-18.4,7.4-30.6
	c0-11.7-2.2-21.6-6.8-29.5c-4.3-7.4-10.6-11.2-18.7-11.2C274.2,75.3,268.1,79,263.8,86.4z"/>
<path class="st0" d="M439.7,129.6c-0.9,12.6-4.5,23.2-10.8,31.9c-8.5,11.7-20.3,17.5-35.8,17.5c-14.6,0-26.1-5-34.7-14.9
	c-10.3-12.2-15.5-28.1-15.5-47.7c0-19.1,5-34.6,14.9-46.4c9.2-11,21.2-16.6,36-16.6c15.7,0,27.9,6.3,36.7,19.1
	c5,7.2,7.7,15.1,8.5,24.1h-25.6c-0.7-4.7-2-8.5-3.8-11.3c-3.6-6.5-9.2-9.9-16.2-9.9c-8.1,0-14.2,3.8-18.4,11.3
	c-4.3,7.9-6.5,17.8-6.5,29.5c0,11.9,2.3,22,6.7,29.9c4.1,7.4,10.1,11,17.8,11c6.7,0,11.9-2.9,15.5-8.6c2.7-4.5,4.5-10.8,5.4-18.7
	h25.8V129.6z"/>
<path class="st0" d="M448.2,56h25.7v45.4L509.5,56h28.8l-40.9,49.5l44.1,70.6h-28.8L481,125.5l-7.2,8.8v41.8h-25.7V56H448.2z"/>
<path class="st0" d="M805.4,215.2H29.5V15.5h775.9V215.2z M39.2,204.8h520V25.5h-520L39.2,204.8L39.2,204.8z M588.9,56v68.2
	c0,8.1,0.4,14.4,1.1,18.9c1.1,7.2,3.2,13.3,6.5,18.4c7.4,11.7,19.8,17.5,37.1,17.5c11.3,0,20.7-2.5,27.7-7.4
	c7-5,11.9-12.4,14.6-22.5c1.6-5.6,2.3-13.7,2.3-24.5V56h-25.7v69.8c0,9.9-1.1,16.9-2.9,21.4c-2.9,6.5-7.9,9.7-15.7,9.7
	c-7,0-12.2-2.3-15.5-7.2c-3.2-4.3-4.9-12.4-4.9-23.8V56H588.9z M693.9,176.1h25.7v-43h12.8c12.4,0,22-2.7,28.8-7.7
	c9.7-7.4,14.6-18,14.6-31.7c0-8.3-1.6-15.1-5-20.9c-4.1-6.7-9.7-11.3-17.1-14c-5-1.8-12.2-2.7-21.8-2.7h-38V176.1z M719.7,112.2v-34
	h11.2c6.5,0,11.2,1.1,13.9,3.4c3.6,3.1,5.4,7.4,5.4,13.3c0,5-1.3,9.2-3.8,12.4c-2.5,3.2-7.4,4.9-14.2,4.9
	C732.2,112.2,719.7,112.2,719.7,112.2z"/>
<g class="st1">
	<path class="st0" d="M819.1,16.7h-3.8v-1.5h9.4v1.5h-3.8v12.4h-1.7V16.7z"/>
	<path class="st0" d="M826.7,15.2h2.2l3.7,11.7l3.5-11.7h2.3v13.9h-1.5V17.3l-3.4,11.8h-1.7l-3.5-11.6v11.6h-1.5V15.2z"/>
</g>
<g class="st1">
	<path class="st0" d="M52,277.7v-4.2c-2.2,3.3-5.2,5-9.1,5c-3.4,0-6.3-1.1-8.5-3.4c-1.6-1.6-2.8-3.5-3.6-6c-0.9-2.3-1.2-5-1.2-7.9
		c0-5.8,1.6-10.5,4.8-14c2.3-2.5,5.3-3.7,9-3.7c4.5,0,7.8,1.7,10,5.2c1,1.7,1.7,3.6,1.9,5.8h-4.1c-0.2-1.4-0.7-2.8-1.4-4
		c-1.4-2.4-3.5-3.5-6.4-3.5c-3.2,0-5.6,1.4-7.3,4.2c-1.6,2.5-2.4,5.9-2.4,9.8c0,4.2,0.9,7.7,2.7,10.2c1.6,2.5,3.9,3.7,6.8,3.7
		c2.3,0,4.3-0.8,5.8-2.5c1.8-2,2.7-4.9,2.8-8.9H43v-3.5h12.4v17.6H52z"/>
	<path class="st0" d="M62.2,244.3h19.3v3.5H66.3v11h14.2v3.4H66.3v11.9h15.4v3.5H62.2V244.3z"/>
	<path class="st0" d="M94.3,247.9h-9.2v-3.5h22.6v3.5h-9.2v29.8h-4.1V247.9z"/>
	<path class="st0" d="M128.8,247.9h-9.2v-3.5h22.6v3.5h-9.2v29.8h-4.1V247.9z"/>
	<path class="st0" d="M147,244.3h4.1v14.1h14.2v-14.1h4.1v33.4h-4.1v-15.8h-14.2v15.8H147V244.3z"/>
	<path class="st0" d="M189.2,244.3l10.9,33.4h-4.5l-3.1-10.3h-11.3l-3.2,10.3h-4.2l10.9-33.4H189.2z M191.5,264l-4.6-15.2l-4.7,15.2
		H191.5z"/>
	<path class="st0" d="M204.5,244.3h4.4l14.6,27.3v-27.3h3.7v33.4h-4.4l-14.5-27v27h-3.8V244.3z"/>
	<path class="st0" d="M234.5,244.3h4.1v15.5l13.5-15.5h5l-12.4,13.9l12.7,19.5h-4.7L242,261.2l-3.5,3.9v12.6h-4.1V244.3z"/>
	<path class="st0" d="M261.5,244.3h19.3v3.5h-15.2v11h14.2v3.4h-14.2v11.9h15.4v3.5h-19.5V244.3z"/>
	<path class="st0" d="M286.9,244.3h9.2c2.5,0,4.5,0.3,6.2,1c2.8,1.1,5,3.3,6.4,6.5c1,2.5,1.6,5.4,1.6,8.7c0,5.6-1.3,10-4,13.1
		c-1.5,1.8-3.3,3-5.4,3.5c-1.1,0.3-2.5,0.5-4.4,0.5h-9.6V244.3z M295.8,274.1c2,0,3.5-0.2,4.4-0.5c1.9-0.7,3.3-2.2,4.4-4.6
		c1-2.1,1.5-4.9,1.5-8.4c0-4.2-0.8-7.5-2.5-9.6c-1.7-2.1-4.1-3.2-7.4-3.2H291v26.3H295.8z"/>
	<path class="st0" d="M323,244.3h4.1l5.4,27.7l6.1-27.7h4.6l6,27.7l5.5-27.7h4l-7.4,33.4H347l-6.2-28.2l-6.3,28.2h-4.3L323,244.3z"
		/>
	<path class="st0" d="M363.2,244.3h4.1v33.4h-4.1V244.3z"/>
	<path class="st0" d="M381.4,247.9h-9.2v-3.5h22.6v3.5h-9.2v29.8h-4.1V247.9z"/>
	<path class="st0" d="M399.6,244.3h4.1v14.1h14.2v-14.1h4.1v33.4h-4.1v-15.8h-14.2v15.8h-4.1V244.3z"/>
	<path class="st0" d="M442.5,244.3v18.9c0,2.3,0.1,4,0.2,4.9c0.4,2.6,1.3,4.4,2.6,5.5c1.2,1,2.8,1.4,4.8,1.4c3.2,0,5.3-1.3,6.3-4.2
		c0.5-1.5,0.8-4,0.8-7.7v-18.9h4.1v18.8c0,3.3-0.2,5.8-0.6,7.2c-1.5,5.4-5,8.1-10.5,8.1c-3.1,0-5.5-0.6-7.2-2
		c-1.9-1.5-3.2-3.6-3.8-6.3c-0.4-1.6-0.6-4-0.6-7.1v-18.8H442.5z"/>
	<path class="st0" d="M468.3,244.3h4.4l14.6,27.3v-27.3h3.7v33.4h-4.4l-14.5-27v27h-3.8V244.3z"/>
	<path class="st0" d="M504.3,267.3h-9.8v-4.1h9.8V267.3z"/>
	<path class="st0" d="M532,265.1c-0.2,3.1-1.1,5.8-2.4,7.9c-2.2,3.7-5.5,5.5-9.8,5.5c-4.2,0-7.5-1.5-9.8-4.8
		c-2.4-3.2-3.5-7.5-3.5-12.6c0-5,1.2-9.1,3.4-12.3c2.5-3.5,5.9-5.2,10.1-5.2c4,0,7.2,1.5,9.4,4.6c1.3,1.9,2.1,3.9,2.3,6.2h-4.2
		c-0.3-1.8-0.9-3.1-1.8-4.3c-1.5-2-3.4-3-5.8-3c-3,0-5.2,1.3-6.8,4c-1.6,2.7-2.4,6.1-2.4,10c0,4.2,0.9,7.6,2.6,10.4
		c1.5,2.3,3.7,3.5,6.5,3.5c3.2,0,5.5-1.7,6.9-4.9c0.5-1.3,0.9-3,1.1-5H532z"/>
	<path class="st0" d="M550,244.3l10.9,33.4h-4.5l-3.1-10.3H542l-3.2,10.3h-4.2l10.9-33.4H550z M552.3,264l-4.6-15.2l-4.7,15.2H552.3
		z"/>
	<path class="st0" d="M565.3,244.3H577c1.9,0,3.4,0.2,4.5,0.7c1.6,0.6,2.9,1.7,3.9,3.2c1,1.4,1.4,3.1,1.4,5.2c0,2.7-0.8,4.8-2.5,6.5
		c-0.8,0.8-1.8,1.3-2.9,1.7c1.8,0.3,3.1,1.4,4,3.3c0.4,0.8,0.6,1.9,0.7,3.2c0,0.4,0.2,1.7,0.3,3.8c0.2,3.1,0.8,5.1,1.5,5.8h-4.6
		c-0.3-0.5-0.5-1-0.7-1.8c0-0.5-0.2-1.8-0.2-4.1c-0.2-2.7-0.5-4.4-0.8-5.4c-0.6-1.5-1.6-2.5-2.9-2.8c-0.8-0.2-1.9-0.3-3.2-0.3h-5.9
		v14.5h-4.1V244.3z M574.9,259.7c1.8,0,3.1-0.1,3.9-0.3c2.5-0.7,3.8-2.5,3.8-5.7c0-2.2-0.7-3.9-2.1-5c-0.9-0.6-2.4-1-4.6-1h-6.5
		v11.9H574.9z"/>
	<path class="st0" d="M594,244.3h11.8c1.9,0,3.4,0.2,4.5,0.7c1.6,0.6,2.9,1.7,3.9,3.2c1,1.4,1.4,3.1,1.4,5.2c0,2.7-0.8,4.8-2.5,6.5
		c-0.8,0.8-1.8,1.3-2.9,1.7c1.8,0.3,3.1,1.4,4,3.3c0.4,0.8,0.6,1.9,0.7,3.2c0,0.4,0.2,1.7,0.3,3.8c0.2,3.1,0.8,5.1,1.5,5.8h-4.6
		c-0.3-0.5-0.5-1-0.7-1.8c0-0.5-0.2-1.8-0.2-4.1c-0.2-2.7-0.5-4.4-0.8-5.4c-0.6-1.5-1.6-2.5-2.9-2.8c-0.8-0.2-1.9-0.3-3.2-0.3h-5.9
		v14.5H594V244.3z M603.7,259.7c1.8,0,3.1-0.1,3.9-0.3c2.5-0.7,3.8-2.5,3.8-5.7c0-2.2-0.7-3.9-2.1-5c-0.9-0.6-2.4-1-4.6-1h-6.5v11.9
		H603.7z"/>
	<path class="st0" d="M622.8,244.3h4.1v33.4h-4.1V244.3z"/>
	<path class="st0" d="M634.2,244.3h19.3v3.5h-15.2v11h14.2v3.4h-14.2v11.9h15.4v3.5h-19.5V244.3z"/>
	<path class="st0" d="M659.6,244.3h11.8c1.9,0,3.4,0.2,4.5,0.7c1.6,0.6,2.9,1.7,3.9,3.2c1,1.4,1.4,3.1,1.4,5.2
		c0,2.7-0.8,4.8-2.5,6.5c-0.8,0.8-1.8,1.3-2.9,1.7c1.8,0.3,3.1,1.4,4,3.3c0.4,0.8,0.6,1.9,0.7,3.2c0,0.4,0.2,1.7,0.3,3.8
		c0.2,3.1,0.8,5.1,1.5,5.8h-4.6c-0.3-0.5-0.5-1-0.7-1.8c0-0.5-0.1-1.8-0.2-4.1c-0.2-2.7-0.5-4.4-0.8-5.4c-0.6-1.5-1.6-2.5-2.9-2.8
		c-0.8-0.2-1.9-0.3-3.2-0.3h-5.9v14.5h-4.1V244.3z M669.3,259.7c1.8,0,3.1-0.1,3.9-0.3c2.5-0.7,3.8-2.5,3.8-5.7c0-2.2-0.7-3.9-2.1-5
		c-0.9-0.6-2.4-1-4.6-1h-6.5v11.9H669.3z"/>
	<path class="st0" d="M700.3,267.3c0.1,1.9,0.5,3.4,1.2,4.5c1.3,2.1,3.3,3.1,6,3.1c2.2,0,4-0.8,5.2-2.2c0.8-1,1.3-2.3,1.3-3.8
		c0-2-0.9-3.5-2.6-4.6c-0.7-0.5-2.5-1.2-5.5-2.2c-2.9-1-5-2-6.3-3.2c-1.9-1.6-2.8-3.7-2.8-6.2c0-2.6,0.9-4.7,2.5-6.3
		c1.8-1.9,4.3-2.8,7.3-2.8c2.6,0,4.8,0.6,6.6,2c1.7,1.2,2.9,2.8,3.5,4.8c0.2,0.8,0.4,1.8,0.5,3h-4.2c-0.1-1.5-0.5-2.8-1.1-3.7
		c-1.1-1.6-2.9-2.5-5.2-2.5c-1.6,0-3,0.5-4,1.5c-1,1-1.6,2.3-1.6,4c0,1.8,0.8,3.2,2.5,4.3c0.8,0.5,2.5,1.2,4.8,1.9
		c2,0.7,3.4,1.1,4,1.4c4,1.8,6,4.7,6,8.5c0,2.8-1,5.1-2.8,7c-2,2-4.6,3-7.9,3c-4.5,0-7.7-1.7-9.7-5.1c-0.9-1.6-1.5-3.6-1.6-6.1
		H700.3z"/>
	<path class="st0" d="M730.6,247.9h-9.2v-3.5H744v3.5h-9.2v29.8h-4.1V247.9z"/>
	<path class="st0" d="M766.5,244.8c1.6,0.8,3,2,4.2,3.5c2.5,3.2,3.8,7.5,3.8,12.6c0,4.6-1,8.5-3,11.6c-1.1,1.9-2.7,3.4-4.6,4.4
		c-1.8,1-3.8,1.5-6,1.5s-4.2-0.5-6-1.5c-1.9-1-3.4-2.5-4.6-4.5c-2-3.1-2.9-6.9-2.9-11.5c0-5.3,1.2-9.5,3.8-12.7
		c2.5-3.2,5.9-4.8,10-4.8C763.1,243.6,764.8,244,766.5,244.8z M754.3,250.8c-1.8,2.5-2.7,5.9-2.7,10.1c0,4,0.7,7.2,2.2,9.8
		c0.9,1.5,2,2.6,3.5,3.5c1.1,0.6,2.3,0.9,3.6,0.9c1.2,0,2.4-0.2,3.6-0.8c1.1-0.6,2-1.4,2.8-2.4c2-2.7,3-6.2,3-10.7
		c0-4.2-0.8-7.5-2.5-10.1c-1.7-2.6-4-3.8-6.9-3.8C758.1,247.2,756,248.4,754.3,250.8z"/>
	<path class="st0" d="M804.5,265.1c-0.2,3.1-1.1,5.8-2.4,7.9c-2.2,3.7-5.5,5.5-9.8,5.5c-4.2,0-7.5-1.5-9.8-4.8
		c-2.4-3.2-3.5-7.5-3.5-12.6c0-5,1.2-9.1,3.4-12.3c2.5-3.5,5.9-5.2,10.1-5.2c4,0,7.2,1.5,9.4,4.6c1.3,1.9,2.1,3.9,2.3,6.2H800
		c-0.3-1.8-0.9-3.1-1.8-4.3c-1.5-2-3.4-3-5.8-3c-3,0-5.2,1.3-6.8,4c-1.6,2.7-2.4,6.1-2.4,10c0,4.2,0.9,7.6,2.6,10.4
		c1.5,2.3,3.7,3.5,6.5,3.5c3.2,0,5.5-1.7,6.9-4.9c0.5-1.3,0.9-3,1.1-5H804.5z"/>
	<path class="st0" d="M810.1,244.3h4.1v15.5l13.5-15.5h5l-12.4,13.9l12.7,19.5h-4.7l-10.6-16.5l-3.5,3.9v12.6h-4.1V244.3z"/>
</g>
</svg>
