<?xml version="1.0" encoding="utf-8"?>
<!-- Generator: Adobe Illustrator 19.2.1, SVG Export Plug-In . SVG Version: 6.00 Build 0)  -->
<svg version="1.1" id="Layer_1" xmlns="http://www.w3.org/2000/svg" xmlns:xlink="http://www.w3.org/1999/xlink" x="0px" y="0px"
	 width="300px" height="300px" viewBox="0 0 300 300" style="enable-background:new 0 0 300 300;" xml:space="preserve">
<style type="text/css">
	.st0{fill:#E31936;}
	.st1{fill:#006490;}
</style>
<path class="st0" d="M181.1,141l-55-55l0,0l51.5-51.5c1.9-1.9,5.1-1.9,7,0l48,48c1.9,1.9,1.9,5.1,0,7L181.1,141L181.1,141z
	 M181.1,72.1c-7.7,0-13.9,6.2-13.9,13.9s6.2,13.9,13.9,13.9c7.7,0,13.9-6.2,13.9-13.9S188.8,72.1,181.1,72.1z"/>
<path class="st1" d="M178,144.2l-51.4,51.4c-1.9,1.9-5.1,1.9-7,0l-48-48c-1.9-1.9-1.9-5.1,0-7c0,0,51.4-51.4,51.4-51.4L178,144.2
	L178,144.2z M143,130c-7.7,0-13.9,6.2-13.9,13.9c0,7.7,6.2,13.9,13.9,13.9c7.7,0,13.9-6.2,13.9-13.9C156.9,136.3,150.7,130,143,130z
	 M103.4,130c-7.7,0-13.9,6.2-13.9,13.9c0,7.7,6.2,13.9,13.9,13.9s13.9-6.2,13.9-13.9C117.3,136.3,111.1,130,103.4,130z"/>
<path class="st1" d="M169.4,257.7h-9.6c-0.6,0-1.2-0.5-1.2-1.2V227c0-0.6,0.5-1.2,1.2-1.2h9.6c0.6,0,1.2,0.5,1.2,1.2v29.6
	C170.5,257.2,170,257.7,169.4,257.7z"/>
<path class="st1" d="M97.9,241.6c0,9.3-7.5,16.8-16.8,16.8s-16.8-7.5-16.8-16.8c0-9.3,7.5-16.8,16.8-16.8S97.9,232.3,97.9,241.6z
	 M81.1,235.8c-3.2,0-5.7,2.6-5.7,5.7c0,3.2,2.6,5.7,5.7,5.7s5.7-2.6,5.7-5.7C86.8,238.4,84.2,235.8,81.1,235.8z"/>
<path class="st1" d="M187.4,238.5v18.1c0,0.6-0.5,1.2-1.2,1.2h-9.6c-0.6,0-1.2-0.5-1.2-1.2V227c0-0.6,0.5-1.2,1.2-1.2h9.6
	c0.6,0,1.2,0.5,1.2,1.2c0,0,0,2.7,0,2.7c2.4-3.1,6.5-4.9,10.3-4.9c2.6,0,5.2,0.6,7.3,2.1c1.4,1,2.6,2.4,3.3,4
	c0.5,1.1,0.7,2.2,0.7,3.4c0,0.6,0,21.4,0,22.3c0,0,0,0,0,0.1c0,0.6-0.5,1.2-1.2,1.2h-9.8c-0.6,0-1.2-0.5-1.2-1.2v-13.9
	c0-2.7,0.2-5.3-2.1-6.7C192.6,234.5,188.6,236.1,187.4,238.5z"/>
<path class="st1" d="M133.5,238.4c1.2-2.4,4.4-4,6.9-2.5c1,0.6,1.4,1.8,1.4,2.9l0,17.7c0,0.6,0.5,1.2,1.2,1.2h9.6
	c0.6,0,1.2-0.5,1.2-1.2c0-0.3,0-22.9,0-23.3c0-1.3-0.3-2.4-0.9-3.6c-0.5-0.9-1.1-1.8-1.9-2.5c-1.9-1.8-4.6-2.5-7.1-2.4
	c-3.8,0.2-8.7,2.3-10.9,5.7l0,0c-0.1-0.3-0.2-0.6-0.4-0.9c-0.5-0.9-1.1-1.8-1.9-2.5c-1.9-1.8-4.6-2.5-7.1-2.4
	c-3.8,0.2-7.9,1.7-10.3,4.9c0,0,0-2.7,0-2.7c0-0.6-0.5-1.2-1.2-1.2h-9.6c-0.6,0-1.2,0.5-1.2,1.2v29.6c0,0.6,0.5,1.2,1.2,1.2h9.6
	c0.6,0,1.2-0.5,1.2-1.2v-18.1c1.2-2.4,4.4-4,6.9-2.5c1,0.6,1.4,1.8,1.4,2.9c0,0,0,17.7,0,17.7c0,0.6,0.5,1.2,1.2,1.2h9.6
	c0.6,0,1.2-0.5,1.2-1.2L133.5,238.4z"/>
<circle class="st1" cx="164.6" cy="216.9" r="6.4"/>
<path class="st1" d="M246,241.6c0,9.3-7.5,16.8-16.8,16.8s-16.8-7.5-16.8-16.8s7.5-16.8,16.8-16.8S246,232.3,246,241.6z
	 M229.3,235.9c-3.2,0-5.7,2.6-5.7,5.7s2.6,5.7,5.7,5.7s5.7-2.6,5.7-5.7S232.4,235.9,229.3,235.9z"/>
<path class="st1" d="M19.4,257.7c-0.6,0-1.2-0.5-1.2-1.2v-41.7c0-0.6,0.5-1.2,1.2-1.2h20.8c12.1,0,22,9.8,22,22c0,12.1-9.8,22-22,22
	H19.4z M31.5,246.2h6.7c5.8,0,10.5-4.7,10.5-10.5c0-5.8-4.7-10.5-10.5-10.5h-6.7V246.2z"/>
<path class="st1" d="M255.4,216.4c0,5.2-3.4,9.6-8.1,11.3c-0.2,0.1-0.4,0-0.5-0.2l-1-1.5c-0.1-0.2-0.1-0.4,0.1-0.5
	c0.9-0.8,1.8-1.7,2.4-2.7c0,0-4.9,0.2-6-4.1c-1.1-4.1,1.9-8.2,6.1-8.4c3.8-0.2,6.9,2.9,6.9,6.6"/>
<path class="st1" d="M267.2,224.9c0,0-15-0.7-14.8,10.3c0.1,2.7,1.2,5.3,3.4,7.1c2.3,1.8,4.9,2.4,7.7,2.9c1.1,0.2,9.2,0.7,8.5,2.8
	c-0.3,0.9-1.5,1.2-2.3,1.4c-3.6,0.8-7.7-0.4-10.8-2.2c-0.5-0.3-0.9-0.6-1.4-0.9c-0.5-0.4-1.3-0.2-1.6,0.3l-4.1,6.2
	c-0.4,0.6-0.2,1.3,0.4,1.6c2.2,1.3,7.8,4.1,15,4.1c9.3,0,15-4.3,15.2-11.1c0.1-3.4-1.7-6.2-4.5-8c-1.7-1.1-3.4-1.5-5.4-1.9
	c-2-0.4-3.9-0.8-5.9-1.1c-0.3,0-0.6-0.1-1-0.1c0,0-1.7-0.1-1.7-1.2c0-1.2,2.2-1.5,4-1.5c1.6,0,4.9,0.8,7.5,2.8
	c0.5,0.4,1.3,0.3,1.7-0.3l3.5-5.9c0.3-0.5,0.2-1.3-0.4-1.6C278.3,227.4,273.4,224.9,267.2,224.9z"/>
</svg>
