<?xml version="1.0" encoding="utf-8"?>
<!-- Generator: Adobe Illustrator 19.2.1, SVG Export Plug-In . SVG Version: 6.00 Build 0)  -->
<svg version="1.1" id="Layer_1" xmlns="http://www.w3.org/2000/svg" xmlns:xlink="http://www.w3.org/1999/xlink" x="0px" y="0px"
	 width="329px" height="68px" viewBox="0 0 329 68" style="enable-background:new 0 0 329 68;" xml:space="preserve">
<style type="text/css">
	.st0{fill:#e0a070;}
</style>
<polygon class="st0" points="5,41.8 15.7,41.8 15.7,31.1 5,31.1 "/>
<path class="st0" d="M30.7,9.2c8.7,0.2,13.9,6,14.7,16.6l2.8-0.5L47.7,6.7H5.5L5,25.3l2.8,0.5C8.6,15.2,13.7,9.4,22.5,9.2v39.1
	c0,7.1-1.2,8.3-8.9,8.3v3h26v-3c-7.6-0.1-8.9-1.2-8.9-8.3L30.7,9.2L30.7,9.2z"/>
<polygon class="st0" points="37.4,41.8 48.1,41.8 48.1,31.1 37.4,31.1 "/>
<polygon class="st0" points="69.5,41.8 80.2,41.8 80.2,31.1 69.5,31.1 "/>
<polygon class="st0" points="101.6,41.8 112.3,41.8 112.3,31.1 101.6,31.1 "/>
<path class="st0" d="M141.8,59.6l13.5-46.3v36.4c0,4-0.2,5.4-1.1,6.3c-0.7,0.7-2.3,1.1-4.1,1.1h-0.7v2.4h19.1v-2.4h-1
	c-1.8,0-3.4-0.5-4.1-1.1c-0.9-0.9-1.1-2.4-1.1-6.3V18.6c0-4,0.2-5.4,1.1-6.3c0.8-0.7,2.3-1.1,4.1-1.1h1V8.8h-14.8l-11.2,37.5
	L131.6,8.8h-14.7v2.4h1.4c4.1,0,4.8,0.9,4.8,6v29.6c0,4.7-0.2,6.6-0.9,8c-0.8,1.4-2.4,2.4-4.1,2.4h-1.2v2.4h15.7v-2.4h-1
	c-2,0-3.6-0.8-4.5-2.4c-0.9-1.5-1.1-2.9-1.1-8.1V13.3l13.5,46.3L141.8,59.6L141.8,59.6z"/>
<path class="st0" d="M185,23.4c-9.5,0-15.7,7.3-15.7,18.7c0,11.1,6.2,18.6,15.4,18.6c9.3,0,15.5-7.5,15.5-18.6S194.1,23.4,185,23.4
	L185,23.4z M184.7,25.8c2.8,0,5.1,1.7,6.4,4.6c1.2,2.7,1.8,6.3,1.8,11.6c0,10.9-2.7,16.2-8.1,16.2c-5.4,0-8-5.4-8-16.4
	c0-5.1,0.5-8.7,1.8-11.5C179.7,27.7,182.1,25.8,184.7,25.8L184.7,25.8z"/>
<path class="st0" d="M212.9,8.1l-10.8,0.5V11h0.5c3.2,0,3.9,1.1,3.9,6.1V52c0,4.4-0.2,5.7-0.8,7.6h2.5c1.9-3.1,2.4-3.6,3.1-3.6
	c0.4,0,0.8,0.2,1.3,0.6c3.7,3.1,5.3,3.7,8.8,3.7c8.3,0,14.2-7.9,14.2-19c0-10.5-5.5-17.7-13.8-17.7c-4.3,0-7.4,2-9,5.7V8.1H212.9z
	 M220.9,26.4c4.9,0,7.4,5.2,7.4,15.3c0,10.5-2.6,16.1-7.6,16.1c-5.5,0-8.4-5.6-8.4-15.8c0-5,0.7-8.6,2.3-11.3
	C216.1,28,218.5,26.4,220.9,26.4L220.9,26.4z"/>
<path class="st0" d="M249.8,23.9l-11.2,0.5v2.4h0.8c3.2,0,3.9,1.1,3.9,6.1V51c0,5-0.7,6.2-3.9,6.2h-1.2v2.4h16.7v-2.4h-1.2
	c-3.2,0-3.9-1.1-3.9-6.2L249.8,23.9L249.8,23.9z M246.2,8.3c-2.4,0-4.3,1.8-4.3,4.2c0,2.3,1.9,4.2,4.2,4.2c2.4,0,4.2-1.8,4.2-4.2
	C250.3,10.2,248.5,8.3,246.2,8.3L246.2,8.3z"/>
<path class="st0" d="M269.2,8.1L258,8.6V11h0.8c3.2,0,3.9,1.1,3.9,6.1V51c0,5.1-0.7,6.2-3.9,6.2h-1.2v2.4h16.7v-2.4h-1.2
	c-3.2,0-3.9-1.1-3.9-6.2L269.2,8.1L269.2,8.1z"/>
<path class="st0" d="M304.7,41.8c-0.4-11.3-5.9-18.4-14.2-18.4c-8,0-13.8,7.7-13.8,18.4c0,11.5,5.7,18.9,14.6,18.9
	c5.7,0,9.7-3,13-9.6l-2.3-1.2c-2.7,5.7-5.3,7.9-9.5,7.9c-6,0-8.6-4.7-8.7-15.9h20.9V41.8z M283.8,39.1c0.1-8,2.8-13.1,7-13.1
	c4.3,0,6.8,4.9,6.7,13.1H283.8L283.8,39.1z"/>
<polygon class="st0" points="313.8,41.8 324.5,41.8 324.5,31.1 313.8,31.1 "/>
</svg>
