<?xml version="1.0" encoding="utf-8"?>
<!-- Generator: Adobe Illustrator 28.3.0, SVG Export Plug-In . SVG Version: 6.00 Build 0)  -->
<svg version="1.1" id="Layer_1" xmlns="http://www.w3.org/2000/svg" xmlns:xlink="http://www.w3.org/1999/xlink" x="0px" y="0px"
	 viewBox="0 0 329 68" style="enable-background:new 0 0 329 68;" xml:space="preserve">
<style type="text/css">
	.st0{fill:#e0a070;}
</style>
<path class="st0" d="M22.9,17.3L36,27.9L56.4,7l13.1,5.5V54l-13,5.5L36.1,39.2L23.2,49.5l-5.7-3V20.3L22.9,17.3z M22.9,25.6v15.7
	l7.9-7.8L22.9,25.6z M43.5,33.4l12.7,10.1V22.9L43.5,33.4z"/>
<g>
	<g>
		<path class="st0" d="M99.2,48.9h-2.8L85.3,18.5h3.2l8.6,24.4c0.2,0.5,0.3,0.9,0.4,1.4s0.2,0.9,0.3,1.4h0.1
			c0.1-0.4,0.2-0.8,0.3-1.3c0.1-0.5,0.3-1,0.5-1.5l9-24.3h3.1L99.2,48.9z"/>
		<path class="st0" d="M99.5,49.4h-3.4L84.7,18h4.2l8.7,24.7c0.1,0.3,0.2,0.7,0.3,1c0.1-0.3,0.2-0.7,0.4-1.1l9.1-24.6h4.1L99.5,49.4
			z M96.8,48.5h2.1L110.1,19h-2l-8.9,24c-0.2,0.5-0.4,1-0.5,1.5s-0.2,0.9-0.3,1.3l-0.1,0.4h-0.9l-0.1-0.4c-0.1-0.5-0.2-0.9-0.3-1.4
			c-0.1-0.4-0.3-0.9-0.4-1.3l-8.5-24H86L96.8,48.5z"/>
	</g>
	<g>
		<path class="st0" d="M115.1,21.7c-0.5,0-1-0.2-1.4-0.6s-0.6-0.8-0.6-1.4s0.2-1,0.6-1.4s0.8-0.5,1.4-0.5c0.3,0,0.5,0,0.8,0.1
			c0.2,0.1,0.4,0.2,0.6,0.4c0.2,0.2,0.3,0.4,0.4,0.6s0.2,0.5,0.2,0.8s0,0.5-0.1,0.8c-0.1,0.2-0.2,0.5-0.4,0.6
			c-0.2,0.2-0.4,0.3-0.6,0.4C115.7,21.6,115.4,21.7,115.1,21.7z M113.8,48.9V27.2h2.7V49L113.8,48.9L113.8,48.9z"/>
		<path class="st0" d="M117,49.4h-3.7V26.7h3.7V49.4z M114.3,48.5h1.8V27.6h-1.8V48.5z M115.1,22.1c-0.6,0-1.2-0.2-1.7-0.7
			s-0.7-1-0.7-1.7s0.2-1.3,0.7-1.7c0.5-0.4,1-0.7,1.7-0.7c0.3,0,0.6,0.1,0.9,0.2s0.6,0.3,0.8,0.5c0.2,0.2,0.4,0.5,0.5,0.8
			s0.2,0.6,0.2,1c0,0.3-0.1,0.6-0.2,0.9s-0.3,0.6-0.5,0.8c-0.2,0.2-0.5,0.4-0.8,0.5C115.8,22.1,115.5,22.1,115.1,22.1z M115.1,18.3
			c-0.4,0-0.7,0.1-1,0.4s-0.4,0.6-0.4,1s0.1,0.8,0.4,1.1c0.3,0.3,0.6,0.4,1,0.4c0.2,0,0.4,0,0.6-0.1s0.3-0.2,0.5-0.3
			c0.1-0.1,0.2-0.3,0.3-0.5c0.1-0.2,0.1-0.4,0.1-0.6s0-0.4-0.1-0.6s-0.2-0.3-0.3-0.5c-0.1-0.1-0.3-0.2-0.5-0.3
			C115.5,18.3,115.3,18.3,115.1,18.3z"/>
	</g>
	<g>
		<path class="st0" d="M121.2,45c0.4,0.3,0.9,0.6,1.3,0.9c0.5,0.3,1,0.5,1.5,0.7s1,0.3,1.5,0.4c0.5,0.1,1,0.1,1.5,0.1
			c3.2,0,4.8-1.2,4.8-3.6c0-0.6-0.1-1-0.3-1.4s-0.6-0.8-1-1.1s-0.9-0.6-1.5-0.9c-0.6-0.3-1.3-0.6-2-0.9c-1-0.4-1.9-0.8-2.6-1.3
			c-0.7-0.4-1.3-0.9-1.8-1.4s-0.8-1.1-1-1.7c-0.2-0.6-0.3-1.3-0.3-2.1c0-1,0.2-1.8,0.6-2.6c0.4-0.8,1-1.4,1.7-1.9s1.5-0.9,2.5-1.2
			c0.9-0.3,1.9-0.4,2.9-0.4c1.9,0,3.5,0.4,4.9,1.1v2.9c-1.6-1-3.4-1.6-5.3-1.6c-0.7,0-1.3,0.1-1.9,0.3c-0.6,0.2-1,0.4-1.4,0.7
			c-0.4,0.3-0.7,0.7-0.9,1.1c-0.2,0.4-0.3,0.9-0.3,1.4s0.1,1,0.3,1.4c0.2,0.4,0.4,0.8,0.8,1.1s0.8,0.6,1.4,0.9
			c0.6,0.3,1.3,0.6,2.1,1c1,0.4,2,0.8,2.7,1.3c0.8,0.4,1.4,0.9,1.9,1.4s0.9,1,1.1,1.6c0.2,0.6,0.4,1.3,0.4,2.1c0,1-0.2,1.8-0.6,2.6
			c-0.4,0.8-1,1.4-1.7,1.9s-1.6,0.9-2.5,1.2c-1,0.3-2,0.4-3.1,0.4c-2.2,0-4-0.5-5.5-1.4v-3H121.2z"/>
		<path class="st0" d="M126.8,49.9c-2.3,0-4.2-0.5-5.8-1.5l-0.2-0.1V44l0.8,0.6c0.4,0.3,0.8,0.6,1.3,0.8s0.9,0.5,1.4,0.6
			c0.5,0.2,1,0.3,1.5,0.4c0.5,0.1,1,0.1,1.4,0.1c3.9,0,4.4-1.8,4.4-3.2c0-0.5-0.1-0.9-0.3-1.2s-0.5-0.7-0.9-1s-0.9-0.6-1.4-0.9
			c-0.6-0.3-1.3-0.6-2-0.9c-1-0.4-1.9-0.8-2.7-1.3c-0.8-0.4-1.4-0.9-1.9-1.5c-0.5-0.5-0.9-1.2-1.1-1.8c-0.2-0.7-0.4-1.4-0.4-2.2
			c0-1,0.2-2,0.7-2.8c0.4-0.8,1.1-1.5,1.8-2.1c0.8-0.6,1.6-1,2.6-1.3s2-0.4,3.1-0.4c2,0,3.7,0.4,5.1,1.1l0.3,0.1v4l-0.7-0.5
			c-1.5-1-3.2-1.5-5-1.5c-0.6,0-1.2,0.1-1.7,0.2c-0.5,0.2-0.9,0.4-1.3,0.6c-0.3,0.3-0.6,0.6-0.8,1c-0.2,0.4-0.3,0.8-0.3,1.2
			c0,0.5,0.1,0.9,0.2,1.2s0.4,0.6,0.7,0.9c0.3,0.3,0.8,0.6,1.3,0.9c0.6,0.3,1.3,0.6,2.1,0.9c1.1,0.4,2,0.9,2.8,1.3
			c0.8,0.4,1.5,0.9,2,1.4s0.9,1.1,1.2,1.8s0.4,1.4,0.4,2.3c0,1.1-0.2,2-0.7,2.8c-0.4,0.8-1,1.5-1.8,2.1s-1.7,1-2.7,1.3
			C129,49.8,127.9,49.9,126.8,49.9z M121.7,47.8c1.4,0.8,3.1,1.2,5.1,1.2c1.1,0,2.1-0.1,3-0.4c0.9-0.3,1.7-0.6,2.4-1.1
			s1.2-1.1,1.5-1.8c0.4-0.7,0.6-1.5,0.6-2.4c0-0.7-0.1-1.4-0.3-1.9s-0.6-1-1-1.5c-0.5-0.5-1.1-0.9-1.8-1.3c-0.7-0.4-1.6-0.8-2.7-1.2
			c-0.8-0.3-1.5-0.7-2.1-1s-1.1-0.7-1.5-1c-0.4-0.4-0.7-0.8-0.9-1.3c-0.2-0.5-0.3-1-0.3-1.6c0-0.6,0.1-1.2,0.4-1.7
			c0.2-0.5,0.6-0.9,1.1-1.3c0.4-0.3,1-0.6,1.6-0.8c0.6-0.2,1.3-0.3,2-0.3c1.7,0,3.3,0.4,4.8,1.2V28c-1.3-0.6-2.8-0.9-4.5-0.9
			c-1,0-1.9,0.1-2.8,0.4s-1.6,0.6-2.3,1.1c-0.7,0.5-1.2,1.1-1.6,1.8c-0.4,0.7-0.6,1.5-0.6,2.3c0,0.7,0.1,1.3,0.3,1.9
			c0.2,0.5,0.5,1,0.9,1.5s1,0.9,1.7,1.3c0.7,0.4,1.6,0.8,2.5,1.2c0.8,0.3,1.4,0.6,2,0.9c0.6,0.3,1.2,0.6,1.6,1
			c0.5,0.4,0.8,0.8,1.1,1.2c0.3,0.5,0.4,1,0.4,1.7c0,1.9-0.9,4.1-5.3,4.1c-0.5,0-1,0-1.6-0.1c-0.5-0.1-1.1-0.2-1.6-0.4
			s-1-0.4-1.5-0.7c-0.2-0.1-0.4-0.2-0.6-0.4C121.7,45.9,121.7,47.8,121.7,47.8z"/>
	</g>
	<g>
		<path class="st0" d="M153.3,48.9v-3.7h-0.1c-1.5,2.8-3.8,4.2-6.9,4.2c-5.2,0-7.8-3.2-7.8-9.5V27.2h2.7v12.3c0,2.6,0.5,4.5,1.4,5.8
			c0.9,1.2,2.3,1.9,4.3,1.9c0.9,0,1.8-0.2,2.6-0.5c0.8-0.4,1.4-0.9,2-1.5c0.6-0.7,1-1.4,1.3-2.4c0.3-0.9,0.5-1.9,0.5-3.1V27.2h2.7
			V49L153.3,48.9L153.3,48.9z"/>
		<path class="st0" d="M146.3,49.9c-5.5,0-8.2-3.3-8.2-10V26.7h3.7v12.8c0,2.5,0.4,4.3,1.3,5.5c0.8,1.1,2.1,1.7,3.9,1.7
			c0.9,0,1.7-0.2,2.4-0.5s1.3-0.8,1.8-1.4c0.5-0.6,0.9-1.4,1.2-2.2c0.3-0.9,0.4-1.8,0.4-2.9v-13h3.7v22.7h-3.7v-2.6
			C151.3,48.9,149.1,49.9,146.3,49.9z M139.1,27.6V40c0,6.1,2.4,9,7.3,9c2.9,0,5-1.3,6.4-4l0.1-0.3h0.8v3.7h1.8V27.6h-1.8v12
			c0,1.2-0.2,2.2-0.5,3.2s-0.8,1.8-1.4,2.5c-0.6,0.7-1.3,1.3-2.2,1.7c-0.8,0.4-1.8,0.6-2.8,0.6c-2.1,0-3.6-0.7-4.6-2.1
			c-1-1.3-1.5-3.4-1.5-6.1V27.6H139.1z"/>
	</g>
	<g>
		<path class="st0" d="M174.5,48.9V45h-0.1c-0.7,1.4-1.7,2.5-2.9,3.2c-1.2,0.8-2.6,1.1-4.2,1.1c-1,0-2-0.1-2.8-0.4
			c-0.8-0.3-1.6-0.7-2.1-1.3c-0.6-0.5-1-1.2-1.4-2c-0.3-0.8-0.5-1.6-0.5-2.5c0-2,0.6-3.5,1.8-4.7s3.1-1.9,5.5-2.3l6.6-1
			c0-4.2-1.6-6.3-4.9-6.3c-2.5,0-4.9,0.9-7.1,2.8v-3c0.5-0.3,1-0.6,1.5-0.9c0.6-0.3,1.2-0.5,1.8-0.7s1.3-0.3,2-0.4s1.3-0.2,2-0.2
			c2.4,0,4.3,0.7,5.5,2c1.2,1.4,1.9,3.4,1.9,6.1v14.2h-2.6V48.9z M168.9,38.4c-1,0.1-1.8,0.3-2.5,0.5s-1.3,0.5-1.7,0.9
			c-0.5,0.4-0.8,0.8-1,1.3s-0.3,1.2-0.3,2c0,0.6,0.1,1.1,0.3,1.6s0.5,0.9,0.9,1.3c0.4,0.4,0.9,0.6,1.4,0.8c0.6,0.2,1.2,0.3,1.9,0.3
			c1,0,1.8-0.2,2.7-0.6c0.8-0.4,1.5-0.9,2.1-1.5c0.6-0.7,1-1.4,1.4-2.3c0.3-0.9,0.5-1.9,0.5-3v-2.1L168.9,38.4z"/>
		<path class="st0" d="M167.3,49.9c-1.1,0-2.1-0.2-3-0.5s-1.7-0.8-2.3-1.4c-0.6-0.6-1.1-1.3-1.5-2.1c-0.3-0.8-0.5-1.7-0.5-2.7
			c0-2.1,0.7-3.8,2-5.1c1.3-1.2,3.2-2,5.8-2.4l6.2-0.9c-0.1-3.6-1.5-5.4-4.4-5.4c-2.4,0-4.7,0.9-6.7,2.7l-0.8,0.7v-4.3l0.2-0.1
			c0.5-0.3,1-0.7,1.6-0.9c0.6-0.3,1.2-0.5,1.9-0.7s1.3-0.4,2-0.5s1.4-0.2,2-0.2c2.6,0,4.5,0.7,5.8,2.2c1.3,1.4,2,3.6,2,6.4v14.6H174
			v-2.8c-0.6,0.8-1.4,1.6-2.3,2.1C170.4,49.5,169,49.9,167.3,49.9z M169.6,28.5c2.4,0,5.3,1.2,5.3,6.7v0.4l-7,1
			c-2.4,0.3-4.1,1.1-5.3,2.2c-1.1,1.1-1.7,2.5-1.7,4.4c0,0.9,0.1,1.6,0.4,2.3c0.3,0.7,0.7,1.3,1.2,1.8s1.2,0.9,2,1.2
			s1.7,0.4,2.7,0.4c1.4,0,2.8-0.4,3.9-1.1c1.1-0.7,2.1-1.7,2.7-3l0.1-0.3h0.9v3.9h1.8V34.8c0-2.6-0.6-4.5-1.7-5.8
			c-1.1-1.3-2.9-1.9-5.1-1.9c-0.6,0-1.2,0.1-1.9,0.2c-0.6,0.1-1.3,0.2-1.9,0.4c-0.6,0.2-1.2,0.4-1.8,0.7c-0.5,0.2-0.9,0.4-1.3,0.7
			v1.7C165.1,29.3,167.3,28.5,169.6,28.5z M167.8,47.6c-0.8,0-1.5-0.1-2.1-0.3s-1.2-0.5-1.6-0.9c-0.4-0.4-0.8-0.9-1-1.5
			s-0.3-1.2-0.3-1.8c0-0.8,0.1-1.6,0.4-2.1c0.2-0.6,0.6-1.1,1.1-1.5s1.1-0.7,1.9-0.9c0.7-0.2,1.6-0.4,2.6-0.5l0,0L175,37v2.7
			c0,1.1-0.2,2.2-0.5,3.1c-0.4,1-0.8,1.8-1.5,2.5c-0.6,0.7-1.4,1.3-2.3,1.6C169.8,47.4,168.9,47.6,167.8,47.6z M168.9,38.8
			c-1,0.1-1.8,0.3-2.4,0.5c-0.6,0.2-1.2,0.5-1.6,0.8c-0.4,0.3-0.7,0.7-0.9,1.1c-0.2,0.5-0.3,1.1-0.3,1.8c0,0.5,0.1,1,0.3,1.4
			s0.4,0.8,0.8,1.1c0.3,0.3,0.8,0.6,1.3,0.7c0.5,0.2,1.1,0.3,1.7,0.3c0.9,0,1.7-0.2,2.5-0.5c0.7-0.3,1.4-0.8,1.9-1.4
			c0.5-0.6,1-1.3,1.3-2.2s0.5-1.8,0.5-2.8V38L168.9,38.8z"/>
	</g>
	<g>
		<path class="st0" d="M182.7,48.9V16.7h2.7v32.2H182.7z"/>
		<path class="st0" d="M185.9,49.4h-3.7V16.2h3.7V49.4z M183.1,48.5h1.8V17.2h-1.8V48.5z"/>
	</g>
	<g>
		<path class="st0" d="M201.4,44.5c0.5,0.4,1.1,0.7,1.7,1c0.6,0.3,1.2,0.6,1.9,0.8c0.6,0.2,1.3,0.4,1.9,0.5c0.7,0.1,1.3,0.2,1.9,0.2
			c2.3,0,4-0.4,5.2-1.3c1.1-0.9,1.7-2.2,1.7-3.8c0-0.8-0.1-1.5-0.4-2.1c-0.3-0.6-0.7-1.2-1.3-1.7s-1.3-1-2.1-1.6
			c-0.9-0.5-1.9-1.1-3.1-1.8c-1.3-0.7-2.4-1.4-3.3-2c-0.9-0.6-1.7-1.3-2.3-1.9c-0.6-0.7-1-1.4-1.3-2.1c-0.3-0.8-0.4-1.6-0.4-2.6
			c0-1.2,0.3-2.3,0.8-3.3s1.2-1.8,2.1-2.5c0.9-0.7,1.9-1.2,3.1-1.6c1.2-0.4,2.5-0.6,3.8-0.6c2.4,0,4.4,0.3,6,1v3.1
			c-1.8-1-3.9-1.6-6.3-1.6c-0.9,0-1.8,0.1-2.6,0.3c-0.8,0.2-1.5,0.5-2.1,1c-0.6,0.4-1.1,1-1.4,1.6c-0.3,0.6-0.5,1.4-0.5,2.2
			c0,0.8,0.1,1.5,0.4,2.1c0.2,0.6,0.6,1.1,1.1,1.6s1.2,1,2,1.5s1.9,1.1,3.1,1.7c1.3,0.7,2.4,1.3,3.3,2c0.9,0.6,1.7,1.3,2.4,2
			c0.6,0.7,1.1,1.4,1.4,2.2c0.3,0.8,0.5,1.7,0.5,2.6c0,1.3-0.2,2.5-0.7,3.5s-1.2,1.9-2.1,2.5c-0.9,0.7-2,1.2-3.2,1.5
			s-2.6,0.5-4.1,0.5c-0.5,0-1.1,0-1.7-0.1c-0.7-0.1-1.3-0.2-2-0.3s-1.3-0.3-1.9-0.5c-0.6-0.2-1.1-0.4-1.5-0.7L201.4,44.5L201.4,44.5
			z"/>
		<path class="st0" d="M208.6,49.9c-0.5,0-1.1,0-1.8-0.1s-1.4-0.2-2.1-0.3c-0.7-0.2-1.4-0.3-2-0.5s-1.2-0.5-1.6-0.7l-0.2-0.1v-4.5
			l0.8,0.6c0.5,0.4,1,0.7,1.6,1s1.2,0.5,1.8,0.7s1.3,0.3,1.9,0.5c0.6,0.1,1.2,0.2,1.8,0.2c2.2,0,3.8-0.4,4.9-1.2
			c1-0.8,1.5-1.9,1.5-3.5c0-0.7-0.1-1.4-0.4-1.9c-0.2-0.5-0.6-1.1-1.1-1.5c-0.5-0.5-1.2-1-2.1-1.5c-0.9-0.5-1.9-1.1-3-1.7
			c-1.3-0.7-2.4-1.4-3.4-2s-1.8-1.3-2.4-2c-0.6-0.7-1.1-1.5-1.4-2.3c-0.3-0.8-0.4-1.7-0.4-2.8c0-1.3,0.3-2.5,0.8-3.5
			c0.6-1,1.3-1.9,2.3-2.6c0.9-0.7,2-1.3,3.3-1.7c1.2-0.4,2.6-0.6,4-0.6c2.4,0,4.5,0.3,6.2,1l0.3,0.1v4.3l-0.7-0.4
			c-1.7-1-3.8-1.5-6.1-1.5c-0.9,0-1.7,0.1-2.4,0.3c-0.7,0.2-1.4,0.5-2,0.9c-0.5,0.4-1,0.9-1.3,1.4c-0.3,0.6-0.5,1.2-0.5,2
			c0,0.7,0.1,1.4,0.3,1.9s0.6,1,1,1.5c0.5,0.5,1.1,1,2,1.5c0.8,0.5,1.9,1.1,3.1,1.7c1.3,0.7,2.4,1.4,3.4,2c1,0.7,1.8,1.4,2.5,2.1
			c0.7,0.7,1.2,1.5,1.5,2.4c0.3,0.8,0.5,1.8,0.5,2.8c0,1.4-0.3,2.7-0.8,3.7c-0.5,1.1-1.3,2-2.2,2.7s-2.1,1.2-3.3,1.6
			C211.5,49.8,210.1,49.9,208.6,49.9z M201.9,47.5c0.3,0.2,0.7,0.3,1.2,0.5c0.6,0.2,1.2,0.4,1.9,0.5s1.3,0.3,2,0.3
			c0.6,0.1,1.2,0.1,1.7,0.1c1.4,0,2.7-0.2,3.9-0.5s2.2-0.8,3-1.4c0.8-0.6,1.5-1.4,1.9-2.3c0.5-0.9,0.7-2.1,0.7-3.3
			c0-0.9-0.1-1.7-0.4-2.5c-0.3-0.7-0.7-1.4-1.3-2.1c-0.6-0.7-1.4-1.3-2.3-1.9c-0.9-0.6-2-1.3-3.3-2c-1.2-0.6-2.3-1.2-3.1-1.7
			c-0.9-0.5-1.6-1.1-2.1-1.6c-0.6-0.6-1-1.2-1.2-1.8c-0.3-0.6-0.4-1.4-0.4-2.2c0-0.9,0.2-1.7,0.6-2.4c0.4-0.7,0.9-1.3,1.6-1.7
			c0.6-0.5,1.4-0.8,2.3-1c0.8-0.2,1.7-0.3,2.7-0.3c2.2,0,4.2,0.4,5.9,1.2v-2c-1.5-0.6-3.4-0.8-5.5-0.8c-1.3,0-2.6,0.2-3.7,0.5
			c-1.1,0.4-2.1,0.9-3,1.5c-0.8,0.6-1.5,1.4-2,2.3s-0.7,1.9-0.7,3.1c0,0.9,0.1,1.7,0.4,2.5c0.3,0.7,0.7,1.4,1.2,2
			c0.6,0.6,1.3,1.3,2.2,1.9c0.9,0.6,2,1.3,3.3,2c1.2,0.6,2.2,1.2,3.1,1.8c0.9,0.5,1.6,1.1,2.2,1.6c0.6,0.6,1.1,1.2,1.4,1.8
			c0.3,0.7,0.4,1.4,0.4,2.3c0,1.8-0.6,3.2-1.9,4.2c-1.2,1-3.1,1.4-5.5,1.4c-0.6,0-1.3-0.1-1.9-0.2c-0.7-0.1-1.3-0.3-2-0.5
			s-1.3-0.5-2-0.8c-0.3-0.2-0.7-0.4-1-0.6v2.1C202.2,47.5,201.9,47.5,201.9,47.5z"/>
	</g>
	<g>
		<path class="st0" d="M231.4,48.7c-0.9,0.5-2,0.7-3.1,0.7c-3.5,0-5.3-2-5.3-6.1V29.6h-3.8v-2.4h3.8v-5.5l2.7-0.9v6.4h5.6v2.4h-5.6
			v13.3c0,1.5,0.2,2.5,0.7,3.2s1.3,1,2.4,1c0.9,0,1.7-0.3,2.4-0.8v2.4C231.2,48.7,231.4,48.7,231.4,48.7z"/>
		<path class="st0" d="M228.3,49.9c-4.8,0-5.7-3.6-5.7-6.6V30h-3.8v-3.3h3.8v-5.4l3.7-1.2v6.6h5.6V30h-5.6v12.9
			c0,1.4,0.2,2.3,0.6,2.9c0.4,0.5,1.1,0.8,2.1,0.8c0.8,0,1.5-0.2,2.2-0.7l0.7-0.5V49l-0.3,0.1C230.6,49.6,229.5,49.9,228.3,49.9z
			 M219.7,29.1h3.8v14.2c0,3.8,1.6,5.6,4.8,5.6c0.9,0,1.8-0.2,2.6-0.5v-1.3c-0.6,0.3-1.3,0.4-2,0.4c-1.3,0-2.3-0.4-2.8-1.2
			c-0.5-0.7-0.8-1.9-0.8-3.5V29.1h5.6v-1.4h-5.6v-6.2l-1.8,0.6v5.6h-3.8V29.1z"/>
	</g>
	<g>
		<path class="st0" d="M249,48.9v-3.7h-0.1c-1.5,2.8-3.8,4.2-6.9,4.2c-5.2,0-7.8-3.2-7.8-9.5V27.2h2.7v12.3c0,2.6,0.5,4.5,1.4,5.8
			c0.9,1.2,2.3,1.9,4.3,1.9c0.9,0,1.8-0.2,2.6-0.5c0.8-0.4,1.4-0.9,2-1.5c0.6-0.7,1-1.4,1.3-2.4c0.3-0.9,0.5-1.9,0.5-3.1V27.2h2.7
			V49L249,48.9L249,48.9z"/>
		<path class="st0" d="M242.1,49.9c-5.5,0-8.2-3.3-8.2-10V26.7h3.7v12.8c0,2.5,0.4,4.3,1.3,5.5c0.8,1.1,2.1,1.7,3.9,1.7
			c0.9,0,1.7-0.2,2.4-0.5s1.3-0.8,1.8-1.4c0.5-0.6,0.9-1.4,1.2-2.2c0.3-0.9,0.4-1.8,0.4-2.9v-13h3.7v22.7h-3.7v-2.7
			C247,48.9,244.8,49.9,242.1,49.9z M234.8,27.6V40c0,6.1,2.4,9,7.3,9c2.9,0,5-1.3,6.4-4l0.1-0.3h0.8v3.7h1.8V27.6h-1.8v12
			c0,1.2-0.2,2.2-0.5,3.2s-0.8,1.8-1.4,2.5c-0.6,0.7-1.3,1.3-2.2,1.7c-0.8,0.4-1.8,0.6-2.8,0.6c-2.1,0-3.6-0.7-4.6-2.1
			c-1-1.3-1.5-3.4-1.5-6.1V27.6H234.8z"/>
	</g>
	<g>
		<path class="st0" d="M272.9,48.9v-3.8h-0.1c-0.7,1.4-1.8,2.4-3.1,3.2c-1.3,0.8-2.9,1.1-4.6,1.1c-1.4,0-2.6-0.3-3.7-0.8
			s-2.1-1.2-2.9-2.2c-0.8-0.9-1.4-2.1-1.8-3.4c-0.4-1.3-0.6-2.9-0.6-4.6c0-1.8,0.2-3.4,0.7-4.8c0.5-1.5,1.1-2.7,2-3.7
			s1.9-1.8,3.1-2.4s2.6-0.9,4.1-0.9c3.1,0,5.4,1.3,6.7,3.8h0.1V16.7h2.7v32.2H272.9z M272.9,35.8c0-0.9-0.2-1.8-0.5-2.7
			c-0.3-0.8-0.8-1.5-1.4-2.1s-1.3-1.1-2.1-1.4c-0.8-0.4-1.7-0.5-2.7-0.5c-1.1,0-2.1,0.2-3,0.6s-1.7,1-2.3,1.8
			c-0.6,0.8-1.1,1.8-1.5,2.9s-0.5,2.5-0.5,3.9s0.2,2.6,0.5,3.7c0.3,1.1,0.8,2,1.4,2.8s1.3,1.3,2.2,1.7c0.8,0.4,1.8,0.6,2.8,0.6
			c1.1,0,2.1-0.2,3-0.6c0.9-0.4,1.6-0.9,2.3-1.6c0.6-0.7,1.1-1.5,1.4-2.4s0.5-1.9,0.5-3L272.9,35.8L272.9,35.8z"/>
		<path class="st0" d="M265.2,49.9c-1.4,0-2.7-0.3-3.9-0.8c-1.2-0.5-2.2-1.3-3-2.3s-1.5-2.2-1.9-3.6c-0.4-1.4-0.7-3-0.7-4.7
			c0-1.8,0.2-3.5,0.7-5s1.2-2.8,2.1-3.9s2-1.9,3.3-2.5s2.7-0.9,4.3-0.9c2.8,0,4.9,0.9,6.3,2.8V16.2h3.7v33.2h-3.7v-2.8
			c-0.7,0.9-1.5,1.6-2.5,2.1C268.6,49.5,267,49.9,265.2,49.9z M266.1,27.1c-1.4,0-2.7,0.3-3.9,0.8c-1.2,0.5-2.2,1.3-3,2.3
			s-1.5,2.2-1.9,3.6c-0.5,1.4-0.7,3-0.7,4.7c0,1.6,0.2,3.1,0.6,4.4c0.4,1.3,1,2.4,1.8,3.3c0.7,0.9,1.6,1.6,2.7,2.1
			c1,0.5,2.2,0.7,3.5,0.7c1.6,0,3.1-0.4,4.3-1.1c1.3-0.7,2.2-1.7,2.9-3l0.1-0.3h0.8v3.8h1.8V17.2h-1.8v13.7h-0.8l-0.1-0.2
			C271.2,28.3,269.1,27.1,266.1,27.1z M265.8,47.6c-1.1,0-2.1-0.2-3-0.6c-0.9-0.4-1.7-1-2.3-1.9c-0.6-0.8-1.1-1.8-1.5-2.9
			c-0.3-1.1-0.5-2.4-0.5-3.8c0-1.5,0.2-2.9,0.6-4.1c0.4-1.2,0.9-2.2,1.6-3.1s1.5-1.5,2.5-2s2-0.7,3.2-0.7c1,0,2,0.2,2.9,0.6
			s1.6,0.9,2.2,1.6s1.1,1.4,1.5,2.3c0.3,0.9,0.5,1.8,0.5,2.8v3.6c0,1.1-0.2,2.2-0.5,3.2c-0.4,1-0.9,1.9-1.5,2.6
			c-0.7,0.7-1.5,1.3-2.4,1.8C268,47.4,266.9,47.6,265.8,47.6z M266.3,29.5c-1,0-1.9,0.2-2.8,0.6c-0.8,0.4-1.6,1-2.2,1.7
			c-0.6,0.8-1.1,1.7-1.4,2.8c-0.3,1.1-0.5,2.4-0.5,3.8c0,1.3,0.2,2.5,0.5,3.6c0.3,1,0.7,1.9,1.3,2.6c0.6,0.7,1.2,1.2,2,1.6
			c0.8,0.4,1.6,0.5,2.6,0.5s2-0.2,2.8-0.6c0.8-0.4,1.5-0.9,2.1-1.5s1-1.4,1.3-2.3c0.3-0.9,0.5-1.8,0.5-2.8v-3.6
			c0-0.9-0.2-1.7-0.5-2.5s-0.7-1.4-1.3-2c-0.5-0.6-1.2-1-1.9-1.3C268.1,29.7,267.2,29.5,266.3,29.5z"/>
	</g>
	<g>
		<path class="st0" d="M282.9,21.7c-0.5,0-1-0.2-1.4-0.6s-0.6-0.8-0.6-1.4s0.2-1,0.6-1.4s0.8-0.5,1.4-0.5c0.3,0,0.5,0,0.8,0.1
			c0.2,0.1,0.4,0.2,0.6,0.4s0.3,0.4,0.4,0.6s0.2,0.5,0.2,0.8s-0.1,0.5-0.1,0.8c-0.1,0.2-0.2,0.5-0.4,0.6c-0.2,0.2-0.4,0.3-0.6,0.4
			C283.5,21.6,283.2,21.7,282.9,21.7z M281.6,48.9V27.2h2.7V49L281.6,48.9L281.6,48.9z"/>
		<path class="st0" d="M284.8,49.4h-3.7V26.7h3.7V49.4z M282.1,48.5h1.8V27.6h-1.8V48.5z M282.9,22.1c-0.6,0-1.2-0.2-1.7-0.7
			s-0.7-1-0.7-1.7s0.2-1.3,0.7-1.7c0.5-0.4,1-0.7,1.7-0.7c0.3,0,0.6,0.1,0.9,0.2s0.6,0.3,0.8,0.5c0.2,0.2,0.4,0.5,0.5,0.8
			s0.2,0.6,0.2,1c0,0.3-0.1,0.6-0.2,0.9s-0.3,0.6-0.5,0.8c-0.2,0.2-0.5,0.4-0.8,0.5C283.6,22.1,283.3,22.1,282.9,22.1z M282.9,18.3
			c-0.4,0-0.7,0.1-1,0.4s-0.4,0.6-0.4,1s0.1,0.8,0.4,1.1c0.3,0.3,0.6,0.4,1,0.4c0.2,0,0.4,0,0.6-0.1s0.3-0.2,0.5-0.3
			c0.1-0.1,0.2-0.3,0.3-0.5c0.1-0.2,0.1-0.4,0.1-0.6s0-0.4-0.1-0.6s-0.2-0.3-0.3-0.5c-0.1-0.1-0.3-0.2-0.5-0.3
			C283.3,18.3,283.1,18.3,282.9,18.3z"/>
	</g>
	<g>
		<path class="st0" d="M299.1,49.5c-1.6,0-3.1-0.3-4.3-0.8c-1.3-0.5-2.4-1.3-3.3-2.3s-1.6-2.2-2.1-3.5c-0.5-1.4-0.7-2.9-0.7-4.6
			c0-1.8,0.3-3.4,0.8-4.9c0.5-1.4,1.2-2.6,2.2-3.6c0.9-1,2.1-1.8,3.4-2.3s2.8-0.8,4.5-0.8c1.6,0,3,0.3,4.3,0.8s2.3,1.3,3.2,2.2
			c0.9,1,1.6,2.2,2,3.6c0.5,1.4,0.7,3,0.7,4.8c0,1.7-0.2,3.2-0.7,4.6c-0.5,1.4-1.2,2.6-2.1,3.6s-2,1.8-3.3,2.3
			C302.3,49.2,300.8,49.5,299.1,49.5z M299.4,29c-1.2,0-2.3,0.2-3.2,0.6c-1,0.4-1.8,1-2.5,1.8c-0.7,0.8-1.2,1.8-1.6,2.9
			s-0.6,2.4-0.6,3.9c0,1.4,0.2,2.6,0.6,3.7c0.4,1.1,0.9,2,1.6,2.8s1.5,1.4,2.5,1.8c1,0.4,2,0.6,3.2,0.6s2.3-0.2,3.2-0.6
			c0.9-0.4,1.7-1,2.4-1.8c0.7-0.8,1.1-1.7,1.5-2.8c0.3-1.1,0.5-2.4,0.5-3.8c0-2.9-0.7-5.2-2-6.7C303.6,29.8,301.8,29,299.4,29z"/>
		<path class="st0" d="M299.1,49.9c-1.7,0-3.2-0.3-4.5-0.8c-1.3-0.6-2.5-1.4-3.4-2.4s-1.7-2.3-2.2-3.7s-0.7-3-0.7-4.7
			c0-1.9,0.3-3.6,0.8-5c0.5-1.5,1.3-2.8,2.3-3.8s2.2-1.9,3.6-2.4s2.9-0.8,4.6-0.8c1.6,0,3.1,0.3,4.4,0.8s2.5,1.3,3.4,2.4
			c0.9,1,1.6,2.3,2.1,3.7s0.7,3.1,0.7,4.9c0,1.7-0.3,3.4-0.8,4.8c-0.5,1.4-1.2,2.7-2.2,3.8c-0.9,1.1-2.1,1.9-3.5,2.5
			C302.4,49.6,300.9,49.9,299.1,49.9z M299.5,27.1c-1.6,0-3,0.3-4.3,0.8s-2.4,1.2-3.2,2.2c-0.9,0.9-1.6,2.1-2.1,3.5
			c-0.5,1.4-0.7,3-0.7,4.7c0,1.6,0.2,3.1,0.7,4.4c0.5,1.3,1.1,2.4,2,3.4c0.9,0.9,1.9,1.7,3.1,2.2s2.6,0.8,4.2,0.8s3-0.3,4.2-0.8
			s2.3-1.3,3.1-2.2c0.9-1,1.5-2.1,2-3.4c0.5-1.3,0.7-2.8,0.7-4.5s-0.2-3.3-0.7-4.6c-0.4-1.3-1.1-2.5-1.9-3.4s-1.8-1.6-3-2.1
			C302.4,27.4,301,27.1,299.5,27.1z M299.3,47.6c-1.3,0-2.4-0.2-3.4-0.7c-1-0.4-1.9-1.1-2.6-1.9c-0.7-0.8-1.3-1.8-1.7-3
			c-0.4-1.1-0.6-2.4-0.6-3.8c0-1.5,0.2-2.8,0.6-4s1-2.2,1.7-3.1c0.7-0.8,1.6-1.5,2.6-1.9s2.2-0.7,3.4-0.7c2.6,0,4.6,0.8,6,2.5
			c1.4,1.6,2.1,4,2.1,7c0,1.5-0.2,2.8-0.5,4c-0.4,1.2-0.9,2.2-1.6,3s-1.6,1.5-2.6,1.9C301.7,47.4,300.6,47.6,299.3,47.6z
			 M299.4,29.5c-1.1,0-2.1,0.2-3,0.6s-1.7,0.9-2.3,1.7c-0.6,0.7-1.1,1.7-1.5,2.7c-0.4,1.1-0.5,2.3-0.5,3.7c0,1.3,0.2,2.5,0.5,3.5
			s0.8,1.9,1.5,2.6c0.6,0.7,1.4,1.3,2.3,1.7s1.9,0.6,3,0.6s2.2-0.2,3-0.6c0.9-0.4,1.6-0.9,2.2-1.6c0.6-0.7,1.1-1.6,1.4-2.7
			c0.3-1.1,0.5-2.3,0.5-3.7c0-2.8-0.6-5-1.8-6.4C303.4,30.2,301.7,29.5,299.4,29.5z"/>
	</g>
</g>
</svg>
