<?xml version="1.0" encoding="utf-8"?>
<!-- Generator: Adobe Illustrator 19.2.1, SVG Export Plug-In . SVG Version: 6.00 Build 0)  -->
<svg version="1.1" id="Layer_2" xmlns="http://www.w3.org/2000/svg" xmlns:xlink="http://www.w3.org/1999/xlink" x="0px" y="0px"
	 width="360px" height="89px" viewBox="0 0 360 89" style="enable-background:new 0 0 360 89;" xml:space="preserve">
<style type="text/css">
	.st0{fill:#000000;}
	.st1{fill:#EB1D24;}
</style>
<rect x="144.8" y="25.1" class="st0" width="15.2" height="50.8"/>
<polygon class="st0" points="21.3,25.1 5.4,25.1 22.9,75.9 39.4,75.9 57,25.1 41.1,25.1 31.2,57.7 "/>
<rect x="144.8" y="7.3" class="st0" width="15.2" height="13.8"/>
<polygon class="st0" points="164.6,37.4 164.6,25.1 206.6,25.1 206.6,36.9 182.9,63.6 207.6,63.6 207.6,75.9 164.6,75.9 164.6,64.1 
	188.3,37.4 "/>
<path class="st0" d="M235,66c-7.4,0-11.1-6.8-11.1-15.1c0-11.5,5-15.7,11.1-15.7s11.1,4.1,11.1,15.7C246.1,59.3,242.5,66,235,66z
	 M235,23.9c-15,0-27.1,12-27.1,26.7S220,77.3,235,77.3s27.1-12,27.1-26.7S249.9,23.9,235,23.9z"/>
<path class="st0" d="M280,33c1.4-2.5,3.2-4.7,5.6-6.2c6-4,14.4-3.8,20.4,0.1c5.1,3.4,7.1,9.3,7.1,15.2v33.8h-15.2V45.1
	c0-2.4-0.7-4.8-2.5-6.4c-1.5-1.4-3.7-2.1-5.8-2c-4.4,0.1-7.7,3.6-8.7,7.7c-0.5,1.8-0.4,3.7-0.4,5.6c0,1.6,0,3.3,0,4.9c0,2,0,4,0,6
	s0,4.1,0,6.1c0,1.7,0,3.4,0,5.1c0,1.1,0,2.1,0,3.2c0,0.2,0,0.4,0,0.6h-15.2V25.1h14.8C280,25.1,280,33,280,33z"/>
<polygon class="st1" points="320.8,25.1 313.2,25.1 324.9,50.6 331.3,50.6 354.7,0 347.1,0 328.1,40.9 "/>
<path class="st0" d="M140.3,25.5c0,0-11-3.2-16.7,8.5v-8.9h-14.8v50.8H124c0-0.2,0-0.4,0-0.6c0-1.1,0-2.1,0-3.2c0-1.7,0-3.4,0-5.1
	c0-2,0-4.1,0-6.1s0-4,0-6c0-20.2,16.2-16.2,16.2-16.2V25.5H140.3z"/>
<path class="st0" d="M68.9,44.9c0-5,4.4-10,10.5-10s10.1,5.1,10.1,10H68.9z M105.1,54.6c0-20.6-9.9-30.9-25.7-30.9
	c-14.2,0-25.7,12-25.7,26.7c0,16.1,11.5,26.7,25.7,26.7c19.9,0,24.8-13.4,24.8-16.5H89.5c0,0-1.8,5.4-8.9,5.4c-7.4,0-11-5-12-11.5
	L105.1,54.6z"/>
</svg>
