<?xml version="1.0" encoding="utf-8"?>
<!-- Generator: Adobe Illustrator 28.3.0, SVG Export Plug-In . SVG Version: 6.00 Build 0)  -->
<svg version="1.1" id="Layer_1" xmlns="http://www.w3.org/2000/svg" xmlns:xlink="http://www.w3.org/1999/xlink" x="0px" y="0px"
	 viewBox="0 0 329 68" style="enable-background:new 0 0 329 68;" xml:space="preserve">
<style type="text/css">
	.st0{fill:#e0a070;}
</style>
<g>
	<g>
		<path class="st0" d="M92.7,51.7v-32h15.6v2.7H95.7v11.7h11.7v2.7H95.7V49H109v2.7H92.7z"/>
		<path class="st0" d="M109.7,52.4H92V19h17v4.1H96.4v10.4H108v4H96.4v10.8h13.3C109.7,48.3,109.7,52.4,109.7,52.4z M93.4,51h14.9
			v-1.3H95V36.1h11.7v-1.3H95V21.7h12.6v-1.4H93.4V51z"/>
	</g>
	<g>
		<path class="st0" d="M123.9,40.4l7.5,11.2H128l-4.6-7.6c-0.2-0.3-0.4-0.6-0.5-0.9c-0.2-0.3-0.4-0.6-0.6-1h-0.1
			c-0.1,0.1-0.2,0.3-0.3,0.6c-0.2,0.2-0.3,0.6-0.6,0.9l-5,7.9h-3.4l7.7-11.2l-7.5-11.7h3.3l4.7,8c0.2,0.4,0.4,0.8,0.6,1.1
			s0.3,0.6,0.4,0.8h0.1c0.2-0.3,0.4-0.6,0.5-0.9c0.2-0.3,0.3-0.6,0.5-0.9l5-8.1h3.2L123.9,40.4z"/>
		<path class="st0" d="M132.7,52.4h-5.1l-4.8-7.9c-0.2-0.3-0.4-0.6-0.5-0.9c0,0,0,0,0-0.1c-0.1,0.2-0.2,0.4-0.4,0.6l-5.2,8.2h-5
			l8.2-11.9L112,28.1h5l4.9,8.3c0.2,0.3,0.4,0.7,0.6,1c0.2-0.3,0.3-0.5,0.5-0.8l5.2-8.5h4.9l-8.2,12.3L132.7,52.4z M128.4,51h1.8
			l-7-10.6l7.3-10.9h-1.6l-4.8,7.8c-0.2,0.3-0.3,0.6-0.5,0.9c-0.2,0.3-0.4,0.6-0.6,0.9l-0.2,0.3H122l-0.2-0.3
			c-0.1-0.2-0.3-0.5-0.4-0.8c-0.2-0.3-0.4-0.7-0.6-1.1l-4.6-7.7h-1.7l7,11L114.2,51h1.7l4.8-7.6c0.2-0.4,0.4-0.7,0.6-0.9
			c0.1-0.2,0.2-0.4,0.3-0.5l0.2-0.4h0.9l0.2,0.3c0.2,0.3,0.4,0.6,0.6,0.9c0.2,0.3,0.4,0.6,0.5,0.9L128.4,51z"/>
	</g>
	<g>
		<path class="st0" d="M139.5,48v14.2h-2.9V28.8h2.9v4.4h0.1c0.8-1.6,2-2.8,3.4-3.6c1.4-0.8,3-1.3,4.8-1.3c1.5,0,2.8,0.3,3.9,0.8
			c1.2,0.5,2.1,1.3,2.9,2.2c0.8,1,1.4,2.1,1.8,3.5c0.4,1.4,0.6,2.9,0.6,4.7c0,1.9-0.2,3.6-0.7,5.2c-0.5,1.6-1.2,2.9-2.1,4
			c-0.9,1.1-2,2-3.2,2.6c-1.3,0.6-2.7,0.9-4.3,0.9C143.6,52.2,141.2,50.8,139.5,48L139.5,48z M139.5,42.2c0,1,0.2,2,0.5,2.9
			s0.8,1.7,1.5,2.4c0.6,0.7,1.4,1.2,2.3,1.6c0.9,0.4,1.9,0.6,2.9,0.6c1.1,0,2.2-0.2,3.1-0.7c0.9-0.5,1.7-1.2,2.4-2.1
			c0.6-0.9,1.1-2,1.5-3.2c0.3-1.3,0.5-2.7,0.5-4.2c0-1.3-0.2-2.5-0.5-3.6s-0.8-2-1.4-2.8c-0.6-0.8-1.3-1.3-2.2-1.7
			c-0.9-0.4-1.8-0.6-2.9-0.6c-1.2,0-2.3,0.2-3.2,0.7c-1,0.4-1.8,1-2.4,1.8c-0.7,0.8-1.2,1.6-1.5,2.7c-0.4,1-0.5,2.1-0.5,3.2v3H139.5
			z"/>
		<path class="st0" d="M140.2,62.9H136V28.2h4.2v2.9c0.7-0.9,1.5-1.6,2.5-2.1c1.5-0.9,3.3-1.4,5.2-1.4c1.5,0,3,0.3,4.2,0.9
			s2.3,1.4,3.2,2.4c0.8,1,1.5,2.3,2,3.8c0.4,1.4,0.7,3.1,0.7,4.9c0,1.9-0.3,3.8-0.7,5.4c-0.5,1.6-1.2,3.1-2.2,4.2
			c-1,1.2-2.1,2.1-3.5,2.8s-2.9,1-4.6,1c-2.7,0-5-1-6.6-2.9v12.8H140.2z M137.4,61.5h1.5V47.3h1.2l0.2,0.3c1.5,2.6,3.6,3.9,6.6,3.9
			c1.5,0,2.8-0.3,4-0.9c1.2-0.6,2.2-1.4,3-2.4s1.5-2.3,1.9-3.8c0.5-1.5,0.7-3.2,0.7-5c0-1.6-0.2-3.1-0.6-4.5c-0.4-1.3-1-2.4-1.7-3.3
			c-0.7-0.9-1.6-1.6-2.7-2.1c-1.1-0.5-2.3-0.7-3.6-0.7c-1.7,0-3.2,0.4-4.5,1.2c-1.3,0.8-2.4,1.9-3.1,3.4l-0.2,0.4h-1.2v-4.4h-1.5
			L137.4,61.5L137.4,61.5z M146.7,50.4c-1.2,0-2.2-0.2-3.2-0.7c-1-0.4-1.8-1-2.5-1.8s-1.2-1.6-1.6-2.6c-0.4-1-0.6-2.1-0.6-3.2v-3
			c0-1.2,0.2-2.4,0.6-3.5c0.4-1.1,0.9-2.1,1.7-2.9c0.7-0.8,1.6-1.5,2.7-2c1-0.5,2.2-0.7,3.5-0.7c1.2,0,2.2,0.2,3.2,0.7
			c0.9,0.4,1.8,1.1,2.4,1.9c0.7,0.8,1.2,1.8,1.5,3c0.3,1.1,0.5,2.4,0.5,3.8c0,1.6-0.2,3.1-0.5,4.4c-0.4,1.3-0.9,2.5-1.6,3.5
			c-0.7,1-1.6,1.7-2.6,2.3C149.1,50.2,148,50.4,146.7,50.4z M147.3,31.5c-1.1,0-2.1,0.2-2.9,0.6c-0.9,0.4-1.6,0.9-2.2,1.6
			c-0.6,0.7-1.1,1.5-1.4,2.4c-0.3,0.9-0.5,2-0.5,3v3c0,1,0.2,1.9,0.5,2.7s0.8,1.6,1.3,2.2c0.6,0.6,1.2,1.1,2,1.5s1.7,0.5,2.7,0.5
			s2-0.2,2.8-0.6c0.8-0.4,1.5-1.1,2.1-1.9c0.6-0.8,1.1-1.8,1.4-3c0.3-1.2,0.5-2.6,0.5-4.1c0-1.3-0.2-2.4-0.5-3.4s-0.7-1.8-1.3-2.5
			c-0.5-0.7-1.2-1.2-1.9-1.5C149.1,31.6,148.2,31.5,147.3,31.5z"/>
	</g>
	<g>
		<path class="st0" d="M164.9,40.8c0,1.4,0.2,2.7,0.6,3.8c0.4,1.1,0.9,2.1,1.5,2.8c0.7,0.8,1.5,1.4,2.4,1.8c1,0.4,2,0.6,3.2,0.6
			c2.6,0,5-0.9,7.3-2.7v2.8c-2.2,1.6-4.8,2.3-7.9,2.3c-1.5,0-2.9-0.3-4.2-0.8s-2.3-1.3-3.2-2.3s-1.6-2.3-2-3.8
			c-0.5-1.5-0.7-3.2-0.7-5.1c0-1.7,0.3-3.3,0.8-4.7c0.5-1.5,1.2-2.7,2.2-3.8c0.9-1.1,2-1.9,3.3-2.5s2.6-0.9,4.1-0.9s2.8,0.3,3.9,0.8
			c1.1,0.5,2.1,1.2,2.8,2.2c0.8,1,1.3,2.1,1.8,3.5c0.4,1.4,0.6,2.9,0.6,4.6v1.4C181.4,40.8,164.9,40.8,164.9,40.8z M178.5,38.3
			c0-2.4-0.6-4.2-1.7-5.5c-1.1-1.3-2.6-2-4.5-2c-1,0-1.9,0.2-2.7,0.5s-1.5,0.8-2.2,1.5c-0.6,0.6-1.1,1.4-1.5,2.4
			c-0.4,0.9-0.7,2-0.9,3.1H178.5z"/>
		<path class="st0" d="M172.1,52.9c-1.6,0-3.1-0.3-4.4-0.9c-1.3-0.6-2.5-1.4-3.4-2.5s-1.7-2.4-2.2-4c-0.5-1.5-0.7-3.3-0.7-5.3
			c0-1.8,0.3-3.5,0.8-5s1.3-2.9,2.3-4c1-1.1,2.2-2,3.5-2.7c1.3-0.6,2.8-1,4.4-1c1.6,0,3,0.3,4.2,0.8c1.2,0.6,2.3,1.4,3.1,2.4
			s1.4,2.3,1.9,3.7c0.4,1.4,0.6,3,0.6,4.8v2.1h-16.5c0.1,1.1,0.2,2,0.5,2.9c0.3,1,0.8,1.9,1.4,2.6c0.6,0.7,1.3,1.2,2.2,1.6
			c0.9,0.4,1.9,0.6,3,0.6c2.4,0,4.7-0.9,6.9-2.6l1.1-0.9v4.6l-0.3,0.2C178.1,52.1,175.3,52.9,172.1,52.9z M172.3,29
			c-1.4,0-2.7,0.3-3.9,0.8c-1.2,0.6-2.2,1.3-3.1,2.3c-0.9,1-1.5,2.2-2,3.6c-0.5,1.4-0.7,2.9-0.7,4.5c0,1.8,0.2,3.5,0.7,4.9
			c0.4,1.4,1.1,2.6,1.9,3.5c0.8,0.9,1.8,1.7,2.9,2.1c1.2,0.5,2.5,0.7,3.9,0.7c2.8,0,5.3-0.7,7.3-2v-1.1c-2.1,1.4-4.3,2.1-6.6,2.1
			c-1.3,0-2.5-0.2-3.5-0.7c-1.1-0.4-2-1.1-2.7-2c-0.7-0.8-1.3-1.9-1.7-3.1c-0.4-1.2-0.6-2.5-0.6-4v-0.7h16.5v-0.7
			c0-1.6-0.2-3.1-0.6-4.4c-0.4-1.3-0.9-2.4-1.6-3.2c-0.7-0.9-1.6-1.5-2.6-2C174.9,29.2,173.7,29,172.3,29z M179.2,39h-15l0.1-0.8
			c0.2-1.2,0.5-2.3,0.9-3.3s1-1.9,1.7-2.6c0.7-0.7,1.5-1.3,2.4-1.6c0.9-0.4,1.9-0.6,2.9-0.6c2.1,0,3.8,0.7,5.1,2.2
			c1.2,1.4,1.8,3.4,1.9,6L179.2,39z M165.8,37.6h12c-0.1-1.9-0.6-3.4-1.5-4.4c-1-1.2-2.3-1.7-4-1.7c-0.9,0-1.7,0.2-2.4,0.5
			s-1.4,0.8-1.9,1.3c-0.6,0.6-1,1.3-1.4,2.2C166.2,36.1,166,36.8,165.8,37.6z"/>
	</g>
	<g>
		<path class="st0" d="M199,31.8c-0.7-0.5-1.5-0.7-2.6-0.7c-0.8,0-1.4,0.1-2,0.4s-1.1,0.7-1.5,1.2s-0.8,1.1-1.1,1.7
			c-0.3,0.6-0.6,1.3-0.7,2c-0.2,0.7-0.3,1.4-0.4,2.1c-0.1,0.7-0.1,1.4-0.1,2v11.2h-2.8V28.8h2.8v4.9h0.1c0.3-0.8,0.6-1.6,1-2.2
			c0.4-0.7,0.9-1.2,1.4-1.7s1.1-0.8,1.8-1c0.6-0.2,1.3-0.4,2-0.4c0.5,0,0.9,0,1.2,0.1c0.4,0.1,0.7,0.1,1,0.3L199,31.8L199,31.8z"/>
		<path class="st0" d="M191.2,52.4H187V28.2h4.2v2.7c0.4-0.6,0.9-1.1,1.4-1.6c0.6-0.5,1.2-0.9,2-1.2c0.7-0.3,1.5-0.4,2.2-0.4
			c0.5,0,0.9,0,1.3,0.1c0.4,0.1,0.8,0.2,1.1,0.3l0.4,0.2v4.8l-1.1-0.8c-0.5-0.4-1.3-0.6-2.2-0.6c-0.6,0-1.2,0.1-1.7,0.4
			s-0.9,0.6-1.3,1c-0.4,0.4-0.7,1-1,1.5c-0.3,0.6-0.5,1.2-0.7,1.9s-0.3,1.3-0.4,2c-0.1,0.7-0.1,1.3-0.1,2v11.9H191.2z M188.4,51h1.5
			V40.5c0-0.7,0-1.4,0.1-2.1c0.1-0.7,0.2-1.5,0.4-2.2c0.2-0.6,0.4-1.2,0.6-1.8h-1.2v-4.9h-1.5L188.4,51L188.4,51z M196.8,29.1
			c-0.6,0-1.2,0.1-1.8,0.3c-0.6,0.2-1.1,0.5-1.5,0.9c-0.5,0.4-0.9,0.9-1.3,1.5c-0.3,0.6-0.6,1.2-0.9,1.9c0.3-0.6,0.7-1.1,1.1-1.5
			c0.5-0.6,1.1-1,1.7-1.3c0.7-0.3,1.5-0.5,2.3-0.5c0.7,0,1.3,0.1,1.9,0.3v-1.4c-0.1,0-0.3-0.1-0.4-0.1
			C197.6,29.1,197.2,29.1,196.8,29.1z"/>
	</g>
	<g>
		<path class="st0" d="M215,51.4c-1,0.5-2.1,0.7-3.2,0.7c-3.7,0-5.5-2.1-5.5-6.4V31.3h-4v-2.5h4V23l2.9-0.9v6.7h5.9v2.5h-5.9v14
			c0,1.5,0.3,2.7,0.8,3.3c0.5,0.7,1.4,1,2.6,1c0.9,0,1.7-0.3,2.6-0.8v2.6H215z"/>
		<path class="st0" d="M211.8,52.8c-2.8,0-6.2-1.2-6.2-7.1V32h-4v-3.9h4v-5.6l4.2-1.4V28h5.9v4h-5.9v13.3c0,1.4,0.2,2.4,0.6,2.9
			c0.4,0.5,1,0.7,2,0.7c0.8,0,1.5-0.2,2.2-0.7l1.1-0.7v4.2l-0.4,0.2C214.2,52.5,213.1,52.8,211.8,52.8z M202.9,30.7h4v15.1
			c0,3.9,1.5,5.7,4.8,5.7c0.9,0,1.7-0.2,2.5-0.5v-1c-0.6,0.2-1.2,0.4-1.9,0.4c-1.4,0-2.5-0.4-3.1-1.3c-0.6-0.8-0.9-2-0.9-3.7V30.7
			h5.9v-1.1h-5.9v-6.4l-1.5,0.5v5.9h-4L202.9,30.7L202.9,30.7z"/>
	</g>
</g>
<g>
	<path class="st0" d="M227.5,49h19.2v2.8h-23.8v-0.9l19.5-29.2h-18v-2.8h22.7v0.8L227.5,49z"/>
	<path class="st0" d="M258.7,52.4c-1.7,0-3.3-0.3-4.7-0.9c-1.4-0.6-2.6-1.4-3.5-2.5c-1-1.1-1.7-2.3-2.2-3.8s-0.8-3.1-0.8-4.9
		c0-2,0.3-3.7,0.8-5.3c0.6-1.5,1.3-2.9,2.4-3.9c1-1.1,2.2-1.9,3.7-2.5c1.4-0.6,3-0.8,4.8-0.8c1.7,0,3.2,0.3,4.6,0.8
		c1.4,0.6,2.5,1.4,3.5,2.4s1.7,2.3,2.2,3.9c0.5,1.5,0.8,3.2,0.8,5.2c0,1.8-0.3,3.5-0.8,5s-1.3,2.8-2.3,3.9c-1,1.1-2.2,1.9-3.6,2.5
		C262,52.1,260.4,52.4,258.7,52.4z M258.9,30.3c-1.3,0-2.4,0.2-3.5,0.7c-1,0.4-1.9,1.1-2.7,1.9c-0.7,0.8-1.3,1.9-1.7,3.1
		c-0.4,1.2-0.6,2.6-0.6,4.2c0,1.5,0.2,2.8,0.6,4c0.4,1.2,1,2.2,1.7,3s1.6,1.5,2.6,1.9c1,0.5,2.2,0.7,3.5,0.7s2.5-0.2,3.5-0.7
		s1.9-1.1,2.6-1.9c0.7-0.8,1.2-1.9,1.6-3.1c0.4-1.2,0.5-2.6,0.5-4.1c0-3.2-0.7-5.6-2.1-7.3C263.5,31.2,261.5,30.3,258.9,30.3z"/>
	<path class="st0" d="M288.5,51.8V38.3c0-5.3-1.9-8-5.8-8c-1,0-2,0.2-2.8,0.6c-0.9,0.4-1.6,1-2.3,1.7c-0.6,0.7-1.1,1.6-1.5,2.6
		s-0.5,2.1-0.5,3.2v13.4h-2.9V28.3h2.9v4.1h0.1c1.7-3.1,4.4-4.6,7.9-4.6c2.6,0,4.5,0.8,5.9,2.5c1.3,1.7,2,4.1,2,7.2v14.3
		C291.5,51.8,288.5,51.8,288.5,51.8z"/>
	<path class="st0" d="M296.6,40.6c0,1.4,0.2,2.7,0.6,3.9c0.4,1.1,0.9,2.1,1.6,2.9c0.7,0.8,1.5,1.4,2.5,1.8c1,0.4,2.1,0.6,3.3,0.6
		c2.6,0,5.1-0.9,7.5-2.8v3c-2.2,1.6-5,2.4-8.2,2.4c-1.6,0-3-0.3-4.3-0.8c-1.3-0.6-2.4-1.3-3.3-2.4c-0.9-1-1.6-2.3-2.1-3.9
		c-0.5-1.5-0.7-3.3-0.7-5.2c0-1.8,0.3-3.4,0.8-4.9s1.3-2.8,2.2-3.9c0.9-1.1,2.1-1.9,3.4-2.6c1.3-0.6,2.7-0.9,4.3-0.9
		c1.5,0,2.9,0.3,4,0.8c1.2,0.5,2.1,1.3,2.9,2.3s1.4,2.2,1.8,3.6s0.6,3,0.6,4.7v1.5L296.6,40.6L296.6,40.6z M310.6,38
		c0-2.4-0.6-4.3-1.7-5.7c-1.1-1.3-2.7-2-4.7-2c-1,0-1.9,0.2-2.8,0.5c-0.8,0.4-1.6,0.9-2.2,1.5c-0.6,0.7-1.2,1.5-1.6,2.4
		c-0.4,1-0.7,2-0.9,3.2L310.6,38L310.6,38z"/>
</g>
<path class="st0" d="M76.3,64.8H14.2V2.7h62.1C76.3,2.7,76.3,64.8,76.3,64.8z M42.7,45.8v-2h-13v-8.9h13v-2h-13v-8.6h13v-2H27.5
	v23.3h15.2V45.8z M63.7,22.5H46.8v2h12.7L45.7,45.8h17.7v-2H49.8L63.7,22.5z"/>
</svg>
