<?xml version="1.0" encoding="UTF-8"?>
<svg id="Layer_1" xmlns="http://www.w3.org/2000/svg" version="1.1" viewBox="0 0 73.5 159">
  <!-- Generator: Adobe Illustrator 29.2.1, SVG Export Plug-In . SVG Version: 2.1.0 Build 116)  -->
  <defs>
    <style>
      .st0 {
        fill: #3a3a3a;
      }
    </style>
  </defs>
  <g>
    <path class="st0" d="M43.9,36.7c0-3.9-3.2-7.1-7.1-7.1s-7.1,3.2-7.1,7.1,3.2,7.1,7.1,7.1,7.1-3.2,7.1-7.1h0Z"/>
    <path class="st0" d="M72.5,36.7c0-3.9-3.2-7.1-7.1-7.1s-7.1,3.2-7.1,7.1,3.2,7.1,7.1,7.1,7.1-3.2,7.1-7.1h0Z"/>
    <path class="st0" d="M15.3,36.7c0-3.9-3.2-7.1-7.1-7.1s-7.1,3.2-7.1,7.1,3.2,7.1,7.1,7.1,7.1-3.2,7.1-7.1h0Z"/>
    <path class="st0" d="M15.3,8.1c0-3.9-3.2-7.1-7.1-7.1S1,4.2,1,8.1s3.2,7.1,7.1,7.1,7.1-3.2,7.1-7.1h0Z"/>
    <path class="st0" d="M65.3,15.3c3.9,0,7.1-3.2,7.1-7.1s-3.2-7.1-7.1-7.1c-7.1,0-7.1,6.2-14.3,6.2S43.9,1,36.7,1s-7.1,3.2-7.1,7.1,3.2,7.1,7.1,7.1c7.1,0,7.1-6.2,14.3-6.2s7.1,6.2,14.3,6.2Z"/>
  </g>
  <g>
    <path class="st0" d="M72.5,65.2c0-3.9-3.2-7.1-7.1-7.1s-7.1,3.2-7.1,7.1,3.2,7.1,7.1,7.1,7.1-3.2,7.1-7.1h0Z"/>
    <path class="st0" d="M15.3,65.2c0-3.9-3.2-7.1-7.1-7.1s-7.1,3.2-7.1,7.1,3.2,7.1,7.1,7.1,7.1-3.2,7.1-7.1h0Z"/>
    <path class="st0" d="M43.9,93.7c0-3.9-3.2-7.1-7.1-7.1s-7.1,3.2-7.1,7.1,3.2,7.1,7.1,7.1,7.1-3.2,7.1-7.1h0Z"/>
    <path class="st0" d="M15.3,93.7c0-3.9-3.2-7.1-7.1-7.1s-7.1,3.2-7.1,7.1,3.2,7.1,7.1,7.1,7.1-3.2,7.1-7.1h0Z"/>
    <path class="st0" d="M65.3,100.9c3.9,0,7.1-3.2,7.1-7.1s-.9-4-2.4-5.3h0c-5.1-5.1-12.3-3.5-17.4-8.6l-2.7-2.7c-5.1-5.1-3.5-12.3-8.6-17.4h0c-1.3-1.1-2.9-1.8-4.8-1.8-3.9,0-7.1,3.2-7.1,7.1s1.5,5,3.6,6.2c4.9,3.3,11.1,2.6,15.6,7.1l2.7,2.7c5.1,5.1,3.5,12.3,8.6,17.4h0c1.3,1.4,3.2,2.3,5.3,2.3Z"/>
  </g>
  <g>
    <path class="st0" d="M72.5,150.8c0-3.9-3.2-7.1-7.1-7.1s-7.1,3.2-7.1,7.1,3.2,7.1,7.1,7.1,7.1-3.2,7.1-7.1h0Z"/>
    <path class="st0" d="M15.3,150.8c0-3.9-3.2-7.1-7.1-7.1s-7.1,3.2-7.1,7.1,3.2,7.1,7.1,7.1,7.1-3.2,7.1-7.1h0Z"/>
    <path class="st0" d="M43.9,122.3c0-3.9-3.2-7.1-7.1-7.1s-7.1,3.2-7.1,7.1,3.2,7.1,7.1,7.1,7.1-3.2,7.1-7.1h0Z"/>
    <path class="st0" d="M36.8,158c1.5,0,2.8-.5,3.9-1.2,0,0,0,0,0,0,.3-.2.6-.4.8-.7,0,0,.2-.2.3-.2,0,0,.1-.1.2-.2h0c5.1-5,.4-9.1,8.6-17.3l2.7-2.7c5.1-5.1,12.3-3.5,17.4-8.6h0c1.4-1.7,2.2-3.9,1.7-6.3-.6-2.8-2.9-5-5.6-5.5s-6.1,1-7.6,3.5c-3.3,4.9-2.6,11.1-7.1,15.6l-2.7,2.7c-1.5,1.5-3.2,2.4-4.9,3.1-4.8,1.9-10.3,1.9-15.1,0-1.8-.7-3.5-1.6-5.1-3.1l-2.7-2.7c-5.1-5.1-3.5-12.3-8.6-17.4h0c-1.6-1.4-3.9-2.1-6.3-1.6-2.8.6-5,2.9-5.5,5.6s1,6.1,3.5,7.6c4.9,3.3,11.1,2.6,15.6,7.1l2.7,2.7c6.9,6.9,3.5,12.3,8.6,17.4h0c1.3,1.4,3.2,2.4,5.3,2.4Z"/>
  </g>
</svg>