<?xml version="1.0" encoding="UTF-8"?>
<svg id="Layer_1" xmlns="http://www.w3.org/2000/svg" version="1.1" viewBox="0 0 251.1 34">
  <defs>
    <style>
      .st0 {
        fill: #3a3a3a;
      }
    </style>
  </defs>
  <path class="st0" d="M4.2,1c-1.8,0-3.2,1.4-3.2,3.2s1.4,3.2,3.2,3.2,3.2-1.4,3.2-3.2-1.4-3.2-3.2-3.2h0Z"/>
  <path class="st0" d="M17,13.8c-1.8,0-3.2,1.4-3.2,3.2s1.4,3.2,3.2,3.2,3.2-1.4,3.2-3.2-1.4-3.2-3.2-3.2h0Z"/>
  <path class="st0" d="M17,26.6c-1.8,0-3.2,1.4-3.2,3.2s1.4,3.2,3.2,3.2,3.2-1.4,3.2-3.2-1.4-3.2-3.2-3.2h0Z"/>
  <path class="st0" d="M29.7,13.8c-1.8,0-3.2,1.4-3.2,3.2s1.4,3.2,3.2,3.2,3.2-1.4,3.2-3.2-1.4-3.2-3.2-3.2h0Z"/>
  <path class="st0" d="M29.7,26.6c-1.8,0-3.2,1.4-3.2,3.2s1.4,3.2,3.2,3.2,3.2-1.4,3.2-3.2-1.4-3.2-3.2-3.2h0Z"/>
  <path class="st0" d="M42.5,1c-1.8,0-3.2,1.4-3.2,3.2s1.4,3.2,3.2,3.2,3.2-1.4,3.2-3.2-1.4-3.2-3.2-3.2h0Z"/>
  <path class="st0" d="M42.5,26.6c-1.8,0-3.2,1.4-3.2,3.2s1.4,3.2,3.2,3.2,3.2-1.4,3.2-3.2-1.4-3.2-3.2-3.2h0Z"/>
  <path class="st0" d="M68.1,1c-1.8,0-3.2,1.4-3.2,3.2s1.4,3.2,3.2,3.2,3.2-1.4,3.2-3.2-1.4-3.2-3.2-3.2h0Z"/>
  <path class="st0" d="M68.1,13.8c-1.8,0-3.2,1.4-3.2,3.2s1.4,3.2,3.2,3.2,3.2-1.4,3.2-3.2-1.4-3.2-3.2-3.2h0Z"/>
  <path class="st0" d="M80.8,13.8c-1.8,0-3.2,1.4-3.2,3.2s1.4,3.2,3.2,3.2,3.2-1.4,3.2-3.2-1.4-3.2-3.2-3.2h0Z"/>
  <path class="st0" d="M80.8,26.6c-1.8,0-3.2,1.4-3.2,3.2s1.4,3.2,3.2,3.2,3.2-1.4,3.2-3.2-1.4-3.2-3.2-3.2h0Z"/>
  <path class="st0" d="M93.6,1c-1.8,0-3.2,1.4-3.2,3.2s1.4,3.2,3.2,3.2,3.2-1.4,3.2-3.2-1.4-3.2-3.2-3.2h0Z"/>
  <path class="st0" d="M93.6,26.6c-1.8,0-3.2,1.4-3.2,3.2s1.4,3.2,3.2,3.2,3.2-1.4,3.2-3.2-1.4-3.2-3.2-3.2h0Z"/>
  <path class="st0" d="M106.4,13.8c-1.8,0-3.2,1.4-3.2,3.2s1.4,3.2,3.2,3.2,3.2-1.4,3.2-3.2-1.4-3.2-3.2-3.2h0Z"/>
  <path class="st0" d="M119.2,26.6c-1.8,0-3.2,1.4-3.2,3.2s1.4,3.2,3.2,3.2,3.2-1.4,3.2-3.2-1.4-3.2-3.2-3.2h0Z"/>
  <path class="st0" d="M131.9,1c-1.8,0-3.2,1.4-3.2,3.2s1.4,3.2,3.2,3.2,3.2-1.4,3.2-3.2-1.4-3.2-3.2-3.2h0Z"/>
  <path class="st0" d="M144.7,13.8c-1.8,0-3.2,1.4-3.2,3.2s1.4,3.2,3.2,3.2,3.2-1.4,3.2-3.2-1.4-3.2-3.2-3.2h0Z"/>
  <path class="st0" d="M144.7,26.6c-1.8,0-3.2,1.4-3.2,3.2s1.4,3.2,3.2,3.2,3.2-1.4,3.2-3.2-1.4-3.2-3.2-3.2h0Z"/>
  <path class="st0" d="M157.5,1c-1.8,0-3.2,1.4-3.2,3.2s1.4,3.2,3.2,3.2,3.2-1.4,3.2-3.2-1.4-3.2-3.2-3.2h0Z"/>
  <path class="st0" d="M157.5,26.6c-1.8,0-3.2,1.4-3.2,3.2s1.4,3.2,3.2,3.2,3.2-1.4,3.2-3.2-1.4-3.2-3.2-3.2h0Z"/>
  <path class="st0" d="M170.2,13.8c-1.8,0-3.2,1.4-3.2,3.2s1.4,3.2,3.2,3.2,3.2-1.4,3.2-3.2-1.4-3.2-3.2-3.2h0Z"/>
  <path class="st0" d="M170.2,26.6c-1.8,0-3.2,1.4-3.2,3.2s1.4,3.2,3.2,3.2,3.2-1.4,3.2-3.2-1.4-3.2-3.2-3.2h0Z"/>
  <path class="st0" d="M183,13.8c-1.8,0-3.2,1.4-3.2,3.2s1.4,3.2,3.2,3.2,3.2-1.4,3.2-3.2-1.4-3.2-3.2-3.2h0Z"/>
  <path class="st0" d="M195.8,26.6c-1.8,0-3.2,1.4-3.2,3.2s1.4,3.2,3.2,3.2,3.2-1.4,3.2-3.2-1.4-3.2-3.2-3.2h0Z"/>
  <path class="st0" d="M208.6,13.8c-1.8,0-3.2,1.4-3.2,3.2s1.4,3.2,3.2,3.2,3.2-1.4,3.2-3.2-1.4-3.2-3.2-3.2h0Z"/>
  <path class="st0" d="M208.6,26.6c-1.8,0-3.2,1.4-3.2,3.2s1.4,3.2,3.2,3.2,3.2-1.4,3.2-3.2-1.4-3.2-3.2-3.2h0Z"/>
  <path class="st0" d="M221.3,1c-1.8,0-3.2,1.4-3.2,3.2s1.4,3.2,3.2,3.2,3.2-1.4,3.2-3.2-1.4-3.2-3.2-3.2h0Z"/>
  <path class="st0" d="M221.3,26.6c-1.8,0-3.2,1.4-3.2,3.2s1.4,3.2,3.2,3.2,3.2-1.4,3.2-3.2-1.4-3.2-3.2-3.2h0Z"/>
  <path class="st0" d="M234.1,1c-1.8,0-3.2,1.4-3.2,3.2s1.4,3.2,3.2,3.2,3.2-1.4,3.2-3.2-1.4-3.2-3.2-3.2h0Z"/>
  <path class="st0" d="M246.9,13.8c-1.8,0-3.2,1.4-3.2,3.2s1.4,3.2,3.2,3.2,3.2-1.4,3.2-3.2-1.4-3.2-3.2-3.2h0Z"/>
  <path class="st0" d="M246.9,26.6c-1.8,0-3.2,1.4-3.2,3.2s1.4,3.2,3.2,3.2,3.2-1.4,3.2-3.2-1.4-3.2-3.2-3.2h0Z"/>
  <path class="st0" d="M20.2,4.2c0-1.8-1.4-3.2-3.2-3.2s-2,.5-2.6,1.4c-1.8,2.2-1.3,5.2-3.5,7.4l-1.2,1.2c-2.3,2.3-5.5,1.6-7.8,3.8-.6.6-.9,1.4-.9,2.3,0,3.2,2.8,3.2,2.8,6.4s-2.8,3.2-2.8,6.4,1.4,3.2,3.2,3.2,3.2-1.4,3.2-3.2h0c0-3.2-2.8-3.2-2.8-6.4s.8-2.5,1.5-3.4h0c3.1-3.1,1.9-6.3,4.1-8.5l1.2-1.2c2.3-2.3,5.5-1.6,7.8-3.8h0c.6-.6.9-1.4.9-2.3Z"/>
  <path class="st0" d="M250.1,4.2c0-1.8-1.4-3.2-3.2-3.2s-2,.5-2.6,1.4c-1.8,2.2-1.3,5.2-3.5,7.4l-1.2,1.2c-2.3,2.3-5.5,1.6-7.8,3.8-.6.6-.9,1.4-.9,2.3,0,3.2,2.8,3.2,2.8,6.4s-2.8,3.2-2.8,6.4,1.4,3.2,3.2,3.2,3.2-1.4,3.2-3.2h0c0-3.2-2.8-3.2-2.8-6.4s.8-2.5,1.5-3.4h0c3.1-3.1,1.9-6.3,4.1-8.5l1.2-1.2c2.3-2.3,5.5-1.6,7.8-3.8h0c.6-.6.9-1.4.9-2.3Z"/>
  <path class="st0" d="M147.9,4.2c0-1.8-1.4-3.2-3.2-3.2s-2,.5-2.6,1.4c-1.8,2.2-1.3,5.2-3.5,7.4l-1.2,1.2c-2.3,2.3-5.5,1.6-7.8,3.8-.6.6-.9,1.4-.9,2.3,0,3.2,2.8,3.2,2.8,6.4s-2.8,3.2-2.8,6.4,1.4,3.2,3.2,3.2,3.2-1.4,3.2-3.2h0c0-3.2-2.8-3.2-2.8-6.4s.8-2.5,1.5-3.4h0c3.1-3.1,1.9-6.3,4.1-8.5l1.2-1.2c2.3-2.3,5.5-1.6,7.8-3.8h0c.6-.6.9-1.4.9-2.3Z"/>
  <path class="st0" d="M44.9,14.9h0c-2.3-2.3-5.5-1.6-7.8-3.9l-1.2-1.2c-2.3-2.3-1.6-5.5-3.8-7.8h0c-.6-.6-1.4-1-2.4-1-1.8,0-3.2,1.4-3.2,3.2s.4,1.8,1.1,2.4h0c2.3,2.3,5.5,1.6,7.8,3.8l1.2,1.2c2,2,1.7,4.8,3.2,7,.5,1,1.6,1.6,2.8,1.6,1.8,0,3.2-1.4,3.2-3.2s-.3-1.6-.8-2.1Z"/>
  <path class="st0" d="M96,14.9h0c-2.3-2.3-5.5-1.6-7.8-3.9l-1.2-1.2c-2.3-2.3-1.6-5.5-3.8-7.8h0c-.6-.6-1.4-1-2.4-1-1.8,0-3.2,1.4-3.2,3.2s.4,1.8,1.1,2.4h0c2.3,2.3,5.5,1.6,7.8,3.8l1.2,1.2c2,2,1.7,4.8,3.2,7,.5,1,1.6,1.6,2.8,1.6,1.8,0,3.2-1.4,3.2-3.2s-.3-1.6-.8-2.1Z"/>
  <path class="st0" d="M223.7,14.9h0c-2.3-2.3-5.5-1.6-7.8-3.9l-1.2-1.2c-2.3-2.3-1.6-5.5-3.8-7.8h0c-.6-.6-1.4-1-2.4-1-1.8,0-3.2,1.4-3.2,3.2s.4,1.8,1.1,2.4h0c2.3,2.3,5.5,1.6,7.8,3.8l1.2,1.2c2,2,1.7,4.8,3.2,7,.5,1,1.6,1.6,2.8,1.6,1.8,0,3.2-1.4,3.2-3.2s-.3-1.6-.8-2.1Z"/>
  <path class="st0" d="M173.4,4.2c0-1.8-1.4-3.2-3.2-3.2s-1.8.4-2.4,1.1h0c-2.3,2.3-1.6,5.5-3.8,7.8l-1.2,1.2c-2.3,2.3-5.5,1.6-7.8,3.8h0c-.5.6-.8,1.3-.8,2.2,0,1.8,1.4,3.2,3.2,3.2s2.2-.7,2.8-1.6c1.5-2.2,1.2-5,3.2-7l1.2-1.2c2.3-2.3,5.5-1.6,7.8-3.8h0c.6-.6,1.1-1.4,1.1-2.4Z"/>
  <path class="st0" d="M71.3,29.8c0-1.8-1.4-3.2-3.2-3.2h0s0,0,0,0c0,0,0,0,0,0,0,0,0,0,0,0-3.1,0-3.2,2.8-6.3,2.8s-2.9-1.3-4.1-2.1c-.8-1-1.8-1.8-1.8-3.7,0-3.2,2.8-3.2,2.8-6.4s0,0,0,0c0,0,0,0,0,0,0,0,0,0,0-.1,0,0,0,0,0,0,0,0,0-.1,0-.2-.3-2.7-2.8-2.9-2.8-5.9s2.8-3.2,2.8-6.4h0s0,0,0-.1c0-1.8-1.4-3.2-3.2-3.2s-3.2,1.4-3.2,3.2,0,0,0,.1h0c0,3.2,2.8,3.2,2.8,6.4s-2.5,3.2-2.8,5.9c0,0,0,.1,0,.2,0,0,0,0,0,0,0,0,0,0,0,.1s0,0,0,0c0,0,0,0,0,0,0,3.2,2.8,3.2,2.8,6.4s-2.5,3.2-2.8,5.9c0,0,0,.1,0,.2,0,0,0,0,0,0,0,0,0,0,0,.1s0,0,0,0c0,0,0,0,0,0h0c0,1.7,1.5,3.1,3.2,3.1,3.2,0,3.2-2.8,6.4-2.8s3.2,2.7,6.3,2.8c0,0,0,0,0,0s0,0,0,0c0,0,0,0,0,0h0c1.8,0,3.2-1.4,3.2-3.2Z"/>
  <path class="st0" d="M122.4,4.2c0-1.8-1.4-3.2-3.2-3.2h0s0,0,0,0c0,0,0,0,0,0,0,0,0,0,0,0-3.1,0-3.2,2.8-6.3,2.8s-3.2-2.8-6.4-2.8-3.2,1.4-3.2,3.2,1.4,3.2,3.2,3.2c3.2,0,3.2-2.8,6.4-2.8s2.8,1.2,3.9,2c.8,1.2,2,1.9,2,4s-.8,2.5-1.5,3.4h0c-3.1,3.1-1.9,6.3-4.1,8.5l-1.2,1.2c-2.3,2.3-5.5,1.6-7.8,3.8h0c-.6.6-.9,1.4-.9,2.3,0,1.8,1.4,3.2,3.2,3.2s2-.5,2.6-1.4c1.8-2.2,1.3-5.2,3.5-7.4l1.2-1.2c2.3-2.3,5.5-1.6,7.8-3.8.6-.6.9-1.4.9-2.3,0-3.2-2.8-3.2-2.8-6.4s2.8-3.2,2.8-6.4Z"/>
  <path class="st0" d="M199,4.2c0-1.7-1.3-3.1-3-3.2h0s0,0-.1,0c0,0,0,0,0,0-.2,0-.5,0-.7,0-2.4.4-2.7,2.7-5.6,2.7s-3.2-2.8-6.4-2.8h0s0,0-.1,0c-1.8,0-3.2,1.4-3.2,3.2s1.4,3.2,3.2,3.2,0,0,.1,0h0c3.2,0,3.2-2.8,6.4-2.8s2.7,1,3.6,1.8c.8,1.3,2.2,2,2.2,4.2s-.8,2.5-1.5,3.4h0c-3.1,3.1-1.9,6.3-4.1,8.5l-1.2,1.2c-2.3,2.3-5.5,1.6-7.8,3.8h0c-.6.6-.9,1.4-.9,2.3,0,1.8,1.4,3.2,3.2,3.2s2-.5,2.6-1.4c1.8-2.2,1.3-5.2,3.5-7.4l1.2-1.2c2.3-2.3,5.5-1.6,7.8-3.8.6-.6.9-1.4.9-2.3,0-3.2-2.8-3.2-2.8-6.4s2.8-3.2,2.8-6.4Z"/>
</svg>