<?xml version="1.0" encoding="UTF-8"?>
<svg id="Layer_1" xmlns="http://www.w3.org/2000/svg" version="1.1" viewBox="0 0 28.8 21.4">
  <!-- Generator: Adobe Illustrator 29.2.1, SVG Export Plug-In . SVG Version: 2.1.0 Build 116)  -->
  <defs>
    <style>
      .st0 {
        fill: #3a3a3a;
      }
    </style>
  </defs>
  <path class="st0" d="M25.8,1H3c-1.1,0-2,.9-2,2v15.4c0,1.1.9,2,2,2h22.8c1.1,0,2-.9,2-2V3c0-1.1-.9-2-2-2ZM14.4,13L4.4,3h20l-10,10ZM9.3,10.7l-6.3,6.3V4.4l6.3,6.3ZM10.7,12.1l2.3,2.3c.4.4.9.6,1.4.6s1-.2,1.4-.6l2.3-2.3,6.3,6.3H4.4l6.3-6.3ZM19.5,10.7l6.3-6.3v12.6s-6.3-6.3-6.3-6.3Z"/>
</svg>