<?xml version="1.0" encoding="utf-8"?>
<!-- Generator: Adobe Illustrator 28.3.0, SVG Export Plug-In . SVG Version: 6.00 Build 0)  -->
<svg version="1.1" xmlns="http://www.w3.org/2000/svg" xmlns:xlink="http://www.w3.org/1999/xlink" x="0px" y="0px"
	 viewBox="0 0 385.7 193.9" style="enable-background:new 0 0 385.7 193.9;" xml:space="preserve">
<style type="text/css">
	.st0{display:none;}
	.st1{fill:#07373A;}
	.st2{fill:#EF8F30;}
	.st3{fill:#606060;}
	.st4{fill:#F2BF80;}
	.st5{fill:#00161A;}
	.st6{fill:none;stroke:#F2BF80;stroke-miterlimit:10;}
</style>
<g id="Layer_1" class="st0">
	
		<image style="display:inline;overflow:visible;" width="520" height="280" xlink:href="BB9A9CB0.jpg"  transform="matrix(1 0 0 1 -166.0835 -3.3397)">
	</image>
</g>
<g id="Layer_2">
	<path d="M-418.8-83.7h101.7c1.5,0,2.7,0.6,3,1.5l9.4,16.1l0.3,0.6c0.3,0.6,0.3,0.9,0.6,1.2l0.3,0.3v0.3v0.3l88.3,152.8
		c0.3,0.6,0,1.8-0.6,2.4c-0.9,0.9-1.5,1.5-2.7,1.5h-101.4c-1.5,0-2.7-0.6-3.7-1.8l-98.3-170.5c-0.6-1.2,0-2.7,0.3-3.7
		C-421.3-82.8-420.7-83.7-418.8-83.7 M-418.8-92.9c-4.6,0-8.5,2.1-10.7,6.1c-2.1,4-2.4,8.5-0.3,12.5l98.6,170.8
		c2.4,3.7,6.7,6.1,11.3,6.1h101.4c4,0,7.6-1.8,10-5.2c2.4-3.3,3-7.6,1.8-11.3l-0.3-0.6l-88.6-153.4c-0.3-0.6-0.9-1.5-1.2-2.4
		l-0.3-0.3l-9.4-16.1c-2.1-3.7-6.4-6.1-11-6.1H-418.8L-418.8-92.9z"/>
	<path class="st1" d="M-179-164.5c0.4,0,0.7,0.2,0.9,0.5l64.1,111.1c0.9,1.2,2.1,1.8,3.7,1.8H99.7c-0.3,3-2.5,6.1-2.8,9.1h-209.3
		c-4.6,0-6.8-2.4-9.3-6.1l-66.4-115c-0.4-0.7,0.1-1.5,0.9-1.5L-179-164.5z"/>
	<path class="st1" d="M103.2-125.5c0.4,0,0.7,0.2,0.9,0.5l41.6,72.1c0.9,1.2,2.1,1.8,3.7,1.8h201.4c-0.2,3-0.5,6.1-0.7,9.1H149.4
		c-4.6,0-8.8-2.4-11.3-6.1l-43.9-76c-0.4-0.7,0.1-1.5,0.9-1.5L103.2-125.5z"/>
	<path class="st1" d="M-464.2,102.6h101.7c1.5,0,2.7,0.6,3,1.5l9.4,16.1l0.3,0.6c0.3,0.6,0.3,0.9,0.6,1.2l0.3,0.3v0.3v0.3
		l88.3,152.8c0.3,0.6,0,1.8-0.6,2.4c-0.9,0.9-1.5,1.5-2.7,1.5h-101.4c-1.5,0-2.7-0.6-3.7-1.8l-98.3-170.5c-0.6-1.2,0-2.7,0.3-3.7
		C-466.6,103.5-466,102.6-464.2,102.6 M-464.2,93.5c-4.6,0-8.5,2.1-10.7,6.1c-2.1,4-2.4,8.5-0.3,12.5l98.6,170.8
		c2.4,3.7,6.7,6.1,11.3,6.1h101.4c4,0,7.6-1.8,10-5.2c2.4-3.3,3-7.6,1.8-11.3l-0.3-0.6l-88.6-153.4c-0.3-0.6-0.9-1.5-1.2-2.4
		l-0.3-0.3l-9.4-16.1c-2.1-3.7-6.4-6.1-11-6.1H-464.2L-464.2,93.5z"/>
	<path class="st2" d="M-418.8,325.2h101.7c1.5,0,2.7,0.6,3,1.5l9.4,16.1l0.3,0.6c0.3,0.6,0.3,0.9,0.6,1.2l0.3,0.3v0.3v0.3
		l88.3,152.8c0.3,0.6,0,1.8-0.6,2.4c-0.9,0.9-1.5,1.5-2.7,1.5h-101.4c-1.5,0-2.7-0.6-3.7-1.8L-421.9,330c-0.6-1.2,0-2.7,0.3-3.7
		C-421.3,326.1-420.7,325.2-418.8,325.2 M-418.8,316c-4.6,0-8.5,2.1-10.7,6.1c-2.1,4-2.4,8.5-0.3,12.5l98.6,170.8
		c2.4,3.7,6.7,6.1,11.3,6.1h101.4c4,0,7.6-1.8,10-5.2c2.4-3.3,3-7.6,1.8-11.3l-0.3-0.6L-295.5,341c-0.3-0.6-0.9-1.5-1.2-2.4
		l-0.3-0.3l-9.4-16.1c-2.1-3.7-6.4-6.1-11-6.1H-418.8L-418.8,316z"/>
	<path class="st3" d="M-100.2,325.2H1.5c1.5,0,2.7,0.6,3,1.5l9.4,16.1l0.3,0.6c0.3,0.6,0.3,0.9,0.6,1.2l0.3,0.3v0.3v0.3l88.3,152.8
		c0.3,0.6,0,1.8-0.6,2.4c-0.9,0.9-1.5,1.5-2.7,1.5H-1.3c-1.5,0-2.7-0.6-3.7-1.8L-103.2,330c-0.6-1.2,0-2.7,0.3-3.7
		C-102.6,326.1-102,325.2-100.2,325.2 M-100.2,316c-4.6,0-8.5,2.1-10.7,6.1c-2.1,4-2.4,8.5-0.3,12.5l98.6,170.8
		c2.4,3.7,6.7,6.1,11.3,6.1h101.4c4,0,7.6-1.8,10-5.2c2.4-3.3,3-7.6,1.8-11.3l-0.3-0.6L23.1,341c-0.3-0.6-0.9-1.5-1.2-2.4l-0.3-0.3
		l-9.4-16.1c-2.1-3.7-6.4-6.1-11-6.1H-100.2L-100.2,316z"/>
	<path class="st4" d="M-259.5,325.2h101.7c1.5,0,2.7,0.6,3,1.5l9.4,16.1l0.3,0.6c0.3,0.6,0.3,0.9,0.6,1.2l0.3,0.3v0.3v0.3
		l88.3,152.8c0.3,0.6,0,1.8-0.6,2.4c-0.9,0.9-1.5,1.5-2.7,1.5h-101.4c-1.5,0-2.7-0.6-3.7-1.8L-262.5,330c-0.6-1.2,0-2.7,0.3-3.7
		C-261.9,326.1-261.3,325.2-259.5,325.2 M-259.5,316c-4.6,0-8.5,2.1-10.7,6.1c-2.1,4-2.4,8.5-0.3,12.5l98.6,170.8
		c2.4,3.7,6.7,6.1,11.3,6.1h101.4c4,0,7.6-1.8,10-5.2c2.4-3.3,3-7.6,1.8-11.3l-0.3-0.6L-136.2,341c-0.3-0.6-0.9-1.5-1.2-2.4
		l-0.3-0.3l-9.4-16.1c-2.1-3.7-6.4-6.1-11-6.1H-259.5L-259.5,316z"/>
	<path class="st5" d="M163,167.7L61.5-10.6h-213.6v274.9h542.1v-90.2H174.8C170,174.2,165.5,171.6,163,167.7z"/>
	<path class="st1" d="M393.6,171.9H187.1c-5.8,0-11.4,0-14.6-4.9c0-0.1-0.1-0.1-0.1-0.2L70.4-9.6l6.9-4l103.9,178.3
		c1.8,2.6,4.8,4.2,7.9,4.2h206.5L393.6,171.9z"/>
	<path class="st1" d="M404,167.5H197.5c-5.8,0-11.4,0-14.6-4.9c0-0.1-0.1-0.1-0.1-0.2L111.2,38.5c-0.4-0.7,0.1-1.5,0.9-1.5h7.2
		c0.4,0,0.7,0.2,0.9,0.5l71.5,122.8c1.8,2.6,4.8,4.2,7.9,4.2H406L404,167.5z"/>
	<path class="st2" d="M416.3,176.9H177c-5.8,0-11.4,0-14.6-4.9c0-0.1-0.1-0.1-0.1-0.2L52.4-17.8l6.9-4l111.8,191.5
		c1.8,2.6,4.8,4.2,7.9,4.2h239.3L416.3,176.9z"/>
	<path class="st2" d="M404.6,182.7H165.3c-5.8,0-11.4,0-14.6-4.9c0-0.1-0.1-0.1-0.1-0.2L40.6-12l6.9-4l111.8,191.5
		c1.8,2.6,4.8,4.2,7.9,4.2h239.3L404.6,182.7z"/>
	<path class="st4" d="M393.8,189.5H154.5c-5.8,0-11.4,0-14.6-4.9c0-0.1-0.1-0.1-0.1-0.2L28.8-8l6.9-4l112.9,194.3
		c1.8,2.6,4.8,4.2,7.9,4.2h239.3L393.8,189.5z"/>
	<path class="st4" d="M476.5,200.6H237.2c-5.8,0-11.4,0-14.6,4.9c0,0.1-0.1,0.1-0.1,0.2L111.6,398.1l6.9,4l112.9-194.3
		c1.8-2.6,4.8-4.2,7.9-4.2h239.3L476.5,200.6z"/>
	<path class="st2" d="M464.5,193.9H225.2c-5.8,0-11.4,0-14.6,4.9c0,0.1-0.1,0.1-0.1,0.2L99.6,391.4l6.9,4l112.9-194.3
		c1.8-2.6,4.8-4.2,7.9-4.2h239.3L464.5,193.9z"/>
	<path class="st1" d="M148.1,63.1c0.4,0,0.7,0.2,0.9,0.5l53.7,92.2c1.8,2.6,4.8,4.2,7.9,4.2h206.5l-2,3H208.6
		c-5.8,0-11.4,0-14.6-4.9c0-0.1-0.1-0.1-0.1-0.2l-53.9-93.3c-0.4-0.7,0.1-1.5,0.9-1.5L148.1,63.1z"/>
	<path class="st6" d="M92.8,127.4c-0.4,0-0.7-0.2-0.9-0.5L17.5-1.4C15.8-4,12.7-5.6,9.7-5.6h-206.5l2-3H11.7c5.8,0,11.4,0,14.6,4.9
		c0,0.1,0.1,0.1,0.1,0.2L101,125.9c0.4,0.7-0.1,1.5-0.9,1.5L92.8,127.4z"/>
	<path class="st6" d="M41.5,64.6c-0.4,0-0.7-0.2-0.9-0.5L1.9-1.4C0.1-4-2.9-5.6-6-5.6h-206.5l2-3H-4c5.8,0,11.4,0,14.6,4.9
		c0,0.1,0.1,0.1,0.1,0.2l39,66.6c0.4,0.7-0.1,1.5-0.9,1.5L41.5,64.6z"/>
	<path class="st6" d="M220.6,282.5c0.4,0,0.7-0.2,0.9-0.5l38.8-65.5c1.8-2.6,4.8-4.2,7.9-4.2h206.5l-2-3H266.1
		c-5.8,0-11.4,0-14.6,4.9c0,0.1-0.1,0.1-0.1,0.2l-39,66.6c-0.4,0.7,0.1,1.5,0.9,1.5H220.6z"/>
	<path class="st6" d="M280.9,216c-0.4,0-0.7,0.2-0.9,0.5L241.3,282c-1.8,2.6-4.8,4.2-7.9,4.2H26.9l2,3h206.5c5.8,0,11.4,0,14.6-4.9
		c0-0.1,0.1-0.1,0.1-0.2l39-66.6c0.4-0.7-0.1-1.5-0.9-1.5L280.9,216z"/>
	<path class="st6" d="M267.2,216c-0.4,0-0.7,0.2-0.9,0.5L227.5,282c-1.8,2.6-4.8,4.2-7.9,4.2H13.1l2,3h206.5c5.8,0,11.4,0,14.6-4.9
		c0-0.1,0.1-0.1,0.1-0.2l39-66.6c0.4-0.7-0.1-1.5-0.9-1.5L267.2,216z"/>
	<path class="st6" d="M239.7,209.3c-0.4,0-0.7,0.2-0.9,0.5l-38.8,65.5c-1.8,2.6-4.8,4.2-7.9,4.2H-14.3l2,3h206.5
		c5.8,0,11.4,0,14.6-4.9c0-0.1,0.1-0.1,0.1-0.2l39-66.6c0.4-0.7-0.1-1.5-0.9-1.5L239.7,209.3z"/>
	<path class="st1" d="M195.3,200.6c-0.4,0-0.7,0.2-0.9,0.5L120,329.3c-1.8,2.6-4.8,4.2-7.9,4.2H-94.4l2,3h206.5
		c5.8,0,11.4,0,14.6-4.9c0-0.1,0.1-0.1,0.1-0.2l74.6-129.4c0.4-0.7-0.1-1.5-0.9-1.5L195.3,200.6z"/>
</g>
</svg>
