<?xml version="1.0" encoding="utf-8"?>
<!-- Generator: Adobe Illustrator 28.3.0, SVG Export Plug-In . SVG Version: 6.00 Build 0)  -->
<svg version="1.1" id="Layer_1" xmlns="http://www.w3.org/2000/svg" xmlns:xlink="http://www.w3.org/1999/xlink" x="0px" y="0px"
	 viewBox="0 0 203.4 64.3" style="enable-background:new 0 0 203.4 64.3;" xml:space="preserve">
<path d="M102.3,0H69c-1.4,0-2.8,0.7-3.6,2L35.6,54.1c-0.5,0.7-1.2,1.1-1.9,1.1c-0.8,0-1.5-0.4-1.9-1.1c-0.4-0.6-0.4-1.4,0-2l26.6-46
	C59.1,4.8,59,3.3,58.3,2s-2-2-3.5-2H21.5c-1.4,0-2.8,0.7-3.6,2L2.8,28.4c-0.8,1.3-0.8,2.9,0,4.1l17,29.8c0.8,1.2,2.1,1.9,3.5,1.9
	h46.5c1.5,0,2.9-0.8,3.6-2l31.7-54.7l0.8-1.4c0.7-1.3,0.7-2.8-0.1-4.1C105,0.7,103.7,0,102.3,0L102.3,0z"/>
<path d="M149.8,0h-33.3c-1.5,0-2.9,0.8-3.6,2l-3.1,5.3l-0.1,0.1c-0.1,0.3-0.3,0.6-0.4,0.8L80.2,58.6l-0.1,0.2
	c-0.4,1.2-0.2,2.6,0.6,3.7c0.8,1.1,2,1.7,3.3,1.7h33.3c1.5,0,2.9-0.8,3.7-2l32.4-56.1c0.7-1.3,0.6-2.8-0.1-4.1
	C152.6,0.7,151.3,0,149.8,0L149.8,0z"/>
<path d="M197.3,0H164c-1.5,0-2.9,0.8-3.6,2l-3.1,5.3l-0.1,0.1c-0.1,0.3-0.3,0.6-0.4,0.8l-29.1,50.4l-0.1,0.2
	c-0.4,1.2-0.2,2.6,0.6,3.7c0.8,1.1,2,1.7,3.3,1.7h33.3c1.5,0,2.9-0.8,3.7-2l32.4-56.1c0.7-1.3,0.6-2.8-0.1-4.1
	C200.1,0.7,198.8,0,197.3,0L197.3,0z"/>
</svg>
