<?xml version="1.0" encoding="utf-8"?>
<!-- Generator: Adobe Illustrator 28.3.0, SVG Export Plug-In . SVG Version: 6.00 Build 0)  -->
<svg version="1.1" id="Layer_1" xmlns="http://www.w3.org/2000/svg" xmlns:xlink="http://www.w3.org/1999/xlink" x="0px" y="0px"
	 viewBox="0 0 360 106" style="enable-background:new 0 0 360 106;" xml:space="preserve">
<style type="text/css">
	.st0{fill:#e0a070;}
</style>
<g id="Layer_3">
	<path class="st0" d="M133.2,34.6l-1.9,5.4h-3.5l6.9-18.3c0.1-0.1,0.2-0.2,0.3-0.2h3.5c0.2,0,0.3,0.1,0.3,0.2l6.9,18.3h-3.5
		l-1.9-5.4H133.2z M139.4,32.2l-2.7-7.5l-2.7,7.5H139.4z"/>
	<line class="st0" x1="153.5" y1="24.6" x2="150.6" y2="24.6"/>
	<path class="st0" d="M150.6,24.6h-4.9c-0.8,0-1.4-0.7-1.4-1.5s0.6-1.5,1.4-1.5h12.9c0.8,0,1.4,0.7,1.4,1.5s-0.6,1.5-1.4,1.5h-5V40
		h-2.9L150.6,24.6z"/>
	<path class="st0" d="M182.7,24.5h-4.9c-0.8,0-1.4-0.7-1.4-1.5s0.6-1.5,1.4-1.5h12.9c0.8,0,1.4,0.7,1.4,1.5s-0.6,1.5-1.4,1.5h-5
		v15.4h-2.9L182.7,24.5z"/>
	<path class="st0" d="M174.7,39.9l-2.4-2.3c-1.8,2-4,3-6.4,3l0,0c-2.2-0.1-6.4-1.4-6.4-5.8c0-3.3,2.3-4.9,4.4-5.6
		c-0.8-1.1-1.4-2.3-1.4-3.3c0-2.9,2.4-4.6,4.6-4.6c3,0,4.8,1.7,4.8,4.5c0,2.3-2.2,3.8-3.8,4.6c0.3,0.3,0.7,0.6,1,0.9l0,0l2.8,2.7
		c1.6-2.7,2.1-5.2,2.1-5.2l2.5-0.1c0,0.1-0.6,2.9-2.1,5.8c-0.2,0.4-0.5,0.8-0.7,1.2l3.8,3.1c0.5,0.4-0.8,1.2-0.8,1.2
		C176.1,40.3,175.4,40.2,174.7,39.9z M165.6,31.2c-0.4,0.1-1.1,0.3-1.8,0.6c-1.3,0.7-2,1.6-2,3c0,3.2,3.7,3.4,4.1,3.5
		c1.9,0,3.5-1,4.6-2.3l-3-2.9C167.1,32.7,166.4,32,165.6,31.2z M167.1,23.6c-0.9,0-2.3,0.7-2.3,2.3c0,0.5,0.7,1.5,1.6,2.7
		c1.3-0.5,3.1-1.6,3.1-2.8C169.5,24.7,169.3,23.6,167.1,23.6z"/>
	<path class="st0" d="M128.2,80.8V50.7c0-1,0.8-1.8,1.8-1.8s1.8,0,1.8,0h5.7c0.6,0,7.9-0.1,12.9,4.7c2.8,2.8,4.3,6.5,4.3,11.1
		c0,4.7-1.4,8.4-4.3,11.2c-4.7,4.6-11.5,4.7-12.6,4.7c-0.1,0-0.1,0-0.1,0L128.2,80.8z M137.7,77.7c0.1,0,6.5,0.1,10.5-3.9
		c2.2-2.1,3.3-5.2,3.3-8.9s-1.1-6.7-3.3-8.9c-4-4-10.6-3.9-10.6-3.9h-5.7v25.5L137.7,77.7z"/>
	<g>
		<path class="st0" d="M159.8,80.6V58.4c0-0.8,0.7-1.5,1.6-1.5s1.6,0.7,1.6,1.5v22.2H159.8z"/>
		<ellipse class="st0" cx="161.4" cy="49.6" rx="2.3" ry="2.1"/>
	</g>
	<g>
		<path class="st0" d="M196.9,80.6V58.4c0-0.8,0.7-1.5,1.6-1.5s1.6,0.7,1.6,1.5v22.2H196.9z"/>
		<ellipse class="st0" cx="198.5" cy="49.6" rx="2.3" ry="2.1"/>
	</g>
	<g>
		<path class="st0" d="M287.9,80.6V58.4c0-0.8,0.7-1.5,1.6-1.5s1.6,0.7,1.6,1.5v22.2H287.9z"/>
		<ellipse class="st0" cx="289.4" cy="49.6" rx="2.3" ry="2.1"/>
	</g>
	<path class="st0" d="M187.4,70.6L187.4,70.6L187.4,70.6z"/>
	<path class="st0" d="M187.4,77.3c-2.1,2.2-5,3.6-8.1,3.6c-6.3,0-11.5-5.4-11.5-12.1c0-6.7,5.1-12.1,11.5-12.1
		c3.2,0,6.1,1.4,8.1,3.6v-3.1h3.2v23.7c0,0.5,0.1,3.7-2.3,6.2c-2,2.1-5,3.2-9,3.2c-6.6,0-9.7-3.7-10.1-5.3c-0.2-0.9,0-1.9,0.8-2.2
		c0.8-0.2,1.5,0.3,2,1c1.7,2.2,2.9,3.3,7.3,3.3c3.1,0,5.3-0.7,6.7-2.2c1.6-1.7,1.5-4.1,1.5-4.1L187.4,77.3z M187.4,67
		c-0.8-4.1-4.1-7.2-8.1-7.2c-4.6,0-8.3,4-8.3,9c0,4.9,3.7,9,8.3,9c4,0,7.4-3.1,8.1-7.2V67z"/>
	<path class="st0" d="M210.8,60.6v14.9l0,0c0,0,0,1.2,0.8,2c0.6,0.6,1.6,0.9,2.9,0.9c2.2,0,2.7-1.1,2.8-1.2l0.1-0.1
		c0.2-0.3,0.6-0.3,0.9-0.1l0,0c1.4,0.8,1.4,2.8,0,3.7c-0.9,0.6-2.1,1-3.8,1c-2.2,0-4-0.7-5.2-1.9c-1.6-1.7-1.6-3.8-1.6-4.3V60.7
		h-3.4v-3.2h3.4v-5.2c0-0.8,0.6-1.6,1.4-1.6c0.9-0.1,1.7,0.6,1.7,1.6v5.2h7.6v3.2C218.4,60.6,210.8,60.6,210.8,60.6z"/>
	<path class="st0" d="M299.3,80.6h3.2V60.3h5.9v-3.2h-5.9l0,0v-3.7l0,0c0,0,0-1.2,0.8-2c0.6-0.6,1.6-0.9,2.9-0.9
		c2.2,0,2.7,1.1,2.8,1.2l0.1,0.1c0.2,0.3,0.6,0.3,0.9,0.1l0,0c1.4-0.8,1.4-2.8,0-3.7c-0.9-0.6-2.1-1-3.8-1c-2.2,0-4,0.7-5.2,1.9
		c-1.6,1.7-1.6,3.8-1.6,4.3V57h-5v3.2h5L299.3,80.6z"/>
	<path class="st0" d="M236.1,62.3c-1.2-1.4-2.6-2.4-5.3-2.4c-3.8,0-4.9,1.1-6.4,3.3c-0.5,0.7-1,1.2-1.8,1c-0.7-0.2-0.8-1.3-0.7-2.2
		c0.3-1.6,3-5.3,8.8-5.3c3.5,0,6.2,1.1,7.9,3.2c2.1,2.5,2.1,5.7,2,6.2v14.5h-3.3v-3.1c-1.8,2.2-5,3.8-8.5,3.8
		c-5.6,0-8.3-2.3-8.3-7.4c0-4.2,4.4-6.6,10-7.1c2.8-0.2,2.8-0.2,6.6-0.3C237.3,66.6,237.6,64,236.1,62.3z M237.5,69.5
		c0,0-3.4-0.4-6.8,0c-3.3,0.5-6.5,2.4-6.5,4.5c0,2.7,1.9,4.2,5.9,4.2c3.5,0,6.7-2.3,7.4-6.4L237.5,69.5L237.5,69.5z"/>
	<g>
		<path class="st0" d="M246.8,80.6v-33c0,0,0.7-0.2,1.6-0.2c0.9,0,1.6,0.7,1.6,1.6v31.6H246.8z"/>
	</g>
	<path class="st0" d="M281.7,80.6h-18.6V49.8c0-0.9,0.7-1.6,1.6-1.6c0.9,0,1.6,0.7,1.6,1.6v27.7h15.4c0.9,0,1.6,0.7,1.6,1.6
		C283.3,79.9,282.6,80.6,281.7,80.6z"/>
	<path class="st0" d="M321.9,81.5c-6.2,0-11.7-5.9-11.7-12.7c0-6.7,5-12.2,11.2-12.2c6.2,0,11.2,5.5,11.2,12.2v1.6h-19.1
		c0.7,4.3,4.4,7.9,8.4,7.9c2.8,0,5.9-1.7,7.3-3.9c0.5-0.7,1.4-1,2.2-0.5c0.7,0.5,1,1.4,0.5,2.2C329.9,79.2,325.8,81.5,321.9,81.5z
		 M313.6,67.2h15.8c-0.7-4.2-4-7.4-7.9-7.4C317.5,59.8,314.2,63,313.6,67.2z"/>
</g>
<path class="st0" d="M117,48.8c0-21.5-17.5-39-39-39H59c-10.4,0-18.8,8.4-18.8,18.8v1v38.8V69c0,10.4,8.4,18.8,18.8,18.8h1.1H78h1.7
	c1.4,0,2.8-0.2,4.1-0.4C102.6,84.5,117,68.3,117,48.8z M72.6,48H60.2c-5.3,0-10.1,2.1-13.7,5.5V29.7c0-7.2,5.9-13,13-13
	s13,5.9,13,13V48z M59.8,81.5c-7.4-0.2-13.4-6.2-13.4-13.7c0-7.5,6.1-13.7,13.7-13.7h12.4v14.3C72.6,75.6,66.9,81.4,59.8,81.5z
	 M73.7,81.6c3.2-3.4,5.1-8,5.1-13V54.2h0.9c7.5,0,13.7,6.1,13.7,13.7c0,6.5-4.6,11.9-10.7,13.3c-1.5,0.2-3.1,0.3-4.7,0.3H73.7z
	 M98.6,74.3c0.7-2,1.1-4.1,1.1-6.4c0-11-8.9-19.9-19.9-19.9h-0.9V29.7c0-5.3-2.2-10.1-5.6-13.6H78c18,0,32.7,14.7,32.7,32.7
	C110.7,59.1,106,68.3,98.6,74.3z"/>
</svg>
