<?xml version="1.0" encoding="utf-8"?>
<!-- Generator: Adobe Illustrator 28.3.0, SVG Export Plug-In . SVG Version: 6.00 Build 0)  -->
<svg version="1.1" xmlns="http://www.w3.org/2000/svg" xmlns:xlink="http://www.w3.org/1999/xlink" x="0px" y="0px"
	 viewBox="0 0 360 102.5" style="enable-background:new 0 0 360 102.5;" xml:space="preserve">
<style type="text/css">
	.st0{fill:#e0a070;}
</style>
<g id="Layer_1">
	<g>
		<path class="st0" d="M141,31.1h-14.9V32v7.3v25.2v6.8v1.4H141c5.8,0,14.4-3.5,14.4-13.1V44.1C155.4,34.6,146.8,31.1,141,31.1z
			 M147.2,59.7c0,4.4-4.8,4.8-6.2,4.8h-6.4V39.3h6.4c0.6,0,6.2,0.1,6.2,4.8V59.7z"/>
		<rect x="162.2" y="32.2" class="st0" width="8.2" height="39.3"/>
		<path class="st0" d="M208.1,44.2c0-9.2-8.6-12.6-14.4-12.6h-14.9v0.1h-0.4v39.8h8.2V57h5.9l7.1,14.1h9.3l-8-15.8
			C204.8,53.5,208.1,49.9,208.1,44.2z M186.6,39.6h7.1c1.4,0.1,6.2,0.4,6.2,4.7s-4.8,4.7-6.2,4.7h-7.1V39.6z"/>
		<polygon class="st0" points="214.5,31.7 214.1,31.7 214.1,63.3 214.1,71.5 222.3,71.5 240.3,71.5 240.3,63.3 222.3,63.3 
			222.3,55.8 237.7,55.8 237.7,47.6 222.3,47.6 222.3,39.9 240.7,39.9 240.7,31.7 222.3,31.7 		"/>
		<path class="st0" d="M260.2,38.3c3.5,0,6.6,2.8,6.9,6.3l8.2-0.8C274.6,36.1,268,30,260.2,30c-8.4,0-15.2,6.8-15.2,15.2v13
			c0,8.4,6.8,15.2,15.2,15.2c8,0,14.6-6.2,15.1-14.3l-8.2-0.5c-0.2,3.7-3.3,6.5-6.9,6.5c-3.8,0-6.9-3.1-6.9-6.9v-13
			C253.3,41.4,256.4,38.3,260.2,38.3z"/>
		<polygon class="st0" points="277.1,39.3 287,39.3 287,71.7 295.2,71.7 295.2,39.3 305.1,39.3 305.1,31.1 277.1,31.1 		"/>
		<polygon class="st0" points="333.3,31.1 325.6,57.2 318,31.1 309.3,31.1 321.3,71.8 329.9,71.8 341.9,31.1 		"/>
	</g>
</g>
<g id="Layer_2">
	<g>
		<path class="st0" d="M34.9,12.9c0,0-0.2,1,0.4,2.3C37.1,19,46,20.7,46,20.7c7.7,1.5,14.6,1.6,20.5,1.3c0,0,6.4-0.4,14.1-2.3
			c0,0,2.7-0.7,7.5-3.3c0.2-0.1,0.7-0.4,1.2-0.9c0.7-0.8,1-1.6,1-1.8c0.1-0.4,0.2-1,0-1.6c-0.3-0.9-0.8-1.5-0.8-1.5s0.1,0.1,0.3,0.1
			c-7.6-5.1-16.8-8-26.7-8c-9.9,0-19.2,3-26.8,8.1C35.8,11.2,35.2,11.9,34.9,12.9z"/>
		<path class="st0" d="M105.9,29.8c0,0.5,0,1.7-0.8,3.3c-2.2,4.9-8.1,7.7-12.4,9.4c-5.4,2.2-10.8,3.8-17.6,5.2
			c-6.7,1.4-11.5,2.4-18.3,2.6c-2.7,0.1-10.3,0.2-19.5-2c-2.9-0.7-6.4-1.7-10.2-4c-2.4-1.4-4.5-2.8-6.1-5.5c-0.5-0.9-2.3-4-1.7-8.1
			c-1.6,3.3-2.7,6.9-3.5,10.6c0.5,1,1.9,3.8,4.9,6.4c1.2,1.1,2.4,1.7,3.9,2.5c7.4,3.7,13.8,5.2,13.8,5.2c10.2,2.4,19.6,3,24,3.1
			c7.7,0.3,15.4,0,23.6-1.2c7.3-1.1,12.4-2.5,17.1-5.9c5.2-3.7,6-7.1,6.3-8.2c0.4-2.1,0.4-3.8,0.4-4.7c-1-3.6-2.4-7.1-4.1-10.4
			C105.8,28.7,105.9,29.2,105.9,29.8z"/>
		<path class="st0" d="M23.6,25.3c0.1,2.5,2.4,4.3,3.3,5c6.8,5.4,19,7.8,19,7.8c5.9,1.1,12.9,2.5,22.6,2.4c0,0,8.7-0.1,19.3-2.4
			c0,0,4.5-1,9.5-4c1.3-0.8,3.1-2,4.3-4.1c0.2-0.3,0.7-1.4,1-2.8c0.2-0.9,0.4-2.1-0.1-3.3c-0.3-0.9-0.6-1.4-0.6-1.4s0.2,0.2,0.5,0.5
			c-2.3-3.2-5-6.1-7.9-8.7c0.1,0.2,0.2,0.4,0.3,0.6C95,15.4,95,16,95,16s0,0.9-0.3,1.7c-0.9,2.3-3.8,3.9-3.8,3.9
			c-6.3,3.6-9.2,4.6-9.2,4.6c-3.4,1.1-7.6,2.5-13.9,3.5C61.1,30.8,56,30.8,52,30.8c-5.9,0-9.1-0.4-12.3-1.4c-4.2-1.3-6-2.7-7.1-4
			c-0.7-0.8-2.6-3-2.5-6c0.1-2.5,1.3-4.2,2.1-5.2c0.2-0.3,0.5-0.6,0.8-0.9c-3.6,2.9-6.8,6.3-9.5,10.1C23.5,23.7,23.6,24.5,23.6,25.3
			z"/>
		<path class="st0" d="M107.9,69c-1.2,1.6-2.4,2.6-4.6,4.3c-3.8,2.9-7.1,4.6-8.4,5.2c-7.6,3.7-15.7,5.1-20.1,5.9
			c-5.5,0.9-12.5,2.1-21.7,1.4c-8.2-0.6-13.8-2.4-15.6-2.9c-7.6-2.5-11.5-5.4-12.6-6.3c-1.6-1.2-3.6-2.8-5.5-5.5
			c-0.3-0.4-0.6-0.9-0.8-1.3c1,2.4,2.2,4.7,3.6,6.9c0.6,0.5,3.1,2.9,6.9,5.6c1.4,1,4.6,3.1,10.7,5.2c2.2,0.8,9.7,3.2,20.4,3.8
			c11.1,0.6,19.1-1.1,21-1.5c5.3-1.1,10.2-2.3,15.3-6c3.2-2.4,5.7-4.8,6.5-5.6C105,75.3,106.6,72.2,107.9,69
			C107.9,69,107.9,69,107.9,69z"/>
		<path class="st0" d="M23.7,67.8c0.4,0.3,1.9,1.4,4.3,2.7c9.7,5.1,22.2,7.1,22.2,7.1c14.4,2.4,25.5,0.8,32.2-0.2
			c2.3-0.3,9.3-1.4,17-5.2c4.1-1.9,6.7-3.8,8.6-6.6c1.4-2,2.1-4,2.5-5.2c0.6-3,0.9-6.2,0.9-9.4c0-1.7-0.1-3.4-0.3-5.1
			c-0.1,0.7-0.2,1.3-0.4,2c-0.6,2-1.7,3.4-2.5,4.2c-6.2,6.9-19.4,11-21.5,11.7c-9.2,2.8-15.8,4.8-25.6,5.7
			c-7.7,0.7-14.8,1.2-23.8-1.2c-7.3-2-12.1-5-15.4-7.7c-5.2-4.3-6.5-7.8-6.8-8.7c-0.1-0.3-0.2-0.6-0.3-1c0,0,0,0,0,0.1
			c0,2.9,0.3,5.7,0.8,8.5C16,60.1,18.6,63.9,23.7,67.8z"/>
		<path class="st0" d="M94.7,87.2c-1.4,1-5.2,3.7-14.3,5.9c-5.1,1.2-15.9,3.8-29.8,1.5c-6.7-1.1-11.8-1.9-17.3-5.7
			c-0.5-0.3-0.9-0.6-1.3-1c8.4,7.1,19.3,11.4,31.1,11.4c14.2,0,27-6.1,35.8-15.9C97.7,84.7,96.3,86,94.7,87.2z"/>
	</g>
</g>
</svg>
