<?xml version="1.0" encoding="utf-8"?>
<!-- Generator: Adobe Illustrator 15.0.0, SVG Export Plug-In . SVG Version: 6.00 Build 0)  -->
<!DOCTYPE svg PUBLIC "-//W3C//DTD SVG 1.1//EN" "http://www.w3.org/Graphics/SVG/1.1/DTD/svg11.dtd">
<svg version="1.1" id="Layer_1" xmlns="http://www.w3.org/2000/svg" xmlns:xlink="http://www.w3.org/1999/xlink" x="0px" y="0px"
	 width="600px" height="600px" viewBox="0 0 600 600" enable-background="new 0 0 600 600" xml:space="preserve">
<g>
	<path fill="#FFFFFF" d="M594.307,300.725c0,162.139-131.439,293.578-293.578,293.578c-162.14,0-293.579-131.439-293.579-293.578
		c0-162.14,131.439-293.579,293.579-293.579C462.867,7.146,594.307,138.585,594.307,300.725z M337.138,320.08
		c22.473-12.712,37.649-36.823,37.649-64.479c-0.004-40.894-33.161-74.055-74.059-74.055c-40.898,0-74.056,33.157-74.056,74.051
		c0,27.657,15.177,51.768,37.646,64.479c-7.234,33.273-14.473,66.546-21.712,99.823c38.75,0,77.497,0,116.239,0
		C351.607,386.626,344.376,353.354,337.138,320.08z"/>
</g>
</svg>
