<?xml version="1.0" encoding="utf-8"?>
<!-- Generator: Adobe Illustrator 15.0.0, SVG Export Plug-In . SVG Version: 6.00 Build 0)  -->
<!DOCTYPE svg PUBLIC "-//W3C//DTD SVG 1.1//EN" "http://www.w3.org/Graphics/SVG/1.1/DTD/svg11.dtd">
<svg version="1.1" id="Layer_1" xmlns="http://www.w3.org/2000/svg" xmlns:xlink="http://www.w3.org/1999/xlink" x="0px" y="0px"
	 width="200px" height="50px" viewBox="0 0 200 50" enable-background="new 0 0 200 50" xml:space="preserve">
<g>
	<polygon fill="#E20076" points="1.6,29.801 8.1,29.801 8.1,23.4 1.6,23.4 	"/>
	<path fill="#E20076" d="M17.1,10.2c5.3,0.1,8.4,3.6,8.8,10l1.8-0.3L27.3,8.8H2L1.7,20l1.8,0.3c0.4-6.3,3.5-9.8,8.8-10v23.5
		c0,4.3-0.7,4.999-5.4,4.999v1.801h15.6V38.8c-4.6,0-5.4-0.699-5.4-4.999V10.2L17.1,10.2z"/>
	<polygon fill="#E20076" points="21.2,29.801 27.5,29.801 27.5,23.4 21.2,23.4 	"/>
	<polygon fill="#E20076" points="40.5,29.801 46.899,29.801 46.899,23.4 40.5,23.4 	"/>
	<polygon fill="#E20076" points="59.7,29.801 66.2,29.801 66.2,23.4 59.7,23.4 	"/>
	<path fill="#E20076" d="M83.899,40.601L92,12.7v21.8c0,2.4-0.1,3.2-0.7,3.8c-0.4,0.4-1.3,0.7-2.4,0.7h-0.4v1.5H100V39h-0.5
		c-1.1,0-2-0.3-2.4-0.7c-0.5-0.5-0.7-1.499-0.7-3.8V15.9c0-2.4,0.1-3.2,0.7-3.8c0.4-0.4,1.3-0.7,2.4-0.7h0.5V9.9h-8.9l-6.7,22.5
		L77.8,10h-8.9v1.5h0.8c2.4,0,2.8,0.5,2.8,3.6v17.8c0,2.8-0.1,3.9-0.5,4.899c-0.4,0.801-1.5,1.5-2.4,1.5h-0.7v1.5h9.4v-1.6h-0.5
		c-1.2,0-2.2-0.5-2.7-1.5c-0.5-0.899-0.7-1.8-0.7-4.899V12.7l8.1,27.9H83.899L83.899,40.601z"/>
	<path fill="#E20076" d="M109.9,18.7c-5.701,0-9.4,4.4-9.4,11.3c0,6.6,3.801,11.2,9.301,11.2c5.699,0,9.299-4.399,9.299-11.2
		C119.1,23.2,115.301,18.7,109.9,18.7L109.9,18.7z M109.801,20.2c1.6,0,3.1,1.1,3.898,2.7c0.701,1.6,1.102,3.8,1.102,7
		c0,6.5-1.602,9.7-4.9,9.7c-3.301,0-4.801-3.2-4.801-9.8c0-3.101,0.301-5.301,1.1-6.9C106.699,21.3,108.199,20.2,109.801,20.2
		L109.801,20.2z"/>
	<path fill="#E20076" d="M126.801,9.6l-6.5,0.3v1.5h0.299c1.9,0,2.301,0.7,2.301,3.6v21c0,2.7-0.1,3.4-0.4,4.601h1.5
		c1.199-1.899,1.5-2.199,1.9-2.199c0.299,0,0.4,0.1,0.799,0.398C129,40.7,129.9,41.101,132,41.101c5,0,8.5-4.699,8.5-11.499
		c0-6.3-3.398-10.7-8.199-10.7c-2.602,0-4.4,1.2-5.4,3.5L126.801,9.6L126.801,9.6z M131.5,20.6c3,0,4.398,3.1,4.398,9.201
		c0,6.299-1.6,9.699-4.6,9.699c-3.4,0-5.102-3.4-5.102-9.6c0-3.1,0.4-5.3,1.301-6.7C128.699,21.6,130.1,20.6,131.5,20.6L131.5,20.6z
		"/>
	<path fill="#E20076" d="M148.9,19.1l-6.801,0.3v1.5h0.5c1.9,0,2.301,0.7,2.301,3.6v10.9c0,3.1-0.4,3.8-2.301,3.8H141.9v1.5h10v-1.5
		h-0.701c-1.898,0-2.299-0.7-2.299-3.8V19.1L148.9,19.1z M146.699,9.7c-1.5,0-2.6,1.1-2.6,2.6c0,1.3,1.201,2.6,2.6,2.6
		c1.5,0,2.602-1.1,2.602-2.6C149.1,10.8,148.1,9.7,146.699,9.7L146.699,9.7z"/>
	<path fill="#E20076" d="M160.6,9.6L153.9,9.9v1.5h0.5c1.9,0,2.299,0.7,2.299,3.6v20.4c0,3.1-0.398,3.8-2.299,3.8h-0.701v1.5h10
		v-1.5H163c-1.9,0-2.301-0.7-2.301-3.8V9.6H160.6z"/>
	<path fill="#E20076" d="M181.9,29.801C181.6,23.1,178.4,18.7,173.4,18.7c-4.9,0-8.4,4.6-8.4,11.101c0,6.899,3.5,11.3,8.801,11.3
		c3.5,0,5.801-1.801,7.801-5.8l-1.301-0.701c-1.602,3.4-3.199,4.7-5.699,4.7c-3.602,0-5.301-2.8-5.301-9.6h12.6V29.801L181.9,29.801
		z M169.4,28.301c0-4.9,1.6-7.801,4.199-7.801s4,3,4,7.801H169.4L169.4,28.301z"/>
	<path fill="#E20076" d="M195.4,21.6c-0.4-0.4-0.5-0.8-0.5-1.3s0.1-0.9,0.5-1.3c0.4-0.4,0.799-0.5,1.299-0.5s0.9,0.1,1.301,0.5
		c0.4,0.4,0.5,0.8,0.5,1.3s0,0.9-0.398,1.3c-0.4,0.4-0.801,0.5-1.301,0.5S195.801,21.8,195.4,21.6z M195.1,18.5
		c-0.4,0.4-0.699,0.9-0.699,1.6c0,0.7,0.299,1.2,0.699,1.6s1.1,0.7,1.6,0.7c0.701,0,1.201-0.3,1.602-0.7
		c0.398-0.4,0.699-1.1,0.699-1.6c0-0.7-0.301-1.2-0.699-1.6c-0.4-0.4-0.9-0.7-1.602-0.7C196,17.8,195.5,18.1,195.1,18.5z
		 M197.1,20.3c0.301-0.1,0.5-0.4,0.5-0.7c0-0.3-0.1-0.4-0.299-0.5c-0.102-0.1-0.4-0.1-0.701-0.1h-0.799v2.6h0.5v-1.3h0.299
		l0.701,0.9h0.5L197.1,20.3z M196.301,19.3h0.299c0.301,0,0.4,0.1,0.4,0.4s-0.102,0.4-0.5,0.4h-0.301L196.301,19.3L196.301,19.3z"/>
	<polygon fill="#E20076" points="187.4,29.801 193.801,29.801 193.801,23.4 187.4,23.4 	"/>
</g>
</svg>
