<?xml version="1.0" encoding="utf-8"?>
<!-- Generator: Adobe Illustrator 19.2.1, SVG Export Plug-In . SVG Version: 6.00 Build 0)  -->
<svg version="1.1" xmlns="http://www.w3.org/2000/svg" xmlns:xlink="http://www.w3.org/1999/xlink" x="0px" y="0px" width="1240px"
	 height="417.6px" viewBox="0 0 1240 417.6" style="enable-background:new 0 0 1240 417.6;" xml:space="preserve">
<style type="text/css">
	.st0{fill:#E30174;}
	.st1{fill:#EEEEEE;}
	.st2{fill:#AD055C;}
</style>
<g id="Layer_2_copy_2">
	<polygon class="st0" points="1240,1.8 1196.7,43.1 1000.3,162.3 927.9,86.4 727.2,199.7 624.8,150.9 453.2,271.9 340.8,197.7 
		111.5,352 68.7,330.8 0,377.8 0,417.6 1240,417.6 	"/>
</g>
<g id="Layer_2_copy">
	<polygon class="st1" points="0,371.5 68.7,324.5 111.5,345.7 340.8,191.2 453.2,265.6 624.8,144.6 727.2,193.3 930.5,78.6 
		1002.5,154.6 1186.3,43 1240,13.8 1240,0 0,0 	"/>
	<g id="Layer_2">
		<polygon class="st2" points="1196.7,55.1 1200.8,75.2 1240,13.8 1166,33.8 1186.3,43 1002.5,154.6 930.5,78.6 727.2,193.3 
			624.8,144.6 453.2,265.6 340.8,191.2 111.5,345.7 68.7,324.5 0,371.5 0,389.8 68.7,342.8 111.5,364 340.8,209.7 453.2,283.9 
			624.8,162.9 727.2,211.7 927.9,98.4 1000.3,174.3 		"/>
	</g>
</g>
</svg>
