<?xml version="1.0" encoding="utf-8"?>
<!-- Generator: Adobe Illustrator 19.2.1, SVG Export Plug-In . SVG Version: 6.00 Build 0)  -->
<svg version="1.1" id="Layer_1" xmlns="http://www.w3.org/2000/svg" xmlns:xlink="http://www.w3.org/1999/xlink" x="0px" y="0px"
	 width="502px" height="294px" viewBox="0 0 502 294" style="enable-background:new 0 0 502 294;" xml:space="preserve">
<style type="text/css">
	.st0{enable-background:new    ;}
	.st1{fill:#E20174;}
</style>
<g class="st0">
	<path class="st1" d="M176.1,25.1h3.6v16.8h-3.6V25.1z"/>
	<path class="st1" d="M182.3,25.1h3.6l5.3,10.8V25.1h3.4v16.8H191l-5.3-10.8v10.8h-3.4V25.1z"/>
	<path class="st1" d="M200.5,28.2h-4.1v-3.1h11.7v3.1H204v13.7h-3.6V28.2H200.5z"/>
	<path class="st1" d="M209.9,25.1h6.4c1.7,0,3,0.4,3.9,1.1c1.1,0.9,1.6,2,1.6,3.6c0,1.3-0.4,2.3-1.1,3.2c-0.3,0.4-0.8,0.7-1.3,1
		c0.7,0.2,1.2,0.7,1.6,1.3c0.3,0.4,0.4,1,0.5,1.7c0.1,0.3,0.1,1.1,0.2,2.5c0.1,0.9,0.2,1.5,0.3,1.8c0.1,0.2,0.2,0.4,0.3,0.6h-3.7
		c-0.1-0.3-0.2-0.6-0.2-1c0-0.2-0.1-0.9-0.2-2.2c-0.1-0.8-0.2-1.5-0.3-1.9c-0.1-0.5-0.3-0.8-0.6-1.1c-0.4-0.4-1-0.5-1.8-0.5h-2.1
		v6.6h-3.6V25.1H209.9z M215.4,32.5c1.1,0,1.9-0.2,2.3-0.7c0.4-0.4,0.5-1,0.5-1.7c0-0.9-0.3-1.5-0.9-1.9c-0.4-0.2-1-0.4-1.8-0.4h-2
		v4.6h1.9V32.5z"/>
	<path class="st1" d="M236,26.9c1.5,1.6,2.2,3.8,2.2,6.6c0,2.4-0.6,4.4-1.7,6c-0.6,0.9-1.4,1.6-2.3,2.1c-1,0.5-2,0.7-3.1,0.7
		c-2.4,0-4.2-1-5.6-2.9c-1.1-1.6-1.6-3.5-1.6-5.9c0-2.8,0.7-5,2.1-6.5c1.3-1.5,3.1-2.3,5.2-2.3C233.1,24.7,234.7,25.4,236,26.9z
		 M228.5,29.3c-0.7,1.1-1,2.5-1,4.1c0,1.7,0.3,3.1,1,4.2c0.3,0.5,0.7,0.9,1.3,1.2c0.4,0.2,0.9,0.3,1.3,0.3c0.5,0,1-0.1,1.4-0.4
		c0.5-0.3,0.8-0.6,1.1-1.1c0.7-1.1,1-2.6,1-4.3c0-1.6-0.3-3-1-4.1c-0.6-1-1.5-1.6-2.6-1.6C230,27.8,229.1,28.3,228.5,29.3z"/>
	<path class="st1" d="M240.2,25.1h5.2c2.3,0,4.1,0.6,5.4,1.8c1.6,1.5,2.4,3.6,2.4,6.6c0,2.8-0.8,4.9-2.3,6.4
		c-0.8,0.9-1.8,1.4-2.8,1.7c-0.8,0.2-1.6,0.3-2.7,0.3h-5.2V25.1z M245.4,38.8c1.3,0,2.2-0.3,2.8-0.9c0.9-1,1.3-2.4,1.3-4.5
		c0-1.7-0.4-3-1.1-4c-0.7-0.8-1.7-1.3-3.1-1.3h-1.5v10.6h1.6V38.8z"/>
	<path class="st1" d="M258.4,25.1v9.8c0,1.6,0.2,2.7,0.7,3.3c0.5,0.7,1.2,1,2.2,1c1.1,0,1.8-0.5,2.2-1.4c0.3-0.6,0.4-1.6,0.4-3V25
		h3.6v9.6c0,1.5-0.1,2.6-0.3,3.4c-0.4,1.4-1.1,2.4-2,3.1c-1,0.7-2.3,1-3.9,1c-2.4,0-4.1-0.8-5.2-2.4c-0.5-0.7-0.8-1.6-0.9-2.6
		c-0.1-0.6-0.2-1.5-0.2-2.6V25h3.4V25.1z"/>
	<path class="st1" d="M282.8,35.3c-0.1,1.8-0.6,3.2-1.5,4.5c-1.2,1.6-2.8,2.4-5,2.4c-2,0-3.6-0.7-4.9-2.1c-1.4-1.7-2.2-3.9-2.2-6.7
		c0-2.7,0.7-4.8,2.1-6.5c1.3-1.5,3-2.3,5-2.3c2.2,0,3.9,0.9,5.1,2.7c0.7,1,1.1,2.1,1.2,3.4H279c-0.1-0.7-0.3-1.2-0.5-1.6
		c-0.5-0.9-1.3-1.4-2.3-1.4c-1.1,0-2,0.5-2.6,1.6s-0.9,2.5-0.9,4.1c0,1.7,0.3,3.1,0.9,4.2c0.6,1,1.4,1.5,2.5,1.5
		c0.9,0,1.7-0.4,2.2-1.2c0.4-0.6,0.6-1.5,0.8-2.6C279.1,35.3,282.8,35.3,282.8,35.3z"/>
	<path class="st1" d="M284.6,25.1h3.6v16.8h-3.6V25.1z"/>
	<path class="st1" d="M290.8,25.1h3.6l5.3,10.8V25.1h3.4v16.8h-3.6l-5.3-10.8v10.8h-3.4V25.1z"/>
	<path class="st1" d="M316.1,41.8V40c-0.5,0.6-0.9,1-1.2,1.3c-0.8,0.7-1.8,1-3,1c-2.1,0-3.7-0.9-5-2.5c-1.2-1.6-1.8-3.7-1.8-6.2
		s0.6-4.5,1.9-6.2c1.3-1.8,3.1-2.7,5.3-2.7c1.9,0,3.4,0.7,4.6,2.1c0.8,0.9,1.3,1.9,1.5,3c0,0.2,0.1,0.5,0.1,0.8H315
		c-0.2-1-0.5-1.7-1-2.1c-0.5-0.5-1.1-0.7-1.8-0.7c-1.1,0-2,0.5-2.6,1.6c-0.6,1-0.9,2.4-0.9,4.1c0,1.8,0.3,3.3,1,4.3
		c0.6,0.9,1.5,1.4,2.6,1.4c1,0,1.8-0.4,2.4-1.3c0.4-0.6,0.7-1.4,0.7-2.4h-3v-2.7h6.3v9.1L316.1,41.8L316.1,41.8z"/>
</g>
<polygon class="st1" points="46.9,57.1 46.9,141.2 28.9,141.2 28.9,72.6 8.5,72.6 8.5,57.1 "/>
<rect x="69.9" y="102.2" class="st1" width="27.8" height="15.1"/>
<rect x="104.6" y="57.1" class="st1" width="17.3" height="84"/>
<rect x="346.3" y="57.1" class="st1" width="18" height="84"/>
<path class="st1" d="M102.7,216.8c4-0.4,6.7-2.4,8.3-6c1.1-2.8,1.8-7.2,1.8-13.4v-43.7h16.1v42.9c0,6.8-0.5,11.8-1.5,15.3
	c-1.7,6.3-4.7,10.9-9.1,14.1c-4,2.8-9.3,4.4-15.6,4.6V216.8z"/>
<rect x="140.7" y="153.7" class="st1" width="16.1" height="75.1"/>
<rect x="262.5" y="153.7" class="st1" width="16.1" height="75.1"/>
<polygon class="st1" points="339.8,228.8 323.3,228.8 347,153.7 361,153.7 "/>
<polygon class="st1" points="395.1,153.7 416.7,201 416.7,228.8 400.5,228.8 400.5,199.5 377.2,153.7 "/>
<path class="st1" d="M11,242h19.3v5.9H17.8v7.4h10.9v5.6H17.8V274H11V242z"/>
<path class="st1" d="M32.2,242h12.3c3.2,0,5.7,0.7,7.5,2.1c2,1.6,3,3.9,3,6.9c0,2.4-0.7,4.5-2.2,6.1c-0.6,0.7-1.4,1.3-2.4,1.8
	c1.3,0.4,2.3,1.2,3,2.4c0.5,0.8,0.8,1.9,1,3.3c0.1,0.5,0.2,2.1,0.4,4.8c0.1,1.7,0.3,2.8,0.5,3.4c0.1,0.3,0.3,0.7,0.6,1.2h-7.1
	c-0.2-0.5-0.3-1.1-0.4-1.8c0-0.4-0.1-1.8-0.3-4.1c-0.1-1.6-0.3-2.8-0.6-3.6c-0.2-0.9-0.6-1.5-1.1-2c-0.7-0.7-1.8-1-3.5-1H39V274
	h-6.9v-32H32.2z M42.8,256.3c2.1,0,3.6-0.4,4.3-1.3c0.7-0.8,1-1.8,1-3.2c0-1.7-0.6-2.9-1.7-3.6c-0.7-0.4-1.8-0.7-3.5-0.7H39v8.8
	H42.8z"/>
<path class="st1" d="M58.4,242h20.4v5.9H65.3v6.8h12.4v5.6H65.3v7.9h13.8v5.9H58.4V242z"/>
<path class="st1" d="M83.7,242h20.4v5.9H90.6v6.8H103v5.6H90.6v7.9h13.8v5.9H83.7V242L83.7,242z"/>
<path class="st1" d="M119.6,264.7c0.2,1.2,0.5,2.2,0.9,2.8c0.8,1.2,2,1.9,3.5,1.9c1.4,0,2.4-0.4,3.2-1.2c0.7-0.7,1-1.6,1-2.7
	c0-1.2-0.5-2.3-1.6-3.1c-0.5-0.4-1.2-0.8-1.9-1.1c-0.2-0.1-1-0.4-2.4-0.9c-2.6-0.9-4.5-1.8-5.7-2.8c-2.4-1.8-3.5-4.2-3.5-7.2
	c0-2.5,0.8-4.7,2.4-6.2c1.8-1.8,4.3-2.7,7.5-2.7c4,0,7,1.4,9,4.1c0.9,1.3,1.5,3,1.8,5h-6.7c-0.2-1.2-0.6-2.1-1.2-2.7
	c-0.7-0.7-1.7-1-3-1c-1.1,0-1.9,0.2-2.5,0.8c-0.7,0.6-1.1,1.4-1.1,2.4c0,1.2,0.5,2.2,1.6,2.9c0.8,0.5,2.3,1.2,4.7,2
	c2.7,0.9,4.8,1.9,6.2,3.1c2.2,1.7,3.3,4,3.3,6.9s-1,5.3-3,7.1c-2.1,1.9-4.8,2.8-8.3,2.8c-4.1,0-7.2-1.5-9.3-4.7
	c-1.1-1.6-1.7-3.4-1.9-5.5L119.6,264.7L119.6,264.7z"/>
<path class="st1" d="M144,247.9h-7.8V242h22.4v5.9h-7.8V274H144V247.9z"/>
<path class="st1" d="M166.9,242v18.7c0,3,0.4,5.2,1.3,6.3c0.9,1.3,2.3,1.9,4.1,1.9c2.1,0,3.4-0.9,4.2-2.6c0.5-1.2,0.8-3.1,0.8-5.7
	V242h6.9v18.3c0,2.9-0.2,5-0.6,6.5c-0.7,2.7-2,4.7-3.9,6s-4.4,2-7.4,2c-4.6,0-7.9-1.5-9.9-4.7c-0.9-1.3-1.4-3-1.7-4.9
	c-0.2-1.2-0.3-2.9-0.3-5V242H166.9z"/>
<path class="st1" d="M188.2,242h19.3v5.9H195v7.4h10.9v5.6H195V274h-6.8V242z"/>
<path class="st1" d="M210.2,242h19.3v5.9h-12.6v7.4h10.9v5.6h-10.9V274h-6.8v-32H210.2z"/>
<path class="st1" d="M236,274h-7v-6.9h7.1v6.9H236z"/>
<path class="st1" d="M246.3,242h20.4v5.9h-13.5v6.8h12.4v5.6h-12.4v7.9H267v5.9h-20.7V242z"/>
<path class="st1" d="M276.8,274l-8.7-32h7.2l5.5,23.1l5.5-23.1h7l-8.9,32H276.8z"/>
<path class="st1" d="M294.5,242h20.4v5.9h-13.5v6.8h12.4v5.6h-12.4v7.9h13.8v5.9h-20.7L294.5,242L294.5,242z"/>
<path class="st1" d="M318.7,242H331c3.2,0,5.7,0.7,7.5,2.1c2,1.6,3,3.9,3,6.9c0,2.4-0.7,4.5-2.2,6.1c-0.6,0.7-1.4,1.3-2.4,1.8
	c1.3,0.4,2.3,1.2,3,2.4c0.5,0.8,0.8,1.9,1,3.3c0.1,0.5,0.2,2.1,0.4,4.8c0.1,1.7,0.3,2.8,0.5,3.4c0.1,0.3,0.3,0.7,0.6,1.2h-7.1
	c-0.2-0.5-0.3-1.1-0.4-1.8c0-0.4-0.1-1.8-0.3-4.1c-0.1-1.6-0.3-2.8-0.6-3.6c-0.2-0.9-0.6-1.5-1.1-2c-0.7-0.7-1.8-1-3.5-1h-3.9V274
	h-6.9v-32H318.7z M329.3,256.3c2.1,0,3.6-0.4,4.3-1.3c0.7-0.8,1-1.8,1-3.2c0-1.7-0.6-2.9-1.7-3.6c-0.7-0.4-1.8-0.7-3.5-0.7h-3.9v8.8
	H329.3z"/>
<path class="st1" d="M350.6,242l5.8,12.7l5.8-12.7h7.5l-9.9,19.6V274h-6.9v-12.5L343,242H350.6z"/>
<path class="st1" d="M382.9,242l3.8,22l4.1-22h6.5l4.1,22l3.8-22h6.9l-7.2,32H398l-4-21.7l-4,21.7h-7l-7.1-32H382.9z"/>
<path class="st1" d="M413.4,242h20.4v5.9h-13.5v6.8h12.4v5.6h-12.4v7.9h13.8v5.9h-20.7L413.4,242L413.4,242z"/>
<path class="st1" d="M437.7,242h20.4v5.9h-13.5v6.8H457v5.6h-12.4v7.9h13.8v5.9h-20.7L437.7,242L437.7,242z"/>
<path class="st1" d="M461.6,242h6.9v12.1L478,242h7.7l-10.9,13.2l11.8,18.8h-7.7l-8.4-13.5l-1.9,2.4V274h-6.9v-32H461.6z"/>
<path class="st1" d="M495.8,274h-7.1v-6.9h7.1V274z"/>
<rect x="50.3" y="57.1" class="st1" width="17" height="15.5"/>
<rect x="165.5" y="57.1" class="st1" width="17.3" height="84"/>
<polygon class="st1" points="162.7,57.1 162.7,94.2 151.1,141.2 136.5,141.2 124.4,93.5 124.4,57.1 129.1,57.1 144,114.7 
	158.6,57.1 "/>
<path class="st1" d="M229.7,143.2c5.5-0.1,10.5-1.3,15.2-3.7s8.6-5.9,11.7-10.5c5.5-8.1,8.3-18,8.3-29.9c0-13.9-3.7-24.9-11-33.1
	c-6.4-7.2-14.5-10.8-24.2-10.8h-0.1v15.4c5.3,0.2,9.5,2.8,12.4,7.8c3.3,5.5,4.8,12.5,4.8,20.7c0,8.6-1.8,15.8-5.2,21.4
	c-1.4,2.3-3.2,4-5.4,5.4c-2,1.2-4.3,1.8-6.6,1.9C229.7,127.8,229.7,143.2,229.7,143.2z"/>
<path class="st1" d="M226.7,127.6c-1.4-0.3-2.7-0.7-4-1.4c-2.9-1.5-5-3.7-6.6-6.2c-3.1-5.5-4.8-12.6-4.8-20.9c0-8.1,1.6-15,4.9-20.7
	c2.6-4.4,6.1-7,10.4-7.6V55.3c-9.2,0.7-16.9,4.4-22.9,11.2c-6.9,7.9-10.5,18.9-10.5,32.8c0,11.8,2.6,21.5,8.1,29.4
	c6.2,9,14.7,13.8,25.3,14.4L226.7,127.6z"/>
<path class="st1" d="M294.7,141.2h13.5c7.2,0,13-1.4,17.3-4.3c6.9-4.5,10.3-11.3,10.3-20.4c0-10.5-5-17.4-15.2-20.8
	c7.9-3.8,12-9.7,12-18c0-3.9-1-7.6-3-10.8c-2.3-3.7-5.7-6.3-10.3-7.9c-3.3-1.1-7.8-1.8-13.7-1.8h-10.7v14.4h6.8
	c4.2,0,7.1,0.5,8.7,1.4c3,1.6,4.5,4.4,4.5,8.2c0,3.5-1.3,6.2-3.8,8.1c-1.9,1.4-5,2-9.5,2h-6.8v12.6h7.7c4.8,0,8.1,0.6,10.2,1.6
	c3.4,1.9,5.2,5.2,5.2,9.8c0,4-1.3,7.1-3.9,9.1c-2.1,1.8-5.7,2.5-10.7,2.5h-8.4C294.7,126.8,294.7,141.2,294.7,141.2z"/>
<polygon class="st1" points="291.4,57.1 291.4,141.2 275.4,141.2 275.4,57.1 "/>
<polygon class="st1" points="395.8,125.5 395.8,141.2 428.8,141.2 428.8,125.5 "/>
<polygon class="st1" points="393.3,141.2 393.3,57.1 377.8,57.1 377.8,141.2 "/>
<polygon class="st1" points="454,57.1 454,141.2 438.9,141.2 438.9,57.1 "/>
<polygon class="st1" points="456.9,141.2 456.9,125.8 493.2,125.8 493.2,141.2 "/>
<polygon class="st1" points="456.9,105.1 456.9,90.5 489.4,90.5 489.4,105.1 "/>
<polygon class="st1" points="456.9,72.6 456.9,57.1 492.5,57.1 492.5,72.6 "/>
<polygon class="st1" points="46.3,153.7 61.1,153.7 61.1,167.5 46.3,167.5 "/>
<polygon class="st1" points="42.9,228.8 26.8,228.8 26.8,167.5 8.5,167.5 8.5,153.7 42.9,153.7 "/>
<polygon class="st1" points="160.2,167.5 160.2,153.7 160.2,153.7 188.6,153.7 188.6,167.5 "/>
<rect x="160.2" y="183.5" class="st1" width="25.7" height="13.1"/>
<polygon class="st1" points="160.2,228.8 160.2,215 189.3,215 189.3,228.8 "/>
<path class="st1" d="M99.3,230.6c-9.9-0.4-17.1-4-21.5-10.9c-2-3.2-3.4-7-4.1-11.5c-0.5-2.8-0.7-6.8-0.7-11.8v-42.7h15.4v43.8
	c0,7.1,1,12.2,3,14.9c1.7,2.6,4.3,4,7.8,4.4L99.3,230.6z"/>
<path class="st1" d="M224.7,182.1v15.3c0,0,2.4,0.9,2.8,1c1.7,0.8,3.3,1.6,4.4,2.6c2.5,2,3.7,4.5,3.7,7.3c0,2.6-0.8,4.7-2.4,6.4
	c-1.7,1.9-4.2,2.9-7.4,2.9c-0.4,0-0.7,0-1.1,0v12.9c0,0,0.6,0,0.9,0c8.1,0,14.6-2.1,19.5-6.5c4.7-4.3,7.1-9.8,7.1-16.7
	c0-6.8-2.6-12.3-7.7-16.2c-3.4-2.8-8.3-5.2-14.6-7.2C227.8,183.3,226.1,182.7,224.7,182.1z"/>
<path class="st1" d="M224.7,164.9c2.5,0.2,4.5,0.8,5.9,2.2c1.5,1.4,2.4,3.5,2.8,6.3h15.7c-0.7-4.8-2.1-8.8-4.3-11.8
	c-4.6-6.2-11.2-9.4-20.1-9.7L224.7,164.9z"/>
<path class="st1" d="M221.3,152c-6.3,0.4-11.5,2.5-15.2,6.2c-3.8,3.7-5.7,8.7-5.7,14.6c0,7.1,2.7,12.7,8.2,17
	c2.6,2.2,6.9,4.3,12.7,6.3l0,0v-15.6c0,0-1.8-0.9-2.4-1.3c-2.5-1.8-3.7-4.1-3.7-6.9c0-2.5,0.8-4.4,2.5-5.7c0.9-0.8,2.1-1.4,3.6-1.6
	L221.3,152z"/>
<path class="st1" d="M221.3,216.7v13.6c-7.6-0.9-13.5-4.5-17.5-10.7c-2.5-3.7-3.9-8-4.5-12.8h16.2c0.5,2.9,1.1,5.2,2,6.5
	C218.5,214.8,219.8,216,221.3,216.7z"/>
<path class="st1" d="M282,228.8h3.6c4.6,0,8.6-0.5,11.9-1.2c4.8-1.2,9-3.6,12.7-7.4c6.8-6.9,10.1-16.4,10.1-28.8
	c0-13.1-3.6-22.9-10.7-29.4c-5.9-5.4-13.9-8.2-24.1-8.2h-3.6v13.9h3.4c6.3,0,10.8,1.9,13.9,5.6c3.4,4.4,5.1,10.2,5.1,17.8
	c0,9.1-2,15.8-6,20c-2.6,2.7-6.8,4.1-12.5,4.1H282C282,215,282,228.8,282,228.8"/>
<polygon class="st1" points="347.7,212 363.9,154.6 387.4,228.8 370.6,228.8 365.8,212 "/>
<polygon class="st1" points="417.9,197.2 410.2,180.1 422.2,153.7 439.9,153.7 "/>
<path class="st1" d="M467.1,182.1v15.3c0,0,2.4,0.9,2.8,1c1.7,0.8,3.3,1.6,4.4,2.6c2.5,2,3.7,4.5,3.7,7.3c0,2.6-0.8,4.7-2.4,6.4
	c-1.7,1.9-4.2,2.9-7.4,2.9c-0.4,0-0.7,0-1.1,0v12.9c0,0,0.6,0,0.9,0c8.1,0,14.6-2.1,19.5-6.5c4.7-4.3,7.1-9.8,7.1-16.7
	c0-6.8-2.6-12.3-7.7-16.2c-3.4-2.8-8.3-5.2-14.6-7.2C470.3,183.3,468.6,182.6,467.1,182.1z"/>
<path class="st1" d="M467.1,164.9c2.5,0.2,4.5,0.8,5.9,2.2c1.5,1.4,2.4,3.5,2.8,6.3h15.7c-0.7-4.8-2.1-8.8-4.3-11.8
	c-4.6-6.2-11.2-9.4-20.1-9.7V164.9z"/>
<path class="st1" d="M463.7,152c-6.3,0.4-11.5,2.5-15.2,6.2c-3.8,3.7-5.7,8.7-5.7,14.6c0,7.1,2.7,12.7,8.2,17
	c2.6,2.2,6.9,4.3,12.7,6.3l0,0v-15.6c0,0-1.8-0.9-2.4-1.3c-2.5-1.8-3.7-4.1-3.7-6.9c0-2.5,0.8-4.4,2.5-5.7c0.9-0.8,2.1-1.4,3.6-1.6
	V152z"/>
<path class="st1" d="M463.7,216.7v13.6c-7.6-0.9-13.5-4.5-17.5-10.7c-2.5-3.7-3.9-8-4.5-12.8H458c0.5,2.9,1.1,5.2,2,6.5
	C461,214.8,462.3,216,463.7,216.7z"/>
</svg>
